<svg width="35" height="42" viewBox="0 0 35 42" fill="none" xmlns="http://www.w3.org/2000/svg">
<path d="M8.84643 17.4328C8.03938 17.11 6.67637 14.8144 6.35355 13.4514C5.83345 11.353 6.24594 10.5639 6.5867 10.546C6.92745 10.5281 7.30407 13.0209 7.8421 14.0073C8.38013 14.9937 8.84643 15.998 9.61761 16.2133C9.85075 16.285 9.18718 17.5763 8.84643 17.4328Z" fill="#BC517A"/>
<path d="M9.31272 16.9666C8.48774 16.6438 6.94538 14.4379 6.56876 13.0749C6.19214 11.7118 6.24594 11.1917 6.33562 10.7075C6.0666 11.0483 5.86932 11.945 6.24594 13.5591C6.62257 15.1732 8.03938 17.1101 8.84643 17.4329C9.00784 17.5046 9.22305 17.2536 9.40239 16.9666H9.31272Z" fill="#9E325E"/>
<path d="M10.1915 16.536C10.0122 16.1594 9.4562 16.0338 8.95404 16.2849C8.45188 16.536 8.2008 17.0202 8.38014 17.3969C8.55948 17.7735 9.09751 17.8811 9.59968 17.6479C10.1018 17.4148 10.3709 16.9126 10.1915 16.536Z" fill="#FF6927"/>
<path d="M9.50997 16.2312C10.335 16.1415 13.4555 15.998 13.6528 15.998C13.8501 15.998 14.1729 16.1057 13.7604 16.3209C13.3479 16.5361 10.0121 17.5404 9.31269 17.3431C8.61325 17.1458 9.06161 16.3029 9.50997 16.2312Z" fill="#FFB882"/>
<path d="M13.868 16.0342C12.8099 16.3929 10.1377 17.164 9.54584 16.9668C9.22302 16.8771 9.16922 16.626 9.25889 16.357C8.9002 16.6439 8.61325 17.3613 9.16922 17.5227C9.72518 17.6841 13.3659 16.5543 13.7604 16.3211C14.155 16.088 13.9936 16.088 13.868 16.0342Z" fill="#FF9566"/>
<path d="M24.3238 10.9587C24.0727 10.2234 23.4629 10.2593 23.427 10.2951C23.5798 10.1575 23.6783 9.96967 23.7046 9.76571C23.7309 9.56175 23.6834 9.35511 23.5705 9.18319C23.2118 8.48375 22.5124 9.00384 22.5124 9.00384C22.4946 8.85411 22.4369 8.7119 22.3454 8.59203C22.254 8.47217 22.132 8.37903 21.9923 8.32234C21.8687 8.27516 21.7337 8.26706 21.6054 8.29914C21.4771 8.33121 21.3617 8.40191 21.2749 8.50168C20.9031 8.25954 20.462 8.14613 20.0195 8.17886C19.8038 8.18819 19.6004 8.28168 19.4529 8.43926C19.3054 8.59685 19.2255 8.80597 19.2304 9.02178C19.2304 9.02178 17.2038 8.64516 16.594 10.4027C16.2533 11.3891 17.3473 11.9989 17.3473 11.9989C16.9348 11.8733 16.0919 12.9853 16.8631 13.4516C16.1277 14.0434 17.15 15.2988 17.6342 15.1015C17.3832 15.5499 18.7282 17.0564 19.7326 15.9624L22.8711 13.2722C24.3955 12.7521 24.5748 11.7478 24.3238 10.9587Z" fill="#BCA696"/>
<path d="M22.8352 12.0704C22.702 11.8108 22.6763 11.5092 22.7635 11.2307C22.8508 10.9522 23.044 10.7192 23.3015 10.5819C23.5115 10.4734 23.747 10.4238 23.983 10.4384C23.9047 10.3784 23.8151 10.3348 23.7196 10.3102C23.6241 10.2855 23.5246 10.2803 23.427 10.2949C23.5761 10.1669 23.672 9.98781 23.6961 9.79277C23.2656 10.6716 21.7771 11.1737 20.1271 10.9406C18.8179 10.7612 17.7418 10.1515 17.2755 9.43408C16.9562 9.68108 16.7187 10.0186 16.594 10.4025C16.2533 11.3889 17.3473 11.9987 17.3473 11.9987C16.9348 11.8732 16.0919 12.9851 16.8631 13.4514C16.1277 14.0432 17.15 15.2986 17.6342 15.1013C17.3832 15.5497 18.7282 17.0562 19.7326 15.9622L22.8711 13.272C23.2818 13.1466 23.6567 12.9253 23.9651 12.6264C23.7422 12.6641 23.5131 12.6307 23.3103 12.5309C23.1075 12.4312 22.9413 12.27 22.8352 12.0704Z" fill="#9E8574"/>
<path d="M21.4364 17.6298C21.9923 18.7597 21.4722 21.9341 23.1939 22.1134C24.4493 22.221 24.1624 23.4585 23.4988 23.602C22.8352 23.7454 21.6874 23.584 20.9163 22.2928C19.1049 19.3157 21.0418 16.8407 21.4364 17.6298Z" fill="#FFC440"/>
<path d="M23.983 22.9748C23.3194 23.1004 22.3689 22.8672 21.5977 21.5939C20.5575 19.8901 21.5439 17.5407 20.988 17.5766C20.3603 17.9891 19.5173 19.9977 20.9162 22.2933C21.6874 23.5846 22.8173 23.7281 23.4988 23.6025C23.647 23.5659 23.7802 23.4841 23.8798 23.3684C23.9794 23.2527 24.0406 23.1089 24.0547 22.9569L23.983 22.9748Z" fill="#FFB133"/>
<path d="M30.6726 34.2554L30.1345 34.9727L31.4079 37.8243L31.7127 37.5553L30.6726 34.2554Z" fill="#A389CC"/>
<path d="M28.1617 34.8115L27.5161 35.493L28.8253 38.1115L29.1481 37.9321L28.1617 34.8115Z" fill="#A389CC"/>
<path d="M27.1933 26.6333H27.0139V40.2419H27.1933V26.6333Z" fill="#4C3E48"/>
<path d="M28.1438 24.4453H27.6954V28.7836H28.1438V24.4453Z" fill="#C6A87F"/>
<path d="M28.8253 24.4992C28.8253 24.2756 28.7365 24.0612 28.5784 23.9031C28.4203 23.7451 28.2059 23.6562 27.9824 23.6562H24.1803C23.9567 23.6563 23.7423 23.7451 23.5843 23.9031C23.4262 24.0612 23.3374 24.2756 23.3374 24.4992H28.8253Z" fill="#E0CCAF"/>
<path d="M27.9106 24.4992C27.9106 24.0329 27.6057 23.6562 27.2112 23.6562H24.0368C23.6423 23.6562 23.3374 24.0329 23.3374 24.4992H27.9106Z" fill="#C6A87F"/>
<path d="M22.539 28.7121L22.4121 28.8389L31.7178 38.1446L31.8446 38.0177L22.539 28.7121Z" fill="#4C3E48"/>
<path d="M22.5303 38.147L22.4048 38.0215L31.6948 28.7314L31.8383 28.857L22.5303 38.147Z" fill="#4C3E48"/>
<path d="M27.2291 40.873C23.9113 40.873 21.2032 37.5731 21.2032 33.502C21.2032 29.4309 23.9113 26.1489 27.2291 26.1489C30.547 26.1489 33.273 29.4488 33.273 33.502C33.273 37.5552 30.5649 40.873 27.2291 40.873ZM27.2291 26.9918C24.3238 26.9918 21.9564 29.9151 21.9564 33.502C21.9564 37.0889 24.3238 40.0301 27.2291 40.0301C30.1345 40.0301 32.5198 37.1068 32.5198 33.502C32.5198 29.8972 30.1524 26.9918 27.2291 26.9918Z" fill="#4C3E48"/>
<path d="M27.2291 41.3037C23.714 41.3037 20.8445 37.8065 20.8445 33.5023C20.8445 29.198 23.714 25.7188 27.2291 25.7188C30.7443 25.7188 33.6138 29.216 33.6138 33.5023C33.6138 37.7886 30.7622 41.3037 27.2291 41.3037ZM27.2291 26.6155C24.1623 26.6155 21.6515 29.7002 21.6515 33.5023C21.6515 37.3043 24.1623 40.407 27.2291 40.407C30.2959 40.407 32.8246 37.3043 32.8246 33.5023C32.8246 29.7002 30.3138 26.6155 27.2291 26.6155Z" fill="#966B8D"/>
<path d="M32.3404 36.2998C31.4796 38.7209 29.5247 40.4067 27.2291 40.4067C24.1623 40.4067 21.6515 37.3041 21.6515 33.502C21.6515 30.776 22.9428 28.3907 24.8259 27.2788C24.9121 26.8964 25.0199 26.5192 25.1487 26.1489C22.6559 27.2071 20.8445 30.0945 20.8445 33.502C20.8445 37.8063 23.714 41.3035 27.2291 41.3035C30.0986 41.3035 32.5198 38.9899 33.3268 35.8155C33.0186 36.0159 32.6874 36.1784 32.3404 36.2998Z" fill="#7C5274"/>
<path d="M25.5792 33.251H19.069L19.1587 33.6814H25.5792V33.251Z" fill="#4C3E48"/>
<path d="M14.0474 15.9083C14.1191 15.9262 14.3702 16.1055 14.3702 16.1952C14.3702 16.2849 14.0833 16.7153 13.9577 16.6615C13.8322 16.6077 13.6349 16.249 13.3121 16.1414C12.9893 16.0338 13.9757 15.8903 14.0474 15.9083Z" fill="#FFB882"/>
<path d="M14.1012 16.0342C14.3164 16.088 14.7468 16.4467 14.6392 16.5005C14.5316 16.5543 14.1191 16.2494 14.1191 16.2494L14.1012 16.0342Z" fill="#FFB882"/>
<path d="M14.1012 16.249C14.2805 16.3566 14.4958 16.5718 14.424 16.6077C14.3523 16.6436 14.0474 16.5001 14.0474 16.5001L14.1012 16.249Z" fill="#FFB882"/>
<path d="M13.9577 16.2852C14.0474 16.4466 14.2447 16.6438 14.155 16.7156C14.0653 16.7873 13.8142 16.5362 13.8142 16.5362L13.9577 16.2852Z" fill="#FFB882"/>
<path d="M21.5081 29.0722L16.0022 16.0697C15.9678 16.0034 15.9115 15.9511 15.8428 15.9216C15.7741 15.8922 15.6974 15.8875 15.6256 15.9083L13.2045 16.9127C12.7382 17.1099 12.4333 16.7154 12.792 16.5181L15.3566 15.4779C15.5749 15.3882 15.8198 15.3882 16.0381 15.4779C16.2449 15.5626 16.4116 15.723 16.5044 15.9263L22.0102 28.8749L21.5081 29.0722Z" fill="#706A77"/>
<path d="M18.4054 17.5584L12.3974 17.4688L16.1636 29.9511H22.7635L18.4054 17.5584Z" fill="#4A4256"/>
<path d="M16.5044 17.5763L12.5768 17.5225L16.2354 29.5923H16.594C14.3881 21.7191 14.8185 18.2757 16.5044 17.5763Z" fill="#5B5366"/>
<path d="M14.4599 16.4822C14.3881 16.4284 14.2626 16.2669 14.2805 16.2131C14.2985 16.1593 14.6034 16.3925 14.6034 16.3925L14.4599 16.4822Z" fill="#FFB882"/>
<path d="M14.2267 16.5722C14.155 16.5363 14.0295 16.3749 14.0474 16.3032C14.0653 16.2314 14.3702 16.5005 14.3702 16.5005L14.2267 16.5722Z" fill="#FFB882"/>
<path d="M14.0115 16.6796C13.9398 16.6437 13.8142 16.4823 13.8501 16.4285C13.886 16.3747 14.1729 16.6078 14.1729 16.6078L14.0115 16.6796Z" fill="#FFB882"/>
<path d="M14.4419 16.016C14.424 16.1057 14.2626 16.3209 14.2088 16.3029C14.155 16.285 14.2626 15.998 14.2626 15.998L14.4419 16.016Z" fill="#FFB882"/>
<path d="M13.9756 15.9081C14.1191 15.8901 14.424 15.9619 14.4419 16.0157C14.4599 16.0695 13.7963 16.0874 13.7963 16.0874L13.9756 15.9081Z" fill="#FFB882"/>
<path d="M10.8192 15.7649C10.9806 15.7291 11.6263 15.7649 11.6442 15.8187C11.6621 15.8725 10.891 15.9622 10.891 15.9622L10.8192 15.7649Z" fill="#FFB882"/>
<path d="M15.9126 30.0586L11.8415 16.5002C11.8208 16.4328 11.7762 16.3753 11.7159 16.3388C11.6453 16.3205 11.5713 16.3205 11.5007 16.3388L8.97196 17.4148C8.68501 17.5224 8.5236 16.9844 8.81055 16.8768L11.2138 15.8366C11.3186 15.7917 11.4315 15.7686 11.5455 15.7686C11.6596 15.7686 11.7725 15.7917 11.8773 15.8366C11.9799 15.8813 12.0715 15.9477 12.1459 16.0313C12.2202 16.1149 12.2754 16.2137 12.3077 16.3208L16.4327 29.8254L15.9126 30.0586Z" fill="#4A4256"/>
<path d="M26.9601 29.144L26.3503 29.6103L31.5334 38.7927L31.7307 38.6851L26.9601 29.144Z" fill="#705469"/>
<path d="M24.001 29.7539L23.3912 30.2202L28.5742 39.4205L28.7715 39.295L24.001 29.7539Z" fill="#705469"/>
<path d="M33.9187 40.3888C33.9187 39.9225 33.6676 39.5459 33.3448 39.5459C33.0219 39.5459 32.7529 39.9225 32.7529 40.3888C32.7529 40.8551 33.004 41.2497 33.3448 41.2497C33.6855 41.2497 33.9187 40.8551 33.9187 40.3888Z" fill="#4C3E48"/>
<path d="M29.2199 40.3888C29.2199 39.9225 28.9508 39.5459 28.628 39.5459C28.3052 39.5459 28.0362 39.9225 28.0362 40.3888C28.0362 40.8551 28.3052 41.2497 28.628 41.2497C28.9508 41.2497 29.2199 40.8551 29.2199 40.3888Z" fill="#4C3E48"/>
<path d="M28.8253 40.3889C28.8253 40.1199 28.6639 39.8867 28.4666 39.8867C28.2693 39.8867 28.1259 40.1199 28.1259 40.3889C28.1259 40.6579 28.2873 40.891 28.4666 40.891C28.646 40.891 28.8253 40.6758 28.8253 40.3889Z" fill="#B2AA87"/>
<path d="M33.2013 40.891C33.3895 40.891 33.542 40.6662 33.542 40.3889C33.542 40.1115 33.3895 39.8867 33.2013 39.8867C33.0131 39.8867 32.8605 40.1115 32.8605 40.3889C32.8605 40.6662 33.0131 40.891 33.2013 40.891Z" fill="#B2AA87"/>
<path d="M31.2644 38.6312L33.8469 38.2008C33.8469 38.2008 32.0535 37.34 31.5513 37.2682C31.0492 37.1965 31.2644 38.6312 31.2644 38.6312Z" fill="#F2DEB6"/>
<path d="M6.83777 8.30423C6.98124 10.3846 4.86499 10.7074 3.46611 10.5281C3.46611 10.5281 2.19277 11.5145 0.668345 9.79278C-0.856076 8.07108 0.704213 5.79342 0.704213 5.79342C0.704213 5.79342 0.166182 5.48853 0.166182 4.9505C0.166003 4.79735 0.196004 4.64566 0.254472 4.50411C0.31294 4.36255 0.398729 4.23391 0.506935 4.12552C0.506935 4.12552 0.327592 2.78044 0.973229 2.04513C1.61887 1.30983 2.58732 1.59677 2.58732 1.59677C2.58732 1.59677 2.80253 0.0364848 4.38076 0.000616057C5.95898 -0.0352527 6.56875 1.5071 6.56875 1.5071C6.87668 1.39525 7.2141 1.39501 7.52218 1.50645C7.83026 1.61788 8.08946 1.83391 8.25458 2.11687C9.16923 3.58749 7.87796 5.05811 7.87796 5.05811C7.87796 5.05811 8.68501 5.68581 8.20078 7.12056C7.71655 8.55531 6.83777 8.30423 6.83777 8.30423Z" fill="#843126"/>
<path d="M7.87796 5.05821C8.17386 4.68899 8.38783 4.26105 8.50566 3.8028C8.0573 4.75332 6.87363 5.45276 6.44321 3.76693C6.01278 2.0811 2.8922 3.10336 2.8922 1.48927C2.89317 1.19645 2.94162 0.905724 3.03568 0.628418C2.80594 0.907633 2.65158 1.24105 2.58732 1.59687C2.58732 1.59687 1.61886 1.29199 0.973225 2.04523C0.327587 2.79848 0.506931 4.12562 0.506931 4.12562C0.398724 4.234 0.312936 4.36265 0.254468 4.50421C0.196 4.64576 0.165999 4.79745 0.166178 4.9506C0.166178 5.48863 0.704209 5.79352 0.704209 5.79352C0.704209 5.79352 -0.838146 8.05325 0.66834 9.79288C2.17483 11.5325 3.4661 10.5282 3.4661 10.5282C4.86498 10.7075 6.98124 10.3847 6.83776 8.30433C6.83776 8.30433 7.77035 8.35813 8.20077 7.12066C8.6312 5.88319 7.87796 5.05821 7.87796 5.05821Z" fill="#6D211B"/>
<path d="M6.83777 8.68062C6.44321 6.90512 4.59597 4.19703 4.38076 5.57798C3.80686 8.98551 5.15194 8.89583 0.740082 9.86429C2.22863 11.4784 3.46611 10.5279 3.46611 10.5279C4.77531 10.6893 6.71223 10.4203 6.83777 8.68062Z" fill="#591916"/>
<path d="M3.60959 22.7052C4.98463 25.7754 6.6417 28.7113 8.55947 31.4751L13.0251 40.8189L13.2045 40.7293C13.2045 40.7293 10.2632 30.5963 10.2094 30.2735C10.1556 29.9507 7.42961 22.3107 7.30407 21.2884C7.17853 20.2661 3.60959 22.7052 3.60959 22.7052Z" fill="#724C4C"/>
<path d="M9.31272 30.6502C7.70327 27.7968 6.27758 24.8436 5.04434 21.8086C4.27316 22.239 3.60959 22.7053 3.60959 22.7053C4.98463 25.7755 6.6417 28.7114 8.55947 31.4752L13.0251 40.819L13.2045 40.7293L13.1148 40.4783L9.31272 30.6502Z" fill="#5B3B3B"/>
<path d="M7.16058 21.4681L3.08948 19.1904C3.08948 19.1904 2.30037 20.679 2.13896 22.2393C1.97755 23.7996 2.40798 26.5794 3.80686 31.2244L1.83408 40.9986L2.01342 41.0345L5.81551 31.5831C5.90518 31.3679 5.81551 24.768 5.81551 24.768L6.46114 24.3735L7.16058 21.4681Z" fill="#724C4C"/>
<path d="M1.88788 41.0166L4.20141 31.0989C4.20141 31.0989 2.19276 24.9653 2.99981 22.2931C4.73944 22.4007 6.03072 22.3289 7.46547 21.9165L7.30406 21.217L3.08948 19.1904C3.08948 19.1904 2.06722 20.6431 1.90581 22.2213C1.7444 23.7996 2.2107 26.5435 3.59164 31.2065L1.83408 40.9986L1.88788 41.0166Z" fill="#5B3B3B"/>
<path d="M4.41663 24.2658L5.36715 25.1625L5.85138 30.3814C5.86931 28.3728 5.81551 24.8576 5.81551 24.8576L6.29973 24.6424L6.67636 24.1582C5.79757 24.5348 5.25954 24.6066 4.41663 24.2658Z" fill="#5B3B3B"/>
<path d="M1.97754 21.0199C2.78459 22.1139 5.54648 22.0063 7.51926 21.6118C7.51926 21.6118 5.90517 16.7874 7.53719 15.3886C7.53719 15.3886 3.25088 12.0348 3.50196 14.0973C4.05793 18.6885 1.97754 21.0199 1.97754 21.0199Z" fill="#BC517A"/>
<path d="M7.53719 15.3886C7.53719 15.3886 3.25088 12.0348 3.50196 14.0973C4.05793 18.6885 1.97754 21.0199 1.97754 21.0199C2.30036 21.4862 2.98186 21.7194 3.78891 21.827V21.7911C3.78891 20.0694 4.97258 18.1325 5.77962 18.1325C6.58667 18.1325 7.03503 20.1591 7.23231 21.6656L7.51926 21.6118C7.51926 21.6118 5.90517 16.7874 7.53719 15.3886Z" fill="#9E325E"/>
<path d="M3.19711 18.545C4.14763 17.5586 5.3313 16.9847 6.28182 17.3075C6.48241 17.366 6.66663 17.4704 6.81986 17.6124C6.81986 16.6978 6.9992 15.8548 7.53723 15.3886C7.53723 15.3886 3.25092 12.0348 3.502 14.0973C3.69823 15.5853 3.59456 17.0976 3.19711 18.545Z" fill="#892251"/>
<path d="M3.5558 10.7612C3.07157 11.7655 4.93674 16.0698 5.16989 16.2671C5.40304 16.4643 8.50568 16.2491 8.68503 15.747C8.86437 15.2448 6.98126 10.6177 6.67638 10.3667C6.37149 10.1156 4.00416 9.84656 3.5558 10.7612Z" fill="#BC517A"/>
<path d="M3.89651 10.4026L6.21005 11.8373L6.29972 10.2412C5.68995 10.0977 4.52422 10.0439 3.89651 10.4026Z" fill="#FFEECC"/>
<path d="M5.77963 16.0518C5.54649 15.8366 4.23728 11.8014 3.60957 11.353C3.12535 12.3753 4.93672 16.0698 5.16987 16.267C5.40301 16.4643 8.02143 16.285 8.57739 15.8725C7.60894 16.1236 5.94104 16.1953 5.77963 16.0518Z" fill="#9E325E"/>
<path d="M5.74376 17.648C4.97258 17.379 3.55577 15.2986 3.25089 13.9535C2.76666 11.8731 3.34056 10.7432 3.68131 10.7074C4.02206 10.6715 4.16554 13.4872 4.6677 14.4557C5.04432 15.1551 5.61822 16.3746 6.35353 16.5719C6.56874 16.6257 6.06658 17.7735 5.74376 17.648Z" fill="#BC517A"/>
<path d="M3.46611 13.864C3.14329 12.6086 3.26883 11.425 3.46611 10.8511C3.14329 11.2456 2.78461 12.4114 3.17916 14.0972C3.48405 15.4423 4.84706 17.5406 5.61824 17.8275C5.76171 17.8813 5.95899 17.6482 6.1204 17.3612C5.70791 17.433 3.89654 15.4961 3.46611 13.864Z" fill="#9E325E"/>
<path d="M7.1785 16.859C6.98122 16.4285 6.37145 16.303 5.81549 16.572C5.25952 16.841 4.95464 17.397 5.16985 17.8095C5.38506 18.222 5.9769 18.3654 6.53286 18.0964C7.08883 17.8274 7.39371 17.2714 7.1785 16.859Z" fill="#FF952C"/>
<path d="M6.7481 17.2353C6.19213 17.5043 5.56443 17.3788 5.36715 16.9663C5.36798 16.9566 5.36681 16.9468 5.36373 16.9375C5.36065 16.9283 5.35571 16.9197 5.34922 16.9125C5.23423 17.0276 5.15584 17.1741 5.12393 17.3337C5.09202 17.4933 5.10801 17.6587 5.16988 17.8092C5.36715 18.2396 5.97692 18.3652 6.53289 18.0961C7.08885 17.8271 7.35787 17.307 7.21439 16.8945C7.0827 17.0375 6.92429 17.1532 6.7481 17.2353Z" fill="#FF6927"/>
<path d="M6.26387 16.5181C7.16059 16.3029 10.4964 15.7828 10.7116 15.7469C10.9268 15.7111 11.2676 15.8187 10.8371 16.0877C10.4067 16.3567 6.81984 17.8632 6.0666 17.7376C5.31335 17.6121 5.79758 16.6257 6.26387 16.5181Z" fill="#FFB882"/>
<path d="M10.9985 15.8008C10.0839 16.2312 6.89157 17.4507 6.228 17.3073C5.92311 17.2355 5.86931 17.0024 5.92311 16.7513C5.58236 17.1459 5.34921 17.8632 5.90518 17.9529C6.46114 18.0426 10.4067 16.3747 10.8371 16.0877C11.2676 15.8008 11.0703 15.8366 10.9985 15.8008Z" fill="#FF9566"/>
<path d="M21.3825 17.5226C20.7369 16.8052 18.6744 15.7471 17.1321 17.128C14.5495 19.4057 16.4506 28.068 17.6342 28.6957L22.6917 24.6604C22.7814 23.3333 21.7233 22.7056 21.4005 22.1855C19.9119 20.6252 21.795 17.9888 21.3825 17.5226Z" fill="#FFC440"/>
<path d="M21.0239 21.6475C20.5396 22.0958 19.9657 22.2931 19.4456 22.1138C18.5848 21.8089 18.262 20.5535 18.7103 19.2981C19.1587 18.0427 20.2168 17.2894 21.0597 17.5943C21.2008 17.6436 21.3294 17.7231 21.4363 17.8274C21.4484 17.7756 21.4498 17.7219 21.4406 17.6695C21.4313 17.6171 21.4116 17.5671 21.3825 17.5226C20.7369 16.8052 18.6745 15.7471 17.1321 17.128C14.5495 19.4057 16.4865 28.0321 17.6701 28.6598L21.1494 25.88C20.9439 25.8677 20.7399 25.8377 20.5396 25.7903C19.2304 25.4495 18.3696 24.3914 18.6206 23.423C18.8717 22.4545 20.1271 21.9523 21.4363 22.2931H21.4901L21.4005 22.1676C21.249 22.0145 21.122 21.8391 21.0239 21.6475Z" fill="#FFB133"/>
<path d="M20.9521 17.2715C20.9521 16.859 20.2706 16.4286 19.4277 16.3568C18.5848 16.2851 18.0288 16.6438 18.262 17.0921C18.4951 17.5405 19.1407 17.7736 19.8043 17.8095C20.4679 17.8454 20.9521 17.6302 20.9521 17.2715Z" fill="#C14963"/>
<path d="M18.5668 16.7692C18.5668 16.7692 18.7103 14.5812 18.9076 14.1328L20.6293 14.5274L20.988 16.9664C20.8983 17.4507 19.1049 18.0604 18.5668 16.7692Z" fill="#FFB882"/>
<path d="M21.0239 25.8618L20.5396 25.7901C19.2304 25.4493 18.513 24.2477 18.6565 23.2613C18.8 22.2749 17.3832 20.607 17.9033 18.8495C17.5984 17.9886 17.2397 17.343 16.9169 17.3251C16.5941 17.3071 16.2175 17.9886 15.9484 19.513C15.3566 22.9923 16.5941 28.3188 17.5087 28.7851L21.0418 25.9694C21.0274 25.9355 21.0212 25.8986 21.0239 25.8618Z" fill="#FF952C"/>
<path d="M17.2038 28.0857C16.7913 25.6466 21.9026 24.2478 24.6825 24.5168C27.4623 24.7858 28.3052 25.2341 28.9329 26.3999C29.5606 27.5656 31.3002 35.7078 31.3002 35.7078L26.2966 38.5594L23.3732 29.5563C23.3732 29.5563 17.5984 30.5427 17.2038 28.0857Z" fill="#C14963"/>
<path d="M24.9694 27.8708C23.3194 27.1713 19.0511 27.5479 18.9793 26.5078C18.9255 25.7904 20.2168 25.073 22.1178 24.6426C19.5712 25.073 16.8989 26.3105 17.2038 28.086C17.5984 30.543 23.3732 29.5566 23.3732 29.5566L26.2965 38.5596L28.5563 37.2684C26.8166 34.65 26.6373 28.5881 24.9694 27.8708Z" fill="#AA294B"/>
<path d="M26.4579 38.4699L31.3002 35.708C31.3002 35.708 29.9551 29.3951 29.2019 27.0815C29.3633 29.5206 29.7041 34.2374 29.5785 34.6498C29.453 35.0623 27.3905 37.4297 26.4579 38.4699Z" fill="#C14963"/>
<path d="M29.2198 27.4941C29.2198 27.4941 29.6323 33.5201 29.5427 34.3092C29.453 35.0983 26.2965 38.5596 26.2965 38.5596L29.0584 36.9814C29.0584 36.9814 29.722 34.7396 29.7579 34.3809C29.8655 33.538 29.2198 27.4941 29.2198 27.4941Z" fill="#AA294B"/>
<path d="M28.8612 39.1151L31.4078 38.5771C31.4078 38.5771 29.5785 37.7701 29.0764 37.8239C28.5742 37.8777 28.8612 39.1151 28.8612 39.1151Z" fill="#F2DEB6"/>
<path d="M1.65472 41.3037H3.68131C3.68131 41.3037 2.35416 40.2277 2.01341 40.4608C1.67266 40.694 1.65472 41.3037 1.65472 41.3037Z" fill="#E5CB9C"/>
<path d="M12.792 41.3035H14.8186C14.8186 41.3035 13.2224 40.2633 12.9354 40.4785C12.6485 40.6937 12.792 41.3035 12.792 41.3035Z" fill="#E5CB9C"/>
<path d="M25.2563 29.5742H15.5359L15.9843 30.453H25.2563V29.5742Z" fill="#3A2E37"/>
<path d="M24.0368 29.1079L15.3566 28.6416L15.5359 29.5921L24.1086 29.9149L24.0368 29.1079Z" fill="#4A4256"/>
<path d="M23.9472 38.1472L14.7827 28.9468L14.9083 28.8213L24.0727 38.0216L23.9472 38.1472Z" fill="#4C3E48"/>
<path d="M14.7827 38.147L14.6392 38.0215L23.9472 28.7314L24.0727 28.857L14.7827 38.147Z" fill="#4C3E48"/>
<path d="M19.4456 26.8662H19.2663V40.0264H19.4456V26.8662Z" fill="#4C3E48"/>
<path d="M19.8043 33.3767C19.8043 33.036 19.6071 32.749 19.3739 32.749C19.1408 32.749 18.9435 33.036 18.9435 33.3767C18.9435 33.7175 19.1228 34.0044 19.3739 34.0044C19.625 34.0044 19.8043 33.7354 19.8043 33.3767Z" fill="#4C3E48"/>
<path d="M19.8581 40.8551C16.5582 40.8551 13.8501 37.5552 13.8501 33.502C13.8501 29.4488 16.5582 26.1489 19.8581 26.1489C23.158 26.1489 25.8661 29.4488 25.8661 33.502C25.8661 37.5552 23.176 40.8551 19.8581 40.8551ZM19.8581 27.0098C16.9707 27.0098 14.6033 29.9151 14.6033 33.502C14.6033 37.0889 16.9707 40.0122 19.8581 40.0122C22.7455 40.0122 25.1129 37.0889 25.1129 33.502C25.1129 29.9151 22.7635 27.0098 19.8581 27.0098Z" fill="#4C3E48"/>
<path d="M19.8581 41.3037C16.343 41.3037 13.4914 37.8065 13.4914 33.5023C13.4914 29.198 16.343 25.7188 19.8581 25.7188C23.3733 25.7188 26.2248 29.216 26.2248 33.5023C26.2248 37.7886 23.3733 41.3037 19.8581 41.3037ZM19.8581 26.6155C16.7913 26.6155 14.2985 29.7002 14.2985 33.5023C14.2985 37.3043 16.7913 40.407 19.8581 40.407C22.9249 40.407 25.4357 37.3043 25.4357 33.5023C25.4357 29.7002 22.9249 26.6155 19.8581 26.6155Z" fill="#966B8D"/>
<path d="M23.3912 29.3413H16.4506L16.3609 30.1125H23.3015L23.3912 29.3413Z" fill="#966B8D"/>
<path d="M25.2922 34.9908C24.7542 38.0935 22.5124 40.407 19.8581 40.407C16.7913 40.407 14.2985 37.3044 14.2985 33.5023C14.2985 29.7002 16.7913 26.6155 19.8581 26.6155C20.4414 26.6135 21.0198 26.723 21.5619 26.9383C21.6672 26.6632 21.7869 26.3938 21.9206 26.1313C21.2676 25.8571 20.5663 25.7168 19.8581 25.7188C16.343 25.7188 13.4914 29.216 13.4914 33.5023C13.4914 37.7886 16.343 41.3037 19.8581 41.3037C23.3733 41.3037 25.8841 38.2011 26.189 34.2555C25.9386 34.5545 25.6345 34.8039 25.2922 34.9908Z" fill="#7C5274"/>
<path d="M20.6652 24.1763H20.2168V29.7216H20.6652V24.1763Z" fill="#E0CCAF"/>
<path d="M20.6652 24.1763H20.2168V26.2029L20.6652 25.7366V24.1763Z" fill="#C6A87F"/>
<path d="M16.8093 24.1763H16.3609V29.9224H16.8093V24.1763Z" fill="#E0CCAF"/>
<path d="M16.8093 24.1763H16.3609V26.436L16.8093 25.7366V24.1763Z" fill="#C6A87F"/>
<path d="M22.6559 29.6104H16.4326L16.3609 30.0049H22.5841L22.6559 29.6104Z" fill="#E0CCAF"/>
<path d="M21.1315 29.6104L20.7907 30.0049H22.5841L22.6559 29.6104H21.1315Z" fill="#C6A87F"/>
<path d="M19.5174 33.3765C19.5174 33.1972 19.4277 33.0537 19.3022 33.0537C19.1766 33.0537 19.0869 33.1972 19.0869 33.3765C19.0869 33.5559 19.1766 33.6993 19.3022 33.6993C19.4277 33.6993 19.5174 33.5559 19.5174 33.3765Z" fill="#C6A87F"/>
<path d="M21.1314 24.4992C21.1314 24.2756 21.0426 24.0612 20.8846 23.9031C20.7265 23.7451 20.5121 23.6562 20.2885 23.6562H16.4864C16.2629 23.6563 16.0485 23.7451 15.8904 23.9031C15.7323 24.0612 15.6435 24.2756 15.6435 24.4992H21.1314Z" fill="#C6A87F"/>
<path d="M20.3782 24.4992H21.1314C21.1314 24.2756 21.0426 24.0612 20.8846 23.9031C20.7265 23.7451 20.5121 23.6562 20.2885 23.6562H19.6608C19.8561 23.6991 20.0319 23.8047 20.1615 23.9569C20.291 24.1091 20.3672 24.2996 20.3782 24.4992Z" fill="#E0CCAF"/>
<path d="M19.9478 24.0503C19.9357 24.0188 19.9129 23.9925 19.8834 23.9761C19.8539 23.9597 19.8195 23.9542 19.7864 23.9606C19.7326 23.9965 19.7326 24.0682 19.7864 24.1579C19.7984 24.1895 19.8212 24.2158 19.8507 24.2322C19.8802 24.2486 19.9146 24.254 19.9478 24.2476C20.0016 24.2117 20.0016 24.14 19.9478 24.0503Z" fill="#4C3E48"/>
<path d="M16.2712 24.0864C16.2354 24.0147 16.1636 23.9609 16.1098 23.9968C16.056 24.0326 16.056 24.1044 16.1098 24.1761C16.1636 24.2478 16.2174 24.3017 16.2712 24.2837C16.2965 24.2571 16.3105 24.2218 16.3105 24.1851C16.3105 24.1484 16.2965 24.1131 16.2712 24.0864Z" fill="#4C3E48"/>
<path d="M28.4487 39.0973L34.4387 37.9854L34.636 38.6131L28.5921 39.438L28.4487 39.0973Z" fill="#705469"/>
<path d="M30.816 39.1331L34.636 38.6131L34.4387 37.9854L30.6905 38.7207L30.816 39.1331Z" fill="#966B8D"/>
<path d="M17.706 17.0922C18.1723 18.3656 17.7419 21.6655 18.9614 21.9525C20.1809 22.2394 19.8581 23.3155 19.2304 23.441C18.6027 23.5665 17.5625 23.3872 16.9169 22.1139C15.3207 18.9574 17.3652 16.1776 17.706 17.0922Z" fill="#FFC440"/>
<path d="M17.4549 21.737C16.4147 19.6566 16.9528 17.7197 17.5267 16.9306C16.9528 16.7871 15.3925 19.3517 16.8093 22.1495C17.4549 23.4407 18.5848 23.5663 19.2304 23.4407C19.3278 23.4196 19.4189 23.3762 19.4967 23.314C19.5745 23.2517 19.6368 23.1724 19.6788 23.082C19.0511 23.1717 18.0826 22.9565 17.4549 21.737Z" fill="#FFB133"/>
<path d="M20.0733 22.6518C20.0016 22.1496 19.4456 21.773 18.8359 21.8447C18.2261 21.9165 17.7777 22.3648 17.8495 22.867C17.9212 23.3691 18.4772 23.7458 19.0869 23.692C19.6967 23.6382 20.1451 23.1539 20.0733 22.6518Z" fill="#BC517A"/>
<path d="M20.0375 22.4905C19.8489 22.6599 19.6089 22.761 19.356 22.7775C18.8 22.8313 18.2978 22.5443 18.1364 22.1318C18.0268 22.2172 17.9423 22.3306 17.8918 22.46C17.8412 22.5894 17.8266 22.7301 17.8495 22.8671C17.9212 23.3872 18.4772 23.7459 19.087 23.6921C19.6967 23.6383 20.1451 23.1541 20.0733 22.6519C20.0701 22.5966 20.058 22.5421 20.0375 22.4905Z" fill="#9B375F"/>
<path d="M24.4673 22.9569C24.4673 22.5265 24.0548 22.1678 23.5526 22.114C23.0504 22.0602 22.5124 22.4009 22.4945 22.8672C22.4765 23.3335 22.9608 23.7281 23.5167 23.7281C24.0727 23.7281 24.4673 23.3873 24.4673 22.9569Z" fill="#BC517A"/>
<path d="M23.5885 22.7594C23.4262 22.7633 23.265 22.7316 23.1163 22.6665C22.9676 22.6015 22.8349 22.5046 22.7276 22.3828C22.5944 22.511 22.5116 22.6829 22.4945 22.867C22.4765 23.3513 22.9608 23.7279 23.5167 23.7279C24.0727 23.7279 24.4673 23.3871 24.4673 22.9567C24.4595 22.786 24.3966 22.6223 24.2879 22.4904C24.0992 22.6686 23.8479 22.7653 23.5885 22.7594Z" fill="#9B375F"/>
<path d="M23.3015 22.3471C23.8754 21.9166 27.2471 20.6074 27.2471 20.6074L27.4264 20.8764C27.4264 20.8764 24.4673 23.6563 23.5347 23.4769C22.9787 23.3693 22.9428 22.5981 23.3015 22.3471Z" fill="#FFB882"/>
<path d="M23.5167 23.0102C23.4174 22.9846 23.3267 22.9328 23.2542 22.8603C23.1816 22.7877 23.1298 22.6971 23.1042 22.5977C22.9608 22.9744 23.0504 23.5303 23.4809 23.6021C24.4134 23.7814 27.4264 20.876 27.4264 20.876L27.3368 20.7505C26.5656 21.3782 24.27 23.1537 23.5167 23.0102Z" fill="#FF9566"/>
<path d="M19.0152 22.1137C19.7326 22.1495 23.2118 23.1718 23.2118 23.1718L23.158 23.5305C23.158 23.5305 19.1228 23.8712 18.513 23.1539C18.1364 22.7234 18.5848 22.0957 19.0152 22.1137Z" fill="#FFB882"/>
<path d="M18.8717 22.7771C18.8007 22.6895 18.759 22.5817 18.7525 22.4691C18.7461 22.3564 18.7752 22.2446 18.8358 22.1494C18.4413 22.2929 18.0467 22.8489 18.3695 23.2255C18.9972 23.9429 23.158 23.5304 23.158 23.5304L23.1939 23.3331C22.082 23.351 19.3559 23.351 18.8717 22.7771Z" fill="#FF9566"/>
<g style="mix-blend-mode:multiply" opacity="0.6">
<path d="M19.894 20.5714C20.719 20.6072 21.3825 19.9975 21.7412 19.1546C21.6874 18.5448 21.6157 17.9888 21.4364 17.6301V17.5943L21.4005 17.5405C21.2648 17.3873 21.1077 17.2544 20.9342 17.1459C20.9726 17.0998 20.9975 17.0439 21.0059 16.9845L20.6472 14.5454L18.9255 14.1509C18.7821 14.4916 18.6565 15.8546 18.6027 16.4644L18.531 16.5003C18.0962 16.5585 17.683 16.725 17.3294 16.9845H17.2935L17.0962 17.1818L17.0245 17.2356L16.9528 17.3253H16.9348C16.9169 17.3253 16.8452 17.397 16.7375 17.5225C18.1006 17.8992 17.15 20.4279 19.894 20.5714Z" fill="#843131"/>
</g>
<path d="M19.3021 12.3215C18.5489 13.7563 18.6744 16.572 19.7505 17.2893C20.8266 18.0067 23.0504 18.0426 23.3912 17.5942C24.4314 16.1774 22.4586 15.0296 23.3015 12.9313C23.983 11.2455 20.3603 10.2591 19.3021 12.3215Z" fill="#FFB882"/>
<path d="M23.2995 12.3924L24.6173 12.5495C24.6835 12.5574 24.7437 12.5912 24.7849 12.6435C24.8261 12.6959 24.8448 12.7624 24.8369 12.8285L24.5099 15.571C24.5031 15.6277 24.4741 15.6793 24.4293 15.7146C24.3844 15.7499 24.3274 15.766 24.2707 15.7592L22.9351 15.6C22.869 15.5921 22.8087 15.5582 22.7675 15.5059C22.7263 15.4536 22.7076 15.387 22.7155 15.3209L23.0404 12.5963C23.0477 12.5349 23.0792 12.4789 23.1277 12.4406C23.1763 12.4024 23.2381 12.385 23.2995 12.3924Z" fill="#FFEECC"/>
<path d="M20.7687 12.0769L22.4783 12.2808C22.5111 12.2847 22.5427 12.295 22.5715 12.3111C22.6002 12.3273 22.6255 12.3489 22.6459 12.3748C22.6663 12.4007 22.6814 12.4304 22.6903 12.4622C22.6992 12.4939 22.7018 12.5271 22.6979 12.5598L22.3709 15.3023C22.3641 15.359 22.3351 15.4106 22.2903 15.4459C22.2454 15.4812 22.1884 15.4973 22.1317 15.4905L20.4043 15.2845C20.3382 15.2766 20.2779 15.2428 20.2367 15.1905C20.1956 15.1381 20.1768 15.0716 20.1847 15.0055L20.5096 12.2808C20.5169 12.2194 20.5484 12.1634 20.597 12.1252C20.6455 12.087 20.7073 12.0696 20.7687 12.0769Z" fill="#FFEECC"/>
<path d="M23.0059 14.0883L22.347 14.0098L22.278 14.5885L22.9369 14.6671L23.0059 14.0883Z" fill="#FFEECC"/>
<path d="M19.607 14.7965C19.9657 13.0568 20.4499 11.5683 19.625 11.3172C18.8 11.0661 18.6924 13.021 18.6924 13.021L19.0331 14.4378L19.607 14.7965Z" fill="#9E8574"/>
<path d="M23.5013 12.6692L24.3561 12.7711C24.4222 12.779 24.4825 12.8128 24.5237 12.8652C24.5649 12.9175 24.5836 12.9841 24.5757 13.0502L24.3103 15.2762C24.3035 15.3329 24.2745 15.3846 24.2296 15.4199C24.1848 15.4551 24.1278 15.4712 24.0711 15.4644L23.1985 15.3604C23.1324 15.3525 23.0721 15.3187 23.0309 15.2663C22.9897 15.214 22.971 15.1474 22.9789 15.0813L23.2422 12.8731C23.2495 12.8117 23.2809 12.7557 23.3295 12.7175C23.3781 12.6793 23.4399 12.6619 23.5013 12.6692Z" fill="#FF9566"/>
<path d="M23.5577 12.8025L24.1453 12.8726C24.1781 12.8765 24.2097 12.8868 24.2385 12.9029C24.2672 12.9191 24.2925 12.9407 24.3129 12.9666C24.3333 12.9925 24.3484 13.0222 24.3573 13.054C24.3663 13.0857 24.3688 13.1189 24.3649 13.1516L24.1314 15.1105C24.1246 15.1672 24.0956 15.2189 24.0507 15.2542C24.0059 15.2895 23.9488 15.3055 23.8922 15.2987L23.2867 15.2265C23.2539 15.2226 23.2223 15.2123 23.1935 15.1962C23.1648 15.1801 23.1395 15.1584 23.1191 15.1325C23.0987 15.1066 23.0836 15.0769 23.0747 15.0452C23.0658 15.0134 23.0632 14.9802 23.0671 14.9475L23.2986 13.0064C23.3022 12.976 23.3118 12.9466 23.3268 12.9199C23.3417 12.8932 23.3618 12.8697 23.3859 12.8508C23.41 12.8319 23.4375 12.8179 23.467 12.8096C23.4965 12.8013 23.5273 12.7989 23.5577 12.8025Z" fill="#FFB882"/>
<path d="M21.0282 12.3247L22.2392 12.4691C22.3053 12.477 22.3656 12.5108 22.4068 12.5632C22.4479 12.6155 22.4666 12.682 22.4588 12.7482L22.1933 14.9742C22.1866 15.0309 22.1576 15.0825 22.1127 15.1178C22.0679 15.1531 22.0108 15.1692 21.9541 15.1624L20.7254 15.0159C20.6926 15.012 20.661 15.0017 20.6322 14.9855C20.6035 14.9694 20.5782 14.9477 20.5578 14.9218C20.5374 14.8959 20.5223 14.8662 20.5134 14.8345C20.5045 14.8028 20.5019 14.7696 20.5058 14.7368L20.7712 12.5108C20.7785 12.4494 20.81 12.3934 20.8585 12.3552C20.9071 12.3169 20.9689 12.2996 21.0303 12.3069L21.0282 12.3247Z" fill="#FF9566"/>
<path d="M21.1024 12.4778L21.975 12.5819C22.0411 12.5897 22.1014 12.6236 22.1425 12.6759C22.1837 12.7282 22.2024 12.7948 22.1945 12.8609L21.961 14.8198C21.9542 14.8765 21.9252 14.9281 21.8803 14.9634C21.8355 14.9987 21.7785 15.0148 21.7218 15.008L20.8314 14.9018C20.7652 14.894 20.705 14.8601 20.6638 14.8078C20.6226 14.7555 20.6039 14.6889 20.6118 14.6228L20.8432 12.6817C20.8469 12.6513 20.8564 12.6219 20.8714 12.5952C20.8864 12.5685 20.9065 12.545 20.9306 12.5261C20.9546 12.5072 20.9822 12.4931 21.0117 12.4849C21.0411 12.4766 21.072 12.4742 21.1024 12.4778Z" fill="#FFB882"/>
<path d="M20.5396 13.0928L18.0288 13.2721L17.6701 13.7025L18.0647 13.9178L18.2082 13.4335L20.4858 13.5232L20.5396 13.0928Z" fill="#FFEECC"/>
<path d="M19.069 14.5991C18.5848 14.2942 17.9391 13.6306 18.2081 13.1464C18.4772 12.6622 18.9614 12.5904 19.1945 13.1643C19.4277 13.7382 19.1587 14.6708 19.069 14.5991Z" fill="#FFB882"/>
<path d="M18.9434 14.2046C18.6565 14.0073 18.2799 13.6307 18.4413 13.3437C18.6027 13.0568 18.8717 13.003 19.0152 13.3437C19.1586 13.6845 18.9972 14.2404 18.9434 14.2046Z" fill="#EA7B59"/>
<path d="M18.9614 14.3658C18.7462 14.2402 18.4592 13.9353 18.5669 13.7381C18.6745 13.5408 18.9076 13.487 19.0152 13.7381C19.1228 13.9892 18.9973 14.4016 18.9614 14.3658Z" fill="#FFB882"/>
<path d="M22.7456 14.7246C23.0504 15.0833 23.3374 15.6931 23.0146 15.7469C22.6917 15.8007 22.5124 15.711 22.4765 15.5137C22.4407 15.3164 22.7456 14.7246 22.7456 14.7246Z" fill="#EA7B59"/>
<path d="M22.6917 14.7246C22.9428 15.0295 23.1401 15.6034 22.889 15.6393C22.6379 15.6751 22.4945 15.6034 22.4586 15.4599C22.4227 15.3164 22.6917 14.7246 22.6917 14.7246Z" fill="#FFB882"/>
<path d="M4.34487 10.2588L4.05792 7.0127L5.42093 7.56866L6.01277 10.2229L5.94103 11.1735L4.34487 10.2588Z" fill="#FFB882"/>
<path d="M5.16989 22.1318L5.36717 23.9073H5.52858L5.67205 21.9883L5.16989 22.1318Z" fill="#5B3B3B"/>
<path d="M5.90518 11.4963L6.89157 14.2223H7.17852L6.13833 11.3887L5.90518 11.4963Z" fill="#FFEECC"/>
<g style="mix-blend-mode:multiply" opacity="0.6">
<path d="M6.37146 13.5051C6.65155 13.5004 6.92572 13.4237 7.16757 13.2823C7.40943 13.141 7.61084 12.9398 7.7524 12.698C7.28611 11.5502 6.81981 10.4921 6.67634 10.3666C6.55813 10.3053 6.43105 10.2629 6.29972 10.241L6.17418 10.2051H6.01277L5.42093 7.58673L4.05792 7.03076L4.34487 10.241H4.29107L4.16553 10.2769H4.14759L4.03999 10.3128H4.02205C3.8215 10.3887 3.65565 10.5355 3.55576 10.7252C3.44786 10.8222 3.36744 10.9459 3.32261 11.0839C3.24017 11.2505 3.1741 11.4247 3.12534 11.604C3.98619 11.5144 4.36281 13.4871 6.37146 13.5051Z" fill="#843131"/>
</g>
<path d="M3.68131 5.32718C3.32262 7.9456 3.80685 9.47002 7.16057 10.2233C7.16057 10.2233 9.13335 5.16577 6.73015 3.51581C5.38507 2.58323 3.86065 4.08971 3.68131 5.32718Z" fill="#FFB882"/>
<path d="M3.91447 8.75274C4.61392 7.12071 5.11608 6.15226 4.865 5.13C4.61392 4.10774 5.34922 3.06754 6.37148 3.26482C5.90459 3.09867 5.39857 3.07652 4.91894 3.20122C4.43931 3.32592 4.00817 3.59174 3.68133 3.96426C1.58301 6.24193 3.91447 8.75274 3.91447 8.75274Z" fill="#6D211B"/>
<path d="M4.29109 7.80206C4.18349 7.01295 3.53785 6.51079 3.16123 6.95915C2.78461 7.40751 3.46611 7.99934 3.8786 8.37596C4.29109 8.75258 4.3449 8.25042 4.29109 7.80206Z" fill="#FFB882"/>
<path d="M4.05797 7.74847C3.98623 7.24631 3.59167 6.94143 3.34059 7.21044C3.08951 7.47946 3.53787 7.87401 3.80688 8.10716C4.0759 8.34031 4.09383 8.03542 4.05797 7.74847Z" fill="#EA7B59"/>
<path d="M4.05792 7.96353C4.02206 7.64071 3.75304 7.46137 3.60957 7.62278C3.46609 7.78419 3.73511 8.0532 3.89652 8.19668C4.05792 8.34015 4.07586 8.14287 4.05792 7.96353Z" fill="#FFB882"/>
<path d="M5.18778 6.36732C5.17926 6.2414 5.2112 6.11606 5.27896 6.00959C5.34671 5.90311 5.44673 5.82109 5.56441 5.77548C5.76168 5.72168 5.92309 5.91896 5.92309 6.18797C5.92309 6.45699 5.76168 6.726 5.56441 6.77981C5.36713 6.83361 5.18778 6.63633 5.18778 6.36732Z" fill="#513D39"/>
<path d="M6.98123 6.25997C6.98123 5.99096 7.12471 5.75781 7.28612 5.75781C7.44752 5.75781 7.60893 5.95509 7.60893 6.22411C7.60893 6.49312 7.48339 6.72627 7.30405 6.72627C7.12471 6.72627 6.99917 6.52899 6.98123 6.25997Z" fill="#513D39"/>
<path d="M7.73449 6.08052C7.46629 5.91575 7.15036 5.84625 6.83777 5.88325C6.89108 5.81851 6.96087 5.76935 7.03977 5.74094C7.11868 5.71254 7.20379 5.70594 7.28613 5.72184C7.38401 5.74165 7.47574 5.78453 7.55372 5.84691C7.6317 5.90929 7.69367 5.98938 7.73449 6.08052Z" fill="#513D39"/>
<path d="M4.95465 6.13398C4.95465 6.13398 5.49268 5.73942 5.95898 5.75736C5.95898 5.75736 5.85137 5.57801 5.51062 5.66769C5.27278 5.74683 5.07399 5.91355 4.95465 6.13398Z" fill="#513D39"/>
<path d="M7.71656 5.36275V5.29101C7.60978 5.13446 7.46475 5.0078 7.29526 4.92305C7.12576 4.83831 6.93742 4.79828 6.74811 4.80678V5.022C6.92491 4.99972 7.10446 5.01891 7.27256 5.07806C7.44065 5.1372 7.59267 5.23467 7.71656 5.36275Z" fill="#843126"/>
<path d="M4.865 5.66776C5.13402 5.30907 5.81552 5.09386 6.0128 5.07592V4.84277C5.79759 4.89658 5.15195 5.14766 4.82913 5.61395L4.865 5.66776Z" fill="#843126"/>
<path d="M6.29973 7.51511C6.29973 7.53304 6.31766 7.53304 6.31766 7.55098C6.40625 7.60209 6.50795 7.62595 6.61002 7.61957C6.7121 7.61319 6.81003 7.57685 6.89156 7.51511C6.93658 7.48753 6.97248 7.44732 6.9948 7.39949C7.01712 7.35165 7.02488 7.29831 7.0171 7.24609C7.0478 7.27511 7.07122 7.31095 7.08549 7.35071C7.09975 7.39046 7.10446 7.43302 7.09922 7.47493C7.09398 7.51685 7.07894 7.55693 7.05533 7.59196C7.03172 7.62698 7.00019 7.65595 6.9633 7.67652C6.88207 7.74033 6.78255 7.7765 6.6793 7.77972C6.57604 7.78295 6.47446 7.75307 6.3894 7.69445C6.36102 7.67408 6.33803 7.64711 6.3224 7.61586C6.30678 7.58462 6.299 7.55004 6.29973 7.51511Z" fill="#EA7B59"/>
<path d="M5.97693 8.21458L7.2144 8.17871C7.2144 8.17871 7.1606 9.1651 6.6405 9.18304C6.1204 9.20097 5.97693 8.21458 5.97693 8.21458Z" fill="#4C241E"/>
<path d="M7.08886 8.57331C7.12473 8.39396 7.14267 8.25049 7.14267 8.25049H6.0666C6.0589 8.40331 6.08334 8.55606 6.13834 8.69885L7.08886 8.57331Z" fill="#FFFEF8"/>
<path d="M23.6423 13.9896C23.6602 13.8282 23.6064 13.7026 23.5167 13.7026C23.4271 13.7026 23.3733 13.8102 23.3733 13.9717C23.3733 14.1331 23.4091 14.2586 23.4988 14.2586C23.5885 14.2586 23.6423 14.151 23.6423 13.9896Z" fill="#513D39"/>
<path d="M21.6516 13.8103C21.6695 13.6489 21.5977 13.5234 21.526 13.5054C21.4543 13.4875 21.3825 13.631 21.3646 13.7924C21.3467 13.9538 21.4184 14.0793 21.4901 14.0793C21.5619 14.0793 21.6516 13.9538 21.6516 13.8103Z" fill="#513D39"/>
<path d="M24.4672 13.3797C24.3746 13.2284 24.2491 13.1 24.1001 13.0037C23.9511 12.9075 23.7824 12.846 23.6064 12.8237L23.4091 13.1465C23.8754 13.29 24.1086 13.4335 24.252 13.7025L24.4672 13.3797Z" fill="#9E8574"/>
<path d="M21.7592 12.6083C21.5838 12.5803 21.4043 12.5915 21.2337 12.6411C21.0632 12.6907 20.9057 12.7775 20.7728 12.8953L20.8804 13.254C21.3108 12.985 21.5619 12.9132 21.8668 12.967L21.7592 12.6083Z" fill="#9E8574"/>
<path d="M20.719 15.9624L20.8804 15.8906C21.0776 16.321 22.3869 16.4107 22.8711 16.3569V16.4107C22.2972 16.4825 20.9521 16.5004 20.719 15.9624Z" fill="#EA7B59"/>
<path d="M22.2613 16.6259C22.2613 16.5901 22.1358 16.608 21.9564 16.608C21.7771 16.608 21.6336 16.5901 21.6336 16.6259C21.7289 16.6698 21.8339 16.6883 21.9385 16.6797C22.0489 16.6898 22.1601 16.6713 22.2613 16.6259Z" fill="#EA7B59"/>
<path d="M11.0344 15.7469C11.1061 15.7649 11.3393 15.9263 11.3572 16.0339C11.3751 16.1415 11.0703 16.5361 10.9447 16.4823C10.8192 16.4285 10.6219 16.0877 10.2991 15.9622C9.97626 15.8366 10.9627 15.7111 11.0344 15.7469Z" fill="#FFB882"/>
<path d="M11.0882 15.8545C11.3034 15.9083 11.7339 16.3208 11.6621 16.3387C11.5904 16.3567 11.0882 16.0876 11.0882 16.0876V15.8545Z" fill="#FFB882"/>
<path d="M11.0882 16.0879C11.2675 16.1955 11.4828 16.3928 11.411 16.4286C11.3393 16.4645 11.0344 16.339 11.0344 16.339L11.0882 16.0879Z" fill="#FFB882"/>
<path d="M10.9268 16.1055C11.0344 16.2848 11.2317 16.4821 11.142 16.5359C11.0524 16.5897 10.8013 16.3565 10.8013 16.3565L10.9268 16.1055Z" fill="#FFB882"/>
<path d="M27.0139 20.7508C27.2112 20.5176 27.1933 20.5356 27.265 20.5176C27.3368 20.4997 27.6237 20.3921 27.6954 20.4638C27.7672 20.5356 27.8568 21.0377 27.7492 21.0736C27.6416 21.1095 27.2471 20.9122 26.9243 20.9839C26.6014 21.0557 27.0139 20.7508 27.0139 20.7508Z" fill="#FFB882"/>
<path d="M27.4802 20.4816C27.6775 20.4099 28.2155 20.1588 28.2872 20.2126C28.359 20.2664 27.6057 20.6609 27.6057 20.6609L27.4802 20.4816Z" fill="#FFB882"/>
<path d="M27.1395 20.6251C27.2292 20.4816 27.6775 20.0153 27.7313 20.0332C27.7851 20.0512 27.3368 20.6968 27.3368 20.6968L27.1395 20.6251Z" fill="#FFB882"/>
<path d="M27.6058 20.6791C27.8031 20.6611 28.4128 20.5894 28.4666 20.6611C28.5204 20.7329 27.7134 20.8943 27.7134 20.8943L27.6058 20.6791Z" fill="#FFB882"/>
<path d="M27.4982 20.7686C27.6775 20.8582 28.2693 21.0734 28.3052 21.1631C28.3411 21.2528 27.552 21.0376 27.552 21.0376L27.4982 20.7686Z" fill="#FFB882"/>
<path d="M22.8711 23.1002C23.176 23.0822 23.1401 23.0822 23.2118 23.1181C23.2836 23.154 23.5526 23.2616 23.5526 23.3692C23.5526 23.4768 23.2836 23.9072 23.176 23.8355C23.0683 23.7637 22.9249 23.3692 22.6559 23.2078C22.3868 23.0464 22.8711 23.1002 22.8711 23.1002Z" fill="#FFB882"/>
<path d="M23.3733 23.2256C23.5705 23.3153 24.1444 23.5125 24.1624 23.5843C24.1803 23.656 23.3553 23.4408 23.3553 23.4408L23.3733 23.2256Z" fill="#FFB882"/>
<path d="M23.0504 23.1002C23.2119 23.0464 23.8396 23.0285 23.8754 23.0823C23.9113 23.1361 23.1401 23.2796 23.1401 23.2796L23.0504 23.1002Z" fill="#FFB882"/>
<path d="M23.3374 23.4409C23.4988 23.5844 23.983 23.961 23.983 24.0328C23.983 24.1045 23.2656 23.692 23.2656 23.692L23.3374 23.4409Z" fill="#FFB882"/>
<path d="M23.2119 23.459C23.2836 23.6383 23.5526 24.1943 23.5167 24.284C23.4809 24.3736 23.0504 23.6921 23.0504 23.6921L23.2119 23.459Z" fill="#FFB882"/>
</svg>
