<svg width="257" height="213" viewBox="0 0 257 213" fill="none" xmlns="http://www.w3.org/2000/svg">
<path d="M82.2954 119.32C82.2954 118.12 84.4954 118.02 84.8954 118.62C85.2954 119.22 88.6954 122.92 88.2954 123.62C87.8954 124.32 86.1954 124.92 85.5954 124.42C84.9954 123.92 82.2954 120.32 82.2954 119.32Z" fill="#FFB882"/>
<path d="M78.6953 119.82C78.6953 118.62 80.8953 118.52 81.3953 119.12C81.8953 119.72 85.0953 123.42 84.6953 124.22C84.3938 124.601 83.9838 124.881 83.5196 125.024C83.0554 125.167 82.5587 125.165 82.0953 125.02C81.4953 124.52 78.7953 120.82 78.6953 119.82Z" fill="#FFB882"/>
<path d="M75.9954 120.72C76.0954 119.52 78.0954 119.12 78.4954 119.72C78.8954 120.32 81.6954 123.82 81.0954 124.52C80.4954 125.22 78.7954 125.72 78.3954 125.22C77.9954 124.72 75.8954 121.62 75.9954 120.72Z" fill="#FFB882"/>
<path d="M72.1953 109.82C72.1953 109.82 75.6953 111.72 77.6953 111.62C79.6953 111.52 84.3953 115.12 86.6953 118.42C87.3953 119.32 88.0953 123.62 87.4953 123.12C86.8953 122.62 79.2953 124.22 79.2953 124.22C79.2953 124.22 77.7953 124.42 74.7953 119.92C73.7953 118.42 71.2953 117.12 69.5953 117.52C66.2953 118.32 72.1953 109.82 72.1953 109.82Z" fill="#FF9566"/>
<path d="M76.4954 111.52C80.4954 111.72 84.5954 112.42 85.9954 113.62C87.3954 114.82 87.2953 117.42 87.0953 118.52C86.8953 119.62 82.5953 119.62 81.7953 119.42C80.9953 119.22 80.1954 117.22 80.6954 116.82C81.1954 116.42 83.2954 116.32 83.1954 115.92C83.08 115.594 82.911 115.29 82.6954 115.02C82.6954 115.02 77.0954 114.32 76.4954 111.52Z" fill="#FFB882"/>
<path d="M145.495 176.92C146.995 179.52 152.795 182.52 155.395 182.02C157.995 181.52 160.195 175.52 158.095 173.52C155.995 171.52 145.495 176.92 145.495 176.92Z" fill="#91391F"/>
<path d="M117.095 174.52C114.995 171.62 79.1955 125.52 81.8955 119.52C86.9955 108.22 118.795 167.52 121.795 171.42L120.496 172.32C109.996 156.22 87.8955 114.92 83.0955 120.22C80.7955 122.82 106.296 156.62 118.396 173.62L117.095 174.52Z" fill="#FFC248"/>
<path d="M142.395 177.82C142.995 179.72 146.895 181.32 149.695 181.52C155.295 181.82 157.595 176.82 156.195 175.42C154.795 174.02 142.395 177.82 142.395 177.82Z" fill="#A04627"/>
<path d="M133.595 211.62H132.695C132.695 211.62 131.295 196.22 130.795 191.42C129.995 183.72 131.295 171.92 135.095 174.22C144.395 180.12 134.695 206.02 133.595 211.62Z" fill="#87331D"/>
<path d="M97.2953 211.62H98.2953C98.2953 211.62 110.595 190.62 110.295 186.32C109.995 182.02 108.095 174.12 103.395 176.32C91.5954 181.82 97.1953 206.32 97.2953 211.62Z" fill="#87331D"/>
<path d="M47.4952 62.1201C55.4952 67.6201 58.4952 94.7201 62.2952 98.9201C66.0952 103.12 77.6953 107.12 77.6953 107.12L71.4952 121.72C71.4952 121.72 55.6953 118.52 49.6953 108.72C40.0953 92.8201 47.4952 62.1201 47.4952 62.1201Z" fill="#E5CB9C"/>
<path d="M57.4953 104.82C51.3953 94.82 52.9952 75.12 46.5952 65.92C44.7952 74.72 41.3953 96.6201 48.9953 109.12C54.9953 118.92 71.4953 121.72 71.4953 121.72L73.8953 116.12C68.6953 114.72 61.6953 111.72 57.4953 104.82Z" fill="#D6B683"/>
<path d="M41.9954 151.92L60.8955 154.22C60.8955 154.22 53.6954 110.92 53.7954 110.22C53.8954 109.52 55.3955 108.72 55.3955 108.72L53.9954 106.62C53.9954 106.62 53.2954 63.02 45.9954 60.22C38.6954 57.42 34.9954 104.42 41.9954 151.92Z" fill="#E5CB9C"/>
<path d="M11.0955 35.9201C24.6955 40.1201 53.0955 35.1201 68.8955 22.6201L68.3955 21.9201L42.2955 21.6201L11.1955 35.3201L11.0955 35.9201Z" fill="#562A28"/>
<path d="M29.5953 40.6201C24.9953 40.9201 22.3953 33.9201 23.4953 31.0201C24.5953 28.1201 33.4953 25.8201 33.4953 25.8201C33.4953 25.8201 35.9953 40.1201 29.5953 40.6201Z" fill="#C6AA97"/>
<path d="M39.2954 151.92L59.6954 154.12C59.6954 154.12 50.8954 110.92 51.0954 110.22C51.3417 109.606 51.6788 109.033 52.0954 108.52L51.2954 106.62C51.2954 106.62 51.7954 62.92 44.4954 60.22C37.1954 57.52 32.2954 104.42 39.2954 151.92Z" fill="#CCA971"/>
<path d="M46.4955 116.02L24.5955 125.12L49.4955 168.02L52.4955 210.42H53.4955L58.1955 166.82L46.4955 116.02Z" fill="#70484F"/>
<path d="M51.2952 167.02L37.0952 137.22L29.8953 135.02L48.0952 168.72L52.4952 210.42H53.1953L51.2952 167.02Z" fill="#563038"/>
<path d="M46.3955 115.22L14.0955 124.62L24.4955 169.22L22.1955 209.62H22.7955L34.4955 167.22L36.4955 140.72L46.2955 133.32L46.3955 115.22Z" fill="#70484F"/>
<path d="M22.1954 209.62H22.4954C23.5954 200.62 26.7954 169.22 26.7954 169.22L24.5954 132.02L47.8954 122.12L47.0954 114.92L12.2954 124.42L22.8954 168.22L22.1954 209.62Z" fill="#563038"/>
<path d="M30.0955 139.22L34.5955 140.92L35.4955 153.22L36.8955 140.42L46.0955 134.72C39.9955 137.62 35.4955 139.52 30.0955 139.22Z" fill="#563038"/>
<path d="M23.5955 164.02L31.5955 160.22L28.6955 142.82L22.0955 147.42L23.5955 164.02Z" fill="#563038"/>
<path d="M51.2953 156.72L55.3954 154.72L47.6954 119.72L44.4954 123.12L51.2953 156.72Z" fill="#563038"/>
<path d="M21.7954 57.52C26.9954 56.62 43.2954 57.02 45.0954 60.52C46.8954 64.02 48.9954 72.22 47.4954 78.12C45.1954 87.22 48.9954 112.12 49.6954 117.72C49.8954 119.92 25.9954 124.62 23.9954 122.92C21.9954 121.22 21.7954 57.52 21.7954 57.52Z" fill="#EF5476"/>
<path d="M47.4954 78.1201C48.6954 73.5201 47.6954 67.4201 46.2954 63.3201C46.7954 68.7201 45.6954 75.0201 43.9954 81.2201C41.3954 90.9201 45.2954 117.32 44.0954 117.92C42.8954 118.52 31.4954 120.52 31.4954 120.52C31.4954 120.52 37.2954 74.8201 23.5954 57.3201L21.7954 57.5201C21.7954 57.5201 21.9954 121.22 23.9954 122.92C25.9954 124.62 49.8954 119.92 49.6954 117.72C48.9954 112.12 45.1954 87.2201 47.4954 78.1201Z" fill="#D62D61"/>
<path d="M24.1953 57.2201C25.5725 50.2834 27.8589 43.5587 30.9953 37.2201L45.7953 40.2201L44.2953 57.7201C44.2953 57.7201 41.4953 63.7201 35.8953 63.6201C30.2953 63.5201 24.1953 57.2201 24.1953 57.2201Z" fill="#FFB882"/>
<path d="M14.2952 163.42L31.7952 155.72C31.7952 155.72 27.2952 116.12 29.9952 100.62C32.6952 85.1201 29.5952 64.1201 23.7952 56.6201C23.7952 56.6201 14.6953 55.6201 12.1953 61.4201C9.69525 67.2201 5.39526 113.32 5.39526 113.32C5.39526 113.32 8.09521 113.82 8.59521 115.52C9.09521 117.22 6.69521 120.22 7.09521 121.92L14.2952 163.42Z" fill="#E5CB9C"/>
<path d="M22.8954 114.52C22.8954 57.32 12.5954 59.82 11.5954 61.72C8.3954 67.12 4.79541 114.12 4.79541 114.12C4.79541 114.12 7.29541 114.12 7.79541 115.72C8.29541 117.32 5.79543 119.92 6.19543 121.62L14.2954 163.42L16.2954 162.62C15.7954 159.42 15.4954 156.12 15.1954 152.72C13.9954 133.02 22.8954 118.52 22.8954 114.52Z" fill="#D6B683"/>
<path d="M37.1954 114.92L30.5953 122.82C29.054 120.929 27.15 119.365 24.9954 118.22L29.0953 110.72C29.0953 110.72 33.3954 114.32 37.1954 114.92Z" fill="#FFB882"/>
<path d="M33.3954 114.32C34.1954 114.32 36.1954 114.82 37.7954 115.02C39.3954 115.22 45.4954 113.02 45.9954 113.52C46.2491 113.888 46.385 114.324 46.385 114.77C46.385 115.217 46.2491 115.653 45.9954 116.02C45.5954 116.42 39.6954 117.92 39.8954 118.72C40.0954 119.52 42.8954 121.42 42.9954 122.02C43.0954 122.62 37.8954 125.92 36.3954 126.42C34.8954 126.92 30.7954 124.22 29.5954 120.82C29.0954 119.62 33.3954 114.32 33.3954 114.32Z" fill="#FFB882"/>
<path d="M40.1954 119.52C41.3931 120.604 42.6627 121.607 43.9954 122.52C44.5954 122.82 47.9954 124.02 48.1954 124.52C48.3954 125.02 48.4954 126.42 47.6954 126.32C45.8343 125.937 44.0455 125.262 42.3954 124.32C41.1763 123.526 40.0074 122.658 38.8954 121.72C38.7954 121.42 39.3954 118.82 40.1954 119.52Z" fill="#FFB882"/>
<path d="M37.7955 121.82C38.8616 123.114 40.0322 124.318 41.2955 125.42C41.7955 125.72 44.9955 127.32 45.1955 127.72C45.3955 128.12 45.2955 129.72 44.4955 129.62C42.688 128.94 40.9743 128.032 39.3955 126.92C38.6955 126.22 36.3955 124.32 36.2955 124.02C36.1955 123.72 37.0955 121.12 37.7955 121.82Z" fill="#FFB882"/>
<path d="M33.3953 122.22C34.5953 123.62 35.9953 125.72 36.5953 126.02C37.1953 126.32 40.0953 128.32 40.1953 128.72C40.2953 129.12 40.1953 130.72 39.3953 130.52C37.6597 129.714 36.0443 128.67 34.5953 127.42C33.9953 126.62 31.7953 124.42 31.6953 124.12C31.5953 123.82 32.7953 121.42 33.3953 122.22Z" fill="#FFB882"/>
<path d="M16.0953 58.52C25.8953 62.82 14.7953 92.62 17.9953 97.32C21.1953 102.02 35.4953 110.02 35.4953 110.02L26.9953 123.92C26.9953 123.92 7.89529 114.42 3.79529 103.22C-6.00471 76.32 11.6953 56.72 16.0953 58.52Z" fill="#E5CB9C"/>
<path d="M9.7953 99.72C2.8953 81.72 7.89533 66.72 13.6953 58.92C7.29533 62.12 -5.7047 80.82 2.7953 104.32C6.8953 115.42 26.9953 123.92 26.9953 123.92L31.0953 117.32C25.0953 114.22 12.9953 108.12 9.7953 99.72Z" fill="#D6B683"/>
<path d="M2.99542 103.02C0.577018 96.5782 -0.213694 89.6389 0.693421 82.8181C1.60054 75.9973 4.17743 69.5059 8.19543 63.92C2.19543 71.62 -3.60459 86.62 2.79541 104.32C6.89541 115.42 26.9954 123.92 26.9954 123.92L27.2954 123.42C24.0954 121.82 6.59542 113.12 2.99542 103.02Z" fill="#DDBF92"/>
<path d="M52.2953 212.02H60.8953C60.8953 212.02 54.6953 208.52 53.1953 209.22C51.6953 209.92 52.2953 212.02 52.2953 212.02Z" fill="#E5CB9C"/>
<path d="M20.1953 212.02H24.8953C24.8953 212.02 23.4953 208.52 21.9953 209.22C20.4953 209.92 20.1953 212.02 20.1953 212.02Z" fill="#E5CB9C"/>
<path d="M87.8954 191.12C91.6954 198.12 107.795 205.42 124.995 203.12C142.195 200.82 139.995 179.42 140.095 176.72C140.195 174.02 142.995 166.42 142.995 166.42L126.995 158.72C126.995 158.72 120.095 174.42 113.595 174.52C107.095 174.62 91.9953 167.42 89.0953 173.72C86.1953 180.02 85.5954 187.02 87.8954 191.12Z" fill="#BF643C"/>
<path d="M140.095 176.72C140.295 174.12 142.995 166.42 142.995 166.42L126.995 158.72C126.995 158.72 122.495 169.02 117.295 173.02C120.095 179.62 122.895 196.82 103.195 192.22C96.2954 190.62 90.7954 184.62 87.9954 191.32C91.9954 198.22 107.895 205.32 124.995 203.12C142.095 200.92 139.995 179.42 140.095 176.72Z" fill="#AA4B29"/>
<path d="M139.795 185.92C140.495 182.52 140.095 177.22 140.095 176.72C140.295 174.12 142.995 166.42 142.995 166.42L126.995 158.72C126.995 158.72 122.295 169.22 117.095 173.12C117.195 176.02 128.495 188.02 139.795 185.92Z" fill="#91391F"/>
<path d="M120.295 211.62H121.295C121.295 211.62 122.095 196.12 122.395 191.22C122.895 183.52 120.695 173.62 116.595 176.02C106.295 181.92 118.695 206.02 120.295 211.62Z" fill="#BF643C"/>
<path d="M118.195 191.82C119.795 191.72 121.395 194.12 122.495 197.82C122.695 195.12 122.795 192.72 122.895 191.22C123.495 183.52 120.795 173.32 116.195 175.72C109.295 179.22 111.895 188.42 115.095 197.72C115.595 194.22 116.695 191.92 118.195 191.82Z" fill="#AA4B29"/>
<path d="M84.2952 211.62H85.2952C88.9952 195.32 96.0952 197.52 97.5952 183.02C98.1952 178.12 95.5953 169.32 90.8953 171.72C78.9953 178.02 84.1952 205.62 84.2952 211.62Z" fill="#BF643C"/>
<path d="M95.7954 187.42C93.5954 195.52 88.2954 201.02 83.8954 199.72L83.2954 199.42C83.5954 204.92 84.2954 209.52 84.2954 211.62H85.2954C88.9954 195.32 96.5954 198.12 98.0954 183.62C98.4954 180.12 97.5954 181.02 95.7954 187.42Z" fill="#AA4B29"/>
<path d="M135.395 158.52C135.595 168.72 134.795 177.92 139.795 180.12C144.795 182.32 151.095 175.02 157.995 175.72C158.495 173.42 153.895 168.92 152.295 167.52C150.695 166.12 150.795 156.52 148.695 153.72C146.595 150.92 133.695 147.22 130.395 151.82C131.935 154.146 133.604 156.382 135.395 158.52Z" fill="#BF643C"/>
<path d="M148.195 173.82C142.795 172.12 138.795 168.82 139.195 166.02C139.595 163.22 146.395 163.52 151.495 165.72C150.595 162.52 150.395 155.92 148.695 153.72C151.595 159.62 144.595 160.02 131.595 150.72C128.395 155.42 135.395 158.52 135.395 158.52C133.895 169.62 135.295 179.32 140.395 181.32C147.395 184.02 149.895 176.72 157.595 176.82C160.695 176.82 158.095 172.32 155.195 172.42C154.395 174.62 150.195 174.52 148.195 173.82Z" fill="#AA4B29"/>
<path d="M158.095 176.52C155.395 176.32 153.795 172.02 155.395 171.82C156.995 171.62 160.695 173.02 160.795 174.02C160.895 175.02 158.095 176.52 158.095 176.52Z" fill="#633529"/>
<path d="M98.0952 152.72C98.0952 152.72 88.5952 148.52 85.3952 158.32C83.1952 165.22 89.2952 174.32 89.2952 174.32L99.4952 172.12C92.5952 169.32 88.9952 164.32 89.6952 159.32C90.3952 154.32 93.6952 151.92 98.0952 152.72Z" fill="#BF643C"/>
<path d="M105.495 193.32L102.595 192.72C101.795 196.92 103.595 200.62 104.695 201.62L107.295 202.32C106.295 201.32 104.795 197.82 105.495 193.32Z" fill="#E8872E"/>
<path d="M116.995 174.12L116.295 177.12C121.721 182.121 126.675 187.611 131.095 193.52L132.295 192.22C132.295 192.22 124.995 179.72 116.995 174.12Z" fill="#E8872E"/>
<path d="M100.195 170.42C99.9325 170.412 99.6708 170.461 99.4289 170.565C99.187 170.668 98.9708 170.824 98.7955 171.02C93.5955 177.92 88.9955 190.72 104.595 195.72C120.195 200.72 118.196 178.32 117.896 173.22C117.873 172.936 117.749 172.669 117.548 172.468C117.346 172.266 117.08 172.143 116.795 172.12C111.209 172.354 105.618 171.781 100.195 170.42Z" fill="#F4AE34"/>
<path d="M116.295 176.72C116.578 175.909 116.779 175.071 116.895 174.22V173.72C116.873 173.462 116.76 173.221 116.577 173.038C116.394 172.855 116.153 172.743 115.895 172.72C110.777 172.941 105.655 172.402 100.695 171.12C100.447 171.112 100.2 171.162 99.9745 171.266C99.7488 171.371 99.5506 171.526 99.3954 171.72C97.1365 174.645 95.6261 178.078 94.9954 181.72C95.3766 183.289 96.274 184.684 97.5435 185.682C98.813 186.679 100.381 187.221 101.995 187.22C107.695 187.62 114.195 182.92 116.295 176.72Z" fill="#FFC248"/>
<path d="M117.895 173.22C117.87 172.995 117.782 172.781 117.64 172.604C117.498 172.427 117.31 172.294 117.095 172.22C117.395 178.02 117.995 199.12 103.995 194.72C100.283 193.655 97.0399 191.364 94.7954 188.22C96.1954 191.32 99.1954 194.32 104.595 196.02C118.995 200.62 118.195 178.32 117.895 173.22Z" fill="#E8872E"/>
<path d="M131.396 191.12C131.396 191.12 131.195 201.02 124.095 203.32L126.295 202.92C132.095 201.02 134.095 192.32 134.095 192.32L131.396 191.12Z" fill="#E8872E"/>
<path d="M139.995 184.42C137.381 187.462 134.575 190.334 131.595 193.02L133.095 194.12C135.334 192.636 137.442 190.963 139.396 189.12C140.196 188.52 140.695 184.62 139.995 184.42Z" fill="#E8872E"/>
<path d="M19.4955 99.1201L18.1955 97.6201L13.0955 97.5201L17.2955 96.7201L14.4955 95.7201L17.1955 95.9201L17.5955 92.2201L18.3955 96.4201L19.4955 99.1201Z" fill="#D6B683"/>
<g style="mix-blend-mode:multiply" opacity="0.6">
<path d="M20.0954 61.9201C20.0954 61.9201 18.3954 65.4201 23.1954 68.4201C25.8775 70.1882 29.1192 70.9006 32.2954 70.4201C34.2181 72.3778 36.5886 73.8378 39.2021 74.6741C41.8155 75.5105 44.5933 75.6978 47.2954 75.22C56.8954 73.82 47.2954 64.72 46.9954 62.72C46.8916 62.0576 46.8248 61.3899 46.7954 60.72L45.9954 60.22C45.8216 60.1458 45.6345 60.1075 45.4454 60.1075C45.2564 60.1075 45.0693 60.1458 44.8954 60.22C42.6954 57.72 35.5954 42.12 28.9954 42.32C28.2954 42.32 25.0954 52.12 24.1954 57.22L23.7954 56.6201C21.2528 56.4183 18.6963 56.7591 16.2954 57.6201C17.2539 59.2987 18.5474 60.7624 20.0954 61.9201Z" fill="#843131"/>
</g>
<path d="M35.4953 24.1201C28.1953 34.4201 29.4953 37.8201 29.4953 37.8201C29.4953 37.8201 25.6953 43.3201 28.8953 49.2201C28.6249 50.8534 28.7769 52.5287 29.3371 54.0865C29.8972 55.6444 30.8467 57.033 32.0952 58.1201C36.2952 61.6201 39.4953 61.5201 39.4953 61.5201C39.4953 61.5201 39.2952 67.5201 51.7952 67.0201C64.2952 66.5201 63.3953 62.8201 63.3953 62.8201C63.5953 58.1201 56.7952 53.9201 56.2952 48.9201C55.7952 43.9201 56.2952 34.0201 53.7952 30.8201C51.2952 27.6201 35.4953 24.1201 35.4953 24.1201Z" fill="#C6AA97"/>
<path d="M55.7952 20.9201C58.4952 27.2201 54.1953 37.92 54.6953 44.22C55.1953 50.52 41.9952 48.32 39.2952 47.02C36.5952 45.72 36.4953 31.82 33.9953 28.52C28.6953 21.62 53.9952 16.6201 55.7952 20.9201Z" fill="#FFB882"/>
<path d="M31.2954 38.1201C28.0954 37.9201 25.3954 35.6201 25.9954 33.2201C26.5954 30.8201 29.0955 29.1201 30.8955 31.7201C32.6955 34.3201 31.2954 38.1201 31.2954 38.1201Z" fill="#FFB882"/>
<path d="M30.4953 36.92C28.6953 36.82 27.0953 35.52 27.4953 34.22C27.8953 32.92 29.2953 31.82 30.2953 33.22C31.2953 34.62 30.4953 36.92 30.4953 36.92Z" fill="#EA7B59"/>
<path d="M30.5953 37.32C29.3953 37.22 28.2953 36.3201 28.4953 35.4201C28.6953 34.5201 29.7953 33.82 30.4953 34.82C30.6909 35.205 30.8011 35.6276 30.8184 36.0591C30.8357 36.4906 30.7595 36.9207 30.5953 37.32Z" fill="#FFB882"/>
<path d="M28.6953 100.02C28.6953 99.8201 27.9952 99.6201 27.0952 99.5201C26.529 99.413 25.9451 99.4474 25.3953 99.6201C25.3953 99.8201 26.0952 100.02 26.9952 100.12C27.8952 100.22 28.6953 100.22 28.6953 100.02Z" fill="#D62D61"/>
<path d="M29.3953 93.72C29.3953 93.52 28.6953 93.42 27.7953 93.42C26.8953 93.42 26.1953 93.52 26.1953 93.72C26.6891 93.9707 27.2443 94.0748 27.7953 94.02C28.6953 94.02 29.3953 93.92 29.3953 93.72Z" fill="#D62D61"/>
<path d="M29.6954 87.72C29.6954 87.52 28.9953 87.32 28.0953 87.32C27.5443 87.2652 26.9891 87.3694 26.4954 87.6201C26.4954 87.8201 27.1953 88.02 28.0953 88.02C28.6464 88.0748 29.2016 87.9708 29.6954 87.72Z" fill="#D62D61"/>
<path d="M120.295 211.62H123.095C123.095 211.62 122.395 209.72 121.395 209.62C120.395 209.52 120.295 211.62 120.295 211.62Z" fill="#BF643C"/>
<path d="M97.5955 211.62H100.396C100.396 211.62 99.6955 209.72 98.6955 209.62C97.6955 209.52 97.5955 211.62 97.5955 211.62Z" fill="#87331D"/>
<path d="M84.5955 211.62H87.4955C87.4955 211.62 86.7955 209.72 85.7955 209.62C84.7955 209.52 84.5955 211.62 84.5955 211.62Z" fill="#BF643C"/>
<path d="M132.795 211.62H135.595C135.595 211.62 134.995 209.72 133.995 209.62C132.995 209.52 132.795 211.62 132.795 211.62Z" fill="#87331D"/>
<path d="M144.195 159.72C142.901 159.554 141.6 159.454 140.295 159.42C140.295 159.42 140.295 161.52 141.795 161.62C143.295 161.72 144.195 159.72 144.195 159.72Z" fill="#47261F"/>
<path d="M150.395 160.22L146.995 160.02C146.995 160.02 147.295 161.82 148.695 162.02C150.095 162.22 150.395 160.22 150.395 160.22Z" fill="#47261F"/>
<path d="M144.795 160.02L139.195 159.62C139.195 159.62 138.895 157.52 139.795 157.22C141.563 157.32 143.295 157.761 144.895 158.52C145.195 158.82 144.795 160.02 144.795 160.02Z" fill="#BF643C"/>
<path d="M146.295 160.22L150.995 160.52C150.995 160.52 151.595 158.52 150.895 158.12C150.195 157.72 146.895 158.32 146.595 158.62C146.295 158.92 146.295 160.22 146.295 160.22Z" fill="#BF643C"/>
<path d="M157.795 174.42C156.627 174.05 155.587 173.356 154.795 172.42C154.495 173.62 155.995 176.32 158.095 176.52C158.095 176.52 160.195 176.22 160.695 174.92C159.706 174.934 158.723 174.765 157.795 174.42Z" fill="#49231B"/>
<path d="M115.595 173.52C115.095 177.52 125.995 180.02 129.495 179.62C132.995 179.22 137.595 159.32 137.795 155.62C137.995 151.92 131.995 148.62 130.295 152.02C124.795 163.72 115.895 171.52 115.595 173.52Z" fill="#BF643C"/>
<path d="M137.395 153.82C137.355 156.234 136.95 158.627 136.195 160.92C133.695 169.02 127.895 174.92 123.295 174.02C121.095 173.62 119.495 171.82 118.795 169.12C116.995 171.32 115.695 172.82 115.595 173.52C115.095 177.52 126.395 180.52 129.895 180.02C133.395 179.52 137.595 159.32 137.795 155.62C137.768 155.001 137.633 154.392 137.395 153.82Z" fill="#A04627"/>
<path d="M69.0954 115.92C69.8134 115.92 70.3954 115.338 70.3954 114.62C70.3954 113.902 69.8134 113.32 69.0954 113.32C68.3774 113.32 67.7954 113.902 67.7954 114.62C67.7954 115.338 68.3774 115.92 69.0954 115.92Z" fill="#FFE5BB"/>
<path d="M63.5955 112.72C63.5949 112.9 63.6316 113.077 63.7031 113.242C63.7746 113.406 63.8794 113.554 64.0109 113.677C64.1424 113.799 64.2978 113.892 64.4672 113.951C64.6367 114.01 64.8166 114.034 64.9955 114.02C65.3403 114.02 65.6709 113.883 65.9147 113.639C66.1585 113.396 66.2955 113.065 66.2955 112.72C66.3093 112.541 66.2859 112.361 66.2268 112.192C66.1676 112.022 66.0741 111.867 65.952 111.735C65.8299 111.604 65.6818 111.499 65.5172 111.428C65.3526 111.356 65.175 111.32 64.9955 111.32C64.6242 111.32 64.2681 111.468 64.0056 111.73C63.743 111.993 63.5955 112.349 63.5955 112.72Z" fill="#FFE5BB"/>
<path d="M25.1953 114.72C25.1816 114.891 25.2019 115.063 25.2549 115.226C25.3079 115.389 25.3926 115.539 25.5041 115.67C25.6157 115.8 25.7518 115.906 25.9047 115.984C26.0576 116.061 26.2244 116.107 26.3953 116.12C26.7512 116.149 27.1047 116.041 27.3835 115.818C27.6624 115.595 27.8455 115.274 27.8953 114.92C27.9091 114.741 27.8857 114.561 27.8266 114.392C27.7675 114.222 27.6739 114.067 27.5517 113.935C27.4296 113.804 27.2816 113.699 27.117 113.628C26.9524 113.556 26.7747 113.519 26.5953 113.52C26.4244 113.506 26.2526 113.527 26.0896 113.58C25.9267 113.633 25.7758 113.717 25.6457 113.829C25.5156 113.94 25.4088 114.077 25.3315 114.229C25.2542 114.382 25.2079 114.549 25.1953 114.72Z" fill="#FFE5BB"/>
<path d="M21.1953 112.42C21.1944 112.775 21.3281 113.116 21.5694 113.376C21.8107 113.636 22.1416 113.795 22.4953 113.82C22.6661 113.834 22.838 113.813 23.0009 113.76C23.1639 113.707 23.3148 113.623 23.4449 113.511C23.575 113.4 23.6817 113.264 23.759 113.111C23.8363 112.958 23.8827 112.791 23.8953 112.62C23.9243 112.264 23.8162 111.911 23.5931 111.632C23.3701 111.353 23.0489 111.17 22.6953 111.12C22.3298 111.117 21.9757 111.247 21.6995 111.486C21.4233 111.726 21.244 112.058 21.1953 112.42Z" fill="#FFE5BB"/>
<path d="M53.4953 38.0201C53.4953 36.7201 52.7953 35.6201 52.0953 35.6201C51.3953 35.6201 50.6953 36.7201 50.6953 38.0201C50.6953 39.3201 51.2953 40.4201 52.0953 40.4201C52.8953 40.4201 53.4953 39.4201 53.4953 38.0201Z" fill="#4F3131"/>
<path d="M47.2955 33.9201C48.2955 32.5201 52.7955 46.6201 52.3955 48.0201C51.9955 49.4201 47.6955 48.1201 47.6955 48.1201C47.6955 48.1201 47.0955 34.1201 47.2955 33.9201Z" fill="#FFB882"/>
<path d="M47.7954 34.3201C49.3954 37.4201 52.4954 46.6201 52.1954 47.8201C51.8954 49.0201 49.1954 48.1201 47.9954 48.0201C48.0484 48.1124 48.0824 48.2144 48.0954 48.3201C48.0954 48.3201 52.8954 49.1201 52.9954 48.4201C53.0954 47.7201 49.0954 34.5201 47.7954 34.3201Z" fill="#EA7B59"/>
<path d="M44.2952 37.82C44.2952 36.52 43.5952 35.42 42.7952 35.42C41.9952 35.42 41.3953 36.52 41.3953 37.82C41.3953 39.12 42.0953 40.22 42.8953 40.22C43.6953 40.22 44.2952 39.22 44.2952 37.82Z" fill="#4F3131"/>
<path d="M45.3953 33.1201C44.1953 34.7201 38.3953 34.2201 37.7953 33.2201C37.1953 32.2201 36.8953 31.3201 38.0953 30.7201C39.2953 30.1201 44.5953 29.0201 45.3953 29.7201C46.1953 30.4201 45.9953 32.3201 45.3953 33.1201Z" fill="#C6AA97"/>
<path d="M49.2954 32.9201C50.4954 34.6201 54.6954 33.7201 54.8954 32.7201C55.0954 31.7201 55.1954 30.7201 54.1954 30.2201C53.1954 29.7201 49.0954 28.7201 48.5954 29.5201C48.0954 30.3201 48.7954 32.2201 49.2954 32.9201Z" fill="#C6AA97"/>
<path d="M52.9953 51.02H43.6953C43.6953 51.02 44.3953 56.3201 45.9953 56.6201C47.5953 56.9201 51.1953 56.42 51.8953 55.52C52.5953 54.62 52.9953 51.02 52.9953 51.02Z" fill="#542A29"/>
<path d="M51.9955 54.1201C52.2665 53.1695 52.467 52.2002 52.5955 51.2201H44.0955C44.2285 52.2735 44.4629 53.3117 44.7955 54.3201L51.9955 54.1201Z" fill="#FFF7E9"/>
<g style="mix-blend-mode:multiply" opacity="0.6">
<path d="M55.7954 20.9201C54.2954 17.2201 35.0954 20.4201 33.3954 25.8201C32.4954 26.0201 24.4954 28.2201 23.4954 31.0201C22.4954 33.8201 24.4954 39.4201 28.1954 40.4201L27.8954 41.8201C35.0954 36.3201 47.8954 31.4201 56.3954 30.5201C56.8954 27.0201 56.9954 23.5201 55.7954 20.9201Z" fill="#843131"/>
</g>
<path d="M48.3953 3.12008C46.3953 2.62008 39.1953 5.92007 36.4953 6.92007C33.7953 7.92007 22.9953 8.82003 22.4953 9.82003C21.9953 10.82 22.4953 17.7201 23.5953 26.6201L55.8953 19.7201C55.8953 19.7201 50.2953 3.52008 48.3953 3.12008Z" fill="#915650"/>
<path d="M45.2953 21.22C35.2953 21.22 26.9954 16.92 26.6954 11.72C26.6514 10.5853 26.9663 9.46552 27.5953 8.52002C24.9953 8.92002 22.6954 9.32001 22.4954 9.82001C22.2954 10.32 22.4953 17.7201 23.5953 26.6201L55.8954 19.72C55.8902 19.5812 55.8561 19.4449 55.7953 19.32C52.4516 20.6279 48.8854 21.2732 45.2953 21.22Z" fill="#7A3E3B"/>
<g style="mix-blend-mode:overlay">
<path d="M22.9953 21.2201C33.0151 17.3683 43.6607 15.402 54.3953 15.4201L53.2953 12.8201C41.4953 13.6201 33.3953 14.8201 22.6953 18.4201C22.7953 19.3201 22.7953 20.2201 22.9953 21.2201Z" fill="#E5CB9C"/>
</g>
<path d="M37.9955 19.82C26.3955 22.82 10.5955 35.32 10.5955 35.32L11.0955 35.9201C18.9955 31.7201 42.3955 23.1201 68.8955 22.6201L69.1955 21.7201C69.1955 21.7201 52.7955 16.02 37.9955 19.82Z" fill="#915650"/>
<path d="M32.1955 24.8201C32.2437 23.5267 32.7383 22.2899 33.5955 21.3201C22.7955 25.7201 10.5955 35.3201 10.5955 35.3201L11.0955 35.9201C18.2673 32.4403 25.772 29.693 33.4955 27.7201C32.7862 26.9024 32.334 25.8936 32.1955 24.8201Z" fill="#7A3E3B"/>
<path d="M82.2954 119.32C82.2954 118.12 84.4954 118.02 84.8954 118.62C85.2954 119.22 88.6954 122.92 88.2954 123.62C87.8954 124.32 86.1954 124.92 85.5954 124.42C84.9954 123.92 82.2954 120.32 82.2954 119.32Z" fill="#FFB882"/>
<path d="M78.6953 119.82C78.6953 118.62 80.8953 118.52 81.3953 119.12C81.8953 119.72 85.0953 123.42 84.6953 124.22C84.3938 124.601 83.9838 124.881 83.5196 125.024C83.0554 125.167 82.5587 125.165 82.0953 125.02C81.4953 124.52 78.7953 120.82 78.6953 119.82Z" fill="#FFB882"/>
<path d="M75.9954 120.72C76.0954 119.52 78.0954 119.12 78.4954 119.72C78.8954 120.32 81.6954 123.82 81.0954 124.52C80.4954 125.22 78.7954 125.72 78.3954 125.22C77.9954 124.72 75.8954 121.62 75.9954 120.72Z" fill="#FFB882"/>
<path d="M215.295 48.6201C226.295 60.5201 237.595 60.52 247.295 54.42C240.395 39.22 250.295 29.12 241.995 15.82C236.395 6.62001 222.795 2.72002 214.395 22.02C212.195 27.32 213.195 33.82 213.195 33.82C213.195 33.82 214.495 22.7201 219.995 26.1201C225.495 29.5201 215.295 48.6201 215.295 48.6201Z" fill="#824433"/>
<path d="M241.995 15.8201C240.007 12.436 236.837 9.90709 233.095 8.72009C235.638 9.89471 237.665 11.9571 238.795 14.5201C241.595 21.6201 235.495 30.5201 225.195 34.4201C223.7 34.9784 222.162 35.4132 220.595 35.7201C219.195 40.1615 217.422 44.4768 215.295 48.6201C226.295 60.5201 237.595 60.5201 247.295 54.4201C240.395 39.2201 250.295 29.1201 241.995 15.8201Z" fill="#6D3022"/>
<path d="M232.895 29.4201C227.395 29.0201 221.195 42.92 220.395 53.32C227.395 58.62 234.495 59.5201 241.095 57.4201C241.175 56.8907 241.209 56.3553 241.195 55.82C236.195 40.02 238.695 29.7201 232.895 29.4201Z" fill="#562017"/>
<path d="M198.195 73.0201C204.895 67.9201 217.395 52.7201 219.995 50.8201C222.595 48.9201 227.195 49.8201 226.495 54.1201C225.795 58.4201 205.695 77.2201 202.695 77.7201C199.695 78.2201 196.395 74.3201 198.195 73.0201Z" fill="#FFC84D"/>
<path d="M225.795 50.6201C219.995 51.6201 204.395 75.2201 201.495 75.7201C200.772 75.7637 200.048 75.6319 199.387 75.3359C198.725 75.04 198.145 74.5885 197.695 74.0201C197.495 75.9201 200.195 79.0201 202.795 78.6201C205.395 78.2201 226.295 58.4201 227.095 54.1201C227.231 53.4735 227.181 52.8016 226.951 52.1823C226.721 51.5629 226.32 51.0213 225.795 50.6201Z" fill="#FFA33E"/>
<path d="M220.395 209.52H221.695L214.595 152.22L226.295 118.72L212.395 91.8201C210.595 96.3873 209.353 101.155 208.695 106.02C206.295 122.62 202.895 148.52 203.095 150.02C203.295 151.52 220.395 209.52 220.395 209.52Z" fill="#564143"/>
<path d="M223.295 113.02L211.895 151.52L221.495 209.52H221.695L215.195 152.32L226.295 118.72L223.295 113.02Z" fill="#443033"/>
<path d="M230.195 209.52H230.995C230.995 209.52 238.195 124.12 238.495 114.82C238.795 105.52 233.095 88.72 233.095 88.72L213.896 88.02L211.095 113.02L220.195 122.72L230.195 209.52Z" fill="#564143"/>
<path d="M219.395 124.22L221.795 135.62L221.495 125.02L226.995 121.32C221.895 122.82 219.295 121.82 214.895 118.02L219.395 124.22Z" fill="#443033"/>
<path d="M230.995 209.52C230.995 209.52 239.695 123.72 239.995 114.42C240.295 105.12 233.095 88.7201 233.095 88.7201L212.295 87.8201L209.495 101.22L232.495 109.72C234.295 116.72 231.295 193.32 230.695 209.52H230.995Z" fill="#443033"/>
<path d="M208.695 99.1201C216.295 104.92 232.495 104.52 237.995 101.02C237.995 101.02 230.995 84.92 232.795 76.52C234.595 68.12 241.895 53.82 240.095 50.32C238.295 46.82 225.195 46.42 219.795 54.42C214.395 62.42 208.695 99.1201 208.695 99.1201Z" fill="#FFC84D"/>
<path d="M232.795 76.52C234.595 68.32 241.895 53.82 240.095 50.32C238.295 46.82 225.195 46.42 219.795 54.42C214.395 62.42 208.695 99.1201 208.695 99.1201L209.695 99.82C210.195 90.32 214.595 83.72 218.995 83.22C223.395 82.72 229.095 91.42 230.895 103.22C233.763 102.854 236.541 101.974 239.095 100.62C239.095 100.62 230.995 84.92 232.795 76.52Z" fill="#FFA33E"/>
<path d="M209.195 76.7201C217.595 77.8201 228.495 77.8201 229.895 76.0201C231.295 74.2201 238.795 50.5201 238.395 48.9201C237.995 47.3201 224.395 48.3201 220.895 50.1201C217.395 51.9201 209.195 76.7201 209.195 76.7201Z" fill="#FFC84D"/>
<path d="M224.195 49.12C223.195 52.42 221.595 57.32 221.595 57.32L237.396 48.32C235.096 47.82 228.595 48.22 224.195 49.12Z" fill="#FFF2BB"/>
<path d="M249.095 82.6201C246.095 74.7201 237.595 63.32 236.495 60.22C235.395 57.12 235.295 47.32 239.195 49.32C243.095 51.32 256.095 77.12 255.795 80.02C255.495 82.92 249.895 84.8201 249.095 82.6201Z" fill="#FFC84D"/>
<path d="M249.995 66.1201C252.195 71.0201 251.595 72.7201 250.095 73.7201C248.595 74.7201 243.995 70.9201 238.695 62.6201C237.695 60.9201 236.895 58.8201 235.895 57.3201C236.095 58.5201 235.995 59.9201 236.195 60.6201C237.295 63.7201 246.095 74.7201 249.095 82.6201C249.895 84.8201 255.395 83.3201 255.795 80.0201C255.895 78.7201 253.295 72.5201 249.995 66.1201Z" fill="#FFA33E"/>
<path d="M206.595 74.6201C206.695 73.9568 206.662 73.2804 206.5 72.6298C206.337 71.9791 206.048 71.3669 205.648 70.8281C205.249 70.2894 204.747 69.8348 204.172 69.4902C203.597 69.1456 202.959 68.9178 202.295 68.82C201.617 68.72 200.926 68.7665 200.267 68.9561C199.608 69.1458 198.998 69.4743 198.477 69.9196C197.956 70.3649 197.536 70.9166 197.246 71.5377C196.956 72.1587 196.802 72.8346 196.795 73.52C196.711 74.8411 197.144 76.1431 198.003 77.1508C198.861 78.1585 200.078 78.7929 201.395 78.9201C202.654 79.0317 203.905 78.6428 204.879 77.8379C205.852 77.033 206.469 75.8768 206.595 74.6201Z" fill="#D62D61"/>
<path d="M205.395 70.6201C205.136 71.7566 204.48 72.7635 203.546 73.46C202.611 74.1564 201.459 74.4969 200.295 74.4201C199.635 74.3708 198.992 74.1854 198.407 73.8756C197.822 73.5658 197.307 73.1384 196.895 72.6201C196.814 72.9127 196.78 73.2166 196.795 73.5201C196.711 74.8412 197.144 76.1431 198.003 77.1508C198.861 78.1585 200.078 78.793 201.395 78.9201C202.654 79.0317 203.905 78.6429 204.879 77.838C205.852 77.033 206.469 75.8769 206.595 74.6201C206.683 73.9067 206.621 73.1828 206.415 72.4943C206.208 71.8059 205.861 71.1677 205.395 70.6201Z" fill="#AD1E51"/>
<path d="M184.695 47.52C187.195 50.02 208.095 71.42 204.095 76.02C203.395 76.92 202.195 76.62 201.095 76.42C200.58 76.3764 200.086 76.1958 199.664 75.8969C199.242 75.5979 198.907 75.1916 198.695 74.72L183.895 47.72L184.695 47.52Z" fill="#FFB882"/>
<path d="M201.695 73.82C200.473 73.5685 199.397 72.8512 198.695 71.82L184.595 47.52L183.895 47.72L198.295 75.22C198.577 75.7366 198.978 76.1784 199.465 76.5089C199.952 76.8393 200.511 77.0489 201.095 77.1201C201.648 77.2264 202.219 77.1801 202.748 76.9863C203.276 76.7925 203.742 76.4585 204.095 76.02C204.695 75.42 204.695 74.42 204.395 73.22C204.01 73.4982 203.571 73.6949 203.107 73.798C202.643 73.9012 202.162 73.9087 201.695 73.82Z" fill="#FF9566"/>
<path d="M256.495 80.2201C256.641 78.8743 256.267 77.5236 255.449 76.4452C254.631 75.3667 253.431 74.6421 252.095 74.4201C251.417 74.3201 250.726 74.3665 250.067 74.5562C249.408 74.7458 248.798 75.0744 248.277 75.5197C247.756 75.965 247.336 76.5167 247.046 77.1377C246.756 77.7588 246.602 78.4347 246.595 79.1201C246.538 80.4509 246.994 81.7529 247.868 82.7577C248.743 83.7624 249.969 84.3933 251.295 84.5201C252.543 84.5821 253.768 84.1753 254.73 83.3795C255.692 82.5838 256.322 81.4567 256.495 80.2201Z" fill="#D62D61"/>
<path d="M253.895 75.02C254.081 75.6361 254.115 76.2879 253.995 76.92C253.933 77.5386 253.749 78.1387 253.453 78.6855C253.157 79.2323 252.756 79.715 252.272 80.1056C251.788 80.4962 251.232 80.7871 250.635 80.9612C250.039 81.1353 249.413 81.1893 248.795 81.1201C248.063 81.0598 247.349 80.8559 246.695 80.52C246.944 81.586 247.522 82.5466 248.348 83.2648C249.174 83.983 250.205 84.4222 251.295 84.52C252.542 84.582 253.768 84.1752 254.73 83.3795C255.692 82.5837 256.322 81.4567 256.495 80.22C256.591 79.1969 256.398 78.1675 255.939 77.2484C255.479 76.3293 254.771 75.5574 253.895 75.02Z" fill="#AD1E51"/>
<path d="M237.195 108.52C240.395 95.12 246.695 80.12 248.095 77.92C249.495 75.72 250.095 76.82 251.595 77.02C253.095 77.22 253.195 78.12 253.695 79.12C253.885 79.6696 253.938 80.2568 253.851 80.8315C253.764 81.4061 253.539 81.9512 253.195 82.42L237.995 109.62L237.195 108.52Z" fill="#FFB882"/>
<path d="M222.695 212.02H212.895C212.895 212.02 219.195 206.82 220.795 207.82C222.395 208.82 222.695 212.02 222.695 212.02Z" fill="#E5CB9C"/>
<path d="M232.895 212.02H224.795C224.795 212.02 229.395 206.82 230.995 207.82C232.595 208.82 232.895 212.02 232.895 212.02Z" fill="#E5CB9C"/>
<path d="M254.195 78.9201C253.939 78.4233 253.571 77.9929 253.12 77.6631C252.668 77.3333 252.147 77.1131 251.595 77.02C250.725 76.8733 249.833 76.942 248.995 77.22C249.442 77.3157 249.861 77.5087 250.224 77.7853C250.587 78.0619 250.885 78.4152 251.095 78.82C251.382 79.3194 251.542 79.8819 251.559 80.4575C251.576 81.0332 251.452 81.6042 251.195 82.1201L237.795 109.22L237.995 109.62L254.095 82.32C254.383 81.8026 254.542 81.2238 254.559 80.6322C254.577 80.0406 254.452 79.4535 254.195 78.9201Z" fill="#FF9566"/>
<path d="M225.395 51.5201L230.395 34.5201L237.895 30.6201L234.895 48.0201L225.395 51.5201Z" fill="#FFB882"/>
<g style="mix-blend-mode:multiply" opacity="0.6">
<path d="M222.495 59.1201C228.895 59.8201 234.695 52.8201 240.195 50.2201L239.195 49.3201H239.095L238.395 48.9201C238.295 48.7201 237.995 48.5201 237.395 48.4201L235.495 48.2201H234.895L237.895 30.8201L230.395 34.6201L226.195 48.9201L224.195 49.3201C223.056 49.5065 221.947 49.8428 220.895 50.3201L220.295 50.8201L219.995 51.0201L219.295 51.7201C218.095 55.6201 218.795 58.6201 222.495 59.1201Z" fill="#843131"/>
</g>
<path d="M219.795 45.9201C215.395 28.8201 218.195 20.4201 223.495 15.0201C228.795 9.62007 241.595 15.4201 239.995 27.0201C237.295 46.4201 219.795 45.9201 219.795 45.9201Z" fill="#FFB882"/>
<path d="M219.295 26.5201C219.495 25.0201 220.395 23.9201 221.295 24.0201C222.195 24.1201 222.695 25.4201 222.395 26.9201C222.095 28.4201 221.295 29.4201 220.495 29.3201C219.695 29.2201 219.095 27.9201 219.295 26.5201Z" fill="#66423B"/>
<path d="M227.795 27.7201C227.995 26.0201 228.995 24.7201 229.895 24.7201C230.795 24.7201 231.395 26.2201 231.195 27.9201C230.995 29.6201 230.095 30.9201 229.095 30.8201C228.095 30.7201 227.595 29.3201 227.795 27.7201Z" fill="#66423B"/>
<path d="M232.795 27.6201C232.795 27.6201 230.195 25.02 227.495 25.22C227.807 24.8237 228.239 24.5405 228.727 24.4141C229.215 24.2876 229.731 24.3248 230.195 24.52C232.095 25.12 232.795 27.6201 232.795 27.6201Z" fill="#66423B"/>
<path d="M218.395 25.1201C218.395 25.1201 221.295 23.7201 223.495 24.7201C223.335 24.2887 223.05 23.9152 222.675 23.6478C222.301 23.3804 221.855 23.2314 221.395 23.2201C219.695 23.1201 218.395 25.1201 218.395 25.1201Z" fill="#66423B"/>
<path d="M233.895 24.6201L234.095 24.3201C233.749 23.2906 233.186 22.3473 232.444 21.5538C231.702 20.7603 230.799 20.135 229.795 19.7201L229.495 21.0201C230.454 21.2476 231.348 21.6899 232.11 22.3135C232.872 22.9372 233.483 23.7259 233.895 24.6201Z" fill="#9B404B"/>
<path d="M218.495 21.8201C219.223 21.134 220.094 20.6169 221.044 20.3058C221.995 19.9947 223.003 19.8971 223.995 20.0201V18.8201C222.915 18.753 221.834 18.9448 220.843 19.3797C219.851 19.8145 218.978 20.4797 218.295 21.3201L218.495 21.8201Z" fill="#9B404B"/>
<path d="M222.396 31.7201C222.396 31.8201 222.296 31.8201 222.396 31.9201C222.417 32.1514 222.488 32.3753 222.605 32.5762C222.722 32.7771 222.881 32.9502 223.071 33.0834C223.261 33.2167 223.479 33.3069 223.707 33.3477C223.936 33.3886 224.171 33.3791 224.396 33.3201C224.933 33.0973 225.387 32.7128 225.695 32.2201C225.726 32.6929 225.579 33.1602 225.283 33.5302C224.987 33.9002 224.564 34.1463 224.095 34.2201C223.658 34.3093 223.203 34.223 222.829 33.9797C222.455 33.7365 222.191 33.3559 222.095 32.9201C222.101 32.5023 222.204 32.0915 222.396 31.7201Z" fill="#EA7B59"/>
<path d="M226.995 37.5201L220.995 36.8201C220.995 36.8201 221.295 40.0201 223.795 40.2201C226.295 40.4201 226.995 37.5201 226.995 37.5201Z" fill="#491D2E"/>
<path d="M226.595 37.52L221.495 37.02C221.495 37.02 220.995 38.32 223.895 38.72C226.795 39.12 226.595 37.52 226.595 37.52Z" fill="#FFEBEB"/>
<path d="M222.295 41.02C222.395 40.62 222.895 41.1201 223.495 41.2201C224.095 41.3201 224.695 40.92 224.695 41.32C224.695 41.72 224.095 41.9201 223.395 41.9201C222.695 41.9201 222.295 41.42 222.295 41.02Z" fill="#EF8F6F"/>
<path d="M235.595 35.6201C233.095 26.5201 236.595 20.2201 229.895 15.2201C223.195 10.2201 237.895 8.92006 240.995 15.2201C246.995 27.8201 235.595 35.6201 235.595 35.6201Z" fill="#6D3022"/>
<path d="M235.895 35.5201C235.995 31.4201 240.695 25.6201 241.995 29.1201C243.995 34.7201 235.895 38.6201 235.895 35.5201Z" fill="#FFB882"/>
<path d="M236.795 35.02C236.895 32.42 239.895 28.7201 240.695 30.9201C241.495 33.1201 236.795 37.02 236.795 35.02Z" fill="#EA7B59"/>
<path d="M236.795 35.4201C236.795 33.8201 238.695 31.4201 239.295 32.8201C239.895 34.2201 236.795 36.7201 236.795 35.4201Z" fill="#FFB882"/>
<path d="M223.095 104.42L218.295 103.42L218.095 107.22L222.896 108.22L223.095 104.42Z" fill="#443033"/>
<path d="M222.295 104.62L219.295 104.02L219.095 106.42L222.195 107.12L222.295 104.62Z" fill="#967C80"/>
<g style="mix-blend-mode:multiply" opacity="0.6">
<path d="M242.595 16.82L222.995 10.42C220.147 12.532 217.821 15.2688 216.195 18.42C226.279 22.2392 236.043 26.8537 245.395 32.22C245.695 27.22 245.695 22.32 242.595 16.82Z" fill="#843131"/>
</g>
<path d="M244.595 21.52C235.995 17.02 228.595 13.9201 220.195 12.1201C220.195 12.1201 228.395 0.120036 230.095 0.0200357C233.495 -0.379964 245.195 5.32005 246.695 7.22005C248.195 9.12005 244.595 21.52 244.595 21.52Z" fill="#FFC84D"/>
<path d="M246.695 7.22009C246.125 6.57603 245.449 6.03483 244.695 5.62012C243.195 9.22012 238.095 11.9201 231.895 11.9201C228.481 11.9857 225.119 11.0843 222.195 9.32007L220.195 12.1201C228.595 13.9201 235.995 17.0201 244.595 21.5201C244.595 21.5201 248.295 9.12009 246.695 7.22009Z" fill="#FFB533"/>
<path d="M210.095 4.82002C205.895 6.22002 215.395 11.6201 219.795 13.1201C227.495 14.6201 234.895 17.12 244.595 21.52C244.595 21.52 214.295 3.42002 210.095 4.82002Z" fill="#FF8931"/>
<path d="M229.995 3.92004L234.995 5.62006C234.995 5.62006 233.395 9.82004 229.295 10.42C228.865 9.36318 228.704 8.2162 228.827 7.08185C228.949 5.94749 229.35 4.86116 229.995 3.92004Z" fill="#E83A4F"/>
<path d="M186.196 48.6201C185.896 47.1201 185.895 47.22 185.595 46.92C185.295 46.62 184.296 45.5201 183.696 45.6201C183.096 45.7201 182.096 47.7201 182.696 48.1201C183.296 48.5201 184.695 48.62 185.995 49.72C187.295 50.82 186.196 48.6201 186.196 48.6201Z" fill="#FFB882"/>
<path d="M184.695 46.22C183.995 45.42 183.095 43.52 182.695 43.52C182.295 43.52 183.595 46.6201 183.595 46.6201L184.695 46.22Z" fill="#FFB882"/>
<path d="M185.895 47.72C185.812 46.3245 185.437 44.9618 184.795 43.72C184.395 43.62 184.795 47.52 184.795 47.52L185.895 47.72Z" fill="#FFB882"/>
<path d="M183.595 46.7201C182.695 46.1201 182.595 44.6201 182.095 44.7201C181.595 44.8201 182.495 47.3201 182.495 47.3201L183.595 46.7201Z" fill="#FFB882"/>
<path d="M183.795 47.32C182.695 47.22 181.895 46.32 181.395 46.52C180.895 46.72 182.795 48.32 182.795 48.32L183.795 47.32Z" fill="#FFB882"/>
<path d="M183.795 39.7201C182.895 45.9201 178.895 57.6201 181.495 59.4201C184.095 61.2201 184.795 40.2201 184.795 40.2201L183.795 39.7201Z" fill="#824433"/>
<path d="M181.095 27.4201L184.095 40.3201L184.595 41.2201L193.995 30.9201C193.995 30.9201 188.195 25.5201 181.095 27.4201Z" fill="#C1A7A0"/>
<path d="M186.695 35.92C183.795 36.22 181.996 31.52 181.396 27.42H181.095L183.995 40.6201L184.695 41.72L193.995 30.92L193.795 30.72C191.695 33.52 188.595 35.82 186.695 35.92Z" fill="#A58983"/>
<path d="M185.095 42.92L183.295 41.72L183.395 39.02L186.295 40.02L185.095 42.92Z" fill="#EADFBB"/>
<path d="M182.395 46.7201C181.895 46.5201 181.495 46.4201 181.495 46.6201C181.495 46.8201 181.695 47.1201 182.095 47.3201C182.495 47.5201 182.995 47.6201 182.995 47.4201C182.995 47.2201 182.795 46.9201 182.395 46.7201Z" fill="#FFB882"/>
<path d="M182.795 45.1201C182.495 44.8201 182.095 44.7201 182.095 44.9201C182.095 45.1201 182.295 45.4201 182.595 45.7201C182.895 46.0201 183.296 46.1201 183.396 45.9201C183.366 45.7488 183.296 45.587 183.192 45.448C183.087 45.3089 182.952 45.1966 182.795 45.1201Z" fill="#FFB882"/>
<path d="M183.495 43.6201C182.995 43.4201 182.595 43.4201 182.595 43.6201C182.595 43.8201 182.795 44.12 183.295 44.32C183.795 44.52 184.095 44.52 184.195 44.32C184.048 44.0142 183.801 43.7675 183.495 43.6201Z" fill="#FFB882"/>
<path d="M237.495 106.42C235.695 107.52 235.895 107.42 235.695 107.92C235.495 108.42 234.495 110.32 234.895 111.02C235.295 111.72 238.495 113.02 238.795 112.12C239.095 111.22 238.195 108.32 238.995 106.12C239.795 103.92 237.495 106.42 237.495 106.42Z" fill="#FFB882"/>
<path d="M235.295 109.42C234.595 110.72 232.395 114.42 232.595 114.92C232.795 115.42 236.295 110.62 236.295 110.62L235.295 109.42Z" fill="#FFB882"/>
<path d="M236.495 107.22C235.395 107.62 231.995 110.12 231.995 110.62C231.995 111.12 236.695 108.72 236.695 108.72L236.495 107.22Z" fill="#FFB882"/>
<path d="M236.295 110.52C236.095 112.02 234.995 116.42 235.395 116.92C235.795 117.42 237.695 111.72 237.695 111.72L236.295 110.52Z" fill="#FFB882"/>
<path d="M237.095 110.02C237.495 111.42 238.296 116.02 238.896 116.42C239.496 116.82 238.795 110.72 238.795 110.72L237.095 110.02Z" fill="#FFB882"/>
</svg>
