<svg width="200" height="253" viewBox="0 0 200 253" fill="none" xmlns="http://www.w3.org/2000/svg">
<path d="M8.60968 167.298C1.10968 157.498 -1.4903 147.098 0.809696 141.798C3.1097 136.498 12.6097 135.898 12.6097 135.898L8.60968 167.298Z" fill="#FF9536"/>
<path d="M67.1096 45.8984C60.0096 38.0984 47.3096 34.8984 41.1096 38.7984C34.9096 42.6984 40.1096 49.7984 40.1096 49.7984C40.1096 49.7984 22.9096 52.8984 21.9096 61.7984C20.9096 70.6984 26.4096 73.8984 26.4096 73.8984C25.1931 75.598 24.5225 77.6274 24.4868 79.7172C24.451 81.807 25.0519 83.8582 26.2096 85.5984C30.1096 91.6984 34.9097 94.0984 42.0097 91.8984L72.1096 62.6984C72.5423 59.7031 72.3192 56.6495 71.4559 53.7489C70.5927 50.8482 69.1097 48.1697 67.1096 45.8984Z" fill="#C6AA97"/>
<path d="M71.7096 54.6984L71.4096 55.5984C68.9096 60.4984 59.4096 60.6984 50.2096 56.0984C44.1096 52.9984 39.6096 48.4984 38.1096 44.3984C38.2753 46.3463 38.9665 48.2126 40.1096 49.7984L38.9096 49.9984C44.3096 55.2984 35.1096 66.2984 21.9096 61.8984C20.9096 70.3984 26.4096 73.8984 26.4096 73.8984C25.1931 75.598 24.5225 77.6275 24.4868 79.7173C24.451 81.807 25.0519 83.8582 26.2096 85.5984C30.1096 91.6984 34.9097 94.0984 42.0097 91.8984L72.1096 62.6984C72.5089 60.0317 72.3729 57.3121 71.7096 54.6984Z" fill="#AD8E79"/>
<path d="M43.3096 90.9984C29.3096 86.2984 31.4096 62.1984 46.0096 51.6984C60.6096 41.1984 75.5096 55.2984 73.9096 63.8984C72.3096 72.4984 50.8096 93.4984 43.3096 90.9984Z" fill="#FFF8D7"/>
<path d="M60.9097 63.6985C53.2097 61.4985 47.1097 57.1985 44.7097 52.6985C31.3097 63.6985 29.7097 86.3985 43.3097 90.9985C50.5097 93.3985 70.8097 73.9985 73.6097 64.8985C69.3386 65.3132 65.0275 64.9058 60.9097 63.6985Z" fill="#F9EAC5"/>
<path d="M125.61 16.7985C120.51 7.99851 116.31 11.0985 116.31 11.0985C116.31 11.0985 116.71 3.09851 110.81 0.798514C104.91 -1.50149 103.41 1.89852 103.41 1.89852C103.41 1.89852 94.2096 0.19852 88.5096 4.39852C82.8096 8.59852 87.4096 17.9985 87.4096 17.9985C87.4096 17.9985 84.3096 17.3985 83.1096 21.4985C81.9096 25.5985 85.5096 28.9985 85.5096 28.9985C77.9096 33.1985 87.0096 43.9985 98.3096 48.2985L125.11 54.7985C122.71 46.5985 129.21 22.9985 125.61 16.7985Z" fill="#8E4129"/>
<path d="M125.91 17.4984C125.41 21.7984 123.51 24.9984 121.31 24.9984C119.11 24.9984 116.41 20.3984 116.41 14.5984C116.406 13.3589 116.506 12.1212 116.71 10.8984L116.31 11.0984C116.31 11.0984 116.61 3.19844 111.01 0.898438C119.21 13.4984 105.91 12.6984 95.4096 30.8984C93.2096 34.6984 87.0096 29.2984 83.8096 26.7984C84.2978 27.5891 84.8676 28.3265 85.5096 28.9984C77.9096 33.1984 87.0096 43.9984 98.3096 48.2984L125.11 54.7984C122.71 46.7984 128.81 24.4984 125.91 17.4984Z" fill="#702F1D"/>
<path d="M97.9097 70.5984C83.7097 77.6984 65.5097 103.698 61.9097 109.598C60.1097 112.398 70.6097 122.598 76.8097 118.798C83.0097 114.998 90.7097 107.298 101.71 104.898C107.91 103.598 97.9097 70.5984 97.9097 70.5984Z" fill="#AAB244"/>
<path d="M101.21 92.1985C94.9096 94.2985 90.7097 100.799 85.0097 104.199C80.9097 106.599 75.5096 100.499 67.4096 101.599L61.9096 109.599C60.1096 112.399 70.5097 125.299 76.8097 121.599C83.1097 117.899 91.0097 108.999 102.01 106.599C104.11 106.099 101.51 92.0985 101.21 92.1985Z" fill="#8C932E"/>
<path d="M144.51 67.0984C154.81 73.6984 169.11 108.298 170.41 111.098C171.71 113.898 163.81 126.898 158.81 123.898C153.81 120.898 148.31 113.398 145.71 108.098C143.11 102.798 144.51 67.0984 144.51 67.0984Z" fill="#AAB244"/>
<path d="M170.409 111.099C170.065 110.418 169.765 109.717 169.51 108.998C167.11 106.098 162.01 105.899 159.61 106.299C155.31 106.899 151.41 90.6985 147.11 86.0985C146.51 85.4985 142.509 85.9985 141.409 90.9985C141.209 99.7985 143.41 108.499 144.51 110.799C147.21 116.199 153.81 122.998 158.81 125.998C163.81 128.998 171.709 113.899 170.409 111.099Z" fill="#8C932E"/>
<path d="M105.21 129.298L108.41 251.798H109.41L125.21 159.898L132.91 156.598L133.91 124.698L105.21 129.298Z" fill="#77444D"/>
<path d="M121.31 162.098L109.11 251.798H109.41L124.91 163.098L132.81 161.898L121.31 162.098Z" fill="#5B313A"/>
<path d="M11.7097 172.898L13.9097 251.798H14.9097L30.7097 164.298L11.7097 172.898Z" fill="#FFB882"/>
<path d="M35.6096 174.698L51.1096 251.798H52.1096L53.2096 166.298L35.6096 174.698Z" fill="#FFB882"/>
<path d="M149.01 122.998L117.31 127.398L123.41 162.898L131.31 161.398L156.51 251.798H157.71L149.01 122.998Z" fill="#77444D"/>
<path d="M137.109 159.498C128.809 162.098 123.81 162.298 116.51 159.998L124.109 164.098L131.31 162.898L156.51 251.798L157.31 251.598L133.81 162.298L137.109 159.498Z" fill="#5B313A"/>
<path d="M150.01 140.598L149.51 122.798L104.81 130.298L105.81 149.798C113.91 150.798 139.61 145.098 150.01 140.598Z" fill="#5B313A"/>
<path d="M122.61 146.298L124.51 159.098H125.51L125.31 145.598L122.61 146.298Z" fill="#5B313A"/>
<path d="M130.31 145.398L123.71 146.098L123.81 150.298L130.41 149.498L130.31 145.398Z" fill="#5B313A"/>
<path d="M128.756 146.202L124.18 146.667L124.461 149.432L129.037 148.967L128.756 146.202Z" fill="#9B596A"/>
<path d="M105.01 144.298C113.31 148.198 146.21 140.998 150.81 137.098C152.61 135.498 147.81 74.6984 146.71 69.6984C145.61 64.6984 127.51 61.4984 118.71 62.2984C109.91 63.0984 97.5098 70.4984 95.8098 71.9984C94.1098 73.4984 96.0098 102.698 101.01 110.998C102.41 113.398 102.41 143.198 105.01 144.298Z" fill="#A0AD40"/>
<path d="M146.71 69.6984C145.51 64.6984 127.51 61.4984 118.71 62.2984C109.91 63.0984 97.5098 70.4984 95.8098 71.9984C94.1098 73.4984 96.0098 102.698 101.01 110.998C102.41 113.398 102.41 143.198 105.01 144.298L105.71 144.598C104.661 141.575 104.121 138.399 104.11 135.198C104.11 120.898 114.51 109.298 127.31 109.298C140.11 109.298 150.51 120.898 150.51 135.198C150.526 135.9 150.493 136.602 150.41 137.298L150.81 137.098C152.61 135.498 147.81 74.6984 146.71 69.6984Z" fill="#AAB244"/>
<path d="M117.61 75.8984C122.41 75.5984 131.21 64.5984 132.41 63.1984C127.946 62.0148 123.317 61.5756 118.71 61.8984C113.637 62.5714 108.764 64.3094 104.41 66.9984C105.41 68.0984 112.91 76.0984 117.61 75.8984Z" fill="#F9EAC5"/>
<path d="M149.41 98.7985C149.61 115.998 149.51 133.398 148.61 134.298C144.31 138.198 115.11 145.798 107.31 141.998C104.81 140.798 104.11 143.698 106.71 144.798C115.01 148.698 146.21 140.998 150.81 137.098C151.81 136.198 150.71 116.698 149.41 98.7985Z" fill="#8C932E"/>
<path d="M108.61 142.398C104.41 139.598 105.21 114.898 103.21 111.798C101.21 108.698 98.1097 100.198 96.2097 90.8984C96.3097 98.9984 98.2097 107.998 100.61 111.798C102.01 114.098 102.41 143.198 105.01 144.398C107.43 145.179 109.97 145.518 112.51 145.398C111.21 144.598 110.41 143.598 108.61 142.398Z" fill="#8C932E"/>
<path d="M147.81 135.098C147.477 136.804 146.641 138.372 145.41 139.598C147.334 139.065 149.158 138.221 150.81 137.098C152.21 135.998 151.11 113.598 149.91 94.3984C148.11 107.098 148.71 129.198 147.81 135.098Z" fill="#8C932E"/>
<path d="M102.91 54.7985L106.41 66.0985C106.41 66.0985 112.91 73.1985 117.01 72.9985C121.11 72.7985 129.41 62.6985 129.41 62.6985C129.41 62.6985 121.61 41.2985 117.01 36.2985C112.41 31.2985 102.91 54.7985 102.91 54.7985Z" fill="#FFB882"/>
<path d="M82.8096 112.998C82.3096 107.298 76.7095 102.498 70.2095 102.398C63.7095 102.298 58.9095 106.698 59.4095 112.398C59.9095 118.098 65.5096 122.798 72.0096 122.998C78.5096 123.198 83.3096 118.698 82.8096 112.998Z" fill="#F9EAC5"/>
<path d="M172.31 112.798C169.61 108.198 163.01 106.798 157.61 109.498C152.21 112.198 150.11 118.298 152.91 122.898C155.71 127.498 162.21 128.998 167.61 126.198C173.01 123.398 175.11 117.398 172.31 112.798Z" fill="#F9EAC5"/>
<path d="M155.81 119.898C156.31 123.198 166.51 129.898 184.81 125.298L186.51 120.998C186.51 120.998 173.61 109.598 163.81 109.498C154.01 109.398 155.31 116.898 155.81 119.898Z" fill="#FFB882"/>
<path d="M157.81 116.798C157.51 115.498 156.71 113.598 157.71 111.198C154.11 113.798 154.01 118.898 154.31 120.998C154.61 123.098 165.01 131.598 184.81 125.298L186.01 122.298C167.21 127.698 158.31 119.998 157.81 116.798Z" fill="#FF9566"/>
<path d="M75.7095 121.498C72.2095 123.498 52.4095 121.498 34.0095 110.198L35.8095 104.298C35.8095 104.298 53.7095 102.498 69.0095 103.798C82.7095 105.098 80.0095 118.998 75.7095 121.498Z" fill="#FFB882"/>
<path d="M78.3095 109.298C77.8738 110.677 77.0384 111.895 75.9095 112.798C72.8095 114.898 54.1095 114.498 35.5095 105.398L34.0095 110.198C52.4095 121.498 72.2095 123.498 75.7095 121.498C79.2095 119.498 80.5095 113.898 78.3095 109.298Z" fill="#FF9566"/>
<path d="M4.00967 235.798C36.3097 240.298 60.5097 230.798 60.5097 230.798C60.5097 230.798 53.5097 177.498 55.8097 148.698L10.5097 147.198C10.5097 147.198 1.40967 176.598 4.00967 235.798Z" fill="#A34D51"/>
<path d="M11.3096 236.198C9.50964 207.298 13.5097 166.398 40.5097 162.998C56.2097 160.998 56.6096 202.698 58.3096 231.598L60.5097 230.798C60.5097 230.798 54.7097 175.998 57.0097 147.198L4.50965 145.798C4.50965 145.798 -0.790346 165.298 4.00965 235.798C6.50965 236.198 8.90964 236.398 11.3096 236.598V236.198Z" fill="#8E363D"/>
<path d="M51.9097 126.598C62.8097 124.298 72.0097 123.598 69.6097 117.098C67.2097 110.598 52.3097 110.899 52.3097 110.899L51.9097 126.598Z" fill="#FF7133"/>
<path d="M64.3097 134.599C56.3097 127.699 49.1097 105.199 49.4097 100.199C49.7097 95.1985 56.5097 88.2985 60.4097 96.8985C64.3097 105.499 72.4097 126.099 74.0097 128.599C75.6097 131.099 67.2097 137.099 64.3097 134.599Z" fill="#F4608A"/>
<path d="M65.3097 128.098C64.9097 124.198 66.7097 120.698 69.3097 120.398H70.3097C67.2097 112.898 62.9097 102.398 60.4097 96.7984C56.5097 88.1984 49.7097 95.0984 49.4097 100.098C49.1097 105.098 56.3097 127.598 64.3097 134.498C65.4097 135.398 67.3097 135.198 69.1097 134.298C67.2097 133.598 65.6097 131.098 65.3097 128.098Z" fill="#DB4577"/>
<path d="M74.0098 128.598C72.7098 126.198 69.1097 125.498 65.9097 126.998C62.7097 128.498 61.1097 131.598 62.4097 133.998C63.7097 136.398 67.2098 137.098 70.5098 135.598C73.8098 134.098 75.2098 130.998 74.0098 128.598Z" fill="#77444D"/>
<path d="M65.3096 132.798C65.3096 136.298 81.4095 145.498 82.2095 145.498C83.0095 145.498 83.6096 144.398 83.5096 143.298C83.4096 142.198 74.0096 129.598 72.6096 128.498C71.2096 127.398 65.2096 127.798 65.3096 132.798Z" fill="#FFB882"/>
<path d="M78.3095 142.598C79.5095 144.898 79.8095 146.098 80.2095 146.598C80.6095 147.098 81.5095 148.998 82.4095 148.998C83.3095 148.998 86.7095 146.898 86.1095 145.998C85.5095 145.098 82.2096 143.898 79.5096 141.998C76.8096 140.098 78.3095 142.598 78.3095 142.598Z" fill="#FF9566"/>
<path d="M81.1096 147.698C81.9096 149.198 84.0096 153.898 84.6096 153.998C85.2096 154.098 82.9096 147.498 82.9096 147.498L81.1096 147.698Z" fill="#FF9566"/>
<path d="M80.5095 142.998C82.9095 143.498 87.2095 142.498 87.5095 142.998C87.8095 143.498 81.8095 145.198 81.8095 145.198L80.5095 142.998Z" fill="#FF9566"/>
<path d="M82.9097 147.398C84.2097 148.598 87.7097 152.598 88.5097 152.598C89.3097 152.598 84.9097 146.798 84.9097 146.798L82.9097 147.398Z" fill="#FF9566"/>
<path d="M82.8096 146.198C84.5096 146.798 89.5096 149.098 90.3096 148.798C91.1096 148.498 84.7095 144.998 84.7095 144.998L82.8096 146.198Z" fill="#FF9566"/>
<path d="M82.5098 143.898C81.7098 143.898 66.0098 135.398 66.0098 131.798C65.9985 131.004 66.1695 130.217 66.5098 129.498C65.9109 129.932 65.4255 130.504 65.0948 131.166C64.764 131.827 64.5976 132.559 64.6097 133.298C64.7097 136.898 81.4097 145.498 82.2097 145.498C83.0097 145.498 83.5098 144.698 83.5098 143.698L82.5098 143.898Z" fill="#FF9566"/>
<path d="M1.20959 157.198C4.40959 165.698 56.2096 155.198 58.8096 152.498C58.8096 152.498 58.9096 123.898 58.7096 122.198C58.5096 120.498 23.5096 101.298 23.5096 101.298C23.5096 101.298 2.70959 119.198 1.20959 157.198Z" fill="#EF567B"/>
<path d="M36.9096 142.098C46.5096 140.298 57.5096 141.398 58.9096 147.698C58.9096 139.498 58.9096 123.498 58.7096 122.198C58.5096 120.898 23.5096 101.298 23.5096 101.298C23.5096 101.298 2.70959 119.198 1.20959 157.198C2.10959 159.598 6.80959 160.398 13.2096 160.398C13.7096 154.998 23.8096 144.598 36.9096 142.098Z" fill="#CE3263"/>
<path d="M36.8097 120.098L32.0097 113.198L26.9097 116.698C25.876 122.562 26.0711 128.575 27.4826 134.359C28.8941 140.143 31.4913 145.571 35.1097 150.298C33.7097 145.498 40.9097 129.498 36.8097 120.098Z" fill="#CE3263"/>
<path d="M57.5096 96.1985C63.6096 109.498 61.6096 126.698 59.1096 131.298C56.6096 135.898 26.6096 138.998 23.6096 137.598C20.6096 136.198 14.4096 112.498 23.5096 101.298C32.6096 90.0985 54.0096 88.4985 57.5096 96.1985Z" fill="#E03D6B"/>
<path d="M57.4097 95.9985C61.9097 109.398 60.4097 126.498 58.6097 131.198C56.8097 135.898 34.8097 138.598 32.6097 137.298C30.4097 135.998 34.9097 112.798 32.5097 100.998C40.1097 88.3985 54.9097 88.2985 57.4097 95.9985Z" fill="#EF567B"/>
<path d="M57.3096 138.798C51.4096 126.698 52.9096 115.298 53.0096 109.198C53.1096 103.098 51.3096 92.8984 51.3096 92.8984C54.4947 96.6944 56.9066 101.077 58.4095 105.798C60.5095 113.298 57.3096 138.798 57.3096 138.798Z" fill="#E03D6B"/>
<path d="M69.7097 117.399C69.7097 117.399 63.8097 96.5985 56.4097 91.8985C49.0097 87.1985 49.5098 92.4985 49.5098 92.4985L51.4097 94.0985C57.9097 111.599 53.5098 120.099 59.3098 138.899C59.3098 138.899 61.8097 112.599 68.1097 115.799C68.7764 116.179 69.3288 116.732 69.7097 117.399Z" fill="#FFB845"/>
<path d="M60.3096 102.198C57.6096 102.798 57.4095 111.698 59.7095 122.098C60.0095 123.498 60.3095 124.898 60.7095 126.198C62.1095 119.698 64.4095 113.199 67.7095 114.899C68.4053 115.24 68.9681 115.803 69.3096 116.498C67.5096 110.298 63.5096 101.498 60.3096 102.198Z" fill="#FFD45A"/>
<path d="M38.3096 92.6985C37.6096 96.6985 50.9096 100.598 52.5096 92.0985C53.8096 85.2985 56.2096 76.0985 56.2096 76.0985L44.8096 72.6985C41.8921 79.0973 39.7115 85.8071 38.3096 92.6985Z" fill="#FFB882"/>
<path d="M47.2095 116.198L42.5095 110.198L37.4095 113.298C36.3015 118.412 36.4217 123.716 37.7602 128.774C39.0987 133.833 41.6173 138.502 45.1095 142.398C43.8095 138.298 51.1095 124.298 47.2095 116.198Z" fill="#FF9536"/>
<path d="M38.7097 134.198C32.1097 126.598 26.7097 107.298 27.0097 102.998C27.3097 98.6985 34.2097 92.6985 38.0097 100.198C41.8097 107.698 49.8097 125.498 51.3097 127.698C52.8097 129.898 41.0097 136.798 38.7097 134.198Z" fill="#F4608A"/>
<path d="M38.3097 128.698C36.8097 124.098 38.8097 119.698 42.8097 119.098C44.3894 118.822 46.0159 119.105 47.4097 119.898C44.4097 113.498 40.4097 104.798 38.0097 100.198C34.2097 92.6985 27.3097 98.6985 27.0097 102.998C26.7097 107.298 32.1097 126.598 38.7097 134.198C39.4097 134.898 40.8097 134.898 42.6097 134.398C40.598 133.013 39.0893 131.013 38.3097 128.698Z" fill="#E03D6B"/>
<path d="M51.6097 126.998C49.5097 124.598 44.5098 124.098 40.5098 125.998C36.5098 127.898 35.0097 131.298 37.2097 133.698C39.4097 136.098 44.3097 136.598 48.3097 134.698C52.3097 132.798 53.8097 129.398 51.6097 126.998Z" fill="#77444D"/>
<path d="M0.00964355 145.298C22.7096 141.798 37.0096 110.998 47.2096 116.198C47.2096 116.198 37.3096 95.6985 38.8096 90.1985C38.8096 90.1985 24.7096 94.3985 16.0096 102.298C3.10964 114.198 0.00964355 145.298 0.00964355 145.298Z" fill="#FFC84D"/>
<path d="M45.1096 115.098C45.0168 114.943 44.9493 114.775 44.9096 114.598C40.9096 103.398 36.1097 92.5984 30.8097 94.4984C15.4097 99.8984 21.9097 124.398 26.5097 128.298C34.1097 121.098 39.9096 114.098 45.1096 115.098Z" fill="#FFD45A"/>
<path d="M41.5097 133.298C44.4097 136.898 77.2097 143.098 78.6097 143.098C80.0097 143.098 80.4097 141.798 79.3097 140.698C78.2097 139.598 52.7097 127.498 49.3097 126.498C45.9097 125.498 38.4097 129.498 41.5097 133.298Z" fill="#FFB882"/>
<path d="M42.8098 131.598C41.9098 130.398 42.2097 129.098 43.2097 127.898C40.3097 129.498 38.0098 132.098 39.8098 134.298C41.6098 136.498 77.2097 143.098 78.6097 143.098C80.0097 143.098 79.9097 142.698 79.9097 142.198C73.5097 141.098 45.2098 134.998 42.8098 131.598Z" fill="#FF9566"/>
<path d="M110.41 252.698H100.61C100.61 252.698 106.91 247.398 108.61 248.398C110.31 249.398 110.41 252.698 110.41 252.698Z" fill="#E5CB9C"/>
<path d="M16.4096 252.698H6.60962C6.60962 252.698 12.9096 247.398 14.6096 248.398C16.3096 249.398 16.4096 252.698 16.4096 252.698Z" fill="#E5CB9C"/>
<path d="M155.01 252.698H163.909C163.909 252.698 158.209 247.398 156.709 248.398C155.209 249.398 155.01 252.698 155.01 252.698Z" fill="#E5CB9C"/>
<path d="M49.5095 252.698H58.4095C58.4095 252.698 52.7095 247.398 51.2095 248.398C49.7095 249.398 49.5095 252.698 49.5095 252.698Z" fill="#E5CB9C"/>
<g style="mix-blend-mode:multiply" opacity="0.6">
<path d="M64.5097 103.498C62.3097 98.5985 59.5097 93.8985 56.4097 91.8985C55.3563 91.1458 54.1681 90.6026 52.9097 90.2985C54.2097 83.6985 56.2097 76.0985 56.2097 76.0985L44.8097 72.6985C42.3262 78.3547 40.3193 84.2084 38.8097 90.1985C33.069 92.0062 27.5636 94.4903 22.4097 97.5985C28.7097 101.998 32.9097 106.299 43.5097 108.398C43.8097 108.398 45.6097 113.398 46.0097 113.398C47.0642 113.602 48.1358 113.702 49.2097 113.698C58.5097 113.798 62.0097 107.098 64.5097 103.498Z" fill="#843131"/>
</g>
<path d="M44.4096 87.1985C49.0096 93.3985 59.5096 96.2985 66.8096 95.0985C74.1096 93.8985 80.0096 61.4985 68.5096 57.2985C57.0096 53.0985 35.4096 74.9985 44.4096 87.1985Z" fill="#FFB882"/>
<path d="M80.1095 77.3985C80.5095 71.6985 79.1096 67.0985 76.0096 66.8985C72.9096 66.6985 71.0095 71.3985 70.6095 76.9985C70.2095 82.5985 71.6095 87.3985 74.7095 87.4985C77.8095 87.5985 79.8095 83.0985 80.1095 77.3985Z" fill="#FFF8D7"/>
<path d="M69.1096 77.0984C69.5096 71.1984 67.4096 66.2984 63.2096 66.0984C59.0096 65.8984 56.2096 70.5984 55.8096 76.4984C55.4096 82.3984 57.5096 87.2984 61.8096 87.4984C66.1096 87.6984 68.7096 82.9984 69.1096 77.0984Z" fill="#FFF8D7"/>
<path d="M79.2096 77.4984C79.5096 72.9984 78.5096 69.3984 76.2096 69.2984C73.9096 69.1984 72.5096 72.7984 72.2096 77.1984C71.9096 81.5984 72.9096 85.3984 75.2096 85.4984C77.5096 85.5984 78.9096 81.9984 79.2096 77.4984Z" fill="#FF9566"/>
<path d="M77.8096 77.3984C78.0096 73.3984 77.4096 70.0984 75.7096 70.0984C74.0096 70.0984 73.0096 73.2984 72.7096 77.2984C72.4096 81.2984 73.1096 84.4984 74.8096 84.5984C76.5096 84.6984 77.5096 81.3984 77.8096 77.3984Z" fill="#FFB882"/>
<path d="M68.1095 76.9984C68.5095 72.1984 67.1096 68.2984 64.0096 68.0984C60.9096 67.8984 59.1096 71.7984 58.8096 76.5984C58.5096 81.3984 59.9095 85.2984 62.9095 85.3984C65.9095 85.4984 67.8095 81.6984 68.1095 76.9984Z" fill="#FF9566"/>
<path d="M66.2097 76.7985C66.5097 72.5985 65.5098 69.0985 63.3098 68.9985C61.1098 68.8985 59.7097 72.2985 59.4097 76.5985C59.1097 80.8985 60.1098 84.3985 62.3098 84.4985C64.5098 84.5985 66.0097 81.0985 66.2097 76.7985Z" fill="#FFB882"/>
<path d="M71.4097 75.7984L68.9097 75.4984V76.8984L71.4097 77.2984V75.7984Z" fill="#FFF8D7"/>
<path d="M43.8095 73.5984C44.4715 76.1385 44.3672 78.8176 43.5095 81.2985C48.6095 78.9985 52.8095 70.2984 50.5095 64.4984C50.5095 64.3984 50.4095 64.3985 50.4095 64.2985C47.6603 66.9696 45.4234 70.1216 43.8095 73.5984Z" fill="#AD8E79"/>
<path d="M71.4097 59.2984C73.1097 58.6984 74.5097 58.7984 75.5097 60.7984C76.5097 62.7984 74.3097 65.6984 74.3097 65.6984C73.8198 63.3796 72.8301 61.1956 71.4097 59.2984Z" fill="#C6AA97"/>
<path d="M50.2097 64.4985C52.6097 66.8985 58.0097 67.6985 60.2097 64.1985C61.1097 62.7985 60.0098 60.8985 60.0098 60.8985C60.0098 60.8985 59.4097 62.8985 57.6097 62.8985C55.8097 62.8985 54.9097 60.6985 54.9097 60.6985C53.156 61.7145 51.5705 62.9964 50.2097 64.4985Z" fill="#C6AA97"/>
<path d="M71.4097 59.2984C71.5097 57.2984 70.8097 55.5984 68.3097 54.3984C65.8097 53.1984 61.7097 55.8984 60.4097 57.7984C65.0097 56.5984 68.5097 56.7984 71.4097 59.2984Z" fill="#C6AA97"/>
<path d="M56.5097 65.7984C55.535 65.7871 54.5879 65.4731 53.7996 64.8998C53.0112 64.3265 52.4207 63.5222 52.1097 62.5984C51.3271 63.2808 50.5921 64.0158 49.9097 64.7984C52.2097 67.1984 58.0097 67.6984 60.2097 64.1984C60.3097 64.0984 60.3097 63.8984 60.4097 63.7984C59.9595 64.4116 59.3727 64.9116 58.6957 65.2588C58.0188 65.6059 57.2704 65.7907 56.5097 65.7984Z" fill="#AD8E79"/>
<path d="M57.0096 74.2984L39.1096 72.4984L35.8096 73.9984L36.7095 75.5984L39.2095 73.2984L56.5096 76.0984L57.0096 74.2984Z" fill="#FFF8D7"/>
<path d="M44.0096 75.2985C44.0096 71.7985 39.3096 69.4985 38.3096 72.7985C37.3096 76.0985 40.2096 80.7985 42.0096 81.2985C43.8096 81.7985 44.0096 77.6985 44.0096 75.2985Z" fill="#FFB882"/>
<path d="M42.7095 75.6984C42.7095 73.7984 40.1096 72.4984 39.6096 74.3984C39.1096 76.2984 40.6096 78.7984 41.6096 79.0984C42.6096 79.3984 42.7095 77.0984 42.7095 75.6984Z" fill="#EA7B59"/>
<path d="M42.6096 77.0984C42.6096 75.7984 40.8096 74.8984 40.4096 76.1984C40.2817 76.8363 40.3578 77.4983 40.627 78.0905C40.8962 78.6828 41.3449 79.1753 41.9096 79.4984C42.6096 79.6984 42.6096 78.0984 42.6096 77.0984Z" fill="#FFB882"/>
<path d="M63.0096 76.4984C63.1096 75.5984 62.9096 74.7985 62.5096 74.7985C62.1096 74.7985 61.8096 75.3985 61.7096 76.3985C61.6096 77.3985 61.8096 77.9984 62.2096 78.0984C62.6096 78.1984 62.9096 77.3984 63.0096 76.4984Z" fill="#77575A"/>
<path d="M75.1097 77.4984C75.2097 76.5984 75.0097 75.7985 74.6097 75.7985C74.2097 75.7985 73.9097 76.3985 73.8097 77.3985C73.7097 78.3985 73.9097 78.9984 74.3097 79.0984C74.7097 79.1984 75.0097 78.3984 75.1097 77.4984Z" fill="#77575A"/>
<path d="M57.9097 67.7985C59.0097 66.5985 62.1098 64.1985 65.0098 64.7985V61.9985C62.0098 61.1985 58.0097 63.3985 56.2097 66.1985L57.9097 67.7985Z" fill="#77575A"/>
<path d="M78.4095 66.6984C77.6482 66.1446 76.7436 65.8217 75.8036 65.7685C74.8637 65.7153 73.9284 65.934 73.1095 66.3984L72.5095 63.5984C74.3095 62.3984 77.8095 63.0984 79.1095 64.6984L78.4095 66.6984Z" fill="#77575A"/>
<path d="M70.3096 84.0984C71.2096 85.3984 71.4096 87.2984 70.9096 87.7984C70.4096 88.2984 68.4096 88.0984 67.9096 87.8984C67.4096 87.6984 69.2096 82.6984 70.3096 84.0984Z" fill="#EA7B59"/>
<path d="M69.8096 83.9984C70.7096 85.1984 70.8096 86.8984 70.3096 87.3984C69.8096 87.8984 68.1096 87.5984 67.6096 87.4984C67.1096 87.3984 68.8096 82.6984 69.8096 83.9984Z" fill="#FFB882"/>
<path d="M68.3095 89.5984L62.2095 88.4984C62.2095 88.4984 61.9095 91.1984 64.3095 91.9984C66.7095 92.7984 68.3095 89.5984 68.3095 89.5984Z" fill="#442E30"/>
<path d="M66.4097 90.8985C66.7809 90.5191 67.0853 90.0795 67.3097 89.5984L62.5097 88.7985C62.4598 89.2745 62.5285 89.7554 62.7096 90.1985L66.4097 90.8985Z" fill="#FFF8D7"/>
<path d="M99.5095 106.798L101.909 111.798C112.809 112.598 123.409 107.298 123.409 107.298C123.409 107.298 103.81 111.798 99.5095 106.798Z" fill="#8C932E"/>
<path d="M150.01 101.298L149.71 106.998C140.21 110.398 127.41 107.198 127.41 107.198C127.41 107.198 149.11 107.498 150.01 101.298Z" fill="#8C932E"/>
<path d="M136.01 97.2984L136.31 100.198L141.81 101.998L145.31 98.8984L145.209 96.3984L136.01 97.2984Z" fill="#F9EAC5"/>
<g style="mix-blend-mode:multiply" opacity="0.6">
<path d="M121.31 86.8984C131.71 84.8984 139.909 76.1984 142.209 65.8984C139.068 64.5934 135.776 63.6864 132.409 63.1984L129.31 62.4984C128.61 60.4984 122.609 44.2984 118.209 37.8984L117.209 38.0984C114.73 38.5686 112.336 39.4115 110.109 40.5984C107.311 45.1187 104.902 49.8692 102.909 54.7984L106.31 65.8984L104.409 66.9984C102.008 68.1717 99.6711 69.4736 97.4095 70.8984L96.5095 71.3984C99.5095 82.3984 109.81 89.1984 121.31 86.8984Z" fill="#843131"/>
</g>
<path d="M90.0097 30.6984C93.6097 44.3984 101.41 59.7984 102.71 62.1984C104.01 64.5984 122.01 58.2984 122.71 54.4984C123.41 50.6984 113.11 25.1984 111.21 22.9984C109.31 20.7984 87.5097 20.9984 90.0097 30.6984Z" fill="#FFB882"/>
<path d="M116.51 44.7984C107.61 25.6984 102.81 19.5984 109.61 16.9984C116.41 14.3984 120.71 32.7984 120.71 32.7984L119.51 41.1984L116.51 44.7984Z" fill="#702F1D"/>
<path d="M119.61 44.6985C121.71 40.8985 123.81 33.8985 120.51 31.1985C117.21 28.4985 115.11 34.9985 115.81 38.0985C116.51 41.1985 119.61 44.6985 119.61 44.6985Z" fill="#FFB882"/>
<path d="M119.41 42.2985C120.81 39.7985 122.11 35.1985 120.01 33.4985C117.91 31.7985 116.41 35.8985 116.91 37.8985C117.473 39.503 118.32 40.9934 119.41 42.2985Z" fill="#EA7B59"/>
<path d="M119.41 42.6984C120.31 40.9984 121.21 37.9984 119.81 36.8984C118.41 35.7984 117.41 38.4984 117.71 39.7984C118.085 40.8653 118.662 41.8499 119.41 42.6984Z" fill="#FFB882"/>
<g style="mix-blend-mode:overlay">
<path d="M59.5096 220.598C59.4096 219.198 59.3096 217.698 59.1096 215.998C45.1096 218.598 21.6096 221.898 3.00964 219.898C3.10964 221.798 3.30961 223.698 3.40961 225.698C23.0096 227.698 46.0096 223.698 59.5096 220.598Z" fill="#E5CB9C"/>
</g>
<path d="M187.71 118.298L183.41 126.598C181.688 125.233 179.719 124.214 177.61 123.598L179.81 116.098C179.81 116.098 184.31 118.498 187.71 118.298Z" fill="#FFB882"/>
<path d="M184.31 118.498C185.605 118.36 186.907 118.293 188.21 118.298C189.91 118.098 194.61 114.898 195.11 115.298C195.413 115.588 195.623 115.962 195.712 116.372C195.801 116.782 195.766 117.209 195.61 117.598C195.31 117.998 190.51 120.498 190.81 121.098C191.11 121.698 193.91 122.898 194.11 123.498C194.31 124.098 190.41 127.898 189.11 128.698C187.81 129.498 183.91 127.798 182.11 125.098C181.51 123.998 184.31 118.498 184.31 118.498Z" fill="#FFB882"/>
<path d="M191.11 121.799C192.61 122.499 194.61 123.699 195.11 123.799C195.61 123.899 198.91 124.298 199.11 124.598C199.31 124.898 199.81 126.299 199.01 126.399C197.314 126.369 195.63 126.099 194.01 125.598C193.21 125.298 190.61 124.298 190.51 123.998C190.41 123.698 190.31 121.299 191.11 121.799Z" fill="#FFB882"/>
<path d="M189.51 124.299C190.67 125.235 191.908 126.072 193.21 126.799C193.81 126.999 196.91 127.798 197.11 128.198C197.31 128.598 197.61 129.899 196.81 129.899C195.111 129.7 193.456 129.227 191.91 128.498C190.753 127.931 189.648 127.261 188.61 126.498C188.51 126.198 188.81 123.799 189.51 124.299Z" fill="#FFB882"/>
<path d="M185.81 125.499C186.858 126.53 187.996 127.467 189.21 128.299C189.81 128.499 192.81 129.599 193.01 129.999C193.21 130.399 193.31 131.799 192.51 131.699C190.867 131.319 189.285 130.713 187.81 129.899C187.11 129.399 184.81 127.799 184.71 127.599C184.61 127.399 185.11 124.899 185.81 125.499Z" fill="#FFB882"/>
<path d="M95.5097 40.5985C95.0097 39.2985 95.2097 37.9985 95.9097 37.6985C96.6097 37.3985 97.7097 38.1985 98.3097 39.4985C98.9097 40.7985 98.6097 42.0985 97.9097 42.3985C97.2097 42.6985 96.1097 41.8985 95.5097 40.5985Z" fill="#4F3131"/>
<path d="M99.9096 34.1985C98.1096 33.1985 101.91 48.1985 102.91 49.3985C103.91 50.5985 107.21 47.7985 107.21 47.7985C107.21 47.7985 100.21 34.3985 99.9096 34.1985Z" fill="#FFB882"/>
<path d="M99.6096 34.7985C99.9096 38.2985 102.11 48.0984 103.01 49.0984C103.91 50.0984 105.91 48.2985 106.81 47.7985L107.01 48.0984C107.01 48.0984 103.11 50.5984 102.61 49.9984C102.11 49.3984 98.6096 35.3985 99.6096 34.7985Z" fill="#EF8F6F"/>
<path d="M104.41 36.8984C103.91 35.5984 104.11 34.2984 104.91 33.9984C105.71 33.6984 106.71 34.4984 107.21 35.7984C107.71 37.0984 107.61 38.3984 106.81 38.6984C106.01 38.9984 105.01 38.1984 104.41 36.8984Z" fill="#4F3131"/>
<path d="M99.8095 31.5984C101.91 32.7984 107.21 29.6984 107.11 28.3984C107.01 27.0984 106.91 25.9984 105.41 25.9984C103.91 25.9984 98.2095 26.9984 97.8095 28.1984C97.4095 29.3984 98.8095 31.0984 99.8095 31.5984Z" fill="#8E4129"/>
<path d="M96.0096 33.1984C95.8096 35.3984 91.3096 36.3984 90.5096 35.3984C89.7096 34.3984 89.0096 33.4984 89.7096 32.5984C90.4096 31.6984 93.7096 28.7984 94.6096 29.3984C95.5096 29.9984 96.1096 32.1984 96.0096 33.1984Z" fill="#8E4129"/>
<path d="M101.41 53.0984L110.51 49.5984C110.51 49.5984 112.01 55.0984 110.61 55.8984C109.21 56.6984 105.41 57.7984 104.31 57.0984C103.21 56.3984 101.41 53.0984 101.41 53.0984Z" fill="#542A29"/>
<path d="M103.61 55.6984C102.972 54.8801 102.404 54.0105 101.91 53.0984L110.21 49.8984C110.21 49.8984 110.61 51.5984 110.81 53.1984L103.61 55.6984Z" fill="#FFF7E9"/>
<path d="M81.9095 152.398C84.3395 152.398 86.3095 150.428 86.3095 147.998C86.3095 145.568 84.3395 143.598 81.9095 143.598C79.4794 143.598 77.5095 145.568 77.5095 147.998C77.5095 150.428 79.4794 152.398 81.9095 152.398Z" fill="#AD8F7F"/>
<path d="M80.2095 148.798L71.0095 251.798H72.0095L83.5095 149.798L80.2095 148.798Z" fill="#AD8F7F"/>
<path d="M75.9096 141.198C78.2096 142.498 79.1096 143.298 79.7096 143.598C80.3096 143.898 82.1096 144.798 82.8096 144.298C83.5096 143.798 85.3096 140.098 84.2096 139.798C83.1096 139.498 79.9096 140.198 76.6096 140.098C73.3096 139.998 75.9096 141.198 75.9096 141.198Z" fill="#FFB882"/>
<path d="M81.0095 143.898C82.5095 144.698 86.9095 147.498 87.4095 147.198C87.9095 146.898 82.4095 142.698 82.4095 142.698L81.0095 143.898Z" fill="#FFB882"/>
<path d="M77.9097 140.399C80.2097 139.399 83.2097 136.199 83.7097 136.499C84.2097 136.799 80.2097 141.399 80.2097 141.399L77.9097 140.399Z" fill="#FFB882"/>
<path d="M82.3096 142.698C84.1096 142.998 89.3095 144.398 89.9095 143.898C90.5095 143.398 83.7095 141.098 83.7095 141.098L82.3096 142.698Z" fill="#FFB882"/>
<path d="M81.7097 141.798C83.4097 141.298 88.7097 140.498 89.2097 139.798C89.7097 139.098 82.6097 139.698 82.6097 139.698L81.7097 141.798Z" fill="#FFB882"/>
</svg>
