<svg width="39" height="42" viewBox="0 0 39 42" fill="none" xmlns="http://www.w3.org/2000/svg">
<path d="M14.8172 33.5165C14.8172 26.3546 14.799 25.7334 14.3239 25.7334C13.8489 25.7334 13.8306 26.3546 13.8306 33.5165C13.8306 40.6785 13.8306 41.2997 14.3239 41.2997C14.8172 41.2997 14.8172 40.6785 14.8172 33.5165Z" fill="#594049"/>
<path d="M0.4933 41.2997C0.765742 41.2997 0.986601 37.8151 0.986601 33.5165C0.986601 29.218 0.765742 25.7334 0.4933 25.7334C0.220859 25.7334 0 29.218 0 33.5165C0 37.8151 0.220859 41.2997 0.4933 41.2997Z" fill="#594049"/>
<path d="M13.9219 33.0234H0.840393V33.3907H13.9219V33.0234Z" fill="#594049"/>
<path d="M12.7344 18.5352H2.00972L1.29718 31.434H13.4469L12.7344 18.5352Z" fill="#594049"/>
<path d="M13.8306 30.3013H0.931763V32.0004H13.8306V30.3013Z" fill="#594049"/>
<path d="M11.7478 39.3267H2.99634V40.4594H11.7478V39.3267Z" fill="#594049"/>
<path d="M4.03775 39.8929L3.3252 33.3887H2.99634V39.8929H4.03775Z" fill="#594049"/>
<path d="M10.7247 39.8929L11.4189 33.3887H11.7478V39.8929H10.7247Z" fill="#594049"/>
<path d="M5.3349 38.2305C5.29836 39.1257 5.9561 40.4595 5.9561 40.4595C5.9561 40.4595 6.79653 38.6507 6.43112 37.8834C6.06572 37.116 5.35317 37.1525 5.3349 38.2305Z" fill="#E8CDBA"/>
<path d="M8.5139 38.1938C8.53217 39.089 9.26298 40.3862 9.26298 40.3862C9.26298 40.3862 9.99379 38.5409 9.59184 37.8101C9.1899 37.0793 8.49563 37.1158 8.5139 38.1938Z" fill="#E8CDBA"/>
<path d="M11.5651 23.5414C12.1132 22.4635 10.3592 17.293 9.2082 16.5439C8.05717 15.7948 9.46398 22.5914 9.71976 23.2491C9.97555 23.9068 11.1814 24.254 11.5651 23.5414Z" fill="#FFB53E"/>
<path d="M9.18993 16.9091C8.27641 16.7447 9.46399 22.6277 9.71977 23.2489C9.97556 23.8701 11.1814 24.2538 11.5651 23.5413C11.6747 23.322 11.693 22.9383 11.6382 22.4816C10.9622 22.6826 10.3592 17.8775 9.18993 16.9091Z" fill="#FF9624"/>
<path d="M2.75879 23.7425C2.19241 22.7194 3.76366 17.4027 4.85988 16.5806C5.9561 15.7584 4.80506 22.6646 4.56755 23.3406C4.33003 24.0166 3.16074 24.4368 2.75879 23.7425Z" fill="#FFB53E"/>
<path d="M4.93297 16.8727C3.96464 17.6218 4.12908 20.2527 2.66745 22.5913C2.61264 23.1211 2.64918 23.5231 2.75881 23.7423C3.16075 24.4366 4.33005 23.9981 4.56756 23.3404C4.80507 22.6827 6.02918 16.0505 4.93297 16.8727Z" fill="#FF9624"/>
<path d="M9.79283 20.0151L4.49444 20.1065C4.49444 20.1065 4.40309 24.4365 3.85498 26.1722C6.59553 26.3001 8.78796 26.3549 10.9987 25.8982C10.1582 24.5096 9.79283 20.0151 9.79283 20.0151Z" fill="#FFB53E"/>
<path d="M4.47619 25.4415C5.75511 25.2039 7.03403 25.8617 7.3629 25.8434C7.69177 25.8251 9.62843 25.1309 10.2496 25.1309L10.4323 25.9896L7.47253 26.3367L4.31177 25.8434L4.47619 25.4415Z" fill="#FF9624"/>
<path d="M7.38115 23.3769C8.08654 23.3884 8.76431 23.653 9.29085 24.1226C9.8174 24.5921 10.1577 25.2352 10.2496 25.9347L10.9987 25.8982C10.1582 24.5096 9.79283 20.0151 9.79283 20.0151L4.49444 20.1065C4.49444 20.1065 4.40309 24.4365 3.85498 26.1722H4.51271C4.53633 25.4257 4.84837 24.7174 5.38327 24.1962C5.91816 23.6749 6.63428 23.3812 7.38115 23.3769Z" fill="#FF9624"/>
<path d="M11.7478 22.5364C11.4189 21.9152 10.7247 21.6412 10.2131 21.9152C9.70154 22.1893 9.5371 22.9201 9.86597 23.5413C10.1948 24.1625 10.8891 24.4548 11.4189 24.1807C11.9488 23.9067 12.0767 23.1759 11.7478 22.5364Z" fill="#C44352"/>
<path d="M11.4555 23.0481C10.9256 23.3222 10.2314 23.0481 9.90249 22.4269L9.84768 22.2808C9.74653 22.4761 9.69526 22.6934 9.69844 22.9134C9.70163 23.1333 9.75918 23.3491 9.86595 23.5414C10.2131 24.1809 10.8891 24.4549 11.4189 24.1809C11.9488 23.9068 12.0584 23.2674 11.8209 22.6827C11.7278 22.8302 11.603 22.9551 11.4555 23.0481Z" fill="#A02B3C"/>
<path d="M2.39342 38.3584C7.89278 39.6008 10.4872 38.3036 13.1912 37.4631C13.1912 37.4631 12.9354 26.501 11.894 25.5692C10.8526 24.6374 8.22164 26.4096 6.79656 25.9346C5.37148 25.4596 3.41655 25.4596 2.92325 25.898C1.88185 26.8481 1.9732 36.8602 2.39342 38.3584Z" fill="#C44352"/>
<path d="M11.894 25.5692L11.8026 25.4961C12.0488 26.4385 12.1716 27.4088 12.168 28.3828C12.168 32.6032 13.1546 37.317 7.6187 37.317C2.0828 37.317 2.63091 32.6032 2.63091 28.3828C2.63081 27.5661 2.71654 26.7516 2.88669 25.9529C1.88182 27.1952 1.97318 36.8785 2.3934 38.3584C7.89276 39.6008 10.4871 38.3036 13.1911 37.4631C13.1911 37.4631 12.9354 26.501 11.894 25.5692Z" fill="#AD2A3D"/>
<path d="M4.80508 16.7448C4.2387 17.6583 3.48963 22.0615 3.76368 22.5365C4.03774 23.0115 10.2314 23.1394 10.6516 22.5C10.816 22.2624 9.79288 17.2016 9.35439 16.69C8.91591 16.1784 5.33492 15.8678 4.80508 16.7448Z" fill="#FFB53E"/>
<path d="M5.80994 16.215L7.1254 17.2564L8.75146 16.3429C7.98411 16.0871 6.72345 16.0323 5.80994 16.215Z" fill="#C44352"/>
<path d="M9.5919 17.2012C9.99385 18.7907 10.2496 21.8236 10.14 22.0245C9.73806 22.664 4.45795 22.5726 4.22044 22.1159C3.98292 21.6591 4.056 19.5215 4.38486 17.8954C3.94638 19.5398 3.56271 22.2072 3.76368 22.5726C3.96465 22.9381 10.2314 23.1756 10.6516 22.5361C10.7977 22.3169 10.0669 18.608 9.5919 17.2012Z" fill="#FFA631"/>
<path d="M4.40312 23.5411C4.75026 22.9199 4.6041 22.1891 4.09253 21.915C3.58096 21.641 2.86842 21.8967 2.53955 22.5179C2.21069 23.1391 2.33858 23.8699 2.85015 24.1623C3.36172 24.4546 4.07426 24.1623 4.40312 23.5411Z" fill="#C44352"/>
<path d="M4.34828 22.1343C4.32416 22.2702 4.27457 22.4004 4.20212 22.518C3.87326 23.1209 3.17899 23.3949 2.66742 23.1209C2.56104 23.0689 2.46746 22.994 2.39337 22.9016C2.32239 23.1329 2.32856 23.3809 2.41095 23.6083C2.49335 23.8357 2.6475 24.0302 2.85013 24.1623C3.37996 24.4363 4.07424 24.1623 4.4031 23.5411C4.53494 23.3277 4.60014 23.0799 4.59038 22.8293C4.58061 22.5787 4.49632 22.3367 4.34828 22.1343Z" fill="#A02B3C"/>
<path d="M8.14853 13.4927L6.3215 13.6206L6.1936 16.1601L7.08884 16.7265L8.2216 16.2515L8.14853 13.4927Z" fill="#FFB882"/>
<g style="mix-blend-mode:overlay">
<path d="M12.844 30.6484C10.9621 30.7032 8.13025 31.6716 7.60042 31.7264C7.07058 31.7812 4.56755 30.5936 2.11932 31.635C2.08278 32.8957 2.08278 34.1929 2.11932 35.3256C4.01944 34.0467 6.90614 34.6131 7.60042 34.6496C8.29469 34.6862 9.99382 33.9919 13.0632 34.2111C13.0084 33.0967 12.9353 31.8543 12.844 30.6484Z" fill="#E8CDBA"/>
</g>
<g style="mix-blend-mode:overlay">
<path d="M12.4969 27.5061C12.4253 26.9642 12.2967 26.4314 12.1132 25.9165L12.0219 25.8252C10.8343 24.7838 8.25821 26.6473 6.77832 26.1906C5.29842 25.7338 3.30695 25.7156 2.81366 26.154C2.79185 26.1653 2.77252 26.1807 2.75683 26.1996C2.74114 26.2184 2.7294 26.2402 2.72231 26.2637C2.52133 26.7204 2.39344 27.5426 2.28381 28.5475C4.18393 27.4147 6.94275 27.9445 7.60048 27.9811C8.25821 28.0176 9.79291 27.4147 12.4969 27.5061Z" fill="#E8CDBA"/>
</g>
<path d="M6.88788 16.8179L7.01577 21.0931H7.41772L7.38118 16.8544L6.88788 16.8179Z" fill="#C44352"/>
<g style="mix-blend-mode:multiply" opacity="0.6">
<path d="M9.92077 17.4209C9.74909 17.0807 9.50605 16.7816 9.20823 16.5439L9.09861 16.4891L8.75148 16.3429L8.60532 16.3064H8.58704L8.45914 16.2698H8.27644C8.27644 16.2516 8.25818 16.2516 8.23991 16.2516H8.22163L8.14856 13.5293L6.32153 13.6572L6.19363 16.1968H6.01093C6.00608 16.1968 6.00143 16.1987 5.99801 16.2021C5.99458 16.2055 5.99265 16.2102 5.99265 16.215C5.65213 16.2517 5.32266 16.3574 5.02433 16.5256C4.9632 16.5321 4.90567 16.5577 4.8599 16.5987C4.60239 16.8307 4.39154 17.1098 4.23871 17.4209C5.01094 18.1437 6.03113 18.5426 7.08887 18.5354C8.14207 18.5474 9.15829 18.1475 9.92077 17.4209Z" fill="#843131"/>
</g>
<path d="M8.20336 5.49016C3.17903 4.48529 4.58584 7.75568 4.58584 7.75568C4.58584 7.75568 3.14248 8.048 2.88669 10.0943C2.63091 12.1405 3.0694 13.5656 6.01092 14.5705L9.5919 12.0127C11.1814 12.6887 13.2277 6.49503 8.20336 5.49016Z" fill="#C6AA97"/>
<path d="M11.0535 7.55474C10.7064 8.5596 8.91592 9.01636 6.961 8.54133C5.90132 8.28555 5.00607 7.81052 4.43969 7.24414C4.46964 7.39476 4.48797 7.54747 4.49451 7.7009C3.19732 7.90187 2.48476 9.80198 2.70401 11.3732C2.92325 12.9445 3.78196 13.8215 6.01094 14.5705L9.59192 12.0127C10.6881 12.4877 12.0219 9.67409 11.0535 7.55474Z" fill="#B59783"/>
<path d="M7.9293 15.9593C6.2667 15.6304 5.20702 14.4611 4.85989 12.6889C4.51275 10.9167 5.26183 8.50499 7.25329 8.3771C9.24476 8.24921 9.59189 10.1859 9.62843 12.086C9.68325 15.1006 7.9293 15.9593 7.9293 15.9593Z" fill="#FFB882"/>
<path d="M5.4445 13.4924C4.34828 9.71048 8.73315 9.30853 7.49077 7.88345C7.01575 7.33534 4.2752 7.66421 4.07422 9.96627C4.00961 10.6203 4.1 11.2804 4.33806 11.8931C4.57613 12.5057 4.95518 13.0536 5.4445 13.4924Z" fill="#B59783"/>
<path d="M5.55421 13.8213C4.71377 13.6386 3.83679 13.2001 3.8916 12.5424C3.94641 11.8846 4.75031 12.3414 4.98782 12.6885C5.19962 13.0542 5.38878 13.4325 5.55421 13.8213Z" fill="#FFB882"/>
<path d="M10.3409 23.3767C9.17165 22.7921 6.32148 18.6264 6.2484 18.4437C6.17532 18.261 6.48591 18.1331 6.63207 18.2793C6.77823 18.4255 10.7064 21.6045 11.0718 22.1343C11.4372 22.6642 11.6199 24.0344 10.3409 23.3767Z" fill="#FFB882"/>
<path d="M10.3958 22.646C9.46406 22.1892 7.41778 19.741 6.52254 18.4986C6.37637 18.4804 6.19367 18.3159 6.24848 18.4438C6.30329 18.5717 9.20827 22.9749 10.3776 23.5778C11.5469 24.1807 11.4738 23.2306 11.2728 22.5912C11.1632 22.8104 10.8891 22.8835 10.3958 22.646Z" fill="#FF9566"/>
<path d="M2.88666 22.7009C3.16072 21.3854 6.04743 18.3343 6.15705 18.2612C6.26667 18.1881 6.46765 18.3891 6.41284 18.517C6.35803 18.6448 4.67715 22.2989 4.29348 22.8287C3.9098 23.3586 2.52126 24.3635 2.88666 22.7009Z" fill="#FFB882"/>
<path d="M6.33981 18.3159C6.34943 18.3326 6.3545 18.3515 6.3545 18.3707C6.3545 18.39 6.34943 18.4089 6.33981 18.4255C6.24846 18.5352 4.22046 22.244 3.7637 22.7373C3.50149 22.9766 3.17958 23.1407 2.83191 23.2124C2.86845 24.1807 4.01948 23.5778 4.38489 23.1027C4.75029 22.6277 6.33981 18.6448 6.4129 18.5169C6.48598 18.389 6.39462 18.3707 6.33981 18.3159Z" fill="#FF9566"/>
<path d="M7.89277 7.51824C7.5639 6.9884 6.37633 7.09803 5.26184 7.77403C4.14735 8.45003 3.48963 9.43662 3.81849 9.98473C4.14736 10.5328 5.31665 10.4049 6.44941 9.72895C7.58217 9.05295 8.20336 8.06635 7.89277 7.51824Z" fill="#C6AA97"/>
<path d="M5.1887 13.5108C4.67714 13.4011 4.12903 13.1271 4.12903 12.7434C4.12903 12.3597 4.64059 12.6155 4.78675 12.8165C4.93964 13.0364 5.07408 13.2687 5.1887 13.5108Z" fill="#EA7B59"/>
<path d="M5.24355 13.6023C4.87815 13.5293 4.4762 13.3283 4.4762 13.0542C4.4762 12.7802 4.84161 12.9629 4.95123 13.109C5.05763 13.268 5.15521 13.4327 5.24355 13.6023Z" fill="#FFB882"/>
<path d="M9.2265 11.9945C9.2265 12.072 9.1957 12.1464 9.14088 12.2012C9.08606 12.256 9.01171 12.2868 8.93418 12.2868C8.85665 12.2868 8.78229 12.256 8.72747 12.2012C8.67264 12.1464 8.64185 12.072 8.64185 11.9945C8.64185 11.9169 8.67264 11.8426 8.72747 11.7878C8.78229 11.7329 8.85665 11.7021 8.93418 11.7021C9.01171 11.7021 9.08606 11.7329 9.14088 11.7878C9.1957 11.8426 9.2265 11.9169 9.2265 11.9945Z" fill="#672927"/>
<path d="M8.58704 11.7568C8.87936 11.6107 9.20823 11.7934 9.39093 12.0309C9.37045 11.926 9.32243 11.8284 9.2518 11.7481C9.18117 11.6678 9.09046 11.6078 8.98899 11.5741C8.76974 11.5193 8.58704 11.7568 8.58704 11.7568Z" fill="#672927"/>
<path d="M6.2667 11.9947C6.26162 12.0379 6.26518 12.0818 6.27717 12.1236C6.28915 12.1655 6.30934 12.2045 6.33653 12.2385C6.36372 12.2725 6.39739 12.3007 6.43558 12.3216C6.47378 12.3425 6.51574 12.3556 6.55903 12.3601C6.70519 12.3601 6.83308 12.1957 6.83308 11.9947C6.84414 11.9515 6.84518 11.9064 6.83612 11.8628C6.82706 11.8191 6.80814 11.7782 6.78082 11.743C6.75349 11.7078 6.71847 11.6793 6.67845 11.6597C6.63843 11.6401 6.59446 11.6299 6.5499 11.6299C6.50533 11.6299 6.46136 11.6401 6.42133 11.6597C6.38131 11.6793 6.3463 11.7078 6.31898 11.743C6.29165 11.7782 6.27274 11.8191 6.26368 11.8628C6.25462 11.9064 6.25564 11.9515 6.2667 11.9947Z" fill="#672927"/>
<path d="M6.90618 11.7568C6.61386 11.6107 6.285 11.7934 6.10229 12.0309C6.11889 11.9244 6.16553 11.8249 6.23672 11.744C6.30792 11.663 6.40073 11.6041 6.50424 11.5741C6.72349 11.5193 6.90618 11.7568 6.90618 11.7568Z" fill="#672927"/>
<path d="M8.11199 12.5059V12.5424C8.15691 12.7109 8.15054 12.8891 8.09371 13.054C8.0389 13.1636 7.65523 13.2184 7.60042 13.1088C7.54561 12.9992 7.49079 13.1088 7.52733 13.1819C7.56387 13.2549 8.11199 13.2915 8.20334 13.1819C8.29469 13.0722 8.18507 12.7616 8.11199 12.5059Z" fill="#EA7B59"/>
<path d="M6.97925 14.0404V14.0039H8.55049V14.0587C8.34952 14.4059 8.03893 14.6982 7.7466 14.6982C7.45428 14.6982 7.18022 14.4241 6.97925 14.0404Z" fill="#6F140F"/>
<path d="M7.12543 14.0771V14.0405H8.42263V14.0953C8.3573 14.2122 8.26182 14.3095 8.14614 14.377C8.03046 14.4445 7.89881 14.4797 7.76489 14.479C7.62992 14.4858 7.49613 14.4509 7.38172 14.379C7.2673 14.3071 7.17781 14.2016 7.12543 14.0771Z" fill="#FFFAF2"/>
<path d="M8.05714 14.8445C8.05714 14.8263 7.92925 14.8811 7.78309 14.8811C7.63693 14.8811 7.50903 14.8263 7.50903 14.8445C7.53552 14.8942 7.57501 14.9358 7.62328 14.9647C7.67155 14.9937 7.72679 15.009 7.78309 15.009C7.83938 15.009 7.89461 14.9937 7.94289 14.9647C7.99116 14.9358 8.03065 14.8942 8.05714 14.8445Z" fill="#FF9566"/>
<path d="M5.70032 12.0125C5.79577 11.7125 5.98669 11.452 6.24397 11.2705C6.50125 11.0891 6.81078 10.9968 7.1254 11.0076L7.16194 10.7701C6.21189 10.7519 5.84648 11.1538 5.70032 12.0125Z" fill="#C6AA97"/>
<path d="M9.73809 11.7751C9.53711 11.227 9.02555 10.8068 8.4409 10.9164L8.40436 10.6971C9.17171 10.5875 9.51884 10.9164 9.73809 11.7751Z" fill="#C6AA97"/>
<path d="M8.49568 11.9941H8.47742C8.64185 12.4692 9.02552 12.5422 9.26304 12.4509C9.10472 12.4568 8.94808 12.4168 8.81195 12.3358C8.67581 12.2548 8.56598 12.1361 8.49568 11.9941Z" fill="#FF9566"/>
<path d="M6.961 11.9941H6.97927C6.81484 12.4692 6.43116 12.5422 6.21191 12.4509C6.3676 12.4555 6.52128 12.4148 6.65426 12.3337C6.78725 12.2526 6.89381 12.1347 6.961 11.9941Z" fill="#FF9566"/>
<path d="M6.81476 18.8272C6.44936 18.5532 6.24838 18.4801 6.1753 18.407C6.10222 18.3339 5.79163 18.1147 5.82817 17.9503C5.86471 17.7858 6.33974 17.2742 6.46763 17.4021C6.59552 17.53 6.70514 18.133 6.94266 18.6445C7.18017 19.1561 6.81476 18.8272 6.81476 18.8272Z" fill="#FFB882"/>
<path d="M6.02919 18.2244C5.79168 18.0235 5.0426 17.5302 5.0426 17.4205C5.0426 17.3109 6.12054 17.9138 6.12054 17.9138L6.02919 18.2244Z" fill="#FFB882"/>
<path d="M6.81478 18.462C6.79651 18.0235 7.10711 17.311 7.01576 17.2562C6.92441 17.2014 6.46765 18.1514 6.46765 18.1514L6.81478 18.462Z" fill="#FFB882"/>
<path d="M6.12051 17.9139C5.95608 17.6581 5.37143 16.9273 5.3897 16.7994C5.40797 16.6715 6.28495 17.585 6.28495 17.585L6.12051 17.9139Z" fill="#FFB882"/>
<path d="M6.32153 17.9507C6.26671 17.6584 6.0292 16.7449 6.10228 16.5987C6.17536 16.4526 6.59558 17.6584 6.59558 17.6584L6.32153 17.9507Z" fill="#FFB882"/>
<path d="M6.12057 18.7543C6.41289 18.4254 6.5956 18.2976 6.65041 18.2062C6.70522 18.1149 6.94273 17.8591 6.88792 17.7129C6.83311 17.5667 6.26673 17.1283 6.17537 17.2927C6.08402 17.4571 6.08403 18.0418 5.95614 18.6082C5.82825 19.1745 6.12057 18.7543 6.12057 18.7543Z" fill="#FFB882"/>
<path d="M6.75999 18.0052C6.94269 17.7677 7.56389 17.1282 7.52735 17.0369C7.49081 16.9455 6.61383 17.7129 6.61383 17.7129L6.75999 18.0052Z" fill="#FFB882"/>
<path d="M6.04744 18.3892C5.97436 17.969 5.53587 17.3295 5.60895 17.2565C5.68203 17.1834 6.30322 18.0238 6.30322 18.0238L6.04744 18.3892Z" fill="#FFB882"/>
<path d="M6.59559 17.7314C6.70521 17.4391 7.12542 16.617 7.07061 16.4891C7.0158 16.3612 6.37634 17.4391 6.37634 17.4391L6.59559 17.7314Z" fill="#FFB882"/>
<path d="M6.41289 17.8042C6.41289 17.4936 6.44942 16.5618 6.35807 16.4339C6.26672 16.306 6.10229 17.5667 6.10229 17.5667L6.41289 17.8042Z" fill="#FFB882"/>
<path d="M2.37512 22.5372C2.37512 22.5181 2.35685 22.5181 2.32031 22.5181H2.37512V22.5372Z" fill="#AF6854"/>
<path d="M16.0654 14.4054C15.6635 16.0132 17.5453 17.6209 18.8425 16.1593L21.0898 8.75984C18.7695 8.30308 16.4857 12.8158 16.0654 14.4054Z" fill="#FFC84D"/>
<path d="M16.3396 15.045C16.1613 14.9758 16.0126 14.8466 15.9193 14.6796C15.627 16.2143 17.7281 17.6394 19.007 16.2143L20.0667 10.7515C18.8609 12.4871 18.4224 15.5748 16.3396 15.045Z" fill="#FFA33E"/>
<path d="M26.8998 40.7877H27.1008L26.0594 21.6587L22.1678 20.873L26.8998 40.7877Z" fill="#564143"/>
<path d="M20.3225 40.8428H20.5965L22.2591 25.3495L23.4284 25.2399L24.7622 21.5128L19.007 20.106C18.8847 27.0424 19.3247 33.9774 20.3225 40.8428Z" fill="#564143"/>
<path d="M21.5831 22.609C23.2457 23.084 24.8169 23.0109 26.1324 23.0475L26.0593 21.6589L22.1677 20.8733L19.007 20.106C19.007 20.106 18.9887 20.6723 18.9887 21.6955C19.8331 22.0551 20.6997 22.3602 21.5831 22.609Z" fill="#443033"/>
<path d="M20.5966 40.8427L22.3871 25.4409L23.264 25.4957L24.342 24.5822C23.0265 24.9658 22.0399 25.0572 20.8706 24.5273L21.7841 25.4226L20.4321 40.8427H20.5966Z" fill="#443033"/>
<path d="M18.733 20.1242C20.3773 22.3714 26.2786 22.6455 26.2786 22.6455C26.2786 22.6455 26.4613 14.9171 26.5527 13.9305C26.644 12.9439 26.3517 10.4592 26.1324 10.0938C25.9132 9.72836 21.6197 8.57733 20.6879 8.79658C19.7561 9.01582 18.3676 17.3105 18.733 20.1242Z" fill="#FFC84D"/>
<path d="M19.0984 18.7722C19.0798 16.5154 19.1774 14.259 19.3907 12.0122C18.8426 14.6431 18.4589 18.4434 18.7147 20.1425C18.8913 20.3493 19.087 20.5389 19.2993 20.7089C19.1737 20.0708 19.1064 19.4225 19.0984 18.7722Z" fill="#FFA33E"/>
<path d="M18.8609 15.2824C18.7685 14.8687 18.5233 14.5053 18.1743 14.2647C17.8254 14.0242 17.3984 13.9243 16.979 13.9852C16.1203 14.1496 15.5905 15.0814 15.7366 15.8853C15.8828 16.6892 16.6867 17.2008 17.5454 17.0363C17.9479 16.9688 18.309 16.749 18.5539 16.4225C18.7988 16.0959 18.9087 15.6877 18.8609 15.2824Z" fill="#D62D61"/>
<path d="M18.4041 14.4424C18.3606 14.7962 18.2093 15.128 17.9707 15.3927C17.732 15.6575 17.4177 15.8424 17.0703 15.9223C16.839 15.9825 16.5969 15.989 16.3626 15.9416C16.1284 15.8941 15.908 15.7937 15.7183 15.6482C15.7146 15.7278 15.7208 15.8076 15.7366 15.8857C15.8645 16.6896 16.6867 17.2012 17.5454 17.0368C17.8325 17.0071 18.105 16.8951 18.33 16.7142C18.5551 16.5334 18.723 16.2914 18.8137 16.0173C18.9045 15.7432 18.9141 15.4488 18.8414 15.1694C18.7687 14.89 18.6168 14.6375 18.4041 14.4424Z" fill="#AD1E51"/>
<path d="M25.2006 22.5542L26.2786 22.6456C26.2786 22.6456 26.7719 15.2096 26.5526 13.9307C24.7256 14.1864 25.2372 20.2705 25.2006 22.5542Z" fill="#FF8F33"/>
<path d="M17.7281 9.2168L18.8426 10.8063C18.8426 12.3593 18.4589 15.3556 18.1118 15.721C17.7647 16.0864 15.7915 16.397 15.8828 14.8806C16.029 12.5603 17.7281 9.2168 17.7281 9.2168Z" fill="#FFB882"/>
<path d="M18.6598 10.5508C18.6476 10.904 18.6111 11.2694 18.5502 11.647C18.2396 13.7846 17.3992 15.4472 16.6684 15.3376C16.3395 15.2828 16.102 14.8808 15.9558 14.2779C15.9193 14.4789 15.901 14.6799 15.8827 14.8808C15.7914 16.3973 17.6732 16.4704 18.2031 15.9223C18.7329 15.3741 18.8425 12.3595 18.8425 10.8066L18.6598 10.5508Z" fill="#FF9566"/>
<path d="M26.7902 41.2445H28.7999C28.7999 41.2445 27.3565 40.4589 27.0094 40.605C26.6623 40.7512 26.7902 41.2445 26.7902 41.2445Z" fill="#E5CB9C"/>
<path d="M20.9254 41.2448H19.4637C19.4637 41.2448 20.3042 40.2947 20.5965 40.4774C20.8888 40.6601 20.9254 41.2448 20.9254 41.2448Z" fill="#E5CB9C"/>
<path d="M24.7804 31.8906L23.0813 25.3498L23.5015 25.1123L24.7804 31.8906Z" fill="#443033"/>
<path d="M21.6014 22.2617L21.8206 24.3811L22.0216 24.4176L22.2043 22.2983L21.6014 22.2617Z" fill="#443033"/>
<path d="M23.0813 22.5176H22.0399V23.1114H23.0813V22.5176Z" fill="#443033"/>
<path d="M22.7707 22.7916H21.9668L22.0033 22.2617L22.7707 22.4444V22.7916Z" fill="#967C80"/>
<path d="M26.169 10.1484C27.722 11.1898 28.5441 15.2641 28.9826 19.3201C29.0374 19.9047 26.4979 21.0558 26.2238 19.9413C25.8401 18.37 25.4382 17.219 25.3651 15.9583C25.1641 12.4687 26.0959 10.0936 26.169 10.1484Z" fill="#FFC84D"/>
<path d="M28.3248 14.9905C28.6902 17.4752 28.7633 19.5398 27.4479 19.6677C26.443 19.759 25.6208 17.1281 25.1641 14.3145C25.1641 16.7444 25.8766 18.8455 26.1689 20.0331C26.4613 21.2206 29.1653 20.3071 29.1104 19.7225C28.9277 18.206 28.672 16.5252 28.3248 14.9905Z" fill="#FFA33E"/>
<path d="M29.2201 19.6126C29.1836 18.9 28.3797 18.1875 27.4844 18.1875C26.5892 18.1875 25.9132 18.9 25.9497 19.6126C25.9863 20.3251 26.7536 20.8915 27.6489 20.8915C28.5441 20.8915 29.2566 20.3069 29.2201 19.6126Z" fill="#D62D61"/>
<path d="M28.8729 18.8271C28.7268 19.3935 28.0873 19.832 27.32 19.8503C27.0754 19.8698 26.8294 19.8394 26.597 19.7609C26.3646 19.6823 26.1506 19.5574 25.968 19.3935C25.9529 19.4656 25.9467 19.5392 25.9497 19.6128C25.9862 20.307 26.7536 20.8917 27.6488 20.8917C28.5441 20.8917 29.2566 20.307 29.2201 19.6128C29.1984 19.3187 29.0758 19.0412 28.8729 18.8271Z" fill="#AD1E51"/>
<path d="M28.6537 25.2762L26.4978 24.8195C26.6805 24.3993 26.8815 23.1386 26.8449 22.8828L28.3979 23.303C28.3979 23.303 28.2883 24.582 28.6537 25.2762Z" fill="#FF9566"/>
<path d="M28.2701 24.7287C28.3614 24.8748 28.6172 24.9479 28.7451 25.295C29.1288 26.3547 28.471 26.0989 28.3431 26.2451C28.2152 26.3913 28.1787 27.1038 28.0691 27.1952C27.9595 27.2865 26.644 26.6288 26.3699 26.3913C26.0959 26.1537 26.1142 25.0575 26.644 24.4546C26.845 24.2354 28.2701 24.7287 28.2701 24.7287Z" fill="#FF9566"/>
<path d="M26.9729 26.409C26.6623 26.2628 26.2969 26.0984 26.2603 25.2031C26.1324 25.7147 26.1324 26.2811 26.3151 26.4455C26.4978 26.6099 27.795 27.4869 28.0326 27.2677C28.2701 27.0484 28.1056 26.3907 28.1239 26.3724C27.6306 26.409 27.4296 26.6465 26.9729 26.409Z" fill="#FF9566"/>
<path d="M28.3431 26.2448C28.471 26.0986 29.0922 26.4823 28.7451 25.2947C28.5807 24.7101 28.0143 24.5457 27.5575 24.436C27.4173 24.5536 27.3148 24.7099 27.2628 24.8853C27.2108 25.0608 27.2117 25.2477 27.2652 25.4226C27.3748 25.8063 28.2518 26.3179 28.3431 26.2448Z" fill="#FFB882"/>
<path d="M28.1238 26.9026C28.057 27.2378 27.9654 27.5676 27.8498 27.8892C27.7584 27.9989 27.3017 27.9075 27.2651 27.6883C27.2953 27.2984 27.3878 26.916 27.5392 26.5555C27.594 26.5007 28.1969 26.6651 28.1238 26.9026Z" fill="#FFB882"/>
<path d="M27.4845 26.3177C27.4051 26.6516 27.3075 26.981 27.1921 27.3043C27.1008 27.4139 26.644 27.3225 26.6075 27.1033C26.6376 26.7135 26.7302 26.331 26.8815 25.9705C26.9363 25.9157 27.5393 26.0802 27.4845 26.3177Z" fill="#FFB882"/>
<path d="M26.8084 25.8061C26.7536 25.9523 26.6074 26.5918 26.5526 26.7014C26.4978 26.811 26.0593 26.7379 26.0228 26.5187C25.9863 26.2994 26.2786 25.4407 26.3334 25.3859C26.3882 25.3311 26.8632 25.5869 26.8084 25.8061Z" fill="#FFB882"/>
<path d="M28.2335 25.5321L27.0642 24.0157C26.6622 22.4627 26.1872 19.9049 26.3517 19.4481C26.5161 18.9914 27.8498 18.3154 28.8912 19.4116C29.1653 19.6856 28.2335 25.5321 28.2335 25.5321Z" fill="#FFB882"/>
<path d="M27.0277 22.9746C26.6805 20.91 27.0094 19.1195 27.795 18.7724C27.119 18.6445 26.5161 18.9734 26.3517 19.4484C26.1872 19.9234 26.5526 22.5178 27.0642 24.016L27.4113 24.4727C27.2491 23.9828 27.1209 23.4822 27.0277 22.9746Z" fill="#FF9566"/>
<path d="M25.9679 3.02344L22.6428 3.42538C22.3726 4.73192 22.5329 6.09082 23.0995 7.29868L25.767 7.95642C26.7901 7.49966 27.5392 4.52159 27.5392 4.52159L25.9679 3.02344Z" fill="#824433"/>
<path d="M26.1324 10.0941C25.9497 9.80174 23.0448 8.96131 21.4735 8.79688C21.6014 10.3133 23.1909 12.5606 23.1909 12.5606C23.1909 12.5606 25.3651 11.8846 26.1324 10.0941Z" fill="#FFF2BB"/>
<path d="M22.2773 9.03405L22.9716 5.76367L25.8766 7.06086L25.6025 9.87449C25.6025 9.87449 24.2505 10.989 23.6476 10.7332C23.0447 10.4774 22.2773 9.03405 22.2773 9.03405Z" fill="#FFB882"/>
<g style="mix-blend-mode:multiply" opacity="0.6">
<path d="M23.191 13.6933C24.817 13.8577 26.4065 12.999 27.2835 11.5922C26.9546 10.9345 26.5892 10.4229 26.169 10.1488H26.1507C26.1507 10.1306 26.1325 10.1123 26.1325 10.094L26.0959 10.0575L26.0594 10.0209H26.0229C26.0229 10.0027 26.0046 10.0027 25.9863 9.9844H25.9498L25.895 9.94785H25.8767L25.7671 9.89304H25.7305L25.6392 9.8565C25.6392 9.83823 25.6209 9.83824 25.6026 9.83824L25.8767 7.07941L22.9717 5.78223L22.2957 8.94299L21.8024 8.85164H21.6014L21.0899 8.79683C20.651 8.72508 20.2008 8.80226 19.811 9.01607V9.05262C19.4273 11.3547 20.9437 13.4558 23.191 13.6933Z" fill="#843131"/>
</g>
<path d="M25.9315 9.30841C25.2189 9.85652 23.4284 8.96128 23.0082 8.50452C22.588 8.04776 23.1179 3.4071 23.1179 3.4071C23.1179 3.4071 25.2555 2.49359 26.169 2.93208C26.4346 3.05816 26.6691 3.2415 26.8555 3.46895C27.0418 3.69639 27.1755 3.96228 27.2469 4.24753C27.2469 4.24753 26.2421 9.05262 25.9315 9.30841Z" fill="#FFB882"/>
<path d="M23.5015 5.7821C23.5565 4.76536 23.5443 3.74609 23.465 2.73096L22.9534 3.29734V5.43496L23.5015 5.7821Z" fill="#824433"/>
<path d="M23.0447 5.8004C22.2408 5.39845 21.9485 4.90516 22.2043 4.2657C22.3504 3.90029 23.2457 3.99164 23.0447 5.8004Z" fill="#FFB882"/>
<path d="M17.7646 5.21582L17.1251 5.89181C19.8291 13.1086 31.1567 33.9367 31.1567 33.9367L31.3942 33.8271C31.3942 33.8271 18.7329 8.96123 17.7646 5.21582Z" fill="#824433"/>
<path d="M33.5685 41.2811C35.8522 41.1532 38.0081 39.5089 38.0081 39.5089L29.5124 29.917L28.9278 30.1728L33.5685 41.2811Z" fill="#AF8980"/>
<path d="M34.1714 40.8975C32.527 38.1934 29.7134 32.0181 30.8645 31.4334L29.5124 29.917L28.9278 30.1728L33.5685 41.2811L34.3541 41.1715L34.1714 40.8975Z" fill="#9E746C"/>
<path d="M29.2018 30.5929L27.8315 28.8207L29.4211 28.0898L29.9144 30.5015L29.2018 30.5929Z" fill="#AF8980"/>
<path d="M29.622 29.1316C29.5916 29.2286 29.5371 29.3163 29.4636 29.3865C29.3901 29.4568 29.3001 29.5074 29.2018 29.5335C28.8181 29.6066 28.3979 29.2412 28.1604 28.6748L27.8315 28.821L29.2018 30.5932L29.9144 30.5018L29.622 29.1316Z" fill="#9E746C"/>
<path d="M29.3663 31.2327L28.7451 30.1L29.7865 29.4971L30.5539 31.1049L29.3663 31.2327Z" fill="#FFF8D7"/>
<path d="M22.862 5.45339C22.387 5.21587 22.2043 4.92355 22.3505 4.53987C22.4966 4.1562 22.9899 4.37544 22.862 5.45339Z" fill="#EA7B59"/>
<path d="M22.8986 5.54459C22.5697 5.38015 22.4601 5.17918 22.5514 4.92339C22.6428 4.66761 22.9717 4.81378 22.8986 5.54459Z" fill="#FFB882"/>
<path d="M24.3419 8.3581C24.3602 8.32156 24.415 8.39465 24.5246 8.43119C24.6343 8.46773 24.7073 8.46773 24.6891 8.50427C24.6708 8.54081 24.5794 8.54081 24.4881 8.50427C24.3967 8.46773 24.3237 8.39464 24.3419 8.3581Z" fill="#EA7B59"/>
<path d="M25.2737 8.48594C24.7621 8.43113 24.415 8.23016 24.2688 7.99264C24.2208 7.90696 24.1927 7.81161 24.1863 7.71361C24.18 7.6156 24.1957 7.51741 24.2323 7.42627H24.1409C24.1105 7.53243 24.1013 7.64355 24.1138 7.75327C24.1264 7.86299 24.1604 7.96917 24.214 8.06573C24.3785 8.28497 24.7256 8.43113 25.2737 8.48594Z" fill="#EA7B59"/>
<path d="M26.0776 6.20203C26.0959 6.00105 26.0228 5.80008 25.9314 5.78181C25.8401 5.76354 25.7305 5.90971 25.6939 6.12895C25.6574 6.3482 25.7487 6.54916 25.8584 6.56743C25.968 6.5857 26.0593 6.42127 26.0776 6.20203Z" fill="#4F3131"/>
<path d="M25.292 5.81879C25.4381 5.74571 25.767 7.37177 25.6939 7.64583C25.6208 7.91988 24.8352 7.62755 24.8352 7.62755C24.8352 7.62755 25.2737 5.81879 25.292 5.81879Z" fill="#FFB882"/>
<path d="M25.3468 5.85498C25.4564 6.14731 25.7305 7.38968 25.6574 7.60893C25.5843 7.82817 25.1093 7.64547 24.9083 7.59066C24.8979 7.62009 24.8917 7.65085 24.89 7.68201C24.89 7.68201 25.767 7.90125 25.8035 7.75509C25.8401 7.60892 25.4747 5.89152 25.3468 5.85498Z" fill="#EA7B59"/>
<path d="M24.8535 5.90998C24.8718 5.69074 24.7987 5.50803 24.7073 5.47149C24.616 5.43495 24.4881 5.61765 24.4698 5.81863C24.4516 6.0196 24.5064 6.23885 24.616 6.27539C24.7256 6.31193 24.817 6.12922 24.8535 5.90998Z" fill="#4F3131"/>
<path d="M25.3833 4.95975C25.2554 5.19727 24.415 5.08765 24.3236 4.94149C24.2323 4.79533 24.1592 4.66743 24.3236 4.59435C24.4881 4.52127 25.2189 4.37511 25.3468 4.48473C25.4002 4.55091 25.4324 4.63175 25.4389 4.71657C25.4454 4.80139 25.426 4.88618 25.3833 4.95975Z" fill="#9B3629"/>
<path d="M25.767 5.14266C25.767 5.38018 26.5527 5.65423 26.6623 5.56288C26.7719 5.47153 26.8815 5.34364 26.7902 5.23401C26.6988 5.12439 26.1142 4.64937 25.9863 4.72245C25.9232 4.77405 25.8713 4.83788 25.8336 4.9101C25.7959 4.98233 25.7733 5.06144 25.767 5.14266Z" fill="#9B3629"/>
<g style="mix-blend-mode:multiply" opacity="0.6">
<path d="M27.5393 4.52132L27.2469 4.24726C27.1847 3.98751 27.07 3.74326 26.9097 3.52959C26.7494 3.31591 26.5471 3.13733 26.3152 3.00488H24.342C24.0573 3.07469 23.7768 3.16009 23.5015 3.26067C23.4876 3.17616 23.4814 3.09053 23.4833 3.00488H23.2092L22.9534 3.29721V3.38857L22.6428 3.4251C22.5998 3.64855 22.5693 3.87424 22.5515 4.1011C22.4835 4.08197 22.4109 4.08808 22.3471 4.11831C22.2833 4.14853 22.2326 4.20083 22.2043 4.26554C22.0034 4.75884 22.1313 5.16078 22.5697 5.50792C22.588 5.65408 22.6246 5.80024 22.6428 5.96467H27.0825C27.2616 5.49245 27.4141 5.01058 27.5393 4.52132Z" fill="#843131"/>
</g>
<path d="M27.5941 0.666376C27.1738 0.31924 24.1044 -0.24714 23.5015 0.118266C22.8986 0.483673 22.5515 3.75406 22.5515 3.75406C24.0131 3.49828 25.7488 3.49828 27.3931 4.39352C27.3931 4.39352 27.996 1.01351 27.5941 0.666376Z" fill="#FFC84D"/>
<path d="M24.8717 2.52991C24.5823 1.72248 24.5067 0.853886 24.6525 0.00861429C24.1226 -0.00965601 23.6841 0.00860983 23.5014 0.118232C22.9168 0.483638 22.5514 3.75403 22.5514 3.75403C23.4992 3.5858 24.4681 3.57346 25.4198 3.71748C25.1902 3.34501 25.0062 2.94629 24.8717 2.52991Z" fill="#FFB03E"/>
<path d="M25.3467 2.58506C24.7804 2.65814 22.5514 3.75436 22.5514 3.75436C24.7256 3.82744 26.5343 4.22938 27.4844 4.97846C28.1238 4.94192 28.9825 4.13803 28.9825 3.86398C28.9825 3.58993 25.9314 2.53025 25.3467 2.58506Z" fill="#FFE094"/>
<path d="M25.3285 2.78578C24.7621 2.85886 22.5514 3.75411 22.5514 3.75411C24.7256 3.82719 26.5343 4.22913 27.4844 4.97821C28.1238 4.94167 28.8546 4.32049 28.8546 4.04643C28.8546 3.77238 25.8948 2.73097 25.3285 2.78578Z" fill="#FF8931"/>
<path d="M26.8632 1.37887L25.8401 1.25098C25.7927 1.46383 25.811 1.68604 25.8925 1.88829C25.9741 2.09053 26.1151 2.26328 26.2968 2.38374C26.4666 2.27569 26.607 2.12746 26.7058 1.95219C26.8046 1.77692 26.8587 1.58001 26.8632 1.37887Z" fill="#E83A4F"/>
<path d="M17.5454 9.12549L19.2079 9.87458C18.9398 10.2701 18.742 10.7089 18.6233 11.1718L17.2165 10.6967C17.2165 10.6967 17.6184 9.78322 17.5454 9.12549Z" fill="#FFB882"/>
<path d="M17.6185 9.78299C17.5819 9.65509 17.5819 9.28969 17.5271 9.01563C17.4723 8.74158 17.1983 7.49919 17.2713 7.38957C17.3228 7.32627 17.3923 7.28014 17.4706 7.25729C17.549 7.23445 17.6324 7.23597 17.7098 7.26167C17.7829 7.31649 17.9473 8.5406 18.057 8.46752C18.1666 8.39444 18.3858 7.82806 18.4772 7.77325C18.5685 7.71844 19.409 8.46752 19.5551 8.70503C19.7013 8.94255 19.4455 9.76472 18.9157 10.1484C18.733 10.2763 17.6185 9.78299 17.6185 9.78299Z" fill="#FFB882"/>
<path d="M18.1848 8.39443C18.3127 8.08384 18.5137 7.68189 18.532 7.57227C18.5502 7.46265 18.3493 6.85973 18.4041 6.80492C18.4589 6.75011 18.7512 6.73184 18.7878 6.878C18.8243 7.02416 18.9705 7.62709 18.9157 7.77325C18.8608 7.91941 18.6781 8.46752 18.6233 8.50406C18.5685 8.5406 18.1118 8.55887 18.1848 8.39443Z" fill="#FFB882"/>
<path d="M18.5685 8.74198C18.7141 8.50461 18.8365 8.25375 18.9339 7.99289C18.9705 7.88326 18.7878 7.29861 18.8426 7.26207C18.8985 7.22549 18.9652 7.20916 19.0317 7.21581C19.0982 7.22246 19.1604 7.25168 19.208 7.29862C19.3176 7.44478 19.409 7.99289 19.3359 8.13906C19.2628 8.28522 19.0618 8.86986 19.007 8.88814C18.9522 8.90641 18.4772 8.88814 18.5685 8.74198Z" fill="#FFB882"/>
<path d="M18.9339 9.32656C19.076 9.08726 19.1982 8.83672 19.2993 8.57747C19.3359 8.46785 19.1532 7.8832 19.208 7.84666C19.263 7.81064 19.328 7.793 19.3937 7.79629C19.4593 7.79957 19.5223 7.82361 19.5734 7.86493C19.683 8.02937 19.7744 8.57747 19.7013 8.72363C19.6282 8.86979 19.4272 9.45445 19.3724 9.47272C19.3176 9.49099 18.8426 9.47272 18.9339 9.32656Z" fill="#FFB882"/>
<path d="M28.1238 26.9026C28.057 27.2378 27.9654 27.5676 27.8498 27.8892C27.7584 27.9989 27.3017 27.9075 27.2651 27.6883C27.2953 27.2984 27.3878 26.916 27.5392 26.5555C27.594 26.5007 28.1969 26.6651 28.1238 26.9026Z" fill="#FFB882"/>
<path d="M28.6354 26.464C28.197 26.464 27.7585 26.464 27.6306 26.4092C27.5027 26.3544 27.4661 25.8793 27.6854 25.8062C28.0732 25.7508 28.4669 25.7508 28.8547 25.8062C28.9095 25.8611 28.873 26.4823 28.6354 26.464Z" fill="#FFB882"/>
<path d="M27.4845 26.3177C27.4051 26.6516 27.3075 26.981 27.1921 27.3043C27.1008 27.4139 26.644 27.3225 26.6075 27.1033C26.6376 26.7135 26.7302 26.331 26.8815 25.9705C26.9363 25.9157 27.5393 26.0802 27.4845 26.3177Z" fill="#FFB882"/>
<path d="M26.8084 25.8061C26.7536 25.9523 26.6074 26.5918 26.5526 26.7014C26.4978 26.811 26.0593 26.7379 26.0228 26.5187C25.9863 26.2994 26.2786 25.4407 26.3334 25.3859C26.3882 25.3311 26.8632 25.5869 26.8084 25.8061Z" fill="#FFB882"/>
</svg>
