<svg width="31" height="42" viewBox="0 0 31 42" fill="none" xmlns="http://www.w3.org/2000/svg">
<path d="M12.3503 20.849L13.2948 22.2656C13.5719 21.9893 13.8984 21.7675 14.2574 21.6118L13.7125 20.3223C13.7125 20.3223 12.9679 20.8126 12.3503 20.849Z" fill="#FFB882"/>
<path d="M12.9679 20.8127L12.2595 20.8491C11.9508 20.8491 11.0427 20.3768 10.97 20.4495C10.9187 20.5048 10.8858 20.5748 10.876 20.6497C10.8663 20.7245 10.8801 20.8006 10.9155 20.8672C10.97 20.9399 11.8963 21.285 11.86 21.4121C11.8237 21.5392 11.3333 21.7935 11.3151 21.9025C11.2969 22.0115 12.0598 22.629 12.314 22.7379C12.5683 22.8469 13.2403 22.5018 13.4764 21.957C13.5672 21.7753 12.9679 20.8127 12.9679 20.8127Z" fill="#FFB882"/>
<path d="M11.8055 21.5393C11.5894 21.6964 11.3651 21.8419 11.1335 21.9752C10.8964 22.0233 10.6651 22.0963 10.4433 22.1931C10.407 22.2658 10.3525 22.52 10.4978 22.52C10.7966 22.4755 11.0892 22.3962 11.3696 22.2839C11.582 22.185 11.783 22.0632 11.969 21.9207C11.9871 21.8844 11.9326 21.4485 11.8055 21.5393Z" fill="#FFB882"/>
<path d="M12.1506 21.9754C11.9601 22.1628 11.7535 22.333 11.5331 22.484C11.4423 22.5203 10.8974 22.7201 10.8792 22.7928C10.8611 22.8654 10.8247 23.1197 10.9519 23.1015C11.2511 23.0358 11.5389 22.9256 11.8055 22.7746C11.9994 22.6453 12.1817 22.4995 12.3504 22.3387C12.3685 22.3024 12.2777 21.8665 12.1506 21.9754Z" fill="#FFB882"/>
<path d="M12.8407 22.1025C12.6664 22.3088 12.4783 22.503 12.2777 22.6837C12.1869 22.72 11.6783 22.9743 11.6602 23.047C11.642 23.1196 11.6239 23.3739 11.7692 23.3557C12.0546 23.2566 12.3239 23.1158 12.5683 22.938C12.6773 22.829 13.0768 22.5203 13.0768 22.4658C13.0768 22.4113 12.9497 21.9936 12.8407 22.1025Z" fill="#FFB882"/>
<path d="M14.4572 21.6484L13.8215 21.939L12.9134 20.5042L13.6399 20.0864L14.4572 21.6484Z" fill="#6C5877"/>
<path d="M0 21.7754L1.41666 22.9923L2.54272 18.9058C2.54272 18.9058 0.490382 20.7765 0 21.7754Z" fill="#726A44"/>
<path d="M24.3557 1.57904C24.2649 1.10682 23.3386 -0.0737295 22.6121 0.507464C21.2821 -0.0393122 19.8123 -0.147478 18.4166 0.198704C17.1089 0.507463 16.3643 2.90489 16.3643 2.90489C16.3643 2.90489 17.5266 3.74035 18.2895 4.35787L23.2114 7.02773C23.9561 6.4647 24.7916 3.63138 24.3557 1.57904Z" fill="#843D3D"/>
<path d="M24.3557 1.57861C24.2649 1.10639 23.3386 -0.0741581 22.6121 0.507036L22.3215 0.398062C22.9027 1.68759 18.3621 0.924769 17.6356 3.8489L18.2895 4.35744L23.2114 7.0273C23.9561 6.46427 24.7916 3.63095 24.3557 1.57861Z" fill="#6B2C2C"/>
<path d="M19.4518 10.6781C18.3984 10.8597 17.9988 14.9644 17.2723 16.2358C16.782 17.1257 15.4198 18.5969 13.5491 19.7048C13.4534 19.7702 13.3829 19.8663 13.3493 19.9772C13.3304 20.0892 13.3496 20.2043 13.4038 20.3041L14.2211 21.6481C14.265 21.7208 14.3309 21.7776 14.4093 21.8102C14.4877 21.8429 14.5744 21.8497 14.657 21.8298C17.0181 21.3575 20.0148 19.3234 20.814 17.1984C21.6131 15.0734 20.4871 10.4965 19.4518 10.6781Z" fill="#EFE0A0"/>
<path d="M19.9967 11.0054C20.4507 12.4584 20.6324 14.547 20.1783 15.8002C19.361 17.9979 16.3279 20.5769 13.876 21.1036L14.2211 21.6485C14.265 21.7211 14.3309 21.7779 14.4093 21.8106C14.4877 21.8432 14.5744 21.8501 14.657 21.8301C17.0181 21.3579 20.1783 19.5053 20.9774 17.3803C21.595 15.7457 20.814 12.0951 19.9967 11.0054Z" fill="#EDCC8A"/>
<path d="M16.3097 21.9756L16.001 23.0835C15.7429 22.9943 15.4742 22.9394 15.2018 22.92L15.2563 21.9756C15.604 22.0451 15.962 22.0451 16.3097 21.9756Z" fill="#FFB882"/>
<path d="M15.892 22.1023L16.3824 21.957C16.5822 21.8843 17.0726 21.3394 17.1452 21.3758C17.1927 21.398 17.2321 21.4344 17.2581 21.4799C17.2842 21.5254 17.2955 21.5778 17.2905 21.63C17.2542 21.6845 16.7093 22.1386 16.782 22.1931C16.8546 22.2476 17.2179 22.3202 17.2542 22.3747C17.2905 22.4292 16.9091 23.0285 16.782 23.1557C16.6548 23.2828 16.0918 23.2283 15.8012 22.9559C15.5106 22.6834 15.892 22.1023 15.892 22.1023Z" fill="#FFB882"/>
<path d="M16.8365 22.266L17.3813 22.3749C17.5553 22.346 17.7317 22.3339 17.908 22.3386C17.9444 22.3749 18.0352 22.5202 17.9444 22.5566C17.7306 22.6096 17.5107 22.634 17.2905 22.6292L16.8183 22.5566C16.782 22.5384 16.7275 22.2478 16.8365 22.266Z" fill="#FFB882"/>
<path d="M16.7093 22.6291C16.8797 22.6992 17.0559 22.7539 17.236 22.7926C17.4124 22.7853 17.589 22.7974 17.7627 22.8289C17.7991 22.8652 17.8717 23.0105 17.7809 23.0468C17.5638 23.074 17.3442 23.074 17.1271 23.0468L16.6548 22.9197C16.6185 22.8834 16.6003 22.5928 16.7093 22.6291Z" fill="#FFB882"/>
<path d="M16.2734 22.8834C16.4341 22.9751 16.6047 23.0482 16.7819 23.1013C16.9538 23.1051 17.1245 23.1295 17.2905 23.174C17.3268 23.2285 17.3813 23.3919 17.2905 23.4101C17.0704 23.4118 16.8509 23.3875 16.6366 23.3374L16.1826 23.174C16.1644 23.1377 16.1644 22.8289 16.2734 22.8834Z" fill="#FFB882"/>
<path d="M15.5469 21.394L14.4754 21.3032L14.439 23.9004L15.5106 23.9912L15.5469 21.394Z" fill="#EFE0A0"/>
<path d="M9.02666 15.3643C9.9711 16.7628 11.4241 20.9401 11.4241 20.9401L14.8023 21.1762L15.0202 24.2093C15.0202 24.2093 10.6431 24.1185 10.1527 23.9005C9.66234 23.6826 7.08329 20.1409 6.52026 19.4145C5.95723 18.688 9.02666 15.3643 9.02666 15.3643Z" fill="#AFA984"/>
<path d="M11.2061 21.7029C10.8792 21.485 9.44439 15.3461 8.66341 15.3643C8.1367 16.2724 6.28414 19.1057 6.52025 19.4145C7.08329 20.141 9.66233 23.6645 10.1527 23.9006C10.6431 24.1367 15.0202 24.2093 15.0202 24.2093L14.8931 22.3931C13.5854 22.3568 11.5149 21.9391 11.2061 21.7029Z" fill="#A09870"/>
<path d="M13.8941 22.5202C13.8985 22.5466 13.9081 22.5719 13.9224 22.5946C13.9368 22.6172 13.9555 22.6367 13.9775 22.652C13.9996 22.6672 14.0244 22.6779 14.0507 22.6833C14.0769 22.6888 14.104 22.6889 14.1302 22.6837C14.1559 22.6816 14.1809 22.6741 14.2035 22.6617C14.226 22.6493 14.2457 22.6322 14.2612 22.6116C14.2766 22.591 14.2875 22.5673 14.2931 22.5422C14.2987 22.517 14.2989 22.491 14.2937 22.4657C14.2914 22.4394 14.284 22.4139 14.2718 22.3905C14.2595 22.3671 14.2428 22.3464 14.2226 22.3295C14.2023 22.3126 14.1789 22.2999 14.1537 22.2921C14.1285 22.2843 14.102 22.2816 14.0758 22.2841C14.023 22.2966 13.9761 22.3269 13.943 22.3699C13.9099 22.4129 13.8927 22.466 13.8941 22.5202Z" fill="#EFE0A0"/>
<path d="M13.1313 22.3931C13.1403 22.4477 13.1697 22.4968 13.2135 22.5306C13.2574 22.5643 13.3124 22.5801 13.3674 22.5747C13.3939 22.5704 13.4192 22.5608 13.4418 22.5464C13.4644 22.5321 13.484 22.5134 13.4992 22.4913C13.5145 22.4693 13.5251 22.4444 13.5306 22.4182C13.536 22.392 13.5361 22.3649 13.5309 22.3386C13.5289 22.3129 13.5214 22.288 13.5089 22.2654C13.4965 22.2428 13.4794 22.2232 13.4588 22.2077C13.4382 22.1923 13.4145 22.1814 13.3894 22.1757C13.3642 22.1701 13.3382 22.1699 13.313 22.1752C13.2867 22.1775 13.2611 22.1849 13.2377 22.1971C13.2144 22.2093 13.1936 22.226 13.1767 22.2463C13.1599 22.2666 13.1471 22.29 13.1393 22.3152C13.1316 22.3404 13.1288 22.3669 13.1313 22.3931Z" fill="#EFE0A0"/>
<path d="M3.25106 27.6055C3.21474 27.7326 3.74145 40.9548 3.74145 40.9548H3.92307L6.72007 29.9121L3.25106 27.6055Z" fill="#5B3B3B"/>
<path d="M4.59505 38.3394L6.72004 29.9121L3.25104 27.6055C3.21471 27.6963 3.50531 34.7796 3.65061 38.5937L4.59505 38.3394Z" fill="#3F2727"/>
<path d="M10.1527 28.7314L6.9743 29.6396L10.2798 40.7367L10.4796 40.5914L10.1527 28.7314Z" fill="#5B3B3B"/>
<path d="M10.3888 37.4312L10.1527 28.7314L6.9743 29.6396L9.42622 37.8671L10.3888 37.4312Z" fill="#3F2727"/>
<path d="M1.344 36.9228L11.7873 35.6514C11.7873 35.6514 10.3888 23.4464 10.4796 21.4848L1.85255 19.269C1.85255 19.269 -0.780987 25.8075 1.344 36.9228Z" fill="#AFA984"/>
<path d="M8.17303 24.5543C9.33542 24.6814 10.4796 25.1173 10.8792 27.097C10.6249 24.5543 10.4433 22.2477 10.4796 21.4848L1.85255 19.269C1.85255 19.269 -0.780987 25.8075 1.344 36.9228L4.90382 36.4506C4.44976 31.4378 3.12391 23.9731 8.17303 24.5543Z" fill="#A09870"/>
<path d="M5.92088 23.4645C7.4915 23.3076 9.07767 23.4619 10.5886 23.9186C10.5023 23.1104 10.4659 22.2976 10.4796 21.4848L1.85252 19.269C1.85252 19.269 0.998892 21.3759 0.653809 25.2444C2.24367 24.2422 4.04896 23.6321 5.92088 23.4645Z" fill="#8E855E"/>
<path d="M0 21.7753C0 21.7753 7.77347 23.2283 10.8792 23.0467C10.8792 23.0467 9.57153 16.2722 8.89953 15.1098C8.42731 14.3288 5.48502 12.7668 4.48609 13.2209C3.48716 13.675 1.45298 15.7273 0 21.7753Z" fill="#AFA984"/>
<path d="M8.55445 23.2469C8.57261 21.6668 8.53628 18.1978 6.44762 15.3826C5.64848 14.311 5.6848 13.1305 4.39528 13.1123C3.41452 13.5664 1.1079 15.8003 0 21.7757C0 21.7757 5.19442 22.8655 8.55445 23.2469Z" fill="#A09870"/>
<path d="M2.88782 22.3385C2.43377 18.4154 3.39637 16.127 3.79594 15.5458C4.19551 14.9646 7.047 23.1194 7.047 23.1194C7.047 23.1194 4.44978 22.6109 2.88782 22.3385Z" fill="#99906B"/>
<path d="M4.99464 10.0791C4.99464 10.0791 3.66879 11.1688 4.10469 13.421L9.02667 15.3643C8.89954 14.1111 6.42946 9.67952 4.99464 10.0791Z" fill="#AFA984"/>
<path d="M4.97643 12.6581C4.64951 12.2404 4.48605 10.9327 5.12173 10.1699L4.9946 10.0791C4.9946 10.0791 3.50529 11.187 3.94118 13.4391L7.99138 14.9648C6.72002 14.1293 5.26703 13.0214 4.97643 12.6581Z" fill="#A09870"/>
<path d="M8.7179 14.9283C7.24675 14.2744 5.33971 12.6762 5.12177 11.7499C4.90382 10.8236 5.61214 10.424 5.97539 10.4785C6.33864 10.533 8.8632 13.221 8.7179 14.9283Z" fill="#756F54"/>
<path d="M18.7435 41.0642H18.9251L26.0084 23.5738L20.9774 21.7939L18.7435 41.0642Z" fill="#6C5877"/>
<path d="M18.9251 41.064L24.5736 27.3696L23.611 27.2788L18.8888 41.064H18.9251Z" fill="#584266"/>
<path d="M22.6847 26.8612L23.8471 27.2063C23.8471 27.2063 27.643 37.8494 28.8599 40.9188H29.1324L28.0063 22.3025L20.9775 21.7939L22.6847 26.8612Z" fill="#6C5877"/>
<path d="M20.9775 21.7939L20.7958 23.3559L27.2798 24.9179C27.2798 24.9179 28.6964 38.3216 28.9326 40.9188H29.1323L28.3695 22.139L20.9775 21.7939Z" fill="#584266"/>
<path d="M24.4101 27.5149L26.0811 25.9893C24.1014 27.0608 22.9753 26.9337 21.8856 26.4796L23.502 28.0053L23.7744 27.642C23.7744 27.642 24.283 28.4593 24.9187 30.2029L24.4101 27.5149Z" fill="#584266"/>
<path d="M20.814 22.6291C23.3429 23.3324 25.9341 23.7886 28.5511 23.9912C28.5511 23.9912 28.8962 22.4111 29.0233 21.3032L20.814 21.6301V22.6291Z" fill="#E0B963"/>
<path d="M27.5341 23.7736C26.971 23.374 25.6815 22.9563 24.1559 22.7383C23.2123 22.5951 22.2551 22.5647 21.3044 22.6475C23.3414 23.2156 25.427 23.5926 27.5341 23.7736Z" fill="#EFE0A0"/>
<path d="M28.6238 22.7018C27.4796 23.1014 21.0501 22.3386 20.705 21.9753C20.36 21.6121 20.2328 20.2681 20.6506 18.6153C21.2499 16.3632 18.4529 13.8568 19.0523 11.1688C19.4155 9.4615 22.0127 8.80766 23.3749 8.68052C24.7371 8.55338 26.8076 9.11642 28.5875 12.8942C29.8588 15.6367 30.0042 22.2114 28.6238 22.7018Z" fill="#D14E4E"/>
<path d="M28.5875 12.8942C28.2242 12.1132 27.4796 10.6784 26.6804 10.2243C25.4635 9.516 24.3193 10.5512 25.8631 15.7457C26.5351 18.0523 28.1334 22.9198 21.5223 21.9753C21.1955 21.9231 20.8776 21.8253 20.5779 21.6847C20.6068 21.787 20.6496 21.8847 20.705 21.9753C21.0501 22.3386 27.4796 23.1014 28.6238 22.7018C29.768 22.3023 29.8588 15.6367 28.5875 12.8942Z" fill="#C12D2D"/>
<path d="M23.5928 22.6292C23.1387 22.3205 23.0298 21.8664 23.2295 21.3397C23.4293 20.813 23.7018 18.4337 22.612 16.1998C21.3952 13.6934 21.0319 12.4038 21.3043 11.6592L21.4678 11.7137C21.2317 12.4038 21.5949 13.6934 22.7755 16.1089C23.956 18.5245 23.5383 21.0491 23.393 21.4123C23.3189 21.6412 23.3253 21.8885 23.4112 22.1132C23.4971 22.3379 23.6573 22.5264 23.8652 22.6474L23.5928 22.6292Z" fill="#EFE0A0"/>
<path d="M23.3931 22.0479H23.1751C23.2446 22.2784 23.3924 22.4775 23.5928 22.6109H23.8653C23.6559 22.4738 23.4916 22.2779 23.3931 22.0479Z" fill="#E0B963"/>
<path d="M18.8525 20.8492L20.0149 22.0661C20.2402 21.7492 20.5237 21.478 20.8503 21.267L20.0875 20.0864C20.0875 20.0864 19.4337 20.7039 18.8525 20.8492Z" fill="#FFB882"/>
<path d="M19.4336 20.7039L18.7435 20.8856C18.4529 20.9401 17.4721 20.6131 17.3995 20.7221C17.3641 20.7877 17.3486 20.8622 17.3551 20.9364C17.3615 21.0107 17.3896 21.0814 17.4358 21.1398C17.5084 21.1943 18.471 21.376 18.4529 21.5031C18.4347 21.6302 18.017 21.9753 17.9988 22.0661C17.9807 22.1569 18.8888 22.6655 19.143 22.72C19.3973 22.7744 20.0148 22.3022 20.1601 21.7392C20.2146 21.5394 19.4336 20.7039 19.4336 20.7039Z" fill="#FFB882"/>
<path d="M18.4347 21.6304C18.2526 21.824 18.0585 22.006 17.8535 22.1753C17.7627 22.2116 17.236 22.4659 17.2179 22.5385C17.1997 22.6111 17.1815 22.8473 17.3268 22.8291C17.6138 22.7357 17.8882 22.6076 18.1441 22.4477C18.3304 22.3027 18.5064 22.1449 18.6708 21.9755C18.689 21.9391 18.5437 21.5214 18.4347 21.6304Z" fill="#FFB882"/>
<path d="M18.8525 21.9936C18.6957 22.2096 18.5258 22.4158 18.3439 22.6111C18.2531 22.6656 17.7627 22.9744 17.7446 23.047C17.7264 23.1197 17.7627 23.3558 17.8899 23.3376C18.1648 23.2088 18.4213 23.0439 18.6527 22.8472C18.7616 22.7201 19.1067 22.375 19.1249 22.3205C19.1431 22.266 18.9433 21.8665 18.8525 21.9936Z" fill="#FFB882"/>
<path d="M19.5608 21.9936C19.4209 22.2251 19.2694 22.4494 19.1068 22.6656C19.0341 22.7201 18.5619 23.0833 18.5619 23.156C18.5619 23.2286 18.5982 23.4647 18.7253 23.4284C18.9909 23.2731 19.2352 23.0838 19.4518 22.8654C19.5981 22.6873 19.7316 22.4992 19.8514 22.3023C19.8514 22.2478 19.6516 21.8664 19.5608 21.9936Z" fill="#FFB882"/>
<path d="M20.9048 21.4488L20.3781 21.7939L19.361 20.4317L19.9604 19.9595L20.9048 21.4488Z" fill="#6C5877"/>
<path d="M24.7734 9.35231C23.7745 9.66106 24.1014 13.6386 23.2296 15.2732C22.7392 16.1813 21.595 18.3063 19.8333 19.6322C19.7581 19.6986 19.707 19.788 19.688 19.8864C19.6813 19.9344 19.6843 19.9832 19.6968 20.03C19.7093 20.0768 19.731 20.1206 19.7606 20.1589L20.814 21.4847C20.8592 21.5391 20.9208 21.5773 20.9896 21.5937C21.0584 21.61 21.1306 21.6037 21.1954 21.5755C23.157 20.7764 27.189 18.161 28.0063 14.1108C28.5148 11.5499 26.1901 8.91641 24.7734 9.35231Z" fill="#EFE0A0"/>
<path d="M25.4999 9.35254C26.408 10.297 27.08 11.8771 26.7894 13.4209C26.0447 17.3621 22.3759 19.9593 20.3599 20.9038L20.814 21.485C20.8592 21.5393 20.9208 21.5775 20.9896 21.5939C21.0583 21.6103 21.1305 21.6039 21.1954 21.5758C23.1569 20.7766 27.4251 18.2339 28.2424 14.1837C28.6783 12.0406 26.862 9.75211 25.4999 9.35254Z" fill="#EDCC8A"/>
<path d="M21.1591 12.4401C19.8332 11.9316 19.8332 9.44335 20.4689 8.44443C21.1046 7.4455 23.1388 6.80982 23.7745 7.39101C23.9379 7.53631 24.5918 8.20832 24.4283 8.73502C23.9924 10.297 21.8129 12.6762 21.1591 12.4401Z" fill="#EFE0A0"/>
<path d="M23.7744 7.39101C23.1388 6.80982 21.1046 7.4455 20.4689 8.44443C20.2744 8.75922 20.1505 9.11241 20.1057 9.47968C20.9411 8.20832 22.0853 7.49999 22.7392 7.8814C23.393 8.2628 23.3385 9.78844 22.5031 11.1869C22.2524 11.6277 21.9337 12.0262 21.5586 12.3675C22.4486 11.9498 24.065 10.0609 24.4283 8.73502C24.5917 8.20832 23.9379 7.53631 23.7744 7.39101Z" fill="#EDCC8A"/>
<path d="M21.0319 11.4593C20.2146 10.1879 19.7606 6.6281 19.7606 6.6281L22.8845 5.39307L23.5746 7.82681C23.5746 7.82681 23.3385 10.4059 21.0319 11.4593Z" fill="#FFB882"/>
<path d="M10.1164 41.3001H12.1687C12.1687 41.3001 10.6794 40.2648 10.3707 40.4828C10.0619 40.7007 10.1164 41.3001 10.1164 41.3001Z" fill="#E5CB9C"/>
<path d="M19.3973 41.3001H16.9454C16.9454 41.3001 18.8343 40.2648 19.1976 40.4828C19.5608 40.7007 19.3973 41.3001 19.3973 41.3001Z" fill="#E5CB9C"/>
<path d="M28.2424 41.3001H30.4582C30.4582 41.3001 29.2413 40.2648 28.8236 40.4828C28.4058 40.7007 28.2424 41.3001 28.2424 41.3001Z" fill="#E5CB9C"/>
<path d="M4.74035 41.3001H2.99677C2.99677 41.3001 3.63245 40.2285 4.03202 40.4646C4.43159 40.7008 4.74035 41.3001 4.74035 41.3001Z" fill="#E5CB9C"/>
<path d="M13.5128 25.172L12.4594 41.3001H12.641L14.1121 25.1538L13.5128 25.172Z" fill="#5B3B3B"/>
<path d="M5.88458 12.5856L6.37497 9.31641L9.22645 11.2053L8.7179 14.9286C8.7179 14.9286 6.22967 13.7298 5.88458 12.5856Z" fill="#FFB882"/>
<path d="M1.34399 36.9229L9.60784 35.5607L8.71789 24.3364L10.0437 35.8695L1.34399 36.9229Z" fill="#A09870"/>
<path d="M13.8397 25.6438C14.1607 25.6438 14.4209 25.3836 14.4209 25.0626C14.4209 24.7417 14.1607 24.4814 13.8397 24.4814C13.5187 24.4814 13.2585 24.7417 13.2585 25.0626C13.2585 25.3836 13.5187 25.6438 13.8397 25.6438Z" fill="#5B3B3B"/>
<path d="M12.9134 25.081L13.5309 23.8459C13.3242 23.8563 13.1181 23.8152 12.9311 23.7265C12.7441 23.6377 12.582 23.5041 12.4593 23.3374L12.0052 24.409C12.0052 24.409 12.6409 24.6814 12.9134 25.081Z" fill="#FFB882"/>
<path d="M12.1869 24.3363C12.2051 24.4271 12.7862 25.3352 13.4946 25.1717C13.6762 25.1172 13.876 25.2625 13.9668 25.2444C14.0576 25.2262 14.439 24.5542 14.4753 24.3726C14.5117 24.191 13.8578 23.7914 13.3856 23.8459C13.204 23.864 12.1869 24.3363 12.1869 24.3363Z" fill="#FFB882"/>
<path d="M13.6036 25.1538C13.7723 25.214 13.9362 25.2868 14.0939 25.3717C14.1484 25.4262 14.3845 25.6987 14.439 25.6987C14.4935 25.6987 14.7115 25.626 14.6933 25.5534C14.5963 25.3736 14.4597 25.2183 14.2937 25.0993C14.2029 25.063 13.9305 24.8813 13.876 24.8813C13.8215 24.8813 13.4946 25.0993 13.6036 25.1538Z" fill="#FFB882"/>
<path d="M13.876 24.7724C14.0675 24.8127 14.2557 24.8674 14.439 24.9359C14.5573 25.0469 14.6921 25.1388 14.8386 25.2083C14.8931 25.1902 15.1111 25.1175 15.0747 25.0267C14.9409 24.8777 14.7808 24.7546 14.6025 24.6635C14.4511 24.593 14.2929 24.5383 14.1303 24.5C14.094 24.5 13.767 24.7361 13.876 24.7724Z" fill="#FFB882"/>
<path d="M13.8396 24.3004C14.036 24.3212 14.2303 24.3577 14.4208 24.4093C14.4753 24.4457 15.0565 24.8089 15.111 24.7907C15.1655 24.7726 15.3834 24.6818 15.329 24.6091C15.0983 24.4164 14.8415 24.2574 14.5661 24.1369C14.4075 24.0777 14.2432 24.0351 14.0758 24.0098C14.0213 24.0279 13.7125 24.264 13.8396 24.3004Z" fill="#FFB882"/>
<path d="M13.0042 22.8108L12.0053 22.3931L11.2425 24.8813L12.2414 25.2809L13.0042 22.8108Z" fill="#EFE0A0"/>
<path d="M6.99247 16.0727C7.5555 18.2885 8.1367 20.5043 8.1367 20.5043L12.6228 22.2115L11.5875 25.3173C11.5875 25.3173 6.04803 23.0107 5.6303 22.6656C5.21256 22.3205 3.75958 19.015 3.43266 18.1795C1.81621 14.093 6.28414 13.2757 6.99247 16.0727Z" fill="#AFA984"/>
<path d="M6.2115 22.0841C6.02988 21.9388 3.19656 16.9623 3.7051 14.9463C2.92412 15.5456 2.47007 16.7262 3.14207 18.4335C3.48716 19.2871 4.97647 22.5563 5.3942 22.9014C5.81193 23.2465 11.5875 25.317 11.5875 25.317L11.9689 24.1909C10.4252 23.6097 6.55659 22.3383 6.2115 22.0841Z" fill="#A09870"/>
<path d="M11.079 23.9913C11.079 24.0308 11.0907 24.0694 11.1127 24.1023C11.1346 24.1351 11.1658 24.1607 11.2023 24.1759C11.2388 24.191 11.279 24.1949 11.3177 24.1872C11.3565 24.1795 11.3921 24.1605 11.42 24.1326C11.448 24.1046 11.467 24.069 11.4747 24.0303C11.4824 23.9915 11.4785 23.9513 11.4633 23.9148C11.4482 23.8783 11.4226 23.8471 11.3898 23.8252C11.3569 23.8032 11.3183 23.7915 11.2788 23.7915C11.2258 23.7915 11.175 23.8126 11.1375 23.85C11.1 23.8875 11.079 23.9383 11.079 23.9913Z" fill="#EFE0A0"/>
<path d="M10.3344 23.7735C10.3344 23.813 10.3461 23.8517 10.368 23.8845C10.39 23.9174 10.4212 23.943 10.4577 23.9581C10.4942 23.9732 10.5344 23.9772 10.5731 23.9695C10.6119 23.9618 10.6475 23.9427 10.6754 23.9148C10.7033 23.8868 10.7224 23.8512 10.7301 23.8125C10.7378 23.7737 10.7338 23.7336 10.7187 23.6971C10.7036 23.6606 10.678 23.6294 10.6451 23.6074C10.6123 23.5854 10.5737 23.5737 10.5341 23.5737C10.4812 23.5737 10.4303 23.5948 10.3929 23.6322C10.3554 23.6697 10.3344 23.7205 10.3344 23.7735Z" fill="#EFE0A0"/>
<g style="mix-blend-mode:multiply" opacity="0.6">
<path d="M5.70293 14.7651C6.55656 15.6187 8.51809 16.5995 9.26274 16.0365C9.19322 15.807 9.10827 15.5825 9.00847 15.3645C8.97356 15.0696 8.89395 14.7817 8.77236 14.5108L8.9903 12.967C8.69971 12.1134 8.37279 11.2053 8.06403 10.4243L6.37493 9.31641L6.19331 10.5514C5.75742 10.17 5.33968 9.98841 4.9946 10.0792C4.9946 10.0792 3.52345 11.169 3.94119 13.4029C3.71672 13.5623 3.50973 13.7449 3.32367 13.9478C4.28627 13.6935 5.08541 14.1657 5.70293 14.7651Z" fill="#843131"/>
</g>
<path d="M10.0074 13.7114C8.77241 14.0746 6.70191 12.6216 6.55661 11.877C6.41131 11.1323 5.55768 8.08106 5.57585 7.28192C5.59401 6.48278 9.29912 5.64731 10.2617 6.91867C10.6976 7.4817 11.0609 9.11631 10.8792 9.96994C10.6976 10.8236 11.3151 12.1313 10.9882 12.8577C10.8927 13.0602 10.7563 13.2406 10.5874 13.3875C10.4186 13.5345 10.2211 13.6447 10.0074 13.7114Z" fill="#FFB882"/>
<path d="M9.44437 10.2243C9.4262 10.0063 9.3354 9.82471 9.22642 9.82471C9.11745 9.82471 9.0448 9.98817 9.0448 10.2061C9.0448 10.4241 9.15377 10.6057 9.26274 10.6057C9.37172 10.6057 9.44437 10.4422 9.44437 10.2243Z" fill="#4F3131"/>
<path d="M10.7521 10.0065C10.7339 9.78856 10.6613 9.60693 10.5886 9.60693C10.516 9.60693 10.4252 9.7704 10.4433 9.98834C10.4615 10.2063 10.5341 10.3879 10.6068 10.3879C10.6794 10.3879 10.7703 10.2245 10.7521 10.0065Z" fill="#4F3131"/>
<path d="M9.8621 12.967C9.8621 12.8943 10.0256 12.9488 10.2253 12.9488C10.4251 12.9488 10.6068 12.8761 10.5886 12.9488C10.5704 13.0214 10.407 13.0941 10.2072 13.0941C10.0074 13.0941 9.84394 13.0578 9.8621 12.967Z" fill="#EA7B59"/>
<path d="M6.73822 11.8224C6.59292 11.0778 5.99357 8.00833 6.01173 7.20919C6.02989 6.90043 6.82903 6.51903 7.79163 6.3374C6.66557 6.4827 5.594 6.9186 5.57584 7.28184C5.55767 8.08098 6.28416 11.1867 6.42946 11.9496C6.57476 12.7124 8.7724 14.0745 10.0074 13.7113H10.0438C8.80873 13.7295 6.88352 12.5126 6.73822 11.8224Z" fill="#FF9566"/>
<path d="M7.79162 11.0234C8.282 9.66124 7.97325 5.62921 4.9583 7.04587C4.2863 7.35462 3.83224 10.2061 4.70403 10.9689C5.57582 11.7317 7.79162 11.0234 7.79162 11.0234Z" fill="#BCA696"/>
<path d="M6.59291 6.8097C6.17518 6.68256 5.63031 6.71889 4.9583 7.04581C4.2863 7.37273 3.83224 10.206 4.70403 10.9689C5.01279 11.2413 5.48501 11.3321 5.97539 11.3321C5.46684 10.5511 5.03095 8.00841 6.59291 6.8097Z" fill="#9E8675"/>
<path d="M5.7393 9.91552C5.59401 9.0619 5.57584 7.84502 6.33866 6.86426C6.04806 7.86318 5.79379 8.58968 5.7393 9.91552Z" fill="#9E8675"/>
<path d="M5.15808 9.58845C5.03095 8.9346 5.03095 8.00833 5.61214 7.26367C5.37603 8.02649 5.19441 8.57136 5.15808 9.58845Z" fill="#BCA696"/>
<path d="M8.30017 12.5128C9.58969 13.0758 10.9337 12.8215 11.4422 12.3493C11.4422 12.3493 11.5694 11.2233 10.9337 11.2414C9.9711 11.2596 8.51812 11.7318 8.30017 12.5128Z" fill="#BCA696"/>
<path d="M9.37173 12.3673C9.38989 11.8225 10.2798 11.2776 11.1516 11.2958C11.0861 11.2561 11.0102 11.2371 10.9337 11.2413C9.97109 11.2594 8.46361 11.7317 8.24567 12.5126C8.68931 12.6993 9.16316 12.8039 9.64417 12.8214C9.55858 12.7816 9.48688 12.7171 9.43832 12.6361C9.38976 12.5552 9.36656 12.4616 9.37173 12.3673Z" fill="#9E8675"/>
<path d="M10.2435 10.0062C10.407 10.0425 11.0427 10.8961 10.8792 11.2594C10.7158 11.6226 9.91663 11.3139 9.91663 11.3139C9.91663 11.3139 10.0256 9.93354 10.2435 10.0062Z" fill="#EA7B59"/>
<path d="M10.1891 9.95202C10.3344 10.0065 10.8792 10.8783 10.7339 11.2052C10.5886 11.5321 9.91663 11.2415 9.91663 11.2415C9.91663 11.2415 9.98928 9.87938 10.1891 9.95202Z" fill="#FFB882"/>
<path d="M7.08328 10.8057C6.86533 10.1155 6.32046 9.60695 5.99354 10.1155C5.66662 10.624 6.06619 11.405 6.61106 11.6593C7.15593 11.9136 7.31939 11.514 7.08328 10.8057Z" fill="#FFB882"/>
<path d="M6.938 10.8962C6.81086 10.4966 6.37496 10.2241 6.19334 10.4966C6.01172 10.769 6.22967 11.2412 6.55659 11.3865C6.88351 11.5318 7.06513 11.2957 6.938 10.8962Z" fill="#EA7B59"/>
<path d="M6.95619 11.1505C6.84721 10.8599 6.53846 10.6601 6.41132 10.8599C6.36243 10.9781 6.36166 11.1107 6.40916 11.2295C6.45666 11.3482 6.54868 11.4437 6.66559 11.4956C6.9017 11.6046 7.047 11.4411 6.95619 11.1505Z" fill="#FFB882"/>
<path d="M9.97112 9.17059C10.0801 9.24324 10.2072 9.91524 10.0256 9.98789C9.84399 10.0605 8.60895 10.2603 8.51814 10.1877C8.42732 10.115 8.55446 9.67913 8.71792 9.49751C8.88138 9.31589 9.88031 9.09794 9.97112 9.17059Z" fill="#BCA696"/>
<path d="M10.2798 9.2255C10.2253 9.29815 10.1709 9.89751 10.2798 9.91567C10.3888 9.93383 10.9155 9.91567 10.97 9.82486C11.0245 9.73405 11.1153 9.31631 11.0063 9.20734C10.8974 9.09837 10.3343 9.13469 10.2798 9.2255Z" fill="#BCA696"/>
<path d="M10.4615 8.62615C9.89849 8.64431 8.79059 9.00755 8.79059 9.00755C8.79059 9.00755 9.38994 8.60799 9.78952 8.57166C10.015 8.54938 10.2426 8.56783 10.4615 8.62615Z" fill="#FF9566"/>
<path d="M10.5886 8.33554C9.91658 8.29921 8.57257 8.53532 8.57257 8.53532C8.57257 8.53532 9.37171 8.22656 9.84393 8.22656C10.0958 8.23086 10.3461 8.26749 10.5886 8.33554Z" fill="#FF9566"/>
<path d="M24.5918 23.61L23.1751 23.3921V24.3729L24.5918 24.5908V23.61Z" fill="#584266"/>
<path d="M24.1196 23.6642L23.3204 23.5371V24.082L24.1196 24.2091V23.6642Z" fill="#EFE0A0"/>
<g style="mix-blend-mode:multiply" opacity="0.6">
<path d="M21.4679 13.9657C24.5555 14.4742 24.2649 9.44326 25.3546 9.04369C25.0608 8.90036 24.7493 8.79654 24.4283 8.73493C24.5918 8.20822 23.9379 7.53622 23.7745 7.39092C23.6675 7.29483 23.5351 7.23175 23.3931 7.2093L22.8845 5.39307L19.7606 6.6281C19.7606 6.6281 19.9059 7.80865 20.1965 9.06185C20.1783 9.09818 20.1783 9.1345 20.1602 9.17083L20.1057 9.47959C20.0836 9.57494 20.0714 9.67232 20.0694 9.77018C19.8693 9.89786 19.6913 10.0574 19.5427 10.2424C19.3247 10.4785 19.4155 13.6388 21.4679 13.9657Z" fill="#843131"/>
</g>
<path d="M17.908 3.50433C17.8535 5.24791 19.2883 9.4434 19.47 9.91562C19.47 9.91562 22.1398 9.55238 22.83 8.11755C23.5202 6.68273 22.3759 2.81416 21.94 2.5054C21.5041 2.19664 17.9443 2.17848 17.908 3.50433Z" fill="#FFB882"/>
<path d="M22.2306 6.50104C21.5768 4.59399 20.8503 2.37819 21.3407 1.83332C21.8311 1.28845 22.6484 1.68802 22.8845 2.34187C23.1206 2.99571 23.2114 4.48502 23.2114 4.48502L23.0116 6.02882L22.2306 6.50104Z" fill="#6B2C2C"/>
<path d="M22.7937 6.62816C23.4839 5.75637 24.0651 4.84826 23.6655 4.3942C23.2659 3.94014 22.5939 4.04911 22.4849 4.86642C22.376 5.68372 22.7937 6.62816 22.7937 6.62816Z" fill="#FFB882"/>
<path d="M22.8845 6.08331C23.3204 5.61109 23.7018 5.12071 23.4838 4.83011C23.2659 4.53952 22.8845 4.57584 22.7755 5.04806C22.7231 5.39679 22.7606 5.75314 22.8845 6.08331Z" fill="#EA7B59"/>
<path d="M22.83 6.28291C23.1387 5.91967 23.4293 5.55642 23.2659 5.33847C23.1024 5.12052 22.8118 5.15685 22.7392 5.5201C22.7062 5.77797 22.7374 6.03998 22.83 6.28291Z" fill="#FFB882"/>
<path d="M20.8503 8.57135C20.8322 8.51686 20.7414 8.58951 20.5961 8.62584C20.4508 8.66216 20.3418 8.66216 20.36 8.71665C20.3781 8.77113 20.4871 8.75297 20.6324 8.71665C20.7777 8.68032 20.8503 8.60768 20.8503 8.57135Z" fill="#EA7B59"/>
<path d="M19.6334 8.64412C20.2873 8.6078 20.7777 8.38985 21.0319 8.11741C21.1706 7.91581 21.2289 7.66964 21.1954 7.42725H21.3225C21.3377 7.5638 21.3246 7.70202 21.284 7.83327C21.2434 7.96453 21.1761 8.08599 21.0864 8.19006C20.814 8.44433 20.3236 8.62596 19.6334 8.64412Z" fill="#EA7B59"/>
<path d="M18.689 5.61134C18.6708 5.3389 18.7435 5.10279 18.8525 5.06647C18.9614 5.03014 19.0886 5.24809 19.1067 5.52053C19.1249 5.79296 19.0704 6.02907 18.9433 6.06539C18.8161 6.10172 18.7072 5.88377 18.689 5.61134Z" fill="#4F3131"/>
<path d="M19.47 4.93934C19.3065 4.83037 19.0704 7.10066 19.1794 7.48207C19.2883 7.86347 20.1056 7.37309 20.1056 7.37309C20.1056 7.37309 19.5063 4.95751 19.47 4.93934Z" fill="#FFB882"/>
<path d="M19.4155 4.99365C19.3065 5.41139 19.1249 7.10048 19.2339 7.40924C19.3429 7.718 19.8151 7.48189 20.033 7.37291L20.0694 7.46373C20.0694 7.46373 19.1068 7.89962 19.0523 7.69984C18.9978 7.50005 19.2702 5.04814 19.4155 4.99365Z" fill="#EA7B59"/>
<path d="M20.0693 5.26624C20.0511 4.9938 20.1238 4.75769 20.2328 4.73953C20.3417 4.72137 20.4689 4.90299 20.5052 5.17543C20.5415 5.44786 20.4689 5.70213 20.3417 5.72029C20.2146 5.73846 20.1056 5.55683 20.0693 5.26624Z" fill="#4F3131"/>
<path d="M19.4336 4.06726C19.5971 4.35786 20.5415 4.24888 20.6505 4.08542C20.7595 3.92196 20.8321 3.72218 20.6505 3.63136C20.4689 3.54055 19.6334 3.34077 19.4881 3.4679C19.427 3.55413 19.3898 3.65499 19.3802 3.76025C19.3706 3.86551 19.3891 3.97142 19.4336 4.06726Z" fill="#843D3D"/>
<path d="M19.0159 4.26723C19.0159 4.57599 18.126 4.90292 17.9988 4.77578C17.8717 4.64864 17.7627 4.48518 17.8535 4.37621C17.9443 4.26723 18.6163 3.64972 18.7616 3.74053C18.9058 3.88068 18.9958 4.0672 19.0159 4.26723Z" fill="#843D3D"/>
</svg>
