<svg width="41" height="42" viewBox="0 0 41 42" fill="none" xmlns="http://www.w3.org/2000/svg">
<path d="M27.2812 14.2294C27.0898 13.9231 26.7452 13.2913 26.2857 13.1764C25.8262 13.0615 25.5199 11.9894 25.5008 11.6257C25.4816 11.2619 25.9985 11.4151 26.2283 11.6065C26.458 11.798 27.0706 11.3194 27.1855 11.3577C27.3004 11.3959 27.3387 12.334 28.4682 13.3104L27.2812 14.2294Z" fill="#FF9566"/>
<path d="M27.8747 12.7361C27.9322 12.5638 27.3578 11.4343 27.2047 11.262C27.0322 10.9953 26.8848 10.7134 26.7643 10.4196C26.7069 10.3047 26.2474 10.4579 26.2857 10.5727C26.324 10.6876 26.726 11.2811 26.7452 11.4151C26.7643 11.5491 26.7835 11.6831 26.6878 11.7023C26.9749 12.5447 27.8173 12.9275 27.8747 12.7361Z" fill="#FFB882"/>
<path d="M26.4006 11.702C26.2283 11.4339 25.922 11.1659 25.922 11.051C25.922 10.9362 26.1134 10.0747 26.056 10.0172C25.9985 9.95979 25.7114 9.9215 25.6539 10.0938C25.5965 10.2661 25.4051 10.917 25.4433 11.0893C25.5376 11.3505 25.6595 11.6008 25.8071 11.836C25.8454 11.8743 26.4772 11.7785 26.4006 11.702Z" fill="#FF9566"/>
<path d="M25.6348 12.4105C25.4242 12.1616 25.2902 11.683 25.3859 11.4915C25.4816 11.3001 26.0177 10.7449 26.1708 10.8406C26.324 10.9363 26.4006 11.2809 26.2857 11.4149C26.1478 11.5293 26.0005 11.6317 25.8454 11.7212C25.8454 11.7212 25.8262 12.6593 25.6348 12.4105Z" fill="#FFB882"/>
<path d="M26.0368 13.0423C25.7497 12.8126 25.5582 12.4488 25.6348 12.2574C25.7114 12.066 26.2092 11.4916 26.4197 11.5873C26.6303 11.6831 26.7069 11.9511 26.592 12.066C26.453 12.1845 26.3059 12.2933 26.1517 12.3914C26.1517 12.3914 26.3049 13.2529 26.0368 13.0423Z" fill="#FFB882"/>
<path d="M14.0905 21.3322L13.5928 22.4426C13.3643 22.2756 13.1035 22.1582 12.827 22.098L13.0567 21.1216C13.0567 21.1216 13.6502 21.3896 14.0905 21.3322Z" fill="#FFB882"/>
<path d="M13.6502 21.3898C13.8205 21.3557 13.9935 21.3365 14.1671 21.3323C14.3777 21.294 14.952 20.8537 15.0286 20.892C15.0706 20.9253 15.1007 20.9712 15.1145 21.0229C15.1283 21.0746 15.125 21.1294 15.1052 21.1792C15.086 21.2366 14.4734 21.6004 14.5117 21.6769C14.55 21.7535 14.9329 21.8875 14.9712 21.9641C15.0095 22.0407 14.5117 22.5576 14.3586 22.6725C14.2054 22.7873 13.6693 22.5959 13.4205 22.2513C13.1716 21.9067 13.6502 21.3898 13.6502 21.3898Z" fill="#FFB882"/>
<path d="M14.5691 21.7533C14.734 21.8456 14.9071 21.9225 15.086 21.983C15.2668 22.0023 15.4459 22.0343 15.6221 22.0788C15.6412 22.1171 15.7178 22.2893 15.6221 22.3085C15.3965 22.3103 15.1714 22.2846 14.952 22.2319L14.4926 22.0596C14.4734 22.0213 14.4543 21.715 14.5691 21.7533Z" fill="#FFB882"/>
<path d="M14.3777 22.0976C14.5349 22.2133 14.7014 22.3157 14.8755 22.4039C15.0472 22.4231 15.2151 22.4683 15.3732 22.5379C15.4115 22.5954 15.4498 22.7677 15.3541 22.7677C15.1386 22.7506 14.9262 22.7056 14.7223 22.6337C14.5682 22.5644 14.4208 22.4811 14.282 22.3848C14.2628 22.3656 14.282 22.0402 14.3777 22.0976Z" fill="#FFB882"/>
<path d="M13.8991 22.2698C14.0449 22.3942 14.1983 22.5093 14.3586 22.6144C14.531 22.66 14.6979 22.7242 14.8563 22.8059C14.8755 22.8633 14.9138 23.0356 14.818 23.0356C14.5974 23.0004 14.384 22.9292 14.1863 22.825C14.0393 22.7465 13.8985 22.6569 13.7651 22.557C13.7651 22.5187 13.8034 22.2124 13.8991 22.2698Z" fill="#FFB882"/>
<path d="M13.8608 21.2172C6.26031 16.6034 10.4147 16.0482 7.48557 11.396C7.48557 11.396 4.90103 14.574 6.56662 18.0009C7.88761 20.7003 10.4339 21.5236 13.4013 22.4234L13.8608 21.2172Z" fill="#4FB2AF"/>
<path d="M7.67703 17.1203C6.52835 14.7655 6.91124 12.8701 7.58131 11.5683L7.48558 11.396C7.48558 11.396 4.69045 14.8421 6.35604 18.269C7.67703 20.9875 10.0318 21.7533 12.9993 22.634L13.5545 22.0022C10.8359 21.1981 8.95973 19.6857 7.67703 17.1203Z" fill="#3B938E"/>
<g style="mix-blend-mode:overlay" opacity="0.43">
<path d="M9.72551 17.9818C9.28582 17.4627 8.99475 16.8342 8.88314 16.1631C7.93397 16.2869 7.03163 16.6492 6.26031 17.216C6.34056 17.4857 6.44302 17.7482 6.56663 18.001C6.79307 18.4678 7.07598 18.905 7.409 19.3028C8.04361 18.656 8.84571 18.1986 9.72551 17.9818Z" fill="#C0FFF6"/>
<path d="M8.76827 15.2441C8.74947 14.8966 8.70468 14.551 8.63426 14.2102C7.79419 14.0329 6.92016 14.113 6.1263 14.44C6.02541 14.9374 5.9932 15.4463 6.03057 15.9524C6.81551 15.3972 7.88761 15.2058 8.76827 15.2441Z" fill="#C0FFF6"/>
</g>
<path d="M8.15567 22.4805L4.26929 23.9163L7.19843 32.1677L8.53856 40.8785L8.65343 40.7828L9.36179 31.804L8.15567 22.4805Z" fill="#70484F"/>
<path d="M7.73448 31.9384L5.66685 26.4438L5.07336 26.8459L7.06441 32.149L8.53856 40.879L8.61514 40.8215L7.73448 31.9384Z" fill="#59353D"/>
<path d="M7.90676 20.8535L1.11038 23.2849L1.99104 32.4744L0.765778 40.8598H0.880647L4.00124 32.3021L4.6713 26.9798L7.25584 25.1802L7.90676 20.8535Z" fill="#70484F"/>
<path d="M3.52264 26.9031L4.32672 27.2094L4.11613 31.3255L4.82448 27.3626L6.81554 25.6587C5.70515 26.2905 4.44159 26.9414 3.52264 26.9031Z" fill="#59353D"/>
<path d="M0.842379 40.2281C1.39758 37.6244 2.48883 32.5893 2.48883 32.5893C2.48883 32.5893 2.02935 27.1714 2.27823 26.5396C2.52712 25.9078 6.14547 25.5823 8.30882 23.7253L8.17481 22.7681L0.61264 22.9595L1.74218 32.5127L0.842379 40.2281Z" fill="#59353D"/>
<path d="M1.56985 25.1801C0.0765601 25.0652 -0.306331 13.1572 1.34012 11.7022C4.21182 9.17507 7.77274 10.4195 7.86847 12.3914C7.88761 13.1955 7.31327 17.6179 7.543 19.1495C7.77274 20.681 8.6534 22.8061 8.15564 23.2273C7.65788 23.6485 2.35478 25.2375 1.56985 25.1801Z" fill="#4FB2AF"/>
<path d="M3.92466 24.4143C0.650916 24.1463 4.59473 8.83054 1.34013 11.7023C-0.306321 13.1573 -0.440335 25.2567 1.03381 25.3716C1.72302 25.429 6.04973 24.2229 7.63874 23.5145C6.03058 24.0315 4.34585 24.4526 3.92466 24.4143Z" fill="#3B938E"/>
<path d="M9.32349 22.6149C9.32349 22.6149 6.04974 19.5518 5.28395 18.6711C3.58007 16.7183 4.30757 10.4389 2.68027 10.8601C1.05297 11.2812 0.497772 12.4682 0.497772 15.6462C0.497772 20.0495 4.47987 22.0023 8.11737 23.8593L9.32349 22.6149Z" fill="#4FB2AF"/>
<path d="M5.20734 18.9007C5.9157 19.6856 8.74912 22.1936 9.26603 22.6531L9.32346 22.6148C9.32346 22.6148 6.04972 19.5516 5.28393 18.6709C4.19268 17.4265 4.09695 14.4208 3.75235 12.5063C3.9438 14.5548 3.98208 17.5414 5.20734 18.9007Z" fill="#3B938E"/>
<path d="M1.32099 15.244C1.2827 12.9083 1.56987 11.6256 2.35481 10.9556C0.995532 11.4342 0.497772 12.6977 0.497772 15.646C0.497772 20.0493 4.15441 22.1361 8.11737 23.8591L8.63428 23.3231C4.82448 21.6192 1.39757 19.5133 1.32099 15.244Z" fill="#3B938E"/>
<path d="M3.40778 10.4961L4.63304 6.45654L7.12185 7.08832L6.77725 10.7833C6.77725 10.7833 5.64771 12.7169 3.40778 10.4961Z" fill="#FFB882"/>
<path d="M8.38541 41.1662H10.1276C10.1276 41.1662 8.97889 40.3813 8.65343 40.5345C8.32797 40.6876 8.38541 41.1662 8.38541 41.1662Z" fill="#E5CB9C"/>
<path d="M0 41.1658H1.53158C1.53158 41.1658 1.12954 40.2469 0.823221 40.4C0.516905 40.5532 0 41.1658 0 41.1658Z" fill="#E5CB9C"/>
<g style="mix-blend-mode:overlay" opacity="0.4">
<path d="M4.57557 17.3116C4.39722 16.7031 4.26286 16.0824 4.17353 15.4546C3.19715 15.4546 1.78044 15.646 0.555176 16.565C0.654436 17.4454 0.941709 18.2941 1.39754 19.0538C2.08675 18.0008 3.48432 17.4265 4.57557 17.3116Z" fill="#C0FFF6"/>
<path d="M4.05869 14.6505C4.00125 14.3251 3.96297 13.9805 3.92468 13.6741C3.06316 13.387 1.78047 13.1572 0.593495 13.6933V13.7507C0.570302 13.8706 0.557489 13.9923 0.555203 14.1145C0.555203 14.1336 0.536058 14.1527 0.536058 14.1719C0.536058 14.191 0.516912 14.4399 0.516912 14.5739V14.6314C0.500981 14.7776 0.494591 14.9247 0.497772 15.0717V15.1866C1.53159 14.4782 3.04402 14.4208 4.05869 14.6505Z" fill="#C0FFF6"/>
</g>
<g style="mix-blend-mode:multiply" opacity="0.6">
<path d="M7.21757 17.0818C7.21757 17.0818 6.56665 13.4251 7.52388 11.4341C7.32152 11.1689 7.06753 10.9475 6.77724 10.7832L6.98783 8.6581C6.23639 7.95998 5.40782 7.3498 4.51817 6.83936L3.40777 10.496C3.07232 10.612 2.74596 10.7528 2.43139 10.9172L2.16336 11.0321C4.53731 11.6064 3.4652 14.6504 7.21757 17.0818Z" fill="#843131"/>
</g>
<path d="M9.24691 8.9452C9.13204 7.33704 8.61514 4.75251 8.53856 4.35047C8.46198 3.94843 5.97316 2.97205 5.14994 3.96757C4.32672 4.9631 5.76257 9.86414 6.98784 10.1513C8.2131 10.4385 9.24691 8.9452 9.24691 8.9452Z" fill="#FFB882"/>
<path d="M7.14099 6.78203C7.14099 6.55229 7.23672 6.36084 7.35158 6.36084C7.46645 6.36084 7.58132 6.53314 7.58132 6.74373C7.58132 6.95433 7.4856 7.16492 7.37073 7.16492C7.25586 7.16492 7.14099 6.99262 7.14099 6.78203Z" fill="#4F3131"/>
<path d="M8.46198 6.66718C8.46198 6.45659 8.51941 6.26514 8.61514 6.26514C8.71086 6.26514 8.80658 6.43744 8.80658 6.64803C8.80658 6.85862 8.73001 7.06922 8.63428 7.06922C8.53856 7.06922 8.46198 6.89692 8.46198 6.66718Z" fill="#4F3131"/>
<path d="M9.32347 15.7228C6.27946 14.5741 5.18821 12.3916 5.01591 11.3769C4.8436 10.3622 4.13525 8.23716 4.13525 8.23716L5.13078 4.77197H5.80084C5.80084 4.77197 5.3988 8.10316 7.08354 9.0604C7.50472 9.30928 8.88315 9.42414 9.11288 8.71578C9.34262 8.00743 8.25137 13.9997 9.32347 15.7228Z" fill="#C6AA97"/>
<path d="M5.68599 8.60073C5.6477 6.99258 5.76257 5.48014 5.13079 4.77179L4.93934 4.71436L4.05869 8.27527C4.05869 8.27527 4.70961 10.3812 4.88191 11.3959C5.05421 12.4105 6.24119 14.4973 9.17033 15.6651C7.60046 14.8419 5.76257 12.2382 5.68599 8.60073Z" fill="#B7957E"/>
<path d="M4.46073 9.53868C3.21632 8.94519 2.75685 6.62868 2.75685 6.62868L2.46968 6.66697C2.46968 6.66697 1.93362 4.73335 2.87172 3.94842C3.80981 3.16348 4.47987 3.83354 4.47987 3.83354C4.47987 3.83354 4.23099 3.10605 5.05421 3.27835C5.87744 3.45066 6.22204 5.13539 5.72428 6.26493C5.22652 7.39446 4.46073 9.53868 4.46073 9.53868Z" fill="#C6AA97"/>
<path d="M4.46073 3.46973C4.43987 3.59088 4.44641 3.71517 4.47987 3.83347C4.4111 3.77158 4.33371 3.72 4.25013 3.68031C4.35341 3.80064 4.43737 3.93627 4.49902 4.08236C4.90106 5.0396 4.23099 6.1117 2.83343 6.47545L2.45053 6.55202C2.46245 6.58918 2.4689 6.62788 2.46968 6.6669L2.75685 6.62861C2.75685 6.62861 3.21632 8.94512 4.46073 9.53861C4.46073 9.53861 5.37968 7.87301 5.45626 6.64775C5.55198 4.98216 4.47987 3.81433 4.46073 3.46973Z" fill="#B7957E"/>
<path d="M5.3031 7.96888C5.11165 7.14566 4.47988 6.36072 4.09698 6.9925C3.71409 7.62427 4.28843 8.54322 4.82448 8.75381C5.36053 8.9644 5.3031 7.96888 5.3031 7.96888Z" fill="#FFB882"/>
<path d="M5.13078 8.00731C4.99677 7.49041 4.61387 6.99264 4.36499 7.39468C4.11611 7.79672 4.499 8.35191 4.82446 8.50507C5.14992 8.65823 5.13078 8.00731 5.13078 8.00731Z" fill="#EA7B59"/>
<path d="M5.11164 8.23724C5.03506 7.91178 4.80533 7.62461 4.65217 7.85435C4.49901 8.08408 4.72875 8.44784 4.93934 8.54356C5.14993 8.63929 5.11164 8.23724 5.11164 8.23724Z" fill="#FFB882"/>
<path d="M8.50025 6.41805C8.864 6.41805 9.01716 6.45635 9.11288 6.36062C9.20861 6.2649 9.38091 5.63312 9.24689 5.5374C9.11288 5.44168 8.55768 5.51826 8.46196 5.51826C8.36623 5.51826 8.34709 6.4372 8.50025 6.41805Z" fill="#C6AA97"/>
<path d="M6.58582 6.45677C6.70069 6.57164 7.92595 6.45677 8.02167 6.36105C8.1174 6.26533 8.23226 5.6527 8.09825 5.53783C7.96424 5.42296 6.4901 5.46125 6.41352 5.53783C6.33694 5.61441 6.47095 6.34191 6.58582 6.45677Z" fill="#C6AA97"/>
<path d="M8.32796 6.15039C8.67256 7.41394 9.49578 8.96466 9.45749 9.27098C9.4192 9.57729 8.09822 9.23269 7.94506 9.04124C7.7919 8.84979 8.32796 6.15039 8.32796 6.15039Z" fill="#FFB882"/>
<path d="M8.34711 6.07383C8.34711 6.07383 8.32796 5.99726 8.28967 6.15041C8.65342 7.37568 9.32349 8.88811 9.26606 9.17528C9.20862 9.46245 8.42369 9.271 8.0025 9.07955C8.1748 9.29015 9.43836 9.61561 9.49579 9.30929C9.55323 9.00298 8.67257 7.33738 8.34711 6.07383Z" fill="#EA7B59"/>
<path d="M9.57238 22.9786L8.61515 23.8975C8.44992 23.6354 8.23536 23.4078 7.98337 23.2274L8.63429 22.3276C8.63429 22.3276 9.11291 22.8445 9.57238 22.9786Z" fill="#FFB882"/>
<path d="M9.11289 22.8447L9.64894 22.9979C9.87868 23.0553 10.6636 22.8639 10.7019 22.9405C10.7349 22.9893 10.751 23.0476 10.7475 23.1064C10.744 23.1653 10.7213 23.2213 10.6828 23.2659C10.6253 23.3042 9.84039 23.3999 9.85953 23.5148C9.87868 23.6297 10.185 23.8977 10.2041 23.9743C10.2233 24.0508 9.49578 24.4146 9.28519 24.4529C9.0746 24.4912 8.61513 24.0891 8.5194 23.6297C8.48111 23.4574 9.11289 22.8447 9.11289 22.8447Z" fill="#FFB882"/>
<path d="M9.87868 23.6103C10.0112 23.7765 10.1586 23.9303 10.319 24.0698C10.4941 24.1562 10.6607 24.2587 10.8168 24.3761C10.8168 24.4335 10.8168 24.625 10.721 24.6058C10.4875 24.5255 10.2678 24.4093 10.0701 24.2612C9.93296 24.1435 9.80496 24.0155 9.68723 23.8783C9.66809 23.84 9.78295 23.5146 9.87868 23.6103Z" fill="#FFB882"/>
<path d="M9.53407 23.8783C9.66809 24.0697 9.85953 24.3378 9.91697 24.3952C10.0853 24.496 10.2397 24.6183 10.3764 24.759C10.3764 24.8164 10.3573 25.0078 10.2616 24.9696C10.0408 24.8647 9.83998 24.7221 9.66809 24.5484C9.54434 24.4155 9.42923 24.2748 9.32348 24.1272C9.30433 24.0889 9.45749 23.7826 9.53407 23.8783Z" fill="#FFB882"/>
<path d="M8.97886 23.8591C9.07135 24.0512 9.18708 24.2313 9.32346 24.3952C9.3809 24.4526 9.7255 24.7398 9.7255 24.7972C9.7255 24.8546 9.68722 25.0652 9.59149 25.0078C9.3891 24.8769 9.20275 24.7227 9.03629 24.5483C8.97886 24.4335 8.72998 24.1271 8.72998 24.0889C8.72998 24.0506 8.92143 23.7443 8.97886 23.8591Z" fill="#FFB882"/>
<path d="M8.13651 23.9741L9.4192 22.6148L8.63427 21.8682C8.63427 21.8682 7.02611 22.9211 6.93039 23.3232C6.83466 23.7252 8.13651 23.9741 8.13651 23.9741Z" fill="#9FD6D3"/>
<path d="M13.3056 22.7102L14.0905 21.0829L13.1333 20.6426C13.1333 20.6426 11.9654 22.0976 12.0037 22.4805C12.042 22.8634 13.3056 22.7102 13.3056 22.7102Z" fill="#9FD6D3"/>
<path d="M8.55772 9.63473L7.02614 9.3667C7.02614 9.3667 6.81555 10.2474 7.60048 10.3239C8.38541 10.4005 8.55772 9.63473 8.55772 9.63473Z" fill="#542A29"/>
<path d="M8.15565 9.95998C8.23692 9.86589 8.29583 9.75463 8.32795 9.63452L7.0644 9.40479C7.02958 9.52286 7.02302 9.64745 7.04525 9.76853L8.15565 9.95998Z" fill="#FFF7E9"/>
<path d="M33.9627 9.80705C35.2454 11.2046 32.412 16.948 30.7847 18.1924C29.6743 19.0348 28.8511 18.7859 28.5448 18.1924C28.3513 17.8491 28.2875 17.4478 28.3647 17.0614C28.442 16.6749 28.6553 16.329 28.966 16.0865C29.4829 15.6845 30.5358 13.9998 31.2059 11.4152C31.6271 9.80706 33.1587 8.96468 33.9627 9.80705Z" fill="#CC4867"/>
<path d="M33.9628 9.80698C33.8576 9.69375 33.7261 9.60826 33.5799 9.55811C33.5224 11.8363 31.4165 16.0482 30.0764 17.0628C29.3489 17.618 28.7554 17.5415 28.3342 17.2734C28.3145 17.5936 28.3876 17.9127 28.5448 18.1924C28.8511 18.7859 29.6743 19.3602 30.7847 18.537C32.412 17.2926 35.2455 11.2045 33.9628 9.80698Z" fill="#B53355"/>
<path d="M28.7362 15.3395C28.832 15.1098 29.6552 15.0332 29.6552 15.0332C29.6552 15.0332 31.2633 15.8756 30.7847 18.1347C30.555 19.2259 29.1766 19.4556 28.4682 18.2878C27.7599 17.12 28.7362 15.3395 28.7362 15.3395Z" fill="#49373B"/>
<path d="M30.4975 16.2585C30.1721 15.1482 28.0087 12.7933 27.8747 12.6402C27.7407 12.487 26.9175 12.8699 26.8409 13.2145C26.7643 13.5591 27.8747 17.2732 28.3533 18.039C28.832 18.8048 29.5977 18.8622 30.0189 18.6325C30.4401 18.4028 30.6316 16.7372 30.4975 16.2585Z" fill="#FFB882"/>
<path d="M30.4784 16.9289C30.0955 17.1969 29.3106 17.1969 28.7745 16.4694C28.2385 15.7419 27.5875 14.0763 27.1281 12.8511C26.9749 12.9659 26.7835 12.9851 26.7643 13.1C26.7452 13.2148 27.8747 17.2735 28.3533 18.0393C28.8319 18.8051 29.5977 18.8625 30.0189 18.6328C30.4401 18.403 30.5933 17.5032 30.555 16.8523C30.5396 16.8863 30.5124 16.9135 30.4784 16.9289Z" fill="#FF9566"/>
<path d="M39.285 40.6682H39.4956L38.4426 21.7915L34.001 21.6001L39.285 40.6682Z" fill="#52455E"/>
<path d="M39.3424 40.6679H39.4956L38.5192 21.8104L37.2365 21.7529L39.3424 40.6679Z" fill="#3C3247"/>
<path d="M32.7183 40.5533L32.8715 40.649L34.5371 25.8501H36.0112L37.1408 21.6383L31.3591 20.2407C31.3591 20.2407 31.5122 29.0282 32.7183 40.5533Z" fill="#52455E"/>
<path d="M31.3782 21.5234L31.4739 22.7104C31.4739 22.7104 34.8625 24.1463 38.0023 23.7634L38.0789 22.1552L31.3782 21.5234Z" fill="#3C3247"/>
<path d="M32.8523 24.8164L33.7713 25.7545L32.8141 40.6108L32.8715 40.6491L34.652 26.0417H35.3986L36.9493 25.295C35.5518 25.9459 34.2882 25.4482 32.8523 24.8164Z" fill="#3C3247"/>
<path d="M31.0527 22.0211C32.3546 23.457 38.7681 23.1507 38.7681 23.1507C38.7681 23.1507 39.1318 15.0907 39.2275 14.0761C39.3233 13.0614 38.5575 9.59619 38.3277 9.2133C38.098 8.8304 33.867 8.77297 32.6992 9.5579C31.876 10.094 30.689 19.0728 31.0527 22.0211Z" fill="#CC4867"/>
<path d="M38.3278 9.21353C38.1555 8.88807 36.8919 13.6934 36.777 14.8038C36.6813 15.6079 37.0451 19.2262 37.1216 23.17C38.0789 23.1892 38.7681 23.1509 38.7681 23.1509C38.7681 23.1509 39.285 15.1675 39.3616 14.1529C39.4382 13.1382 38.5575 9.59643 38.3278 9.21353Z" fill="#B53355"/>
<g style="mix-blend-mode:overlay">
<path d="M31.4357 14.9185L39.1319 15.5312C39.1701 14.8228 39.2084 14.2867 39.2276 14.0761C39.2391 13.8399 39.2327 13.6031 39.2084 13.3678L31.742 12.7935C31.6271 13.4444 31.5314 14.1719 31.4357 14.9185Z" fill="#FFFDF6"/>
</g>
<path d="M38.2894 9.11763C40.1082 9.73026 40.6442 16.0863 39.8785 17.905C39.3616 19.1495 38.5575 19.3218 37.9831 18.958C37.4088 18.5943 36.911 17.771 37.2556 16.9478C37.6002 16.1246 37.5619 14.4016 36.7962 11.8745C36.3367 10.2663 37.1791 8.75388 38.2894 9.11763Z" fill="#CC4867"/>
<path d="M38.4809 9.21338C39.4764 11.3767 39.7828 15.6651 39.1893 17.0819C38.5958 18.4986 37.7726 18.1731 37.1791 17.8668C37.3017 18.318 37.5885 18.7072 37.9832 18.958C38.5575 19.3218 39.553 19.4558 40.0699 18.2305C40.8166 16.4501 40.1657 10.1898 38.4809 9.21338Z" fill="#B53355"/>
<path d="M37.1599 16.1436C37.1728 16.0637 37.2036 15.9877 37.25 15.9214C37.2964 15.8551 37.3573 15.8002 37.4279 15.7607C37.4279 15.7607 40.0508 16.4499 40.3762 17.5029C40.7017 18.5559 39.3998 19.9151 38.3086 19.1111C37.2173 18.307 37.1599 16.1436 37.1599 16.1436Z" fill="#49373B"/>
<path d="M38.2512 16.297C37.2556 15.7226 34.001 15.3589 33.7904 15.3589C33.5799 15.3589 33.331 16.3927 33.5224 16.6799C33.7139 16.967 37.0833 18.8624 37.9449 19.073C38.8064 19.2836 39.419 18.7858 39.553 18.3263C39.687 17.8668 38.6915 16.5459 38.2512 16.297Z" fill="#FFB882"/>
<path d="M38.7106 16.6606C38.7989 16.8452 38.8258 17.0532 38.7872 17.2541C38.6532 17.7136 38.0406 18.2114 37.179 18.0008C36.3175 17.7902 33.4458 16.5841 33.5224 16.6798C33.599 16.7755 37.0833 18.8623 37.9448 19.0729C38.8063 19.2835 39.419 18.7857 39.553 18.3262C39.687 17.8668 39.1892 17.1201 38.7106 16.6606Z" fill="#FF9566"/>
<path d="M39.2084 41.1661H40.874C40.874 41.1661 39.4764 40.1514 39.2276 40.3429C38.9787 40.5343 39.2084 41.1661 39.2084 41.1661Z" fill="#E5CB9C"/>
<path d="M33.0629 41.1663H31.3016C31.3016 41.1663 32.4886 40.1899 32.8141 40.3622C33.1395 40.5345 33.0629 41.1663 33.0629 41.1663Z" fill="#E5CB9C"/>
<path d="M36.4899 9.692C37.0271 9.57143 37.5389 9.3576 38.0023 9.06023C37.0833 8.84964 34.4988 8.86877 33.197 9.32825C33.197 9.34739 33.2161 9.38569 33.2161 9.40483C33.5607 10.1898 34.8817 10.094 36.4899 9.692Z" fill="#B53355"/>
<path d="M37.5811 0.751468C36.2027 -0.397216 36.509 1.0195 36.509 1.0195C36.509 1.0195 35.7815 0.0813975 34.9008 0.00481864C34.0202 -0.0717603 34.135 0.789759 34.135 0.789759C34.135 0.789759 32.0483 0.598307 31.7037 1.47896C31.3591 2.35962 32.3929 2.41706 32.3929 2.41706C32.3929 2.41706 32.2397 3.47002 32.8906 5.82482L36.4515 7.72015C38.366 5.9014 38.9595 1.9193 37.5811 0.751468Z" fill="#9E3249"/>
<path d="M37.5811 0.751608C36.2027 -0.397075 36.509 1.01964 36.509 1.01964C36.509 1.01964 35.9729 0.31128 35.2454 0.081543C36.1261 0.521872 36.643 1.11536 36.5664 1.70884C36.4133 2.66608 34.6902 3.22128 32.6992 2.93411L32.3737 2.87667C32.4341 3.8758 32.6075 4.86488 32.8906 5.82496L36.4515 7.72029C38.366 5.90154 38.9595 1.91944 37.5811 0.751608Z" fill="#7F2039"/>
<path d="M37.2748 7.96914C36.911 7.7394 34.0585 8.39032 33.7522 8.50519C33.4458 8.62005 33.3693 8.98381 33.4267 9.25184C33.4841 9.51986 33.599 9.78788 34.3456 9.80703C35.6858 9.84531 37.7151 9.00294 37.7151 9.00294C37.7151 9.00294 37.6577 8.19887 37.2748 7.96914Z" fill="#FFD683"/>
<path d="M34.0585 6.0545L34.0202 8.60074C34.6711 9.19423 36.241 8.79219 36.9876 8.31357L36.777 2.87646L34.0585 6.0545Z" fill="#FFB882"/>
<g style="mix-blend-mode:multiply" opacity="0.6">
<path d="M34.4797 11.7791C35.9347 11.7791 37.5428 10.707 38.5001 9.21371L38.2895 9.11799L38.0214 9.07969L37.696 9.00311H37.7151C37.7151 9.00311 37.6577 8.19904 37.2748 7.9693C37.1776 7.9306 37.0722 7.91742 36.9685 7.93101L36.8345 4.46582C36.0748 4.54744 35.3493 4.82445 34.7285 5.26989L34.0585 6.05483L34.0202 8.42877L33.7522 8.50535C33.465 8.62022 33.3693 8.98398 33.4267 9.252L33.2161 9.30943H33.197C33.0184 9.35505 32.8497 9.43291 32.6992 9.53917H32.6609C32.523 9.59712 32.394 9.67447 32.278 9.7689C32.412 10.975 33.2161 11.7791 34.4797 11.7791Z" fill="#843131"/>
</g>
<path d="M32.8141 3.0682C32.412 4.1403 32.7949 8.23728 32.8715 8.44787C32.9481 8.65846 35.5326 8.60103 36.0878 7.93096C36.643 7.2609 36.7196 4.0063 36.6813 3.66169C36.643 3.31709 35.3412 2.01524 34.4796 2.03439C33.6181 2.05353 32.8906 2.8576 32.8141 3.0682Z" fill="#FFB882"/>
<path d="M36.0878 6.53296C35.8006 4.33132 35.4752 2.43599 36.5856 2.55086C37.696 2.66573 37.1408 5.2694 37.1408 5.2694L36.6813 6.39895L36.0878 6.53296Z" fill="#7F2039"/>
<path d="M36.4898 6.64814C37.0833 6.2461 37.7534 5.5186 37.5045 5.07827C37.4516 4.9819 37.3703 4.90414 37.2717 4.85553C37.173 4.80692 37.0618 4.78981 36.9532 4.80653C36.8445 4.82324 36.7436 4.87298 36.6641 4.94899C36.5847 5.025 36.5305 5.12361 36.509 5.23144C36.4653 5.70243 36.4589 6.17614 36.4898 6.64814Z" fill="#FFB882"/>
<path d="M36.6622 6.24601C37.0068 5.99713 37.4088 5.57594 37.2557 5.30791C37.2201 5.25901 37.1716 5.22099 37.1157 5.19809C37.0597 5.17518 36.9985 5.16832 36.9389 5.17826C36.8793 5.1882 36.8236 5.21454 36.7781 5.25435C36.7326 5.29416 36.6991 5.34585 36.6813 5.40364C36.6478 5.68315 36.6414 5.96526 36.6622 6.24601Z" fill="#EA7B59"/>
<path d="M36.6047 6.34189C36.8345 6.18873 37.0833 5.9207 36.9876 5.7484C36.9645 5.71879 36.9339 5.69592 36.8989 5.68214C36.864 5.66837 36.8259 5.6642 36.7888 5.67006C36.7517 5.67592 36.7169 5.69159 36.6879 5.71547C36.6588 5.73934 36.6368 5.77055 36.6239 5.80584C36.6004 5.98351 36.594 6.163 36.6047 6.34189Z" fill="#FFB882"/>
<path d="M23.7395 23.8784H20.504V24.3341H23.7395V23.8784Z" fill="#49373B"/>
<path d="M22.5716 24.3185H21.9016C21.8713 23.8208 21.9565 23.3228 22.1504 22.8635L22.3228 22.8252C22.5124 23.2992 22.5973 23.8086 22.5716 24.3185Z" fill="#49373B"/>
<path d="M25.3668 24.3188H24.1798C24.4287 23.3424 23.3757 22.9786 23.3757 22.9786V22.8638C24.4095 22.8638 25.3668 23.3615 25.3668 24.3188Z" fill="#49373B"/>
<path d="M18.9724 24.3188H20.1211C20.0815 24.047 20.1357 23.7699 20.275 23.5331C20.4142 23.2964 20.6301 23.1143 20.8869 23.0169V22.8638C19.8914 22.8638 18.9724 23.3615 18.9724 24.3188Z" fill="#49373B"/>
<path d="M26.4389 15.742C26.0943 15.3782 25.8071 15.8951 25.8071 15.8951C25.8071 15.8951 26.19 14.8996 25.5582 14.4976C25.4851 14.4427 25.401 14.4044 25.3116 14.3852C25.2222 14.366 25.1297 14.3664 25.0406 14.3864C24.9514 14.4065 24.8676 14.4456 24.795 14.5011C24.7224 14.5567 24.6627 14.6273 24.6201 14.7082C24.6201 14.7082 24.4478 14.1338 23.5863 14.5359C22.7248 14.9379 22.9928 15.7229 22.9928 15.7229C22.9928 15.7229 23.012 15.2825 22.4568 15.2825C21.9016 15.2825 22.3802 16.144 22.3802 16.144C22.3802 16.144 22.1122 15.8952 21.5187 16.01C21.4491 16.009 21.3805 16.0269 21.3203 16.062C21.2602 16.097 21.2107 16.1477 21.1772 16.2088C21.1438 16.2698 21.1276 16.3388 21.1304 16.4084C21.1332 16.4779 21.1549 16.5454 21.1932 16.6035H20.6572C20.7337 16.1249 20.102 15.474 19.5085 15.6271C18.915 15.7803 18.647 16.3163 19.0873 17.0247L26.4006 16.7567C26.4006 16.7567 26.8026 16.1057 26.4389 15.742Z" fill="#FFCF36"/>
<path d="M26.4389 15.7417C26.0943 15.3779 25.8071 15.8948 25.8071 15.8948C25.859 15.7531 25.8912 15.605 25.9028 15.4545C25.8071 15.7608 25.5965 15.9714 25.3668 15.9714C25.137 15.9714 24.7158 15.4928 24.7158 14.8993C24.7181 14.7835 24.7309 14.6681 24.7541 14.5547C24.6998 14.5964 24.6542 14.6484 24.6201 14.7079C24.6012 14.6597 24.5754 14.6146 24.5435 14.5738C24.5435 14.6504 24.5244 14.727 24.5244 14.8036C24.4287 15.4545 24.0266 15.9331 23.6246 15.8565C23.2226 15.78 23.146 15.5502 23.0503 15.1865C23.0096 15.3492 22.9903 15.5165 22.9928 15.6842C22.9809 15.582 22.9334 15.4871 22.8588 15.4162C22.9354 15.7225 22.8588 16.0097 22.6865 16.0863C22.5142 16.1628 22.4185 16.0863 22.2845 15.9331L22.3802 16.1437C22.3802 16.1437 22.1122 15.8948 21.5187 16.0097C21.4491 16.0087 21.3805 16.0266 21.3203 16.0616C21.2602 16.0966 21.2107 16.1474 21.1772 16.2084C21.1438 16.2695 21.1276 16.3385 21.1304 16.408C21.1332 16.4776 21.1549 16.545 21.1932 16.6032H20.6572C20.6785 16.4643 20.6514 16.3224 20.5806 16.2011C20.3412 16.389 20.0421 16.4842 19.7382 16.4692C19.4305 16.4884 19.1277 16.3851 18.8958 16.182C18.8676 16.328 18.87 16.4783 18.903 16.6233C18.9359 16.7683 18.9987 16.9049 19.0873 17.0244L26.4006 16.7563C26.4006 16.7563 26.8026 16.1054 26.4389 15.7417Z" fill="#FFAA2E"/>
<path d="M21.7293 16.4503C22.0042 16.4503 22.227 16.3646 22.227 16.2588C22.227 16.1531 22.0042 16.0674 21.7293 16.0674C21.4544 16.0674 21.2315 16.1531 21.2315 16.2588C21.2315 16.3646 21.4544 16.4503 21.7293 16.4503Z" fill="#FFCF36"/>
<path d="M24.7158 15.8951C24.7284 15.8444 24.7216 15.7909 24.6968 15.7449C24.672 15.6989 24.6311 15.6637 24.5818 15.6463C24.4467 15.6283 24.3098 15.6625 24.1989 15.742C23.9118 15.9334 23.7395 16.3163 24.1224 16.3546C24.2582 16.3547 24.3903 16.3096 24.4977 16.2264C24.6051 16.1432 24.6819 16.0267 24.7158 15.8951Z" fill="#FFCF36"/>
<path d="M28.4108 17.6946C28.4299 17.3308 27.5493 17.3308 26.6303 17.4457L26.4006 17.886C26.4006 17.886 28.3916 18.0583 28.4108 17.6946Z" fill="#5D787C"/>
<path d="M28.3533 17.6944C28.3533 17.4455 27.8939 17.3881 27.3195 17.4263L27.2621 17.6752C27.2621 17.6752 27.8556 17.7135 28.3533 17.6944Z" fill="#899EA3"/>
<path d="M16.1581 17.6946C16.139 17.3308 17.0197 17.3308 17.9386 17.4457L18.1492 17.886C18.1492 17.886 16.1773 18.0583 16.1581 17.6946Z" fill="#5D787C"/>
<path d="M16.2156 17.6944C16.1964 17.4455 16.6751 17.3881 17.2494 17.4263L17.3068 17.6752C17.3068 17.6752 16.7133 17.7135 16.2156 17.6944Z" fill="#899EA3"/>
<path d="M17.6706 16.4884L27.1281 16.3735L26.592 22.1361C26.5784 22.3601 26.4833 22.5714 26.3246 22.7302C26.1659 22.8889 25.9546 22.984 25.7305 22.9976H18.5704C18.4874 22.9951 18.4057 22.9763 18.33 22.9423C18.2543 22.9082 18.1861 22.8596 18.1292 22.7991C18.0723 22.7387 18.0279 22.6676 17.9985 22.59C17.969 22.5123 17.9552 22.4297 17.9578 22.3467L17.6706 16.4884Z" fill="#6E8589"/>
<path d="M17.9578 16.5269L26.8409 16.4312L26.324 21.8682C26.3197 22.0787 26.2368 22.28 26.0915 22.4324C25.9462 22.5847 25.7491 22.6772 25.5391 22.6915H18.8001C18.6427 22.6771 18.4964 22.6043 18.3901 22.4873C18.2838 22.3703 18.2251 22.2178 18.2258 22.0597L17.9578 16.5269Z" fill="#899EA3"/>
<path d="M27.0132 16.6416L17.7663 16.7182L17.7855 17.0436L26.9941 17.2159L27.0132 16.6416Z" fill="#6E8589"/>
<path d="M22.2845 18.269C20.6955 18.269 19.2979 18.8242 18.4172 19.6666L18.513 22.0023C18.5077 22.1515 18.5607 22.2969 18.6607 22.4076C18.7608 22.5184 18.9001 22.5859 19.049 22.5957H25.3093C25.6922 22.5957 25.9986 22.2703 26.0368 21.8108L26.2283 19.7432C25.3476 18.8434 23.9118 18.269 22.2845 18.269Z" fill="#A9BCBF"/>
<path d="M34.0393 24.4526H13.6119V41.2368H34.0393V24.4526Z" fill="#E0CCAF"/>
<path d="M34.0202 24.4526H13.6119V27.1903L34.0202 26.0225V24.4526Z" fill="#D6BE9D"/>
<g style="mix-blend-mode:overlay" opacity="0.52">
<path d="M32.4503 24.4526H26.3814L15.1818 41.2426H26.2474L32.4503 24.4526Z" fill="#E0CCAF"/>
</g>
<path d="M12.6738 41.2427H13.9182L13.9182 24.4585H12.6738L12.6738 41.2427Z" fill="#B7A180"/>
<path d="M4.15438 41.2998H4.90103L4.90103 24.5156H4.15438L4.15438 41.2998Z" fill="#E0CCAF"/>
<path d="M4.82448 41.2427H5.3031L5.3031 24.4585H4.82448L4.82448 41.2427Z" fill="#B7A180"/>
<path d="M34.6328 24.5483H2.33566V25.1859H34.6328V24.5483Z" fill="#B7A180"/>
<path d="M34.6328 24.1465H2.33566V24.784H34.6328V24.1465Z" fill="#E0CCAF"/>
<path d="M13.2482 27.5923H5.11166V28.2298H13.2482V27.5923Z" fill="#B7A180"/>
<path d="M27.2238 16.5456C27.2224 16.4924 27.2094 16.4401 27.1855 16.3925C27.1687 16.3737 27.1481 16.3588 27.1249 16.3489C27.1017 16.339 27.0767 16.3342 27.0515 16.335L17.6897 16.4116C17.6515 16.4116 17.6132 16.4116 17.594 16.4499C17.5802 16.4611 17.5707 16.4769 17.5672 16.4943C17.5637 16.5118 17.5664 16.5299 17.5749 16.5456V16.6031C17.5745 16.6355 17.586 16.667 17.6071 16.6917C17.6283 16.7163 17.6576 16.7324 17.6897 16.7371L27.0898 16.8902C27.1172 16.8906 27.1439 16.8812 27.1649 16.8636C27.186 16.8461 27.2001 16.8216 27.2047 16.7945L27.2238 16.5456Z" fill="#E2DEC9"/>
<path d="M24.4287 13.8657C24.426 13.8999 24.4305 13.9344 24.4418 13.9668C24.4532 13.9993 24.4711 14.029 24.4944 14.0542C24.5178 14.0794 24.5462 14.0994 24.5777 14.1131C24.6092 14.1268 24.6432 14.1338 24.6776 14.1337C24.7486 14.1337 24.8168 14.1055 24.8671 14.0552C24.9174 14.0049 24.9456 13.9368 24.9456 13.8657C24.9456 13.7946 24.9174 13.7264 24.8671 13.6762C24.8168 13.6259 24.7486 13.5977 24.6776 13.5977C24.6432 13.5976 24.6092 13.6046 24.5777 13.6183C24.5462 13.6319 24.5178 13.652 24.4944 13.6772C24.4711 13.7024 24.4532 13.7321 24.4418 13.7646C24.4305 13.797 24.426 13.8314 24.4287 13.8657Z" fill="#FFCF36"/>
<path d="M18.7044 15.78C18.7152 15.7923 18.7285 15.8021 18.7433 15.8088C18.7582 15.8155 18.7743 15.8189 18.7906 15.8189C18.8069 15.8189 18.823 15.8155 18.8378 15.8088C18.8527 15.8021 18.8659 15.7923 18.8767 15.78C18.9036 15.7516 18.9187 15.7139 18.9187 15.6747C18.9187 15.6356 18.9036 15.5979 18.8767 15.5695C18.8193 15.5312 18.7427 15.512 18.7044 15.5695C18.6775 15.5979 18.6625 15.6356 18.6625 15.6747C18.6625 15.7139 18.6775 15.7516 18.7044 15.78Z" fill="#FFCF36"/>
<path d="M23.5289 14.1147C23.5198 14.1406 23.5171 14.1684 23.521 14.1956C23.5249 14.2228 23.5352 14.2487 23.5512 14.2711C23.5671 14.2935 23.5881 14.3118 23.6126 14.3244C23.637 14.337 23.6641 14.3436 23.6916 14.3436C23.7191 14.3436 23.7462 14.337 23.7706 14.3244C23.795 14.3118 23.8161 14.2935 23.832 14.2711C23.848 14.2487 23.8583 14.2228 23.8622 14.1956C23.866 14.1684 23.8634 14.1406 23.8543 14.1147C23.8634 14.0887 23.866 14.061 23.8622 14.0337C23.8583 14.0065 23.848 13.9806 23.832 13.9582C23.8161 13.9358 23.795 13.9175 23.7706 13.9049C23.7462 13.8923 23.7191 13.8857 23.6916 13.8857C23.6641 13.8857 23.637 13.8923 23.6126 13.9049C23.5881 13.9175 23.5671 13.9358 23.5512 13.9582C23.5352 13.9806 23.5249 14.0065 23.521 14.0337C23.5171 14.061 23.5198 14.0887 23.5289 14.1147Z" fill="#FFCF36"/>
<path d="M20.1211 15.1099C20.1248 15.1429 20.138 15.1742 20.159 15.1999C20.18 15.2256 20.208 15.2447 20.2397 15.2548C20.2713 15.265 20.3052 15.2658 20.3373 15.2571C20.3693 15.2484 20.3982 15.2307 20.4204 15.206C20.4427 15.1813 20.4573 15.1507 20.4625 15.1179C20.4677 15.0851 20.4634 15.0515 20.45 15.0211C20.4365 14.9908 20.4146 14.9649 20.3869 14.9467C20.3591 14.9285 20.3266 14.9187 20.2934 14.9185C20.2691 14.9183 20.245 14.9233 20.2227 14.9331C20.2005 14.943 20.1806 14.9574 20.1643 14.9755C20.148 14.9936 20.1357 15.0149 20.1283 15.0381C20.1209 15.0612 20.1184 15.0857 20.1211 15.1099Z" fill="#FFCF36"/>
<path d="M21.7867 15.5315C21.8396 15.5315 21.8824 15.4801 21.8824 15.4166C21.8824 15.3532 21.8396 15.3018 21.7867 15.3018C21.7338 15.3018 21.691 15.3532 21.691 15.4166C21.691 15.4801 21.7338 15.5315 21.7867 15.5315Z" fill="#FFCF36"/>
<path d="M20.8486 15.2438C20.8482 15.2712 20.8577 15.2978 20.8752 15.3189C20.8928 15.34 20.9173 15.3541 20.9443 15.3586C20.9748 15.3586 21.004 15.3465 21.0256 15.325C21.0471 15.3035 21.0592 15.2742 21.0592 15.2438C21.0592 15.2133 21.0471 15.1841 21.0256 15.1626C21.004 15.141 20.9748 15.1289 20.9443 15.1289C20.9173 15.1335 20.8928 15.1476 20.8752 15.1686C20.8577 15.1897 20.8482 15.2164 20.8486 15.2438Z" fill="#FFCF36"/>
<path d="M24.3521 12.8512C24.3521 12.8817 24.3642 12.9109 24.3858 12.9324C24.4073 12.954 24.4365 12.9661 24.467 12.9661C24.5244 12.9661 24.5627 12.9278 24.5627 12.8512C24.5631 12.8238 24.5536 12.7971 24.5361 12.7761C24.5185 12.755 24.494 12.7409 24.467 12.7363C24.4519 12.7363 24.437 12.7393 24.423 12.7451C24.4091 12.7509 24.3964 12.7593 24.3858 12.77C24.3751 12.7806 24.3666 12.7933 24.3609 12.8072C24.3551 12.8212 24.3521 12.8361 24.3521 12.8512Z" fill="#FFCF36"/>
<path d="M26.3814 15.0144C26.4343 15.0144 26.4772 14.963 26.4772 14.8995C26.4772 14.8361 26.4343 14.7847 26.3814 14.7847C26.3286 14.7847 26.2857 14.8361 26.2857 14.8995C26.2857 14.963 26.3286 15.0144 26.3814 15.0144Z" fill="#FFCF36"/>
<path d="M33.1012 4.6951C33.1012 4.46536 33.197 4.27393 33.331 4.27393C33.465 4.27393 33.5416 4.44623 33.5416 4.65682C33.5416 4.86741 33.465 5.07799 33.331 5.07799C33.197 5.07799 33.1204 4.90569 33.1012 4.6951Z" fill="#4F3131"/>
<path d="M34.0776 3.94889C33.8862 3.71915 33.5799 6.15053 33.6564 6.38027C33.733 6.61 34.3265 6.36112 34.3265 6.36112C34.3265 6.36112 34.0968 3.98717 34.0776 3.94889Z" fill="#FFB882"/>
<path d="M34.001 4.00586C33.8479 4.56106 33.6181 6.16921 33.6756 6.36066C33.733 6.55211 34.1159 6.37981 34.2882 6.34152V6.39895C34.2882 6.39895 33.6181 6.57126 33.5798 6.47553C33.5415 6.37981 33.8287 4.06329 34.001 4.00586Z" fill="#EF8F6F"/>
<path d="M34.5562 4.58071C34.5562 4.35097 34.6519 4.17867 34.7668 4.15953C34.8817 4.14038 34.9965 4.33183 34.9965 4.56157C34.9965 4.79131 34.9008 4.9636 34.7859 4.98275C34.6711 5.00189 34.5562 4.81045 34.5562 4.58071Z" fill="#4F3131"/>
<path d="M34.1925 3.54669C34.4222 3.83386 35.322 3.62327 35.3986 3.43183C35.4752 3.24038 35.4943 3.04893 35.2837 2.97235C35.0731 2.89577 34.2308 2.76177 34.1159 2.93407C34.001 3.10637 34.0968 3.41268 34.1925 3.54669Z" fill="#9E3249"/>
<path d="M33.5799 3.60408C33.4267 3.92954 32.7566 3.85296 32.6992 3.66151C32.6418 3.47006 32.6035 3.29776 32.7375 3.18289C32.8715 3.06802 33.5033 2.81914 33.599 2.95315C33.6947 3.08717 33.6373 3.45092 33.5799 3.60408Z" fill="#9E3249"/>
<path d="M33.2352 6.87785L34.6902 6.80127C34.6902 6.80127 34.6136 7.70107 34.3648 7.75851C34.1159 7.81594 33.5415 7.77766 33.4267 7.6245C33.3118 7.47134 33.2352 6.87785 33.2352 6.87785Z" fill="#542A29"/>
<path d="M33.3884 7.37541C33.3499 7.21822 33.3243 7.05815 33.3118 6.89679L34.6328 6.83936C34.618 7.0144 34.586 7.18754 34.5371 7.35627L33.3884 7.37541Z" fill="#FFF7E9"/>
<path d="M33.6564 15.1289L33.599 16.7945C33.9889 16.7519 34.383 16.7712 34.7668 16.8519L35.0923 15.4927C35.0923 15.4927 34.1733 15.4544 33.6564 15.1289Z" fill="#FFB882"/>
<path d="M34.1733 15.4549C34.0968 15.3783 33.7904 15.2252 33.5798 15.072C33.3693 14.9188 32.8715 13.9616 32.7566 13.9808C32.6852 13.9967 32.6207 14.035 32.5726 14.0901C32.5244 14.1452 32.495 14.2142 32.4886 14.2871C32.4886 14.3637 33.0246 15.206 32.9098 15.2826C32.7949 15.3592 32.278 15.2635 32.1823 15.34C32.0866 15.4166 32.3737 16.3738 32.5077 16.6036C32.6417 16.8333 33.4075 16.9482 33.9244 16.6802C34.1159 16.5844 34.1733 15.4549 34.1733 15.4549Z" fill="#FFB882"/>
<path d="M32.8141 15.3397L32.01 15.3014C31.9143 15.2631 31.3591 15.0334 31.3017 15.0717C31.2442 15.11 31.0528 15.2631 31.1485 15.3588C31.4229 15.4985 31.7118 15.6076 32.01 15.6843C32.2444 15.7238 32.4809 15.7493 32.7184 15.7609C32.7567 15.7226 32.9672 15.3397 32.8141 15.3397Z" fill="#FFB882"/>
<path d="M32.8332 15.8948C32.5669 15.9322 32.2977 15.945 32.0291 15.9331C31.9334 15.914 31.359 15.7608 31.3016 15.7991C31.2442 15.8374 31.0719 16.0288 31.1867 16.1054C31.477 16.2157 31.7789 16.2928 32.0865 16.3351C32.2397 16.316 32.7375 16.3543 32.7758 16.316C32.814 16.2777 33.0055 15.8757 32.8332 15.8948Z" fill="#FFB882"/>
<path d="M33.3118 16.4118C33.0544 16.4747 32.7916 16.5131 32.5269 16.5266C32.4312 16.5266 31.8377 16.4118 31.7802 16.4692C31.7228 16.5266 31.5696 16.7181 31.7037 16.7755C31.9963 16.8602 32.2989 16.9053 32.6035 16.9095C32.841 16.8999 33.0777 16.8743 33.3118 16.833C33.3501 16.8138 33.4841 16.3926 33.3118 16.4118Z" fill="#FFB882"/>
<path d="M28.4108 13.8657C26.8218 13.8657 26.2666 9.17522 25.4625 9.32838H25.137C26.1708 9.40496 27.3004 15.1101 28.7745 15.0718C29.9423 15.0527 29.9615 13.6359 29.9615 13.6359C29.9615 13.6359 29.6935 13.8657 28.4108 13.8657Z" fill="#5888A5"/>
<path d="M29.5212 13.885C29.1728 13.9863 28.8119 14.0379 28.4491 14.0381C28.3543 14.0447 28.2591 14.031 28.17 13.998C28.0809 13.965 27.9998 13.9134 27.9322 13.8467C28.0279 14.3636 28.4491 14.7273 28.8894 14.6507C29.0622 14.6065 29.2165 14.5084 29.3301 14.3708C29.4436 14.2332 29.5105 14.0631 29.5212 13.885Z" fill="#7AB1CC"/>
</svg>
