<svg width="31" height="42" viewBox="0 0 31 42" fill="none" xmlns="http://www.w3.org/2000/svg">
<path d="M28.3578 30.4316L28.928 40.6289H29.1628V30.4316H28.3578Z" fill="#632F2F"/>
<path d="M26.1774 30.4316L26.7477 40.6289H26.9825V30.4316H26.1774Z" fill="#632F2F"/>
<path d="M22.2025 30.4316L21.8838 40.6289H21.649L21.3975 30.4316H22.2025Z" fill="#632F2F"/>
<path d="M24.3661 30.4316L24.0642 40.6289H23.8294L23.561 30.4316H24.3661Z" fill="#632F2F"/>
<path d="M29.1628 30.2305H21.4142V30.8343H29.1628V30.2305Z" fill="#632F2F"/>
<path d="M30.2865 18.1548H29.884L28.7267 30.4654H29.1293L30.2865 18.1548Z" fill="#632F2F"/>
<path d="M26.4961 18.1548H26.1103L24.9531 30.4654H25.3556L26.4961 18.1548Z" fill="#632F2F"/>
<path d="M28.9448 31.7065H21.6658V31.9883H28.9448V31.7065Z" fill="#632F2F"/>
<path d="M30.1356 18.1548H26.1774L26.0265 19.8655H29.9847L30.1356 18.1548Z" fill="#632F2F"/>
<path d="M29.9846 20.2344H26.0432L26.0097 20.5866H29.9511L29.9846 20.2344Z" fill="#632F2F"/>
<path d="M10.4118 2.5737C10.5615 2.45457 10.6627 2.2851 10.6966 2.09688C10.7306 1.90865 10.6949 1.7145 10.5963 1.55061C10.3615 1.09777 10.1267 1.29903 10.0093 1.44998C10.0932 1.29903 10.1603 0.980368 9.70743 0.628158C9.25459 0.275949 8.73466 0.661704 8.73466 0.661704C8.68583 0.482126 8.58187 0.3224 8.43744 0.205048C8.293 0.0876956 8.11538 0.0186322 7.92961 0.00759633C7.73523 -0.016423 7.53807 0.016806 7.36229 0.103202C7.18652 0.189599 7.03978 0.325411 6.94007 0.493985C6.94007 0.493985 6.0847 0.225632 5.39705 0.527526C4.70941 0.82942 5.51446 2.07054 5.51446 2.07054C5.51446 2.07054 4.72618 1.93637 4.42428 2.92591C4.12239 3.91545 4.3572 6.28029 6.15179 7.2866L9.15396 5.19011C8.88561 4.21734 10.915 4.53601 10.915 3.04331C10.915 2.35566 10.4118 2.5737 10.4118 2.5737Z" fill="#A5374C"/>
<path d="M9.65711 3.07699C8.56694 0.477347 4.77649 1.90296 5.38028 0.544434C4.74295 0.8631 5.51446 2.07068 5.51446 2.07068C5.51446 2.07068 4.72618 1.9365 4.42428 2.92604C4.12239 3.91559 4.3572 6.28042 6.15179 7.28674L9.15396 5.19025C8.88561 4.21748 10.915 4.53614 10.915 3.04344C10.7976 3.76464 10.0093 3.94913 9.65711 3.07699Z" fill="#89243C"/>
<path d="M10.1435 10.2217C11.3511 11.4461 11.5524 14.6998 11.9046 15.572C12.2568 16.4441 12.5419 16.3938 12.8941 16.6286C14.2023 17.4504 12.9444 19.8153 11.7369 19.6308C11.1666 19.5469 9.84163 18.7922 9.33848 17.2324C8.83532 15.6726 9.00304 9.09802 10.1435 10.2217Z" fill="#39A7C9"/>
<path d="M12.8941 16.6286C12.6089 16.4441 12.3741 16.4441 12.1058 15.9745C12.0482 16.04 11.9722 16.0867 11.8878 16.1086C11.4517 16.1757 11.2336 15.1862 11.0492 14.0289C11.0324 13.9451 10.1938 10.5068 10.0596 10.3726C8.9359 9.24893 8.83527 15.6558 9.33842 17.2323C9.84158 18.8089 11.1666 19.5469 11.7368 19.6307C12.9444 19.8152 14.2023 17.4504 12.8941 16.6286Z" fill="#248BAA"/>
<path d="M13.2798 18.6582C13.7494 17.7358 13.3469 16.8133 12.6928 16.4611C12.0387 16.1089 11.0995 16.4611 10.6299 17.4003C10.1602 18.3396 10.2776 19.4465 10.9821 19.6478C12.0555 19.9497 12.827 19.5807 13.2798 18.6582Z" fill="#F4E4C3"/>
<path d="M10.697 17.4507C10.634 17.5761 10.5781 17.7049 10.5292 17.8364C10.6268 17.9638 10.7616 18.0576 10.915 18.1048C11.9884 18.4067 12.7599 18.0377 13.2295 17.1152L13.2798 16.9978C13.1411 16.8023 12.9642 16.6369 12.7599 16.5114C12.1058 16.1592 11.1498 16.5282 10.697 17.4507Z" fill="#FFF9DC"/>
<path d="M12.0052 19.5467C11.0659 19.1777 10.9318 17.6347 11.3007 17.1987C11.6697 16.7626 12.9612 16.7626 13.5314 16.9806C14.1016 17.1987 15.1247 18.3559 15.1247 18.3559L15.0409 19.597C15.0409 19.597 12.7934 19.8654 12.0052 19.5467Z" fill="#FFB882"/>
<path d="M12.458 16.8467C11.9884 16.8467 11.5188 16.9641 11.3007 17.1989C11.0827 17.4337 11.0659 19.178 12.0051 19.547C12.9444 19.9159 15.0409 19.5973 15.0409 19.5973L15.2757 18.6245C11.9045 18.809 12.2064 17.2324 12.458 16.8467Z" fill="#FF9566"/>
<path d="M15.0409 18.3225L14.3533 19.6307C14.1545 19.4017 13.9085 19.2186 13.6321 19.094L14.0346 17.8696C14.0346 17.8696 14.5881 18.3057 15.0409 18.3225Z" fill="#FF9566"/>
<path d="M14.588 18.3056C14.6887 18.2889 14.9235 18.3224 15.108 18.3056C15.2924 18.2889 16.131 18.3559 16.1981 18.423C16.2357 18.4793 16.2585 18.5442 16.2643 18.6116C16.2702 18.679 16.259 18.7468 16.2317 18.8088C16.1814 18.8759 15.3763 18.7081 15.4099 18.8088C15.4434 18.9094 15.7788 19.1442 15.8124 19.2281C15.8459 19.3119 15.4434 19.7145 15.2589 19.8319C15.0744 19.9493 14.3868 19.8486 14.2023 19.379C14.1352 19.1945 14.588 18.3056 14.588 18.3056Z" fill="#FF9566"/>
<path d="M16.1981 18.4232C16.131 18.3561 15.326 18.3058 15.108 18.3058C14.8899 18.3058 14.6887 18.289 14.588 18.3058L14.37 18.7754C14.516 18.7273 14.6692 18.7046 14.8228 18.7083C15.023 18.7062 15.2218 18.7403 15.4099 18.809C15.3763 18.7083 16.1814 18.876 16.2317 18.809C16.259 18.747 16.2702 18.6792 16.2643 18.6118C16.2585 18.5444 16.2357 18.4795 16.1981 18.4232Z" fill="#FFB882"/>
<path d="M15.3092 19.178C15.4344 19.17 15.5582 19.1475 15.6782 19.1109C15.7285 19.0774 16.0472 18.8258 16.1142 18.8426C16.1813 18.8594 16.4161 19.0271 16.3323 19.1445C16.16 19.289 15.9603 19.3974 15.7453 19.4632C15.6339 19.4759 15.5219 19.4815 15.4098 19.4799C15.3931 19.4464 15.2589 19.178 15.3092 19.178Z" fill="#FF9566"/>
<path d="M15.1583 18.9431C15.2935 19.0434 15.4398 19.1279 15.5944 19.1947C15.6615 19.1947 16.0472 19.1947 16.064 19.245C16.0807 19.2954 16.1143 19.5302 16.0137 19.5805C15.8134 19.6171 15.6078 19.6113 15.4099 19.5637C15.326 19.5134 15.0241 19.4128 15.0073 19.3624C14.9906 19.3121 15.0744 18.8928 15.1583 18.9431Z" fill="#FF9566"/>
<path d="M14.7893 19.4126C14.9636 19.4704 15.1435 19.5097 15.326 19.53C15.3931 19.5133 15.7621 19.3958 15.8124 19.4462C15.8627 19.4965 15.9633 19.681 15.8962 19.7481C15.7114 19.8336 15.5124 19.8848 15.3092 19.899C15.1511 19.8897 14.994 19.8673 14.8396 19.8319C14.8228 19.7984 14.6887 19.3958 14.7893 19.4126Z" fill="#FF9566"/>
<path d="M18.7307 28.9224L23.2256 39.9583H23.4436L21.1962 28.9559L18.7307 28.9224Z" fill="#FFB882"/>
<path d="M23.2927 39.1868L21.1962 28.9559L18.7307 28.9224L22.9908 39.3377L23.2927 39.1868Z" fill="#FF9566"/>
<path d="M21.7328 31.0522L24.9027 39.9581H25.104L24.1983 31.069L21.7328 31.0522Z" fill="#FFB882"/>
<path d="M24.9866 38.7673L24.1983 31.069L21.7328 31.0522L24.5505 39.0021L24.9866 38.7673Z" fill="#FF9566"/>
<path d="M24.5337 20.0163C20.5085 18.5739 19.6028 14.3977 20.8104 12.4857C20.8104 12.4857 19.737 10.5402 23.0746 9.31581C23.5274 9.16486 25.5904 8.34304 27.5862 11.2613C27.5862 11.2613 30.0852 13.71 27.6869 17.5508C25.7916 20.5865 24.5337 20.0163 24.5337 20.0163Z" fill="#C6AA97"/>
<path d="M27.5862 11.2617C26.4625 9.61807 25.322 9.16523 24.4667 9.09814C25.7749 9.36649 26.7309 10.0877 26.7309 10.9263C26.7309 12.0165 25.5736 11.7481 23.6784 11.7481C22.6385 11.7481 21.3303 12.6202 20.7098 12.2177C20.7363 12.3096 20.7699 12.3994 20.8104 12.4861C19.6028 14.3981 20.5085 18.5743 24.5337 20.0166C24.5337 20.0166 25.7916 20.5869 27.6869 17.5512C30.0852 13.7104 27.5862 11.2617 27.5862 11.2617Z" fill="#AA8A74"/>
<path d="M24.1816 13.0728C22.5715 13.1902 21.4981 15.6892 21.9341 18.3559C22.6563 19.1082 23.5475 19.6775 24.5338 20.0163C24.5338 20.0163 25.5569 20.486 27.1502 18.3559C24.1816 15.8569 25.8755 12.9554 24.1816 13.0728Z" fill="#937460"/>
<path d="M23.5274 18.4064C24.4834 19.5637 24.1648 24.5282 21.2129 27.5639C21.2129 27.5639 18.5797 24.4611 21.8502 18.8089C22.1857 18.2219 23.041 17.8194 23.5274 18.4064Z" fill="#6D751D"/>
<path d="M23.192 21.8779C22.7727 22.968 22.2863 25.0981 22.4373 25.249C22.5882 25.4 26.9657 26.2889 27.3347 25.7857C27.7037 25.2826 26.1103 21.4921 25.6072 21.2238C25.104 20.9554 23.192 21.8779 23.192 21.8779Z" fill="#FFC84D"/>
<path d="M25.6071 21.2239C25.104 20.9387 23.0243 21.8277 23.0243 21.8277C22.605 22.9011 22.2863 25.0982 22.4373 25.2491L22.605 25.3162V25.0982C22.5882 24.0919 23.2759 23.4545 24.148 23.7061C25.0201 23.9577 25.6407 24.8969 25.7078 25.8697C26.5296 25.9703 27.2005 25.9703 27.3346 25.7858C27.7036 25.2827 26.1103 21.4922 25.6071 21.2239Z" fill="#FFAF3B"/>
<path d="M26.5297 30.3482H24.6512L25.1879 37.4259C25.1879 37.4259 20.7769 37.4259 19.1836 36.8892C18.4624 35.3798 17.4393 28.1008 17.9928 27.2957C18.5462 26.4907 22.1857 25.8198 22.1857 25.8198C22.1857 25.8198 21.8671 25.4844 22.3199 25.2495C22.7728 25.0147 27.3347 25.7863 27.3347 25.7863C27.3347 25.7863 29.1628 29.996 26.5297 30.3482Z" fill="#C63E62"/>
<path d="M27.3347 25.7861L25.104 25.4339C25.7246 25.6016 26.1439 25.8029 26.1439 25.9539C26.1439 26.1048 25.1711 26.2557 24.0138 26.088C22.8566 25.9203 22.5547 25.7023 22.5714 25.4675C22.5882 25.2327 22.6385 25.2494 22.8566 25.1991C22.6762 25.189 22.4953 25.206 22.3199 25.2494C21.867 25.4842 22.1857 25.8197 22.1857 25.8197L21.649 25.9203C21.6551 25.9271 21.6597 25.9351 21.6626 25.9437C21.6654 25.9524 21.6665 25.9615 21.6658 25.9706C23.779 26.1048 25.3723 26.7421 25.3723 27.4969C25.3723 28.2516 24.1983 28.7212 22.5211 28.956C22.6553 29.5822 22.7727 30.2363 22.8733 30.9183C23.2255 33.5012 23.1752 35.8493 22.823 37.3587C24.1145 37.4258 25.1879 37.4258 25.1879 37.4258L24.6512 30.3481H26.5296C29.1628 29.9959 27.3347 25.7861 27.3347 25.7861Z" fill="#AF2B54"/>
<path d="M22.8566 18.0207C22.1522 19.2618 21.6658 22.1298 21.8503 22.4317C22.0348 22.7336 26.211 22.9516 26.3955 22.7C26.58 22.4485 25.9929 18.658 25.6575 18.2052C25.3221 17.7523 23.0411 17.702 22.8566 18.0207Z" fill="#FFAF3B"/>
<path d="M23.5945 18.0876C22.6385 18.8423 22.4541 22.0122 22.6218 22.2805C22.7895 22.5489 25.9929 22.6663 26.1606 22.4483C26.3284 22.2302 25.7917 18.8423 25.4898 18.423C25.1879 18.0037 23.8629 17.8863 23.5945 18.0876Z" fill="#FFC84D"/>
<path d="M23.1584 17.9202L23.9635 18.7253L25.4059 18.0376C25.4059 18.0376 24.6344 17.7022 24.1312 17.7358C23.8013 17.7622 23.4751 17.824 23.1584 17.9202Z" fill="#C63E62"/>
<path d="M22.9572 22.4985C23.2759 21.3412 23.4101 20.5194 23.4101 20.5194L23.2759 20.4355C23.2759 20.4355 22.4876 21.5928 21.9341 22.3308L22.9572 22.4985Z" fill="#FFAF3B"/>
<path d="M23.9467 22.7501C23.4436 21.727 23.1082 20.8046 23.1082 20.8046L23.2423 20.6704C23.2423 20.6704 24.3157 21.9451 24.9195 22.5992L23.9467 22.7501Z" fill="#FFAF3B"/>
<path d="M20.5924 24.377C21.9509 22.8004 23.0075 19.7479 23.0075 19.7479L22.8566 19.6138C22.8566 19.6138 21.28 21.4251 20.7433 21.9618C20.2066 22.4985 20.5924 24.377 20.5924 24.377Z" fill="#FFB882"/>
<path d="M21.9006 21.1068C21.8561 21.0836 21.8178 21.0502 21.7886 21.0094C21.7595 20.9686 21.7404 20.9215 21.7329 20.8719C21.3471 21.308 20.9613 21.7441 20.7433 21.9621C20.1563 22.5491 20.5924 24.3773 20.5924 24.3773C21.6825 23.1194 22.5715 20.8887 22.8901 20.0669C22.605 20.7378 22.1522 21.2074 21.9006 21.1068Z" fill="#FF9566"/>
<path d="M26.1439 24.6789C24.6344 23.3539 22.6888 19.7647 22.6888 19.7647L22.8733 19.6138L25.9594 22.4314C26.5967 23.0185 26.1439 24.6789 26.1439 24.6789Z" fill="#FFB882"/>
<path d="M25.9594 22.4317C25.691 22.1634 25.0537 21.5931 24.4331 21.0229C24.517 21.2745 24.5338 21.4422 24.4499 21.4925C24.366 21.5428 23.6113 21.0229 22.974 20.134C22.8901 19.9998 22.7895 19.8656 22.7224 19.7314L22.6888 19.765C22.6888 19.765 24.6344 23.3542 26.1439 24.6792C26.1439 24.6792 26.5967 23.0187 25.9594 22.4317Z" fill="#FF9566"/>
<path d="M25.037 17.8696C23.93 19.0269 24.517 24.5281 27.9217 27.5638C27.9217 27.5638 31.0916 24.2262 27.3347 18.5405C26.949 17.9703 25.5904 17.2826 25.037 17.8696Z" fill="#A3BA43"/>
<path d="M27.3347 18.5404C27.1019 18.235 26.7963 17.9928 26.4458 17.8359C26.8905 18.3153 27.2329 18.8803 27.4521 19.4964C28.0726 21.1903 27.8546 22.9346 26.9489 23.421C26.3284 23.7396 25.5736 23.4042 24.9531 22.6495C25.4562 24.3602 26.4122 26.2051 27.9217 27.5636C27.9217 27.5636 31.0916 24.226 27.3347 18.5404Z" fill="#86962A"/>
<path d="M20.8607 23.3376C21.4813 20.6877 22.4037 18.5073 23.4771 17.8197C22.6385 17.5513 21.9006 18.5409 21.5819 19.0943C19.6364 22.4823 20.0054 24.4949 20.4582 26.0043C20.5187 25.1059 20.6533 24.2139 20.8607 23.3376Z" fill="#86962A"/>
<path d="M21.7832 19.2113C22.0683 18.7249 22.6385 17.9534 23.3094 17.7857C22.5547 17.6851 21.8838 18.574 21.5819 19.0939C20.2066 21.4923 19.9886 23.203 20.1395 24.528C20.1227 23.1527 20.4917 21.4587 21.7832 19.2113Z" fill="#A3BA43"/>
<path d="M23.3765 15.8904L23.4772 17.8192L23.9971 18.3056L24.9195 17.8863L24.9028 15.2363L23.3765 15.8904Z" fill="#FFB882"/>
<path d="M11.133 20.9219L9.10365 40.914H8.93593L6.78912 24.4104L7.12456 21.1399L11.133 20.9219Z" fill="#4C443F"/>
<path d="M8.93594 40.9142H9.05334L8.16443 25.4673L6.72205 25.6853L8.93594 40.9142Z" fill="#352D28"/>
<path d="M3.80374 21.0733L1.92529 40.9815H2.09301L6.62142 26.5241L8.38247 25.9203L9.5565 21.0229L3.80374 21.0733Z" fill="#4C443F"/>
<path d="M1.92529 40.9813H1.97561L4.3069 24.0417C6.60465 23.8572 8.58373 23.4211 10.915 22.9347L11.1666 21.3246L3.43476 20.7544L1.92529 40.9813Z" fill="#352D28"/>
<path d="M5.09515 25.585L6.15178 26.39L5.51445 29.996L6.57108 26.608L8.19795 26.2558L9.07009 25.7527C7.42645 25.9875 6.36982 25.9875 5.09515 25.585Z" fill="#352D28"/>
<path d="M10.3448 10.4901C11.3511 12.5698 11.4517 21.7105 11.4517 22.113C11.4517 22.5155 3.38444 22.8845 3.08254 22.6497C2.78065 22.4149 3.45152 16.3267 3.21672 15.4713C2.98191 14.6159 3.55216 10.2217 3.87082 9.88627C4.49138 9.21539 9.72421 9.19862 10.3448 10.4901Z" fill="#39A7C9"/>
<path d="M11.1163 14.6997L11.0324 20.0667L11.3175 21.0395C11.5691 18.9598 11.1163 14.6997 11.1163 14.6997Z" fill="#248BAA"/>
<path d="M6.88974 19.5135C6.26918 19.2451 4.25655 18.3898 3.25024 18.1382H3.16638C3.09929 19.2284 3.0322 20.6204 2.99866 21.4758C3.95195 21.4928 4.90515 21.4367 5.84988 21.3081C5.98405 21.8448 6.58784 22.3312 7.45998 22.6331C9.48938 22.5156 11.4517 22.3144 11.4517 22.1299C11.4517 21.9454 11.4349 20.6372 11.3678 19.111C10.8289 18.986 10.2774 18.9241 9.72419 18.9265C8.61724 18.9097 7.59415 19.1445 6.88974 19.5135Z" fill="#248BAA"/>
<path d="M5.64864 22.3312C5.3132 22.0629 4.07208 16.8971 4.12239 15.9076C4.20625 14.1633 3.87082 10.138 3.7031 10.3225C3.53538 10.507 2.78064 14.6161 3.01545 15.4547C3.25026 16.2933 2.76387 22.4151 3.08254 22.6499C3.4012 22.8847 10.3615 22.5493 11.3343 22.1803C8.96947 22.3983 5.8499 22.4989 5.64864 22.3312Z" fill="#248BAA"/>
<g style="mix-blend-mode:overlay" opacity="0.58">
<path d="M11.1833 15.4715C11.133 14.8677 11.0827 14.2639 11.0156 13.7104L9.25456 15.136L3.06573 13.375C2.98913 13.9588 2.95549 14.5474 2.9651 15.136L9.42228 16.5281L11.1833 15.4715Z" fill="#B5E0EA"/>
</g>
<path d="M0.751226 20.0499C-0.171228 18.9765 -0.120912 15.8402 0.248069 14.2971C1.06989 11.0266 3.82048 9.43329 4.35718 9.80228C4.89388 10.1713 3.77017 15.1022 3.51859 15.8066C3.26701 16.511 3.28378 17.1484 3.7534 18.7081C4.22301 20.2679 1.12021 20.4692 0.751226 20.0499Z" fill="#39A7C9"/>
<path d="M3.70308 15.7565C3.93856 14.9361 4.08477 14.0926 4.13915 13.2407C3.40119 15.2366 1.99235 16.9305 1.12021 16.6454C0.24807 16.3603 0.130666 15.2533 0.516419 13.4588C0.415788 13.7271 0.331929 13.9955 0.248069 14.2973C-0.120912 15.8404 -0.171228 18.9767 0.751226 20.0501C1.12021 20.4694 4.20624 20.2346 3.7534 18.7084C3.30055 17.1821 3.4515 16.4609 3.70308 15.7565Z" fill="#248BAA"/>
<path d="M5.06158 9.51724C6.01758 10.5403 8.46628 12.1504 8.46628 12.1504C8.46628 12.1504 9.22101 10.7919 9.18747 9.76882C7.99667 9.41661 6.23562 9.3663 5.06158 9.51724Z" fill="#B5E0EA"/>
<path d="M5.51447 9.5005L5.90022 6.22998L8.73467 6.6996L8.91916 9.75208C8.91916 9.75208 8.33214 10.2217 7.72835 10.1881C7.12457 10.1546 5.51447 9.5005 5.51447 9.5005Z" fill="#FFB882"/>
<path d="M16.3323 8.86328C15.6447 10.0709 16.869 13.5594 15.1751 13.8613C13.4811 14.1632 13.0954 14.5322 13.9004 16.2765H13.9675C13.6153 15.6056 14.0346 15.2869 16.3659 15.354C18.6972 15.4211 16.869 11.1946 17.0871 9.97023C17.3051 8.74588 18.932 8.4943 20.5589 9.65156C19.2842 8.20917 17.02 7.6557 16.3323 8.86328Z" fill="#EAE3C5"/>
<path d="M14.9067 16.1924H12.9109V18.834H14.9067V16.1924Z" fill="#FFE576"/>
<path d="M14.2694 18.574C13.7159 18.574 13.263 17.5677 13.263 16.3266V16.1924H12.9108L12.8438 18.8423H14.9067V18.0708C14.739 18.3727 14.5209 18.574 14.2694 18.574Z" fill="#F7C759"/>
<path d="M16.131 18.876H6.90649L7.12453 19.3456H15.8962L16.131 18.876Z" fill="#C9B495"/>
<path d="M16.4162 18.7754H6.50403V18.9431H16.4162V18.7754Z" fill="#EDDAB9"/>
<path d="M8.71789 41.3002H10.6131C10.6131 41.3002 9.15395 40.3442 8.8856 40.5454C8.61725 40.7467 8.71789 41.3002 8.71789 41.3002Z" fill="#E5CB9C"/>
<path d="M2.36134 41.2997H0.617065C0.617065 41.2997 1.82464 40.394 2.10976 40.5785C2.39489 40.763 2.36134 41.2997 2.36134 41.2997Z" fill="#E5CB9C"/>
<path d="M25.1711 17.769H25.2047L25.037 17.8864C23.93 19.0437 24.517 24.5449 27.9217 27.5806L28.0391 27.4464C24.6512 24.3939 24.0642 18.9263 25.1711 17.769Z" fill="#86962A"/>
<g style="mix-blend-mode:multiply" opacity="0.6">
<path d="M23.8629 19.6306C23.9951 19.62 24.1239 19.5835 24.2419 19.5231C24.3599 19.4626 24.4648 19.3795 24.5505 19.2784C24.5649 19.1031 24.5929 18.9293 24.6344 18.7584C25.0369 18.205 25.255 17.7857 26.4961 17.8695C26.0432 17.6515 25.5401 17.5508 25.2046 17.7521L25.1208 17.7857C25.0872 17.8192 25.0537 17.836 25.0369 17.8695H24.9195V15.2363L24.0977 15.5885L23.8629 16.0749L23.7287 16.0414L23.4268 16.4271L23.4939 17.8192H23.4771C23.4771 17.8024 23.4771 17.8024 23.4939 17.8024L23.3262 17.7689C23.1967 17.7541 23.0655 17.7655 22.9404 17.8024H22.8901L22.7895 17.836H22.7559L22.6721 17.8863L22.6218 17.9198L22.5379 17.9701L22.4876 18.0037H22.4541C22.4205 18.1882 22.6385 18.423 22.6889 18.5572C22.605 18.6673 22.532 18.7852 22.4708 18.9094C22.7224 19.4796 23.3933 19.6809 23.8629 19.6306Z" fill="#843131"/>
</g>
<path d="M23.1417 17.568C21.9006 16.7798 21.3303 15.3038 21.2297 14.0627C21.1291 12.8216 21.7664 10.7754 22.9907 10.9599C24.2151 11.1444 25.6575 12.4694 25.6239 13.8111C25.5736 16.2934 23.1417 17.568 23.1417 17.568Z" fill="#FFB882"/>
<path d="M23.6113 13.4082C23.6113 12.4187 23.2591 11.6304 22.8398 11.6304C22.4205 11.6304 22.0515 12.4187 22.0515 13.4082C22.0515 14.3977 22.4037 15.1692 22.8398 15.1692C23.2759 15.1692 23.6113 14.381 23.6113 13.4082Z" fill="#FFF9DC"/>
<path d="M21.8838 13.5093C21.8838 12.5365 21.6322 11.7314 21.3136 11.7314C20.9949 11.7314 20.7266 12.5365 20.7266 13.5093C20.7266 14.482 20.9949 15.2871 21.3136 15.2871C21.6322 15.2871 21.8838 14.482 21.8838 13.5093Z" fill="#FFF9DC"/>
<path d="M24.2822 14.1465C24.9363 14.2639 25.4395 12.788 24.8189 11.9326C24.8189 11.9326 25.842 11.9494 26.0265 12.3184C26.7141 13.7272 26.3787 14.2471 25.8588 14.5826C24.8357 15.2535 24.2822 14.1465 24.2822 14.1465Z" fill="#AA8A74"/>
<path d="M22.7224 14.9011C23.0373 14.9011 23.2926 14.2403 23.2926 13.4251C23.2926 12.61 23.0373 11.9492 22.7224 11.9492C22.4075 11.9492 22.1522 12.61 22.1522 13.4251C22.1522 14.2403 22.4075 14.9011 22.7224 14.9011Z" fill="#FF9566"/>
<path d="M23.2591 13.4586C23.2591 12.7374 23.0411 12.1504 22.7895 12.1504C22.5379 12.1504 22.3199 12.7374 22.3199 13.4586C22.3199 14.1798 22.5211 14.7668 22.7895 14.7668C23.0578 14.7668 23.2591 14.1798 23.2591 13.4586Z" fill="#FFB882"/>
<path d="M21.6155 13.5088C21.6155 12.7037 21.431 12.0664 21.2129 12.0664C20.9949 12.0664 20.7936 12.7037 20.7936 13.5088C20.7936 14.3138 20.9781 14.9512 21.2129 14.9512C21.4477 14.9512 21.6155 14.3138 21.6155 13.5088Z" fill="#FF9566"/>
<path d="M21.2633 14.834C21.4486 14.834 21.5987 14.2408 21.5987 13.5091C21.5987 12.7773 21.4486 12.1841 21.2633 12.1841C21.078 12.1841 20.9279 12.7773 20.9279 13.5091C20.9279 14.2408 21.078 14.834 21.2633 14.834Z" fill="#FFB882"/>
<path d="M22.1018 13.3076H21.7999V13.5491H22.1018V13.3076Z" fill="#FFF9DC"/>
<path d="M26.6638 14.2136L26.2613 13.6937L23.4939 13.2744V13.5931L26.1439 13.8447L26.3451 14.331L26.6638 14.2136Z" fill="#FFF9DC"/>
<path d="M25.0705 15.1861C25.4227 15.4041 26.211 14.8507 26.2613 14.314C26.3116 13.7773 25.6407 12.9554 25.3053 13.4586C24.9699 13.9618 24.9028 15.0855 25.0705 15.1861Z" fill="#FFB882"/>
<path d="M25.2382 14.9347C25.4562 15.0689 25.9258 14.7335 25.9594 14.4148C25.9929 14.0961 25.5904 13.6097 25.3891 13.8949C25.1879 14.18 25.1376 14.8676 25.2382 14.9347Z" fill="#EA7B59"/>
<path d="M25.2382 14.9514C25.3891 15.052 25.7078 14.8172 25.7246 14.5992C25.7414 14.3811 25.473 14.0457 25.3388 14.2469C25.2047 14.4482 25.1711 14.9178 25.2382 14.9514Z" fill="#FFB882"/>
<path d="M24.2654 40.6293H24.9866L25.5233 39.7068C25.5233 39.7068 25.1544 39.3882 24.9363 39.5391C24.7183 39.6901 24.7854 40.361 24.7854 40.361L24.2654 40.6293Z" fill="#E5CB9C"/>
<path d="M22.4541 40.6293H23.2088L23.7455 39.7068C23.7455 39.7068 23.3933 39.3882 23.1585 39.5391C22.9237 39.6901 23.0076 40.361 23.0076 40.361L22.4541 40.6293Z" fill="#E5CB9C"/>
<path d="M7.5271 23.2533L7.2923 25.3498H7.46002L8.04703 23.1694L7.5271 23.2533Z" fill="#352D28"/>
<path d="M8.0638 22.9683L6.82268 23.1863L6.72205 24.0249L7.96317 23.7901L8.0638 22.9683Z" fill="#352D28"/>
<path d="M7.84572 23.0352L7.05744 23.1861L6.99036 23.7228L7.77864 23.5719L7.84572 23.0352Z" fill="#5E544E"/>
<path d="M3.28378 19.044C3.75339 17.9874 3.33409 17.0817 2.67999 16.7965C2.02588 16.5114 1.03634 17.0481 0.583501 18.1048C0.13066 19.1614 0.214519 20.3354 0.93571 20.4528C2.02588 20.6205 2.81416 20.1006 3.28378 19.044Z" fill="#F4E4C3"/>
<path d="M0.633857 18.1546C0.568712 18.2944 0.51813 18.4405 0.48291 18.5906C0.529407 18.6509 0.587492 18.7012 0.653743 18.7386C0.719994 18.7761 0.793069 18.7999 0.868664 18.8087C1.95884 18.9764 2.74712 18.4732 3.21673 17.4166L3.26704 17.2824C3.1299 17.0921 2.94469 16.9416 2.73034 16.8464C2.07624 16.5612 1.10347 17.0979 0.633857 18.1546Z" fill="#FFF9DC"/>
<path d="M1.25439 19.7984C0.768002 19.2282 1.53951 16.7292 2.74709 17.0311C3.95466 17.333 6.57108 18.4902 6.57108 18.4902L7.12455 19.6978C7.12455 19.6978 1.99235 20.637 1.25439 19.7984Z" fill="#FFB882"/>
<path d="M2.24389 18.5072C1.97554 18.2221 1.95877 17.7692 2.34452 17.0312C1.30467 17.3164 0.482845 19.5135 0.918914 20.0166C1.65688 20.8552 7.12451 19.698 7.12451 19.698C7.12451 19.698 2.71351 19.0607 2.24389 18.5072Z" fill="#FF9566"/>
<path d="M13.0618 18.6578C12.2568 18.6578 11.8207 18.1211 11.8207 17.6347C11.82 17.4955 11.8515 17.358 11.9125 17.233C11.9736 17.1079 12.0627 16.9986 12.1729 16.9135C12.462 16.697 12.8186 16.59 13.1792 16.6116V16.9471C12.8921 16.9323 12.6083 17.015 12.3742 17.1819C12.3082 17.238 12.2548 17.3072 12.2172 17.3852C12.1797 17.4632 12.1589 17.5482 12.1561 17.6347C12.1561 17.9702 12.458 18.3224 13.0618 18.3224V18.6578Z" fill="#F7C759"/>
<g style="mix-blend-mode:multiply" opacity="0.6">
<path d="M7.99666 13.6767C9.67385 13.7773 10.5628 12.3014 10.2944 10.4062L10.1435 10.2552L10.0093 10.1714C9.67426 9.95959 9.30559 9.80646 8.91911 9.71854L8.75139 7.03503L8.46627 6.64928L5.90017 6.22998L5.51442 9.46696L5.06158 9.51727C4.71649 9.54612 4.37748 9.62522 4.05526 9.75208C3.6945 9.83012 3.35259 9.97828 3.04895 10.1881C4.99449 10.5907 4.96095 13.509 7.99666 13.6767Z" fill="#843131"/>
</g>
<path d="M5.86664 3.89866C5.86664 5.67648 6.30271 8.47739 6.40334 8.69542C6.50397 8.91346 9.15393 9.13149 9.65709 8.947C9.79126 8.87991 9.53968 4.92175 9.45582 3.42905C9.44225 3.26362 9.37891 3.10618 9.27413 2.97745C9.16934 2.84871 9.02804 2.75473 8.86881 2.70786C8.14762 2.48982 6.88972 2.13761 6.68846 2.15439C6.4872 2.17116 5.86664 3.11038 5.86664 3.89866Z" fill="#FFB882"/>
<path d="M6.68846 6.22998C6.65491 4.40185 7.3761 2.00347 6.55428 1.90284C5.73246 1.80221 5.36348 3.66389 5.66537 5.10627C5.96727 6.54865 6.68846 6.22998 6.68846 6.22998Z" fill="#89243C"/>
<path d="M6.45365 5.91103C6.03435 5.02212 5.86663 4.56928 5.41379 5.20661C4.96095 5.84394 5.74923 6.49805 6.08466 6.56514C6.4201 6.63222 6.55428 6.12907 6.45365 5.91103Z" fill="#FFB882"/>
<path d="M6.23563 5.91137C6.00083 5.39144 5.9002 5.12309 5.63185 5.50884C5.36349 5.8946 5.83311 6.26358 6.03437 6.29712C6.23563 6.33066 6.30272 6.04554 6.23563 5.91137Z" fill="#EA7B59"/>
<path d="M6.28596 6.06203C6.05115 5.67628 5.95052 5.47502 5.76603 5.79368C5.58154 6.11235 6.00084 6.3807 6.15178 6.3807C6.30273 6.3807 6.33627 6.16266 6.28596 6.06203Z" fill="#FFB882"/>
<path d="M22.3199 11.899L22.2864 12.2847C22.5212 12.0667 22.9573 12.1673 23.1921 12.4525L23.3262 12.2009C23.3262 12.2009 22.8399 11.5971 22.3199 11.899Z" fill="#77575A"/>
<path d="M20.7098 12.3183L20.7936 12.5028C20.9278 12.1506 21.2968 12.1171 21.4477 12.3686L21.6658 12.05C20.9781 11.4965 20.7098 12.3183 20.7098 12.3183Z" fill="#77575A"/>
<path d="M7.5774 4.80438C7.5774 4.56957 7.66126 4.40186 7.7619 4.40186C7.86253 4.40186 7.94639 4.60312 7.92961 4.82115C7.91284 5.03919 7.84575 5.22368 7.74512 5.22368C7.64449 5.22368 7.56063 5.02241 7.5774 4.80438Z" fill="#4F3131"/>
<path d="M8.44955 4.16699C8.416 4.16699 8.24828 6.33056 8.31537 6.666C8.38246 7.00144 9.17074 6.5486 9.17074 6.5486C9.17074 6.5486 8.48309 4.18376 8.44955 4.16699Z" fill="#EA7B59"/>
<path d="M8.34891 3.94881C8.38245 3.96559 9.0701 6.48137 9.0701 6.48137C9.0701 6.48137 8.48308 6.73295 8.28182 6.59878C8.08055 6.4646 8.33213 3.93204 8.34891 3.94881Z" fill="#FFB882"/>
<path d="M8.85206 4.88836C8.85206 4.65356 8.93592 4.48584 9.03655 4.48584C9.13718 4.48584 9.22104 4.67033 9.20427 4.90514C9.1875 5.13994 9.12041 5.30766 9.01978 5.30766C8.91915 5.30766 8.83529 5.1064 8.85206 4.88836Z" fill="#4F3131"/>
<path d="M8.78495 3.7813C8.96944 4.06642 9.60678 3.98256 9.67386 3.81484C9.74095 3.64712 9.75772 3.4794 9.60678 3.37877C9.45583 3.27814 8.83527 3.06011 8.73464 3.19428C8.63401 3.32846 8.71787 3.64712 8.78495 3.7813Z" fill="#A5374C"/>
<path d="M7.09099 3.14386C7.29225 3.07677 8.19793 2.99291 8.31534 3.12709C8.43274 3.26126 8.33211 3.54639 8.23148 3.64702C8.13084 3.74765 7.05744 3.68056 6.99036 3.51284C6.92327 3.34513 6.88973 3.19418 7.09099 3.14386Z" fill="#A5374C"/>
<path d="M7.59418 7.01855L9.08687 7.06887C9.08687 7.06887 8.98624 7.90747 8.71789 7.95778C8.44954 8.0081 7.84575 7.95778 7.74512 7.80683C7.64449 7.65588 7.59418 7.01855 7.59418 7.01855Z" fill="#542A29"/>
<path d="M7.72834 7.53831C7.6943 7.37236 7.67188 7.20423 7.66125 7.03516L8.83529 7.08547C8.81364 7.26087 8.78002 7.43459 8.73466 7.6054L7.72834 7.53831Z" fill="#FFF7E9"/>
<path d="M7.94636 8.14208C7.94636 8.10853 8.08054 8.17562 8.24826 8.19239C8.41598 8.20917 8.55015 8.19239 8.55015 8.24271C8.55015 8.29302 8.39921 8.3098 8.23149 8.27625C8.06377 8.24271 7.92959 8.19239 7.94636 8.14208Z" fill="#EA7B59"/>
<path d="M21.2129 13.8111C21.2685 13.8111 21.3136 13.7134 21.3136 13.593C21.3136 13.4726 21.2685 13.375 21.2129 13.375C21.1574 13.375 21.1123 13.4726 21.1123 13.593C21.1123 13.7134 21.1574 13.8111 21.2129 13.8111Z" fill="#77575A"/>
<path d="M22.5547 13.8111C22.6103 13.8111 22.6554 13.7134 22.6554 13.593C22.6554 13.4726 22.6103 13.375 22.5547 13.375C22.4992 13.375 22.4541 13.4726 22.4541 13.593C22.4541 13.7134 22.4992 13.8111 22.5547 13.8111Z" fill="#77575A"/>
<path d="M21.8335 15.6057L22.9237 15.4883C22.9237 15.4883 23.1417 16.5281 22.5547 16.4778C21.9677 16.4275 21.8335 15.6057 21.8335 15.6057Z" fill="#4F3034"/>
<path d="M22.9069 15.924C22.9159 15.7896 22.9102 15.6547 22.8901 15.5215L21.9677 15.6221C21.9839 15.7256 22.012 15.827 22.0515 15.924H22.9069Z" fill="#FFF9DC"/>
<path d="M22.1186 15.2367C21.9174 15.2535 21.5316 15.1361 21.5316 15.0019C21.5316 14.8677 21.8335 14.4652 21.9174 14.482C22.0012 14.4987 22.2528 15.2199 22.1186 15.2367Z" fill="#EA7B59"/>
<path d="M22.1522 15.1695C21.9677 15.2031 21.6155 15.0857 21.6155 14.9515C21.6155 14.8173 21.8838 14.4819 21.9677 14.4987C22.0515 14.5154 22.2696 15.1528 22.1522 15.1695Z" fill="#FFB882"/>
<path d="M23.0746 19.7483C22.9907 19.4464 23.0075 19.48 22.9404 19.4296C22.8733 19.3793 22.6888 19.1445 22.605 19.1781C22.5211 19.2116 22.2192 19.5806 22.3031 19.6645C22.3869 19.7483 22.8062 19.7651 23.0578 19.9831C23.3094 20.2012 23.0746 19.7483 23.0746 19.7483Z" fill="#FFB882"/>
<path d="M22.7895 19.2955C22.6385 19.1445 22.2695 18.6414 22.2025 18.6581C22.1354 18.6749 22.5882 19.3793 22.5882 19.3793L22.7895 19.2955Z" fill="#FFB882"/>
<path d="M23.0075 19.5802C23.0075 19.4125 22.8063 18.7919 22.756 18.7752C22.7057 18.7584 22.8063 19.5467 22.8063 19.5467L23.0075 19.5802Z" fill="#FFB882"/>
<path d="M22.605 19.3959C22.4205 19.2785 21.9174 18.9095 21.8503 18.9431C21.7832 18.9766 22.4038 19.5301 22.4038 19.5301L22.605 19.3959Z" fill="#FFB882"/>
<path d="M22.6386 19.53C22.4541 19.5132 21.8503 19.3958 21.7832 19.4629C21.7161 19.53 22.4876 19.7313 22.4876 19.7313L22.6386 19.53Z" fill="#FFB882"/>
<path d="M22.6889 19.9995C22.7056 19.7144 22.7056 19.7479 22.7559 19.6808C22.8063 19.6138 22.9572 19.3957 23.0411 19.4293C23.1249 19.4628 23.4939 19.7647 23.4101 19.8486C23.3262 19.9324 22.9404 19.9995 22.7392 20.2175C22.5379 20.4356 22.6889 19.9995 22.6889 19.9995Z" fill="#FFB882"/>
<path d="M22.8901 19.547C23.0075 19.3961 23.2927 18.9097 23.3598 18.9097C23.4268 18.9097 23.0914 19.6141 23.0914 19.6141L22.8901 19.547Z" fill="#FFB882"/>
<path d="M22.7224 19.8489C22.6889 19.6812 22.7895 19.0942 22.8398 19.0774C22.8901 19.0607 22.9069 19.7819 22.9069 19.7819L22.7224 19.8489Z" fill="#FFB882"/>
<path d="M23.0914 19.6305C23.2423 19.5131 23.6616 19.1273 23.7455 19.1441C23.8293 19.1609 23.2926 19.7479 23.2926 19.7479L23.0914 19.6305Z" fill="#FFB882"/>
<path d="M23.0579 19.7482C23.2424 19.7315 23.8126 19.5805 23.8797 19.6308C23.9468 19.6811 23.2424 19.9327 23.2424 19.9327L23.0579 19.7482Z" fill="#FFB882"/>
<path d="M6.95686 18.4232L6.31952 19.832C6.03216 19.6185 5.70817 19.4593 5.36353 19.3624L5.68219 18.1045C5.68219 18.1045 6.40338 18.4735 6.95686 18.4232Z" fill="#FFB882"/>
<path d="M6.40337 18.4732C6.52077 18.4397 6.82267 18.4564 7.0407 18.4229C7.25874 18.3893 8.2986 18.339 8.38246 18.4061C8.43482 18.45 8.47252 18.5089 8.49051 18.5749C8.50849 18.6408 8.5059 18.7107 8.48309 18.7751C8.44954 18.8422 7.42646 18.7751 7.47677 18.8757C7.52709 18.9764 7.9967 19.1608 8.03025 19.2447C8.06379 19.3286 7.64449 19.7814 7.44323 19.9156C7.24197 20.0498 6.40337 20.033 6.10148 19.5801C6.00085 19.4124 6.40337 18.4732 6.40337 18.4732Z" fill="#FFB882"/>
<path d="M7.54388 18.9765C7.75254 19.101 7.97136 19.2076 8.19798 19.2952C8.28184 19.3119 8.80177 19.3622 8.85209 19.4126C8.9024 19.4629 8.96949 19.6977 8.85209 19.7145C8.57465 19.7223 8.29761 19.6884 8.03027 19.6138C7.82991 19.5413 7.63392 19.4573 7.44325 19.3623C7.42648 19.3287 7.40971 18.9094 7.54388 18.9765Z" fill="#FFB882"/>
<path d="M7.22519 19.1111C7.41464 19.2573 7.61669 19.3864 7.82898 19.4968C7.92961 19.5304 8.43277 19.6478 8.46631 19.6981C8.49986 19.7484 8.55017 20 8.43277 20C8.15636 19.9707 7.88539 19.9029 7.62772 19.7987C7.44312 19.7024 7.26395 19.596 7.09102 19.48C7.05747 19.4297 7.09102 19.0272 7.22519 19.1111Z" fill="#FFB882"/>
<path d="M6.82267 19.0605C7.01053 19.2213 7.20645 19.3725 7.40969 19.5134C7.49355 19.5469 7.99671 19.7146 8.01348 19.7649C8.03025 19.8153 8.08057 20.0668 7.96316 20.0668C7.6883 20.0093 7.42293 19.9134 7.17488 19.7817C6.99274 19.6717 6.81896 19.5483 6.65496 19.4127C6.63818 19.3624 6.70527 18.9599 6.82267 19.0605Z" fill="#FFB882"/>
</svg>
