<svg width="32" height="42" viewBox="0 0 32 42" fill="none" xmlns="http://www.w3.org/2000/svg">
<path d="M29.4073 23.5086C29.71 23.8785 29.8109 24.0803 29.8949 24.1644C29.979 24.2485 30.2144 24.5512 30.3826 24.5175C30.5508 24.4839 31.0889 23.9626 30.9207 23.8281C30.7525 23.6936 30.1472 23.5927 29.5922 23.3572C29.0373 23.1218 29.4073 23.5086 29.4073 23.5086Z" fill="#FFB882"/>
<path d="M30.0967 24.3157C30.2985 24.5512 30.8534 25.3247 30.9711 25.3079C31.0889 25.2911 30.4162 24.2148 30.4162 24.2148L30.0967 24.3157Z" fill="#FFB882"/>
<path d="M29.8108 23.492C30.2649 23.492 30.9879 23.1389 31.072 23.2398C31.1561 23.3407 30.1303 23.8452 30.1303 23.8452L29.8108 23.492Z" fill="#FFB882"/>
<path d="M30.4162 24.1982C30.6853 24.3663 31.4756 24.9549 31.6101 24.9212C31.7447 24.8876 30.7525 24.0132 30.7525 24.0132L30.4162 24.1982Z" fill="#FFB882"/>
<path d="M30.349 23.9965C30.6853 24.0302 31.6606 24.2488 31.7951 24.1647C31.9297 24.0806 30.6517 23.6938 30.6517 23.6938L30.349 23.9965Z" fill="#FFB882"/>
<path d="M28.7682 24.3664L29.2223 24.7027L30.3321 22.7521L29.7436 22.3989L28.7682 24.3664Z" fill="#EFD497"/>
<path d="M6.62165 7.76897C5.19229 7.29813 3.89746 2.92598 3.89746 2.92598C3.89746 2.92598 4.06562 2.01791 5.34363 1.66478C5.34363 1.66478 5.89856 0.605377 7.89966 0.55493C9.90075 0.504482 10.4389 0 10.4389 0C10.4389 0 11.0106 1.44617 10.0185 3.9013C9.02633 6.35643 6.62165 7.76897 6.62165 7.76897Z" fill="#843240"/>
<path d="M4.53647 2.05176C4.22177 2.25324 3.99383 2.56516 3.89746 2.92618C3.89746 2.92618 5.19229 7.29834 6.62165 7.76918C6.62165 7.76918 9.05996 6.28938 10.0185 3.90151C10.2371 3.3634 9.54762 3.02708 9.6317 2.58987C7.52971 1.17733 4.82234 3.32977 4.53647 2.05176Z" fill="#682533"/>
<path d="M3.69566 6.81043C1.54322 6.32277 0.01297 9.41691 0.01297 9.41691L5.22592 10.1736L3.69566 6.81043Z" fill="#A0223D"/>
<path d="M2.72034 8.12207L2.11496 10.2409H3.72929L4.57009 8.67699L2.72034 8.12207Z" fill="#96744B"/>
<path d="M3.1912 10.2074C3.52752 9.28256 3.32573 8.34087 2.72036 8.12226C2.11498 7.90365 1.35827 8.47539 1.02195 9.40027C0.685627 10.3251 0.887421 11.2668 1.47598 11.4855C2.06454 11.7041 2.83807 11.1323 3.1912 10.2074Z" fill="#B79567"/>
<path d="M10.0857 8.82868L3.62841 6.79395C3.84702 8.02151 3.25846 9.09773 2.43448 10.4094L9.88395 10.3757C10.4557 9.34997 10.0857 8.82868 10.0857 8.82868Z" fill="#CC364F"/>
<path d="M10.0857 8.8285L5.47816 7.38232C5.66313 8.44173 4.77189 9.71974 3.34253 10.3756L3.25845 10.4092L9.88394 10.3756C10.4557 9.34979 10.0857 8.8285 10.0857 8.8285Z" fill="#B72746"/>
<path d="M7.02523 9.65247C4.4692 9.43387 1.15646 10.0729 0.702428 10.9809C0.248397 11.889 -0.256079 19.3553 0.147503 20.1793C0.551086 21.0032 3.10711 22.1635 5.74721 22.3485C8.38732 22.5335 7.02523 9.65247 7.02523 9.65247Z" fill="#CC364F"/>
<path d="M2.0645 10.6108C1.54321 11.6197 0.954648 19.8427 1.42549 20.7676C1.56002 21.0367 1.92997 21.3394 2.43445 21.6252C3.39296 21.9784 4.72142 22.4156 5.91536 22.4997C8.53865 22.7015 7.31108 9.41685 7.31108 9.41685C6.62162 9.34959 2.65306 9.50094 2.0645 10.6108Z" fill="#B72746"/>
<path d="M29.9454 24.4839L28.701 41.2998H28.8691L30.5171 24.6352L29.9454 24.4839Z" fill="#AD8F7F"/>
<path d="M24.2448 3.4475C24.0934 3.24571 23.404 2.65716 22.1259 2.89258C20.8479 3.128 20.0071 4.15378 19.7717 4.55736C19.5363 4.96094 19.6204 6.23896 20.0576 7.53378L25.321 5.58313C25.321 5.58313 24.5811 3.8679 24.2448 3.4475Z" fill="#72444C"/>
<path d="M22.9667 5.63333C21.7056 5.36427 20.7975 4.52348 20.9657 3.78357C21.0329 3.44725 21.2852 3.19501 21.6551 3.02686C20.8868 3.33446 20.2301 3.86808 19.7717 4.55711C19.5363 4.94388 19.6204 6.23871 20.0576 7.53353L25.321 5.58288L25.2033 5.29701C24.7324 5.68378 23.8748 5.83512 22.9667 5.63333Z" fill="#5E343D"/>
<g style="mix-blend-mode:overlay">
<path d="M22.7818 3.83434C23.4013 3.74176 24.0343 3.81725 24.6147 4.05294L24.3625 3.59891C23.7999 3.32229 23.165 3.22823 22.5463 3.32986C21.117 3.51483 20.0071 4.65832 19.7213 5.09553C19.6895 5.13793 19.6614 5.18293 19.6372 5.23006C19.6372 5.39822 19.654 5.60001 19.6708 5.8018V5.76817C20.0239 5.28051 21.2347 4.03613 22.7818 3.83434Z" fill="#E5CB9C"/>
</g>
<path d="M22.2605 10.1903C19.015 10.5266 17.9724 8.81136 19.1832 6.67573C20.3939 4.54011 23.1013 3.53115 25.2874 4.15334C27.4734 4.77553 27.4062 9.66897 22.2605 10.1903Z" fill="#56363A"/>
<path d="M24.951 8.34088C21.7056 8.6772 20.663 6.96198 21.8737 4.82635C21.9914 4.62456 22.126 4.42277 22.2605 4.23779C20.965 4.63547 19.8665 5.50587 19.1832 6.67611C17.9724 8.81173 19.015 10.527 22.2605 10.1906C24.2448 9.98885 25.4723 9.13124 26.0945 8.12228C25.7217 8.23364 25.3386 8.30688 24.951 8.34088Z" fill="#442A2E"/>
<path d="M24.9678 12.2255C26.6494 13.8735 26.9858 16.8331 27.2716 18.0606C27.5575 19.2882 29.0709 21.3061 30.1976 22.231L28.8691 24.8543C28.8691 24.8543 25.9936 22.7523 25.0855 20.6335C23.1685 16.2109 23.6057 10.8802 24.9678 12.2255Z" fill="#E24D6D"/>
<path d="M26.9857 20.2463C26.4645 19.2037 26.9521 14.8652 25.0855 12.3428L24.9678 12.2251C23.6057 10.8798 22.9835 16.3955 24.9006 20.818C25.8086 22.9369 28.8691 24.8539 28.8691 24.8539L29.4409 23.7272C28.4992 23.0378 27.7256 21.7261 26.9857 20.2463Z" fill="#CC3A60"/>
<path d="M17.6193 27.3931L20.0912 40.6272H20.3434L21.2683 27.3931H17.6193Z" fill="#4C443F"/>
<path d="M20.5789 37.2808L21.2683 27.3931H17.6193L19.5026 37.4658L20.5789 37.2808Z" fill="#352E2A"/>
<path d="M21.7728 27.1916L25.775 40.6275H26.0273L25.6069 25.9136L21.7728 27.1916Z" fill="#4C443F"/>
<path d="M25.8927 36.1713L25.6069 25.9136L21.7728 27.1916L24.5475 36.4908L25.8927 36.1713Z" fill="#352E2A"/>
<path d="M16.6608 35.0952L26.33 34.5066C26.33 34.5066 27.423 16.0931 25.1192 12.4441C22.8154 8.795 19.5531 9.9553 17.8715 14.0248C16.1899 18.0942 16.1395 27.2757 16.6608 35.0952Z" fill="#E8587E"/>
<path d="M26.1786 22.4158L26.5653 22.9034C26.4813 18.4472 26.1281 14.0414 25.1192 12.4439C22.7986 8.77804 19.5531 9.95516 17.8715 14.0246C17.8443 14.0845 17.8219 14.1463 17.8042 14.2096C20.3266 15.9585 23.3199 18.834 26.1786 22.4158Z" fill="#E24D6D"/>
<path d="M18.8468 28.2509C17.9556 27.1411 17.1316 26.0144 16.3917 24.9214C16.3245 28.2341 16.4422 31.7823 16.6608 35.095L24.8501 34.6074C22.6646 32.6707 20.6556 30.5435 18.8468 28.2509Z" fill="#E24D6D"/>
<path d="M24.2784 34.641L24.1607 24.9214C24.1607 24.9214 23.673 30.3698 22.6136 34.7419L24.2784 34.641Z" fill="#D13961"/>
<path d="M23.9253 28.0489C24.1102 26.1655 24.312 24.2317 24.3961 22.0456C24.4465 20.4817 24.0598 13.7889 24.0598 13.7217H23.8916C23.8916 13.7889 24.2784 20.4649 24.2279 22.0288C24.1439 24.198 23.9421 26.1319 23.7571 28.0152C23.5217 30.2518 23.3031 32.4042 23.3199 34.6744H23.488C23.4712 32.421 23.6898 30.2854 23.9253 28.0489Z" fill="#BA2755"/>
<path d="M17.737 14.0078C16.0554 18.0773 15.7863 27.2756 16.6607 35.095L20.0071 34.8932C19.4522 27.0402 21.3188 23.7779 21.2347 17.7073C21.1506 12.1917 18.4769 12.1749 17.737 14.0078Z" fill="#BC2A57"/>
<path d="M10.2875 10.0561C11.5487 10.8296 14.4747 16.0762 15.0633 16.5303C15.6518 16.9843 14.6765 19.3553 14.0711 19.4394C13.4657 19.5235 10.338 15.9921 9.88395 14.9496C9.42992 13.907 9.12723 9.33303 10.2875 10.0561Z" fill="#E2A54D"/>
<path d="M9.91756 10.0225C9.12721 10.4765 9.12721 14.4282 9.5308 15.3363C9.93438 16.2444 13.3648 19.843 13.9702 19.7589C14.3065 19.7084 14.7942 18.8508 15.0632 18.01C13.1126 16.9675 11.4478 10.9642 9.91756 10.0225Z" fill="#D3953C"/>
<path d="M12.4063 12.3933C11.9018 10.8126 10.1362 9.68592 10.1362 9.68592C10.1362 9.68592 9.968 9.55139 9.58123 9.83726C8.9086 10.3249 9.00949 10.7621 9.00949 10.7621C9.69895 10.4763 11.0106 11.6702 11.431 12.5278C11.8514 13.3854 12.8267 16.9168 10.8424 17.4044L10.9938 17.5222C13.4153 16.7654 12.9276 13.974 12.4063 12.3933Z" fill="#CC364F"/>
<path d="M12.3391 12.3765C12.2344 12.0662 12.0872 11.7719 11.9018 11.502C11.2965 11.048 10.7415 10.863 10.2371 10.9976C10.9188 11.4554 11.4417 12.1134 11.7337 12.8809C12.0364 13.8226 12.3222 15.1847 12.0195 16.2946C12.1372 16.3412 12.263 16.3641 12.3895 16.3618C13.0453 15.1847 12.6922 13.4863 12.3391 12.3765Z" fill="#E23D69"/>
<path d="M15.2819 18.5483C15.7527 17.7915 15.6518 16.8667 15.0464 16.4967C14.4411 16.1268 13.3648 16.2949 12.894 17.0684C12.4231 17.842 12.7426 18.9182 13.348 19.2882C13.9534 19.6581 14.811 19.3218 15.2819 18.5483Z" fill="#D3953C"/>
<path d="M15.7658 18.2012C16.1856 17.2357 16.0064 16.2272 15.3656 15.9485C14.7248 15.6699 13.865 16.2267 13.4452 17.1922C13.0255 18.1577 13.2046 19.1663 13.8455 19.4449C14.4863 19.7235 15.3461 19.1667 15.7658 18.2012Z" fill="#4B4256"/>
<path d="M15.3996 17.9427C14.5924 18.5313 13.6002 18.6153 13.1462 18.1445C12.9108 19.0021 13.1462 19.8093 13.7348 20.0111C14.3233 20.2129 15.2482 19.6243 15.635 18.649C15.775 18.3082 15.8382 17.9407 15.82 17.5728L15.3996 17.9427Z" fill="#36303F"/>
<path d="M13.4825 19.2711C13.8357 20.0278 16.1731 20.465 19.5027 20.1455L20.0576 19.0188C20.0576 19.0188 16.2908 16.7655 15.1641 16.7823C14.0375 16.7991 13.2471 18.7834 13.4825 19.2711Z" fill="#FFB882"/>
<path d="M16.9971 17.3879C16.913 18.4137 16.8625 19.2545 15.0464 18.8845C14.2224 18.7164 14.0711 18.3464 14.1384 17.3711C13.6171 17.9933 13.3312 18.9518 13.4825 19.2713C13.8357 20.028 16.1731 20.4652 19.5027 20.1457L20.0576 19.0191C20.0576 19.0191 18.4432 18.0437 16.9971 17.3879Z" fill="#FF9566"/>
<path d="M19.4522 18.4805L19.4858 20.1453C19.1303 20.0771 18.7651 20.0771 18.4096 20.1453L18.1237 18.7832C18.1237 18.7832 18.9645 18.7832 19.4522 18.4805Z" fill="#FFB882"/>
<path d="M18.9645 18.7836C19.0486 18.6996 19.3345 18.565 19.5195 18.4305C19.7044 18.296 20.1921 17.3711 20.293 17.3879C20.3605 17.4102 20.421 17.4499 20.4682 17.5031C20.5155 17.5562 20.5479 17.6209 20.5621 17.6906C20.5452 17.7915 20.0408 18.5819 20.1417 18.6659C20.2426 18.75 20.747 18.6828 20.8143 18.75C20.8816 18.8173 20.6461 19.7758 20.5116 19.9944C20.3771 20.213 19.654 20.2971 19.1831 20.0112C19.015 19.8935 18.9645 18.7836 18.9645 18.7836Z" fill="#FFB882"/>
<path d="M20.2426 18.7332C20.4893 18.7475 20.7367 18.7419 20.9825 18.7164C21.0834 18.6828 21.5878 18.4978 21.6551 18.5314C21.7224 18.565 21.8905 18.7332 21.7896 18.8173C21.5373 18.9545 21.2649 19.051 20.9825 19.1032C20.7651 19.133 20.5461 19.1498 20.3266 19.1536C20.2762 19.12 20.0912 18.7332 20.2426 18.7332Z" fill="#FFB882"/>
<path d="M20.2089 19.2881C20.4593 19.3279 20.7122 19.3504 20.9657 19.3553C21.0497 19.3385 21.5878 19.204 21.6383 19.2544C21.6887 19.3049 21.8569 19.4898 21.756 19.5571C21.4865 19.6604 21.2031 19.7227 20.9152 19.7421C20.6958 19.7384 20.4768 19.7215 20.2594 19.6916C20.2089 19.6748 20.0576 19.2544 20.2089 19.2881Z" fill="#FFB882"/>
<path d="M19.7549 19.7754C19.9959 19.8503 20.2437 19.901 20.4948 19.9267C20.5957 19.9099 21.1338 19.8426 21.1842 19.8931C21.2347 19.9435 21.3692 20.1453 21.2683 20.1957C20.9909 20.2809 20.7003 20.315 20.4107 20.2966C20.1899 20.2791 19.9707 20.2453 19.7549 20.1957C19.7213 20.1621 19.6035 19.7417 19.7549 19.7754Z" fill="#FFB882"/>
<path d="M13.3648 31.1095L12.6586 20.835L7.63058 21.9616L8.21914 25.7284L11.1956 31.7485L13.3985 40.5433L13.5666 40.5096L13.3648 31.1095Z" fill="#4B4256"/>
<path d="M11.9691 31.4966L10.3211 26.5863L9.6485 23.0213L7.63058 21.9619L8.21914 25.7287L11.0442 31.7488L13.3985 40.5435L13.4825 40.5267L11.9691 31.4966Z" fill="#393144"/>
<path d="M12.0532 20.9697L11.1956 26.0818L10.2707 26.4685L7.79876 32.7073L2.85487 39.5682L2.68671 39.4168L6.0499 31.7319L6.52075 25.9472L6.68891 21.7096L12.0532 20.9697Z" fill="#4B4256"/>
<path d="M12.7763 20.7676L6.28532 21.6084L6.31895 25.9469L5.84811 31.5466L2.68671 39.4165L2.77079 39.5005L6.53756 31.8997L7.44562 25.1565C7.44562 25.1565 11.1283 24.0131 12.8099 22.8528L12.7763 20.7676Z" fill="#393144"/>
<path d="M8.89178 26.3672L10.2875 26.9053L11.9018 25.6777C10.7752 26.2158 9.91756 26.4176 8.89178 26.3672Z" fill="#393144"/>
<path d="M5.98261 23.3237C7.21018 23.8954 11.5823 23.3741 13.0117 22.2979C13.0117 22.2979 12.9444 11.9729 10.3043 9.93817C9.53078 9.34961 6.01625 9.131 5.27635 9.90454C4.53644 10.6781 4.13286 13.9908 5.36043 16.7486C6.01625 18.2284 5.98261 23.3237 5.98261 23.3237Z" fill="#E2A54D"/>
<path d="M12.7427 21.2218C12.709 17.4045 11.7001 14.3104 10.5061 14.3272C9.31221 14.344 8.3537 17.4382 8.38733 21.2554C8.3911 21.9464 8.43039 22.6368 8.50504 23.3238C10.0185 23.206 11.7673 22.8361 12.7258 22.2812C12.7258 21.9448 12.7427 21.5917 12.7427 21.2218Z" fill="#EAB05C"/>
<path d="M11.9859 13.2344L7.36154 13.5539L7.46244 14.1929L12.07 13.5875L11.9859 13.2344Z" fill="#D3953C"/>
<path d="M11.9355 13.0493L7.34473 13.352L7.44562 13.991L12.0196 13.3856L11.9355 13.0493Z" fill="#B72746"/>
<path d="M12.0364 12.9316H11.6328L11.7505 13.4866H12.1541L12.0364 12.9316Z" fill="#FFCE6C"/>
<path d="M11.9691 13.0156L11.7337 13.0324L11.8178 13.3519H12.0532L11.9691 13.0156Z" fill="#B72746"/>
<path d="M5.47816 12.4101C5.04095 12.4605 4.88961 12.4437 4.58692 12.965C4.58206 14.2659 4.84539 15.5539 5.36045 16.7486C6.01628 18.2284 5.98264 23.3236 5.98264 23.3236C6.41986 23.5254 7.26065 23.5927 8.23598 23.5422C8.38732 17.9257 6.92433 12.2755 5.47816 12.4101Z" fill="#D3953C"/>
<path d="M5.67994 9.70255C3.40979 10.2743 0.719237 16.0085 2.4681 18.615C2.85486 19.2036 5.89855 17.5892 5.5286 17.1688C4.82233 16.328 6.03308 14.7305 7.17656 14.1251C8.32005 13.5198 7.73149 9.18125 5.67994 9.70255Z" fill="#E2A54D"/>
<path d="M5.52859 9.73666C6.30213 10.527 8.23596 11.2501 9.91755 11.0147C9.9934 10.6147 10.044 10.2103 10.0689 9.80393C9.09358 9.36672 6.4871 9.21537 5.52859 9.73666Z" fill="#EFD497"/>
<path d="M2.41767 16.7318C1.69459 16.0592 2.48493 13.2678 3.7125 11.3003C2.14862 13.4023 1.05558 16.9505 2.29996 18.817C2.68673 19.4056 6.11718 17.5726 5.74723 17.1354C5.15867 16.4292 5.81449 14.9998 7.09251 14.2431C6.16763 14.3608 5.56226 14.9998 5.00733 16.0088C3.72932 16.1097 2.80444 17.085 2.41767 16.7318Z" fill="#D3953C"/>
<path d="M3.94791 10.9975L4.33468 10.5771C4.33468 10.5771 6.1508 10.9807 6.72254 12.6119C7.07551 13.5759 7.13979 14.6219 6.90752 15.6219H6.62165C6.4703 13.2845 5.78085 11.687 3.94791 10.9975Z" fill="#D3953C"/>
<path d="M22.0755 24.6356C22.2269 25.1737 22.2437 25.426 22.2941 25.5605C22.3446 25.695 22.4791 26.0986 22.6641 26.1491C22.8491 26.1995 23.6562 25.8632 23.5553 25.6446C23.4544 25.426 22.8322 25.0728 22.3446 24.5684C21.8569 24.0639 22.0755 24.6356 22.0755 24.6356Z" fill="#FFB882"/>
<path d="M22.4455 25.7959C22.5632 26.1658 22.8154 27.2253 22.9499 27.2589C23.0845 27.2925 22.8322 25.8295 22.8322 25.8295L22.4455 25.7959Z" fill="#FFB882"/>
<path d="M22.4959 24.8037C23.0004 25.0055 23.9253 24.9551 23.9757 25.0896C24.0262 25.2241 22.6977 25.3082 22.6977 25.3082L22.4959 24.8037Z" fill="#FFB882"/>
<path d="M22.8322 25.8127C23.0676 26.1322 23.6394 27.1075 23.7907 27.1243C23.9421 27.1411 23.2862 25.7622 23.2862 25.7622L22.8322 25.8127Z" fill="#FFB882"/>
<path d="M22.8658 25.5771C23.2022 25.762 24.1439 26.4347 24.3288 26.401C24.5138 26.3674 23.3199 25.3921 23.3199 25.3921L22.8658 25.5771Z" fill="#FFB882"/>
<path d="M21.3188 25.4424L21.6551 25.9132L23.3199 24.4166L22.8827 23.9121L21.3188 25.4424Z" fill="#EFD497"/>
<path d="M20.1585 12.5111C21.3524 14.529 20.8984 17.1691 20.8479 18.4303C20.7975 19.6915 22.2773 22.7688 23.1349 23.9459L21.2179 25.762C21.2179 25.762 18.6114 21.8271 18.1574 19.557C17.7874 17.6736 17.4007 16.1433 17.6529 14.6299C18.0901 12.1075 19.5363 11.4853 20.1585 12.5111Z" fill="#E24D6D"/>
<path d="M21.4533 21.104C21.7814 22.1856 22.281 23.2076 22.9331 24.1308L23.1349 23.9459C22.4623 23.0042 21.4029 20.9022 20.9993 19.4224C21.1076 19.9936 21.2594 20.5558 21.4533 21.104Z" fill="#BC2A57"/>
<path d="M20.9488 16.9502C20.8374 17.4066 20.8089 17.8794 20.8648 18.3459C20.8816 17.976 20.932 17.4883 20.9488 16.9502Z" fill="#BC2A57"/>
<path d="M18.7291 19.4391C18.2919 17.5389 18.0901 15.9413 18.3087 14.3943C18.4769 13.1835 18.8805 12.41 19.3345 12.04C18.6955 12.1073 17.9388 12.9481 17.6529 14.6297C17.367 16.3113 17.552 17.7406 17.922 19.624C18.376 21.8942 21.1338 25.8459 21.1338 25.8459L21.7728 25.2406C21.0161 24.1307 19.1327 21.2552 18.7291 19.4391Z" fill="#CC3A60"/>
<path d="M24.7492 11.8381C23.8916 10.4592 21.5206 10.5769 20.478 10.7115C19.9903 10.7619 19.3849 11.5523 19.3849 11.5523C20.3771 13.0489 21.8401 14.7977 24.1775 15.1172C25.1528 15.235 25.8591 13.6374 24.7492 11.8381Z" fill="#CC3A60"/>
<path d="M23.8412 14.0582L22.7818 13.7051C23.1854 15.084 23.0172 18.1613 23.0172 18.1613L24.4129 18.4135C24.4129 18.4135 24.497 15.6725 23.8412 14.0582Z" fill="#CC3A60"/>
<path d="M23.9925 13.9403L22.9331 13.5703C23.3703 14.9492 23.2694 17.9929 23.2694 17.9929L24.6651 18.2451C24.6651 18.2451 24.6988 15.5378 23.9925 13.9403Z" fill="#EFD497"/>
<path d="M24.3625 15.1342C24.2875 14.7228 24.1633 14.322 23.9925 13.9403L22.9331 13.5703C23.1349 14.2261 23.219 15.2519 23.2526 16.1432C23.4986 15.6916 23.8896 15.3362 24.3625 15.1342Z" fill="#DDB972"/>
<path d="M24.9174 11.2668C23.9253 9.50114 19.9567 11.0314 19.9567 11.0314C20.9152 12.6121 21.941 14.3778 24.2616 14.7141C25.2201 14.8654 25.9768 13.1502 24.9174 11.2668Z" fill="#EFD497"/>
<path d="M24.2616 14.63C23.3031 14.4282 22.6136 13.8396 22.7313 13.3183C22.849 12.797 23.7066 12.5112 24.6483 12.713C24.9166 12.7693 25.1766 12.8597 25.4219 12.982C25.39 12.3787 25.2172 11.7913 24.9174 11.2668C23.9252 9.50111 19.5699 10.9809 19.5699 10.9809C20.5284 12.5616 21.941 14.3777 24.2616 14.7141C24.3856 14.7369 24.5136 14.7253 24.6315 14.6804C24.5064 14.6813 24.3818 14.6643 24.2616 14.63Z" fill="#DDB972"/>
<path d="M24.867 13.8058C21.8905 12.7632 19.1159 10.6612 19.1159 10.6612C19.1159 10.6612 21.9746 9.26552 24.6315 10.2072C25.0688 11.5357 25.136 12.511 24.867 13.8058Z" fill="#E24D6D"/>
<path d="M24.7829 13.7052C22.0419 12.7467 20.0576 10.5943 20.0576 10.5943C21.4843 9.94815 23.1063 9.88182 24.5811 10.4093C24.9678 11.62 25.0351 12.5113 24.7829 13.7052Z" fill="#C63058"/>
<path d="M5.91537 9.65218L6.28533 5.83496L9.36265 6.84392L9.83349 9.73626L9.6317 10.6948C9.6317 10.6948 7.3111 10.7116 5.91537 9.65218Z" fill="#FFB882"/>
<path d="M20.8479 40.947H19.1832C19.1832 40.947 20.2594 40.0726 20.5284 40.2407C20.7975 40.4089 20.8479 40.947 20.8479 40.947Z" fill="#E5CB9C"/>
<path d="M25.5228 40.947H27.0194C27.0194 40.947 26.0609 40.0726 25.8086 40.2407C25.5564 40.4089 25.5228 40.947 25.5228 40.947Z" fill="#E5CB9C"/>
<path d="M13.2808 40.9467H15.0296C15.0296 40.9467 13.6843 40.1396 13.4321 40.3077C13.1799 40.4759 13.2808 40.9467 13.2808 40.9467Z" fill="#E5CB9C"/>
<path d="M2.33356 39.3832L3.1239 40.9471C3.1239 40.9471 3.2248 39.3832 2.97256 39.2318C2.72032 39.0805 2.33356 39.3832 2.33356 39.3832Z" fill="#E5CB9C"/>
<path d="M20.0072 34.893L18.0061 34.9771C18.0061 34.9771 16.2067 26.0142 16.8289 22.1465C16.8289 22.1465 18.5273 31.8829 20.0072 34.893Z" fill="#CE3A61"/>
<path d="M21.3692 24.7197C21.4228 24.6951 21.4643 24.6504 21.4848 24.5952C21.5053 24.54 21.5031 24.4789 21.4785 24.4254C21.454 24.3719 21.4092 24.3303 21.354 24.3098C21.2989 24.2893 21.2378 24.2916 21.1843 24.3161C21.1307 24.3384 21.0883 24.381 21.0662 24.4346C21.0441 24.4883 21.0443 24.5484 21.0666 24.602C21.0922 24.6567 21.138 24.6994 21.1944 24.7214C21.2507 24.7433 21.3133 24.7427 21.3692 24.7197Z" fill="#EFD497"/>
<path d="M20.9488 24.0302C20.9918 23.9985 21.0227 23.953 21.0364 23.9014C21.0502 23.8498 21.0459 23.795 21.0244 23.7461C21.0029 23.6972 20.9654 23.657 20.918 23.6323C20.8707 23.6075 20.8163 23.5996 20.7639 23.6098C20.7209 23.6416 20.69 23.687 20.6763 23.7386C20.6625 23.7903 20.6668 23.8451 20.6883 23.894C20.7098 23.9429 20.7473 23.983 20.7947 24.0078C20.842 24.0325 20.8964 24.0404 20.9488 24.0302Z" fill="#EFD497"/>
<path d="M28.8523 23.3908C28.8781 23.3768 28.9007 23.3578 28.919 23.3348C28.9372 23.3119 28.9507 23.2855 28.9585 23.2573C28.9664 23.2291 28.9684 23.1995 28.9646 23.1705C28.9608 23.1414 28.9512 23.1134 28.9364 23.0881C28.9262 23.0591 28.9095 23.0327 28.8876 23.0111C28.8656 22.9895 28.839 22.9732 28.8098 22.9635C28.7806 22.9537 28.7495 22.9508 28.719 22.9549C28.6885 22.9591 28.6593 22.9701 28.6337 22.9872C28.5937 23.0224 28.5668 23.0702 28.5574 23.1227C28.5481 23.1752 28.5568 23.2293 28.5822 23.2761C28.6076 23.323 28.6481 23.3599 28.6972 23.3807C28.7463 23.4016 28.801 23.4051 28.8523 23.3908Z" fill="#EFD497"/>
<path d="M28.3983 22.7184C28.4248 22.7052 28.4484 22.6868 28.4678 22.6644C28.4873 22.6421 28.5021 22.6161 28.5114 22.588C28.5208 22.5599 28.5245 22.5302 28.5224 22.5006C28.5203 22.4711 28.5124 22.4422 28.4992 22.4157C28.4859 22.3892 28.4676 22.3656 28.4452 22.3462C28.4228 22.3268 28.3969 22.312 28.3687 22.3026C28.3406 22.2932 28.311 22.2895 28.2814 22.2916C28.2519 22.2937 28.223 22.3016 28.1965 22.3148C28.1693 22.3273 28.145 22.3453 28.1251 22.3675C28.1051 22.3898 28.0899 22.4159 28.0805 22.4443C28.071 22.4727 28.0675 22.5027 28.0701 22.5325C28.0727 22.5623 28.0814 22.5912 28.0956 22.6175C28.1242 22.6693 28.1712 22.7084 28.2273 22.7271C28.2833 22.7458 28.3444 22.7427 28.3983 22.7184Z" fill="#EFD497"/>
<g style="mix-blend-mode:multiply" opacity="0.6">
<path d="M21.1675 14.2936C23.0845 14.0245 24.6652 13.3014 25.3546 12.4438V12.3934C25.3546 12.3765 25.3546 12.3765 25.3378 12.3597C25.3333 12.297 25.322 12.235 25.3042 12.1747C25.302 12.1747 25.2998 12.1743 25.2977 12.1735C25.2957 12.1726 25.2938 12.1714 25.2923 12.1698C25.2907 12.1683 25.2895 12.1664 25.2886 12.1644C25.2878 12.1623 25.2874 12.1601 25.2874 12.1579C25.2703 12.0835 25.2478 12.0104 25.2201 11.9393C25.2033 11.8889 25.1697 11.8216 25.1528 11.7543L25.1192 11.7039L25.0519 11.5526C25.0351 11.5357 25.0351 11.5021 25.0183 11.4853L24.9174 11.2835H24.9006C24.8365 10.9299 24.7466 10.5814 24.6315 10.2409C21.9746 9.29921 19.1159 10.6949 19.1159 10.6949L19.5699 11.0144L19.7045 11.2331C19.5195 11.418 19.385 11.5862 19.385 11.5862C19.1878 11.8059 19.0026 12.0361 18.83 12.2756L18.7291 12.3597C18.7123 12.3597 18.7123 12.3597 18.7123 12.3765L18.6114 12.4606H18.5946C18.5128 12.5426 18.4395 12.6328 18.376 12.7297L18.3424 12.7633L18.2583 12.8978V12.9315C18.1867 13.0437 18.1248 13.1618 18.0733 13.2846L18.0397 13.335C18.0276 13.3947 18.0048 13.4517 17.9724 13.5032V13.5537C17.9575 13.6178 17.9349 13.6799 17.9052 13.7386C17.8504 13.8289 17.8053 13.9247 17.7706 14.0245C17.7519 14.0551 17.7404 14.0896 17.737 14.1254C18.8584 14.4059 20.024 14.4631 21.1675 14.2936Z" fill="#843131"/>
</g>
<path d="M25.0855 9.46736C25.5732 9.38328 26.1954 8.71064 25.7582 7.26447C25.7582 7.26447 24.8333 6.33959 24.7492 6.60865C24.6651 6.87771 25.0855 9.46736 25.0855 9.46736Z" fill="#C6AA97"/>
<path d="M21.2011 9.75327C20.7173 9.6261 20.2924 9.33569 19.9982 8.93118C19.704 8.52668 19.5587 8.03294 19.5867 7.53356C20.088 7.04721 20.6679 6.64922 21.302 6.35645C21.0161 6.96182 21.2011 9.75327 21.2011 9.75327Z" fill="#AD8A73"/>
<path d="M20.8816 7.07948C20.6798 8.66018 21.1506 11.048 21.2684 11.3171C21.3861 11.5862 24.0094 12.6792 24.6315 12.5783C25.2537 12.4774 25.8087 11.6366 25.8759 11.4853C25.9432 11.3339 25.2369 8.52565 25.1024 7.01222C25.0519 6.50774 24.5138 5.85191 23.5385 5.70057C22.5632 5.54923 20.9993 6.22187 20.8816 7.07948Z" fill="#C6AA97"/>
<path d="M21.4869 11.334C21.3692 11.0313 20.9488 8.52574 21.1338 6.89459C21.1828 6.64542 21.3059 6.41684 21.4869 6.23877C21.1674 6.47419 20.7638 6.82733 20.7134 7.14683C20.5116 8.72753 21.0833 11.0986 21.1842 11.3845C21.2851 11.6703 24.0093 12.6793 24.6315 12.5784H24.6988C23.8075 12.4607 21.5878 11.5862 21.4869 11.334Z" fill="#AD8A73"/>
<path d="M21.2515 6.45741C21.2011 6.77691 21.4533 9.41702 21.5206 9.53473C21.5878 9.65244 24.5643 10.0392 25.0183 9.45065C25.1865 9.21523 24.9006 6.59194 24.8501 6.4406C24.7156 5.9193 23.6562 5.43164 23.3367 5.43164C22.6641 5.43164 21.3356 6.03701 21.2515 6.45741Z" fill="#FFB882"/>
<path d="M25.2032 7.58399C25.3378 7.3822 25.6236 7.60081 25.6405 7.90349C25.6573 8.20618 25.4555 8.55932 25.2201 8.45842L25.2032 7.58399Z" fill="#FFB882"/>
<path d="M20.7975 7.53373C20.4612 7.26468 19.7717 7.56736 19.8054 8.00457C19.839 8.44179 20.3435 8.91264 20.8648 8.76129L20.7975 7.53373Z" fill="#FFB882"/>
<path d="M20.6293 7.73537C20.4107 7.56722 19.9735 7.75219 19.9903 8.03806C20.0002 8.11691 20.0264 8.19284 20.0672 8.261C20.108 8.32917 20.1626 8.38807 20.2275 8.43396C20.2924 8.47984 20.3661 8.5117 20.444 8.5275C20.5219 8.5433 20.6022 8.5427 20.6798 8.52573L20.6293 7.73537Z" fill="#EA7B59"/>
<path d="M20.6461 8.02146C20.5116 7.90375 20.2089 8.02146 20.2257 8.22325C20.2338 8.27438 20.2521 8.32338 20.2795 8.36732C20.3069 8.41126 20.3428 8.44926 20.3852 8.47905C20.4275 8.50885 20.4754 8.52984 20.526 8.54078C20.5766 8.55173 20.6289 8.5524 20.6798 8.54275L20.6461 8.02146Z" fill="#FFB882"/>
<path d="M25.3042 7.78586C25.3714 7.68497 25.5228 7.78586 25.5396 7.95402C25.5564 8.12218 25.4387 8.29034 25.321 8.22307L25.3042 7.78586Z" fill="#EA7B59"/>
<path d="M23.8748 7.28125C24.1439 8.08842 24.7156 9.80364 24.5979 9.93817C24.4802 10.0727 23.5553 9.75319 23.5553 9.75319L23.8748 7.28125Z" fill="#EA7B59"/>
<path d="M23.7403 7.0293C24.0093 7.83646 24.5643 9.6694 24.4466 9.82074C24.3288 9.97208 23.404 9.63577 23.404 9.63577L23.7403 7.0293Z" fill="#FFB882"/>
<path d="M22.9836 8.57597C23.1043 8.57597 23.2022 8.36517 23.2022 8.10513C23.2022 7.84509 23.1043 7.63428 22.9836 7.63428C22.8628 7.63428 22.765 7.84509 22.765 8.10513C22.765 8.36517 22.8628 8.57597 22.9836 8.57597Z" fill="#473B33"/>
<path d="M24.5811 8.52568C24.7018 8.52568 24.7997 8.31487 24.7997 8.05483C24.7997 7.79479 24.7018 7.58398 24.5811 7.58398C24.4603 7.58398 24.3625 7.79479 24.3625 8.05483C24.3625 8.31487 24.4603 8.52568 24.5811 8.52568Z" fill="#473B33"/>
<path d="M23.5889 7.04591C23.7403 7.23088 23.5217 7.71855 23.4712 7.78581C23.4208 7.85308 22.3277 8.03805 22.2268 7.95397C22.1689 7.88923 22.1369 7.80541 22.1369 7.71855C22.1369 7.63168 22.1689 7.54787 22.2268 7.48312C22.3277 7.3486 23.488 6.91138 23.5889 7.04591Z" fill="#C6AA97"/>
<path d="M24.127 7.09645C23.9757 7.28142 24.0934 7.71864 24.127 7.76908C24.1607 7.81953 25.0519 7.95406 25.1528 7.86998C25.2055 7.81477 25.2389 7.74397 25.248 7.66818C25.2571 7.59239 25.2414 7.51569 25.2033 7.44958C25.136 7.33187 24.2111 6.97873 24.127 7.09645Z" fill="#C6AA97"/>
<path d="M22.765 10.0558L22.9163 10.0054C23.0508 10.3417 24.0261 10.7285 24.7324 10.3753V10.409C23.9589 10.8294 22.9331 10.5099 22.765 10.0558Z" fill="#AD8A73"/>
<g style="mix-blend-mode:multiply" opacity="0.6">
<path d="M24.9679 6.60876C24.929 6.53772 24.8839 6.4702 24.8333 6.40696C24.6652 5.90249 23.6562 5.43164 23.3367 5.43164C22.7145 5.43164 21.5206 5.95293 21.2852 6.37333C21.2852 6.35651 21.2852 6.35652 21.302 6.35652C20.6679 6.64929 20.088 7.04728 19.5867 7.53363C19.5491 8.01151 19.68 8.48748 19.9567 8.87891C21.1675 7.78587 22.8322 7.21413 23.8412 7.21413C24.8501 7.21413 25.5396 7.80269 25.9095 8.18946C25.9103 7.87494 25.8592 7.56245 25.7582 7.26458C25.5218 7.01533 25.2564 6.79517 24.9679 6.60876Z" fill="#843131"/>
</g>
<path d="M7.34474 12.6791C6.94115 11.0648 5.25956 9.82042 5.25956 9.82042C5.25956 9.82042 5.10821 9.66908 4.70463 9.92131C3.99836 10.3585 4.06563 10.7957 4.06563 10.7957C4.7719 10.5603 5.99946 11.872 6.3526 12.7464C6.70573 13.6208 7.42882 17.2194 5.4109 17.5558L5.54543 17.6903C8.01737 17.1185 7.7315 14.3103 7.34474 12.6791Z" fill="#CC364F"/>
<path d="M7.26065 12.6626C7.17246 12.3468 7.04833 12.0421 6.89069 11.7546C6.33577 11.2669 5.78085 11.0315 5.27637 11.1324C5.91944 11.6385 6.3895 12.3319 6.62164 13.1166C6.85707 14.0752 7.04204 15.4541 6.65527 16.5471C6.77203 16.5987 6.89765 16.6272 7.02523 16.6312C7.74831 15.5213 7.5297 13.8061 7.26065 12.6626Z" fill="#E23D69"/>
<path d="M11.0274 23.1219C11.0274 23.1219 11.4646 20.6332 12.6418 18.9516L11.3469 18.3462L8.67319 23.4919C9.47146 23.4803 10.2641 23.3557 11.0274 23.1219Z" fill="#D3953C"/>
<g style="mix-blend-mode:multiply" opacity="0.6">
<path d="M9.32902 12.7968C10.3043 12.6118 10.8593 11.8046 10.9602 10.678C10.7817 10.3984 10.5604 10.1488 10.3043 9.93805L10.0689 9.80353L9.83349 9.71945L9.36265 6.84392L6.28533 5.83496L5.91538 9.58492L5.62951 9.68581H5.61269L5.46135 9.76989L5.29319 9.83716C5.26806 9.80969 5.23634 9.7891 5.20102 9.77733C5.16571 9.76556 5.12798 9.763 5.0914 9.76989C4.92324 9.75308 4.63737 9.95487 4.48602 10.0726C5.15866 10.9302 6.20125 11.3506 6.9916 11.8046C7.04205 11.8719 7.19339 12.2587 7.24384 12.3595C7.96692 12.7463 8.69001 12.8977 9.32902 12.7968Z" fill="#843131"/>
</g>
<path d="M6.08353 3.61544C6.08353 5.51564 6.80661 8.5257 6.90751 8.76112C7.0084 8.99654 9.81667 9.08062 10.4725 8.9461C10.4725 8.9461 10.9602 2.79146 9.78304 2.13563C8.60592 1.47981 6.08353 2.11882 6.08353 3.61544Z" fill="#FFB882"/>
<path d="M5.96581 2.60625C6.82342 1.68137 7.51287 2.5558 7.05884 6.86069L6.43666 6.59163L5.83128 5.58267C5.83128 5.58267 5.66312 2.94257 5.96581 2.60625Z" fill="#682533"/>
<path d="M6.60481 5.90215C6.33575 5.07817 5.56222 5.09498 5.5454 5.66673C5.52858 6.23847 6.31893 7.23061 6.57117 7.1129C6.82341 6.99519 6.72252 6.18802 6.60481 5.90215Z" fill="#FFB882"/>
<path d="M7.9501 13.1333L7.32791 13.2006L7.46244 14.0918L8.08463 14.0245L7.9501 13.1333Z" fill="#FFCE6C"/>
<path d="M7.86601 13.3687L7.54651 13.4023L7.63059 13.8563L7.93327 13.8227L7.86601 13.3687Z" fill="#B72746"/>
<path d="M4.82234 18.8342C5.62951 18.1784 5.88174 17.2367 5.37727 16.749C4.87279 16.2613 3.81339 16.4127 2.9894 17.0685C2.16542 17.7243 1.64413 18.4979 2.14861 18.9855C2.65309 19.4732 4.01518 19.49 4.82234 18.8342Z" fill="#4B4256"/>
<path d="M3.00622 17.556C2.91066 17.4662 2.84592 17.3485 2.82124 17.2197C2.11497 17.8419 1.67776 18.5314 2.14861 18.9854C2.61945 19.4394 4.01518 19.4899 4.82234 18.8341C5.34364 18.4137 5.62951 17.8924 5.62951 17.4383C4.82234 18.0605 3.49388 18.0269 3.00622 17.556Z" fill="#36303F"/>
<path d="M12.4502 18.3353C13.1826 17.6231 13.2252 16.479 12.5454 15.7799C11.8655 15.0808 10.7207 15.0915 9.98831 15.8037C9.25592 16.5159 9.21332 17.66 9.89317 18.3591C10.573 19.0582 11.7179 19.0476 12.4502 18.3353Z" fill="#6D6B23"/>
<path d="M11.8346 15.42C11.6535 15.3728 11.4668 15.3502 11.2797 15.3527L11.0947 16.1935L10.8256 16.5299L12.1541 17.6565L12.3054 18.0433L12.4904 18.1442C12.6575 17.9727 12.784 17.7658 12.8603 17.5388C12.9368 17.3327 12.9708 17.1132 12.9603 16.8935C12.9498 16.6739 12.895 16.4586 12.7992 16.2607C12.7034 16.0628 12.5685 15.8863 12.4028 15.7418C12.237 15.5973 12.0437 15.4879 11.8346 15.42Z" fill="#89892F"/>
<g style="mix-blend-mode:multiply" opacity="0.51">
<path d="M11.9355 15.6055C11.4814 15.74 10.6911 16.1099 10.0353 17.9933C10.6101 17.1525 11.2452 16.3544 11.9355 15.6055Z" fill="#605E26"/>
</g>
<g style="mix-blend-mode:multiply" opacity="0.51">
<path d="M12.255 15.9082C11.8346 16.0932 11.0947 16.5808 10.3548 18.2961C11.0779 17.4889 11.6664 16.8331 12.255 15.9082Z" fill="#605E26"/>
</g>
<g style="mix-blend-mode:multiply" opacity="0.51">
<path d="M11.6664 15.3867C11.0779 15.5044 10.1362 15.8239 9.76624 17.7914C10.2539 16.6143 10.6575 16.0425 11.6664 15.3867Z" fill="#605E26"/>
</g>
<g style="mix-blend-mode:multiply" opacity="0.51">
<path d="M11.1451 15.4033C10.5397 15.5378 9.68214 15.8237 9.54761 17.3876C9.96801 16.4123 10.3043 15.9414 11.1451 15.4033Z" fill="#605E26"/>
</g>
<g style="mix-blend-mode:multiply" opacity="0.51">
<path d="M12.3222 15.874C12.3391 16.3449 12.2718 17.2193 10.7247 18.4805C11.3222 17.6532 11.8562 16.7819 12.3222 15.874Z" fill="#605E26"/>
</g>
<g style="mix-blend-mode:multiply" opacity="0.51">
<path d="M12.625 16.0425C12.709 16.6479 12.7258 17.64 11.0106 18.649C11.9523 17.7913 12.3391 17.2196 12.625 16.0425Z" fill="#605E26"/>
</g>
<g style="mix-blend-mode:multiply" opacity="0.51">
<path d="M12.7931 16.5469C12.8604 17.1691 12.894 18.0603 11.4478 18.7161C12.2382 18.0099 12.5577 17.5222 12.7931 16.5469Z" fill="#605E26"/>
</g>
<path d="M6.6889 24.2655L7.93328 24.215L8.28642 25.0895C8.28642 25.0895 10.792 19.9942 12.6249 18.4304L12.255 18.2622L12.1877 17.8418L8.67318 19.372L6.6889 24.2655Z" fill="#DDB773"/>
<path d="M10.2371 12.4105C9.74939 12.2087 8.52182 13.4867 7.10928 15.6728L8.33685 16.2613C8.33685 16.2613 10.7247 12.6291 10.2371 12.4105Z" fill="#FFAE43"/>
<path d="M10.1866 12.4437C9.71578 12.2419 8.58911 13.5199 7.22702 15.6387L8.26961 16.0759C8.26961 16.0759 10.6575 12.6455 10.1866 12.4437Z" fill="#FFD05A"/>
<path d="M8.57229 13.789C8.43777 14.2262 8.42095 14.5457 8.58911 14.6466C8.75727 14.7475 9.36265 14.243 9.79986 13.4695C9.96672 13.1785 10.0966 12.8678 10.1866 12.5446C9.88394 12.4101 9.31219 12.8809 8.57229 13.789Z" fill="#FFE576"/>
<path d="M8.7741 14.26C8.58912 14.1423 8.40415 14.1086 8.3537 14.1759C8.30325 14.2431 8.40415 14.3945 8.58912 14.5122C8.7741 14.6299 8.97589 14.6804 9.02634 14.5963C9.07679 14.5122 8.97589 14.3777 8.7741 14.26Z" fill="#FFAE43"/>
<path d="M9.19451 13.7048C9.04316 13.6207 8.89182 13.6039 8.84137 13.6544C8.79092 13.7048 8.89182 13.8225 9.04316 13.9066C9.19451 13.9907 9.34585 14.0243 9.37948 13.957C9.41311 13.8898 9.34585 13.7889 9.19451 13.7048Z" fill="#FFAE43"/>
<path d="M9.58124 13.2006C9.44672 13.1501 9.31219 13.1333 9.27856 13.1838C9.24493 13.2342 9.31219 13.3183 9.44672 13.3856C9.58125 13.4528 9.71577 13.4697 9.7494 13.4192C9.78304 13.3688 9.69896 13.2679 9.58124 13.2006Z" fill="#FFAE43"/>
<path d="M11.3301 13.5706C10.8761 13.3183 9.54762 14.3945 7.9501 16.2779L9.05996 16.9674C9.05996 16.9674 11.7673 13.8228 11.3301 13.5706Z" fill="#FFAE43"/>
<path d="M11.2797 13.6041C10.8424 13.3519 9.66532 14.2768 8.15189 16.2779L9.0095 16.8496C9.0095 16.8496 11.7169 13.8396 11.2797 13.6041Z" fill="#FFD05A"/>
<path d="M9.59806 14.6635C9.56443 14.8317 9.58124 14.9494 9.66532 15.0167C9.7494 15.0839 10.3884 14.8989 10.8088 14.3776C10.9618 14.1682 11.0915 13.9426 11.1956 13.705C10.9265 13.5705 10.3548 13.9404 9.59806 14.6635Z" fill="#FFE576"/>
<path d="M9.79985 15.0506C9.61487 14.916 9.41308 14.8488 9.34581 14.916C9.27855 14.9833 9.39626 15.1346 9.58123 15.2692C9.76621 15.4037 9.95119 15.4541 10.0185 15.4037C10.0857 15.3533 9.98482 15.1683 9.79985 15.0506Z" fill="#FFAE43"/>
<path d="M10.2539 14.5623C10.1193 14.4614 9.96799 14.4278 9.91754 14.4783C9.86709 14.5287 9.95117 14.6464 10.0857 14.7305C10.2202 14.8146 10.3716 14.8818 10.422 14.8314C10.4725 14.7809 10.3884 14.6632 10.2539 14.5623Z" fill="#FFAE43"/>
<path d="M10.6575 14.1761C10.5398 14.092 10.422 14.0584 10.3716 14.092C10.3211 14.1256 10.4052 14.2265 10.5229 14.3106C10.6406 14.3947 10.7584 14.4283 10.792 14.3947C10.8256 14.361 10.7752 14.2433 10.6575 14.1761Z" fill="#FFAE43"/>
<path d="M10.792 14.8652L9.91758 15.2856L9.16086 16.2273L10.0185 17.1018L10.977 15.8406L11.1451 15.1511L10.792 14.8652Z" fill="#F2E5AF"/>
<path d="M10.7752 14.9492L9.95121 15.3528L9.24493 16.2272L9.86713 16.7822L10.6911 15.79L10.9433 15.1006L10.7752 14.9492Z" fill="#FFF7D2"/>
<path d="M10.7247 14.8317L11.1619 15.2353L11.3469 15.0335L10.8761 14.6636L10.7247 14.8317Z" fill="#FFF7D2"/>
<path d="M2.51855 20.1957C3.74612 21.1542 6.68891 24.2651 6.68891 24.2651C6.68891 24.2651 10.2539 19.1363 12.1877 17.8414L7.34474 14.1924C6.1508 16.3112 4.55329 18.0096 2.51855 20.1957Z" fill="#EFD497"/>
<path d="M8.89181 19.2039C7.02523 19.2039 5.39408 18.7163 4.53647 17.9932C3.91428 18.6994 3.24164 19.4057 2.51855 20.1961C3.74612 21.1546 6.68891 24.2655 6.68891 24.2655C6.68891 24.2655 8.97588 20.9864 10.8761 19.0021C10.2239 19.141 9.55859 19.2086 8.89181 19.2039Z" fill="#E8C580"/>
<path d="M2.35036 18.7331C2.63623 19.5235 4.94002 20.1793 8.26958 20.1456L8.94222 19.0694C8.94222 19.0694 6.15077 16.8833 5.04091 16.7993C3.93106 16.7152 2.16539 18.2286 2.35036 18.7331Z" fill="#FFB882"/>
<path d="M3.66206 18.0604C3.56116 17.8081 3.98156 17.2868 4.53648 16.8496C3.47708 17.1187 2.19907 18.2958 2.35041 18.733C2.63628 19.5233 4.94007 20.1792 8.26963 20.1455C8.26963 20.1455 3.9143 18.7666 3.66206 18.0604Z" fill="#FF9566"/>
<path d="M12.255 18.2286L12.1877 17.8418L12.1205 17.8922L12.1373 18.3295L12.4231 18.5985L12.6249 18.4304L12.255 18.2286Z" fill="#E8C580"/>
<path d="M6.41983 6.02042C6.25167 5.53276 5.78082 5.54957 5.78082 5.88589C5.78082 6.22221 6.25167 6.81077 6.38619 6.74351C6.52072 6.67624 6.48709 6.18858 6.41983 6.02042Z" fill="#EA7B59"/>
<path d="M6.53756 6.32279C6.41985 5.93602 6.0499 5.95284 6.0499 6.22189C6.0499 6.49095 6.40303 6.92816 6.52075 6.87771C6.63846 6.82726 6.58801 6.45732 6.53756 6.32279Z" fill="#FFB882"/>
<path d="M7.34473 14.1255L7.26065 14.3273L12.1205 17.8923L12.1877 17.8418L7.34473 14.1255Z" fill="#FFE6B3"/>
<path d="M10.2203 4.70848C10.2371 4.47306 10.1362 4.28809 10.0017 4.28809C9.86713 4.28809 9.74942 4.45624 9.74942 4.69167C9.74942 4.92709 9.85032 5.09525 9.98485 5.11207C10.1194 5.12888 10.2203 4.92709 10.2203 4.70848Z" fill="#4F3131"/>
<path d="M9.17767 3.96873C9.37946 3.73331 10.0521 6.1548 9.98484 6.39023C9.91757 6.62565 9.19448 6.39023 9.19448 6.39023C9.19448 6.39023 9.14404 4.00236 9.17767 3.96873Z" fill="#FFB882"/>
<path d="M9.27857 4.03613C9.53081 4.57424 10.0185 6.17176 9.95121 6.37355C9.88394 6.57534 9.44673 6.40718 9.24493 6.37355V6.44082C9.24493 6.44082 10.0689 6.59216 10.1025 6.47445C10.1362 6.35673 9.49718 4.08658 9.27857 4.03613Z" fill="#EA7B59"/>
<path d="M8.65636 4.6245C8.65636 4.40589 8.55547 4.2041 8.42094 4.2041C8.28641 4.2041 8.1687 4.38908 8.1687 4.60768C8.1687 4.82629 8.2696 5.02808 8.40412 5.02808C8.53865 5.02808 8.63955 4.85992 8.65636 4.6245Z" fill="#4F3131"/>
<path d="M8.87498 3.81706C8.67318 4.08611 7.66423 3.9684 7.58015 3.80024C7.49607 3.63208 7.4288 3.46392 7.6306 3.37984C7.83239 3.29576 8.75727 3.11079 8.89179 3.24532C9.02632 3.37984 8.97587 3.68253 8.87498 3.81706Z" fill="#843240"/>
<path d="M9.54761 3.81727C9.7494 4.10314 10.4557 3.96862 10.5061 3.80046C10.5566 3.6323 10.5566 3.44732 10.3884 3.36324C10.2202 3.27916 9.53079 3.09419 9.44671 3.22871C9.36263 3.36324 9.44671 3.68274 9.54761 3.81727Z" fill="#843240"/>
<path d="M10.0689 6.92817L8.48822 6.89453C8.48822 6.89453 8.5723 7.80259 8.84136 7.85304C9.11041 7.90349 9.74942 7.85304 9.86713 7.7017C9.98484 7.55036 10.0689 6.92817 10.0689 6.92817Z" fill="#542A29"/>
<path d="M9.90076 7.44925C9.94703 7.28386 9.98075 7.11522 10.0016 6.94477L8.55548 6.91113C8.56852 7.09376 8.60236 7.2743 8.65637 7.44925H9.90076Z" fill="#FFF7E9"/>
<path d="M30.248 25.2747C30.5917 25.2747 30.8702 24.9961 30.8702 24.6525C30.8702 24.3088 30.5917 24.0303 30.248 24.0303C29.9044 24.0303 29.6259 24.3088 29.6259 24.6525C29.6259 24.9961 29.9044 25.2747 30.248 25.2747Z" fill="#AD8F7F"/>
<path d="M9.3122 19.0019L8.30324 20.3976C8.03028 20.1048 7.70525 19.8653 7.34473 19.6913L7.9501 18.3965C7.9501 18.3965 8.69 18.9346 9.3122 19.0019Z" fill="#FFB882"/>
<path d="M8.69 18.9347L9.41308 19.0188C9.71577 19.0356 10.6575 18.5816 10.7415 18.6657C10.7916 18.7228 10.822 18.7946 10.828 18.8703C10.8341 18.946 10.8155 19.0217 10.7752 19.0861C10.7079 19.1533 9.76622 19.4728 9.79985 19.6074C9.83348 19.7419 10.3211 20.0109 10.338 20.1287C10.3548 20.2464 9.54761 20.8349 9.29537 20.9358C9.04313 21.0367 8.35368 20.6331 8.11825 20.0782C8.03417 19.8764 8.69 18.9347 8.69 18.9347Z" fill="#FFB882"/>
<path d="M9.8503 19.7251C10.0857 19.9101 10.422 20.1791 10.5229 20.1959C10.6238 20.2127 11.1788 20.4145 11.2124 20.4818C11.246 20.5491 11.2965 20.8013 11.1451 20.8013C10.8371 20.7445 10.5375 20.6484 10.2539 20.5154C10.1194 20.4313 9.68214 20.1623 9.66532 20.1287C9.6485 20.095 9.71577 19.6242 9.8503 19.7251Z" fill="#FFB882"/>
<path d="M9.48035 20.1626C9.66936 20.3559 9.87164 20.5357 10.0857 20.7007C10.1866 20.7512 10.7247 20.9866 10.7584 21.0539C10.792 21.1211 10.792 21.3902 10.6575 21.3734C10.3557 21.2831 10.0673 21.153 9.79986 20.9866C9.61197 20.8456 9.4323 20.6941 9.26174 20.5326C9.24493 20.4821 9.36264 20.0449 9.48035 20.1626Z" fill="#FFB882"/>
<path d="M8.77407 20.2631C8.97586 20.4817 9.2281 20.818 9.329 20.8685C9.42989 20.9189 9.93437 21.2048 9.95119 21.2721C9.968 21.3393 9.95119 21.6084 9.83347 21.5916C9.54301 21.464 9.26682 21.3062 9.00949 21.1207C8.9086 21.003 8.52183 20.6667 8.50501 20.5994C8.4882 20.5322 8.65636 20.1286 8.77407 20.2631Z" fill="#FFB882"/>
</svg>
