<svg width="200" height="232" viewBox="0 0 200 232" fill="none" xmlns="http://www.w3.org/2000/svg">
<path d="M80.1664 93.8046L80.9673 94.3051L90.8784 90.2005C90.8784 90.2005 89.9774 87.898 84.6714 88.3985C79.3655 88.8991 80.1664 93.8046 80.1664 93.8046Z" fill="#FFB882"/>
<path d="M87.7748 90.4007C89.6769 92.6032 87.975 96.0069 88.7759 96.2072C89.5768 96.4074 91.0785 96.5075 91.3788 95.4063C91.6792 94.3051 92.2798 90.6009 90.1775 89.5998C88.0752 88.5987 87.7748 90.4007 87.7748 90.4007Z" fill="#FFB882"/>
<path d="M84.2709 91.7022C86.2732 93.9046 84.4711 97.4086 85.3722 97.6088C86.2732 97.809 87.5746 97.809 87.8749 96.7077C88.1753 95.6065 88.7759 91.8023 86.6736 90.8012C84.5713 89.8001 84.2709 91.7022 84.2709 91.7022Z" fill="#FFB882"/>
<path d="M81.0674 92.7033C82.8694 94.9058 80.9673 98.2095 81.7682 98.5098C82.5691 98.8102 83.9706 98.9102 84.3711 97.9091C84.7715 96.908 85.5724 93.2039 83.5702 92.0026C81.568 90.8012 81.0674 92.7033 81.0674 92.7033Z" fill="#FFB882"/>
<path d="M158.854 143.36H156.351V167.577H158.854V143.36Z" fill="#C6A87F"/>
<path d="M137.33 143.36H134.827V168.458H137.33V143.36Z" fill="#E0CCAF"/>
<path d="M162.558 143.66C162.572 143.047 162.462 142.437 162.237 141.867C162.011 141.297 161.674 140.777 161.245 140.339C160.816 139.901 160.304 139.552 159.739 139.315C159.174 139.077 158.566 138.955 157.953 138.955H136.629C135.399 138.981 134.228 139.488 133.367 140.368C132.506 141.247 132.024 142.429 132.024 143.66H162.558Z" fill="#E0CCAF"/>
<path d="M157.553 143.66C157.553 141.057 155.751 138.955 153.648 138.955H135.929C133.726 138.955 132.024 141.057 132.024 143.66H157.553Z" fill="#C6A87F"/>
<path d="M126.261 161.261L125.553 161.969L177.499 213.915L178.207 213.207L126.261 161.261Z" fill="#4C3E48"/>
<path d="M126.318 213.938L125.617 213.238L177.475 161.28L178.176 162.081L126.318 213.938Z" fill="#4C3E48"/>
<path d="M152.347 150.968H151.346V224.43H152.347V150.968Z" fill="#4C3E48"/>
<path d="M152.547 229.155C134.026 229.155 118.91 210.735 118.91 188.009C118.91 165.284 134.026 146.964 152.547 146.964C171.068 146.964 186.285 165.384 186.285 188.009C186.285 210.635 171.168 229.155 152.547 229.155ZM152.547 151.669C136.329 151.669 123.114 167.987 123.114 188.009C123.114 208.032 136.329 224.45 152.547 224.45C168.765 224.45 182.08 208.132 182.08 188.009C182.08 167.887 168.865 151.669 152.547 151.669Z" fill="#4C3E48"/>
<path d="M152.547 231.558C132.925 231.558 116.907 212.036 116.907 188.01C116.907 163.983 132.925 144.561 152.547 144.561C172.169 144.561 188.187 164.083 188.187 188.01C188.187 211.936 172.269 231.558 152.547 231.558ZM152.547 149.567C135.328 149.567 121.412 166.786 121.412 188.01C121.412 209.233 135.328 226.553 152.547 226.553C169.766 226.553 183.782 209.233 183.782 188.01C183.782 166.786 169.766 149.567 152.547 149.567Z" fill="#966B8D"/>
<path d="M181.079 203.527C176.274 217.042 165.261 226.552 152.547 226.552C135.328 226.552 121.412 209.233 121.412 188.009C121.412 172.692 128.62 159.478 139.132 153.271C139.613 151.136 140.215 149.03 140.934 146.964C127.019 152.87 116.907 168.988 116.907 188.009C116.907 212.036 132.925 231.558 152.547 231.558C168.565 231.558 182.08 218.644 186.585 200.924C184.872 202.03 183.021 202.906 181.079 203.527Z" fill="#7C5274"/>
<path d="M55.0384 107.82L33.3142 112.025L46.0284 229.055H46.7292C46.7292 229.055 56.5401 128.043 55.0384 107.82Z" fill="#4C3E48"/>
<path d="M40.4221 113.026L30.2107 114.327L46.0283 229.055H46.7291C46.7403 228.653 46.7737 228.252 46.8292 227.854L40.4221 113.026Z" fill="#3A2C37"/>
<path d="M20.0995 114.528C20.0995 114.528 18.4977 169.889 12.8914 229.055H13.5922L36.3176 143.26L46.3287 139.055L47.4299 109.322L20.0995 114.528Z" fill="#4C3E48"/>
<path d="M23.8036 128.443L55.0384 119.133L55.2387 115.629L24.7046 119.333L23.8036 128.443Z" fill="#3A2C37"/>
<path d="M45.0272 118.432L43.3253 135.551L41.8236 136.052L41.7235 119.233L45.0272 118.432Z" fill="#3A2C37"/>
<path d="M43.025 121.836L37.0183 123.337L36.5177 127.542L42.5244 126.04L43.025 121.836Z" fill="#3A2C37"/>
<path d="M13.392 229.055C22.9026 172.692 26.3064 120.534 26.8069 111.825L15.8948 113.226C15.8948 113.226 18.4977 169.889 12.8914 229.055H13.392Z" fill="#3A2C37"/>
<path d="M34.5156 52.1581C47.7303 60.2671 50.5334 85.1949 58.6424 86.2962C64.3488 86.9969 62.4467 102.714 57.7414 103.615C48.5312 105.618 40.9227 96.6077 36.0172 82.2917C31.1118 67.9757 34.5156 52.1581 34.5156 52.1581Z" fill="#4FB2AF"/>
<path d="M43.6257 68.2761C42.0239 63.4707 36.1173 53.1592 34.5156 52.1581C34.5156 52.1581 31.1118 67.8756 36.0172 82.2917C40.9227 96.7078 48.5312 105.618 57.7414 103.615C60.7448 103.015 62.6469 96.3073 62.0462 91.4018C53.3365 92.5031 48.331 82.0915 43.6257 68.2761Z" fill="#3B9496"/>
<path d="M64.4489 95.7066C65.7503 90.6009 63.8482 86.2961 60.144 85.8957C56.4399 85.4952 52.4355 89.4997 51.134 94.6054C49.8326 99.7111 51.7347 104.016 55.3387 104.316C58.9427 104.617 63.0473 100.812 64.4489 95.7066Z" fill="#B6FFFF"/>
<path d="M58.342 98.1093C54.9383 97.809 53.0361 93.8045 53.9371 89.0993C52.6131 90.7088 51.6565 92.5879 51.134 94.6054C49.8326 99.611 51.7347 104.016 55.3387 104.316C58.9427 104.617 63.0473 100.812 64.4489 95.7066C64.4489 95.5064 64.549 95.2061 64.549 95.0059C62.747 97.0081 60.5445 98.3096 58.342 98.1093Z" fill="#95E8E6"/>
<path d="M56.2397 101.313C59.243 102.414 77.9639 94.1048 80.1664 93.8045L84.7715 88.3984C84.7715 88.3984 70.3554 83.8934 58.9427 87.1971C54.4377 88.4985 52.3354 100.011 56.2397 101.313Z" fill="#FFB882"/>
<path d="M57.0406 97.4085C55.639 96.7077 55.0384 94.305 55.1385 91.602C53.2363 96.0069 52.8359 102.214 55.4388 103.015C58.0417 103.816 77.9639 94.1048 80.1664 93.8045L82.1686 91.4018C76.3621 92.9035 59.6435 98.8101 57.0406 97.4085Z" fill="#FF9566"/>
<path d="M6.28411 80.4897C12.0569 94.0674 14.987 108.684 14.8937 123.437C14.8937 123.437 45.9283 120.734 56.5401 116.63C56.5401 116.63 45.1274 54.4606 32.5133 51.1569C23.8036 48.8544 13.8926 50.2559 10.3887 52.158C4.88255 55.1614 0.277418 66.2738 6.28411 80.4897Z" fill="#4FB2AF"/>
<path d="M30.5111 121.736C26.0061 86.3963 14.9938 59.4663 8.18623 64.3717C1.37864 69.2772 0.177306 70.3785 4.88255 81.2906C10.6251 94.6572 14.012 108.916 14.8937 123.438C14.8937 123.438 22.0016 122.837 30.5111 121.736Z" fill="#3B9496"/>
<g opacity="0.53">
<g style="mix-blend-mode:overlay">
<path d="M45.9282 74.0826L5.98372 79.6888L6.28405 80.4897C7.08495 82.2918 7.78573 84.0937 8.3864 85.8957L47.9305 80.2895C47.2297 78.1872 46.629 76.0848 45.9282 74.0826Z" fill="#B6FFFF"/>
</g>
<g style="mix-blend-mode:overlay">
<path d="M48.9316 83.6932L9.38752 88.6988C9.78796 90.1004 10.2885 91.502 10.5889 92.9035L49.6324 86.3963C49.4321 85.4953 49.1318 84.5942 48.9316 83.6932Z" fill="#B6FFFF"/>
</g>
</g>
<path d="M133.826 137.753C130.022 127.442 130.623 119.333 128.52 113.226C127.119 109.322 124.516 106.919 123.815 107.32C123.114 107.72 120.211 121.035 125.417 137.353C126.818 141.958 134.927 140.456 133.826 137.753Z" fill="#BA3243"/>
<path d="M131.123 133.749C130.602 133.984 130.147 134.343 129.797 134.794C129.446 135.245 129.212 135.775 129.113 136.337C129.014 136.9 129.055 137.478 129.231 138.022C129.406 138.565 129.712 139.057 130.122 139.455C131.423 140.757 154.749 138.054 156.451 138.054C158.153 138.054 158.754 136.652 156.852 136.352C154.95 136.052 133.326 132.748 131.123 133.749Z" fill="#FFB882"/>
<path d="M131.824 138.054C131.344 137.405 131.076 136.624 131.058 135.817C131.041 135.011 131.273 134.218 131.724 133.549L131.123 133.749C128.32 135.05 128.02 138.554 129.421 139.856C130.823 141.157 154.75 138.054 156.451 138.054C158.153 138.054 157.953 137.653 157.953 137.153C153.348 137.453 133.025 139.255 131.824 138.054Z" fill="#FF9566"/>
<path d="M143.337 186.608H106.996L107.497 189.011H143.337V186.608Z" fill="#4C3E48"/>
<path d="M124.516 168.788L94.3823 94.3051C94.2261 93.9281 93.9319 93.625 93.5598 93.4575C93.1877 93.2901 92.7657 93.271 92.38 93.4041L78.4645 98.6099C75.8616 99.7111 74.5602 97.809 76.6625 96.1071L90.6781 90.1004C91.2634 89.8498 91.8935 89.7206 92.5302 89.7206C93.1669 89.7206 93.797 89.8498 94.3823 90.1004C94.9782 90.3209 95.5193 90.6676 95.9686 91.1169C96.4179 91.5662 96.7647 92.1074 96.9851 92.7033L127.319 167.687L124.516 168.788Z" fill="#706A77"/>
<path d="M100.289 100.412H63.0473L90.4779 168.187H127.619L100.289 100.412Z" fill="#4A4256"/>
<path d="M87.9751 148.866C84.9718 126.941 88.8761 107.52 96.885 100.412H63.0473L90.4779 168.187H92.4801C90.3732 161.903 88.8649 155.434 87.9751 148.866Z" fill="#5B5366"/>
<path d="M89.0763 168.788L59.143 94.7055C58.9174 94.2788 58.5685 93.9299 58.1418 93.7043C57.9075 93.6352 57.6611 93.6172 57.4193 93.6518C57.1774 93.6863 56.9458 93.7726 56.7403 93.9046L43.2252 101.913C41.5233 102.614 40.1218 99.3106 41.8237 98.6098L54.4377 91.3017C55.0999 90.922 55.8363 90.6897 56.5965 90.6206C57.3567 90.5515 58.1228 90.6472 58.8426 90.9012C59.5698 91.1254 60.2362 91.5124 60.7913 92.0329C61.3465 92.5533 61.7756 93.1934 62.0462 93.9046L91.7793 167.687L89.0763 168.788Z" fill="#4A4256"/>
<path d="M144.839 187.309C144.839 185.407 143.737 183.805 142.436 183.805C141.134 183.805 140.033 185.407 140.033 187.309C140.033 189.211 141.134 190.813 142.436 190.813C143.737 190.813 144.839 189.311 144.839 187.309Z" fill="#4C3E48"/>
<path d="M141.535 166.085H87.1742L89.677 170.991H141.535V166.085Z" fill="#3A2E37"/>
<path d="M124.316 107.62C122.413 106.118 109.199 102.614 106.696 105.217C104.193 107.82 100.389 137.153 102.091 153.771L134.026 143.26C120.411 139.355 126.118 109.122 124.316 107.62Z" fill="#CE4D53"/>
<path d="M114.805 149.266C113.904 146.463 117.608 142.759 123.214 140.957C125.151 140.308 127.178 139.97 129.221 139.956C121.913 130.946 125.817 108.921 124.316 107.62C122.814 106.319 109.199 102.614 106.696 105.217C104.193 107.82 100.389 137.153 102.091 153.771L114.905 149.567C114.905 149.467 114.805 149.366 114.805 149.266Z" fill="#AD313A"/>
<path d="M157.152 163.682L153.748 166.285L182.681 217.542L183.782 216.942L157.152 163.682Z" fill="#705469"/>
<path d="M140.634 167.086L137.33 169.689L166.162 221.046L167.364 220.346L140.634 167.086Z" fill="#705469"/>
<path d="M148.543 178.699L171.869 215.941L172.569 215.64L156.652 171.191L148.543 178.699Z" fill="#FF9566"/>
<path d="M155.35 172.192L180.578 210.635L181.079 210.134L163.059 163.582L155.35 172.192Z" fill="#FF9566"/>
<path d="M151.246 219.244C146.54 203.527 136.529 164.884 136.529 164.884L115.105 164.483C104.894 164.483 100.489 154.973 102.892 149.266C102.892 149.266 113.704 143.46 129.922 142.759C146.14 142.058 154.95 145.162 161.557 149.967C168.164 154.773 182.08 201.324 182.08 201.324L151.246 219.244Z" fill="#FFC84D"/>
<path d="M145.539 161.08C138.131 148.766 128.32 146.764 122.614 146.063C119.61 145.662 122.514 144.061 130.022 142.759H129.922C113.704 143.46 102.892 149.266 102.892 149.266C100.489 154.973 103.392 166.185 113.604 166.185H135.027C135.027 166.185 146.54 203.527 151.246 219.244L164.36 211.636C158.353 195.318 150.945 170.09 145.539 161.08Z" fill="#FFA63B"/>
<path d="M134.727 163.482L86.2732 160.879L87.2743 166.185L135.128 167.987L134.727 163.482Z" fill="#4A4256"/>
<path d="M82.9662 161.208L82.2583 161.916L134.204 213.862L134.912 213.154L82.9662 161.208Z" fill="#4C3E48"/>
<path d="M82.9695 213.938L82.2687 213.238C82.8694 212.737 134.227 161.28 134.227 161.28L134.927 162.081L82.9695 213.938Z" fill="#4C3E48"/>
<path d="M109.099 150.968H108.098V224.43H109.099V150.968Z" fill="#4C3E48"/>
<path d="M111.101 187.309C111.101 185.407 110 183.805 108.698 183.805C107.397 183.805 106.195 185.407 106.195 187.309C106.195 189.211 107.297 190.813 108.698 190.813C110.1 190.813 111.101 189.311 111.101 187.309Z" fill="#4C3E48"/>
<path d="M111.401 229.055C92.9807 229.055 77.8639 210.635 77.8639 188.009C77.8639 165.384 92.9807 146.964 111.401 146.964C129.822 146.964 144.939 165.384 144.939 188.009C144.939 210.635 129.922 229.055 111.401 229.055ZM111.401 151.769C95.2833 151.769 82.0686 167.987 82.0686 188.009C82.0686 208.032 95.2833 224.35 111.401 224.35C127.519 224.35 140.734 208.032 140.734 188.009C140.734 167.987 127.619 151.769 111.401 151.769Z" fill="#4C3E48"/>
<path d="M111.401 231.558C91.7794 231.558 75.8616 212.036 75.8616 188.01C75.8616 163.983 91.7794 144.561 111.401 144.561C131.023 144.561 146.941 164.083 146.941 188.01C146.941 211.936 131.023 231.558 111.401 231.558ZM111.401 149.567C94.2822 149.567 80.3667 166.786 80.3667 188.01C80.3667 209.233 94.2822 226.553 111.401 226.553C128.52 226.553 142.536 209.233 142.536 188.01C142.536 166.786 128.52 149.567 111.401 149.567Z" fill="#966B8D"/>
<path d="M113.604 111.224C101.39 112.425 95.6837 109.522 93.9818 103.115C92.2799 96.7078 93.9818 88.899 100.189 82.6921C99.3229 81.3872 98.8122 79.8792 98.7068 78.3168C98.6015 76.7544 98.9052 75.1915 99.588 73.7822C101.991 68.9769 108.698 68.9769 108.698 68.9769C108.698 68.9769 107.997 61.3684 118.009 59.8667C128.02 58.365 130.422 63.0703 130.422 63.0703C130.422 63.0703 134.927 60.4674 138.031 65.7733C138.914 67.2297 139.303 68.9324 139.141 70.6279C138.979 72.3235 138.273 73.9213 137.13 75.1837C137.13 75.1837 139.633 75.8845 140.133 81.691C140.634 87.4975 131.824 94.2049 131.824 94.2049C131.824 94.2049 136.129 105.017 126.218 109.622C116.307 114.227 113.604 111.224 113.604 111.224Z" fill="#C6AA97"/>
<path d="M139.332 85.4953C132.525 86.2962 129.521 79.7889 123.515 74.3829C117.508 68.9769 110.7 67.4752 111.601 62.4696C110.648 63.2567 109.89 64.2537 109.386 65.3826C108.883 66.5115 108.647 67.7417 108.698 68.9769C108.698 68.9769 101.991 68.9769 99.588 73.7822C98.9052 75.1915 98.6015 76.7544 98.7068 78.3168C98.8122 79.8793 99.3229 81.3872 100.189 82.6921C93.9818 88.899 92.2799 96.7078 93.9818 103.115C95.6837 109.522 101.39 112.425 113.604 111.224C113.604 111.224 116.407 114.127 126.218 109.622C136.029 105.117 131.824 94.205 131.824 94.205C131.824 94.205 137.23 90.1004 139.332 85.4953Z" fill="#AD8A73"/>
<path d="M118.509 86.5964C110.5 95.206 101.79 99.0103 100.089 110.123C103.192 111.424 107.597 111.825 113.604 111.224C113.604 111.224 116.407 114.127 126.218 109.622H126.318C126.618 101.113 122.614 82.0914 118.509 86.5964Z" fill="#8E6D5B"/>
<path d="M106.696 105.417C104.494 114.528 109.9 133.949 111.101 135.351C112.302 136.752 127.019 137.253 133.226 133.148C133.226 133.148 131.524 111.324 125.016 107.62C118.509 103.916 107.297 103.215 106.696 105.417Z" fill="#CE4D53"/>
<path d="M114.905 134.65C113.704 133.349 107.397 117.431 106.396 106.919C105.094 116.53 109.299 134.55 110.4 135.851C111.501 137.153 120.712 136.953 127.519 135.351C121.713 136.052 115.706 135.551 114.905 134.65Z" fill="#BA3243"/>
<path d="M109.299 104.316C109.678 105.114 110.112 105.883 110.6 106.619C113.704 111.024 118.409 113.326 121.312 111.724C124.215 110.123 123.415 108.921 123.214 106.719C118.409 104.416 112.202 103.615 109.299 104.316Z" fill="#AD313A"/>
<path d="M105.094 136.152C105.395 125.64 109.099 117.431 109.499 111.124C109.699 107.119 107.997 104.617 107.197 104.917C104.694 105.818 97.9863 118.632 96.7849 135.351C96.3845 140.056 105.094 139.055 105.094 136.152Z" fill="#CE4D53"/>
<path d="M98.9874 133.248C99.8884 120.034 104.293 109.322 107.297 104.817H107.197C104.694 105.718 97.9863 118.532 96.7849 135.251C96.3845 139.956 105.094 138.955 105.094 136.052C105.121 136.052 105.146 136.041 105.165 136.022C105.184 136.003 105.194 135.978 105.194 135.951C102.591 136.953 98.6871 136.452 98.9874 133.248Z" fill="#BA3243"/>
<path d="M101.39 131.446C98.3867 132.347 97.9863 135.351 99.1876 136.852C100.389 138.354 124.115 139.255 125.717 139.556C127.319 139.856 128.22 138.554 126.318 137.954C124.416 137.353 103.593 130.846 101.39 131.446Z" fill="#FFB882"/>
<path d="M101.09 135.351C100.713 134.814 100.495 134.182 100.459 133.527C100.424 132.873 100.573 132.221 100.89 131.647C98.2866 132.748 97.6859 135.851 98.6871 137.253C99.6882 138.655 124.115 139.255 125.717 139.556C127.319 139.856 127.519 139.255 127.419 138.755C123.815 138.354 102.191 136.752 101.09 135.351Z" fill="#FF9566"/>
<path d="M111.501 104.016C111.501 96.5075 114.004 87.3973 114.004 87.3973L122.514 93.6043C122.514 93.6043 121.112 101.213 121.512 105.518C121.813 107.92 121.312 110.323 120.111 110.423C118.91 110.523 111.501 106.719 111.501 104.016Z" fill="#FFB882"/>
<path d="M8.88693 53.2594C14.0927 50.4563 16.3953 65.3729 16.2952 71.0792C16.095 78.2873 16.5955 81.691 26.006 87.1972C31.0116 90.2005 21.6011 101.213 16.7957 100.312C11.9904 99.4108 5.48313 93.0037 2.27956 81.7912C-2.42568 64.572 3.68113 55.9624 8.88693 53.2594Z" fill="#4FB2AF"/>
<path d="M22.2017 93.9046C17.8573 93.0436 13.8254 91.0269 10.5308 88.067C7.23615 85.1071 4.80068 81.3136 3.48088 77.0859C1.17831 69.6776 1.57876 63.5708 3.18054 58.8655C0.277306 63.771 -1.42459 71.5797 1.57875 82.4919C4.5821 93.4041 11.0894 99.3106 16.7957 100.312C19.8992 100.912 25.105 96.3073 26.8069 92.3028C25.5374 93.4134 23.8864 93.9877 22.2017 93.9046Z" fill="#3B9496"/>
<path d="M28.5088 93.0036C28.5238 91.8564 28.3038 90.7182 27.8625 89.6591C27.4211 88.6001 26.7677 87.6425 25.9425 86.8454C25.1173 86.0483 24.1376 85.4284 23.0639 85.0241C21.9902 84.6197 20.8451 84.4394 19.699 84.4941C17.3353 84.5721 15.0945 85.5662 13.4504 87.2663C11.8064 88.9664 10.8879 91.2392 10.8892 93.6043C10.8742 94.7515 11.0942 95.8897 11.5355 96.9488C11.9769 98.0078 12.6303 98.9654 13.4555 99.7625C14.2808 100.56 15.2604 101.179 16.3341 101.584C17.4078 101.988 18.553 102.168 19.699 102.114C22.0627 102.036 24.3035 101.042 25.9476 99.3416C27.5916 97.6414 28.5101 95.3686 28.5088 93.0036Z" fill="#B6FFFF"/>
<path d="M21.501 96.007C19.2997 96.0655 17.1597 95.2782 15.521 93.8071C13.8824 92.336 12.8697 90.293 12.6912 88.0982C11.5202 89.6952 10.889 91.624 10.8892 93.6043C10.8742 94.7516 11.0942 95.8897 11.5355 96.9488C11.9769 98.0079 12.6303 98.9654 13.4555 99.7625C14.2808 100.56 15.2604 101.179 16.3341 101.584C17.4079 101.988 18.553 102.169 19.699 102.114C22.0627 102.036 24.3035 101.042 25.9476 99.3416C27.5916 97.6415 28.5101 95.3687 28.5088 93.0037V92.3029C27.6952 93.4083 26.6424 94.3156 25.4289 94.957C24.2154 95.5984 22.8727 95.9574 21.501 96.007Z" fill="#95E8E6"/>
<path d="M15.6945 98.6099C18.2974 100.612 32.5133 101.613 43.4254 95.9069L48.6312 91.2016C48.6312 91.2016 33.7146 86.6966 21.8013 85.9958C9.88806 85.2951 12.5911 96.007 15.6945 98.6099Z" fill="#FFB882"/>
<path d="M15.9948 95.5064C14.6591 94.1324 13.8752 92.3152 13.7924 90.4007C12.5911 93.8045 13.6923 98.2094 15.4943 99.611C17.2963 101.013 32.7135 102.414 43.5255 96.7077L46.1284 94.0047C34.9159 98.0092 18.1973 97.4085 15.9948 95.5064Z" fill="#FF9566"/>
<path d="M196.296 226.452C196.296 223.849 194.794 221.647 192.992 221.647C191.19 221.647 189.688 223.849 189.688 226.452C189.688 229.055 191.19 231.258 192.992 231.258C194.794 231.258 196.296 229.055 196.296 226.452Z" fill="#4C3E48"/>
<path d="M169.966 226.452C169.966 223.849 168.465 221.647 166.663 221.647C164.861 221.647 163.359 223.849 163.359 226.452C163.359 229.055 164.861 231.258 166.663 231.258C168.465 231.258 169.966 229.055 169.966 226.452Z" fill="#4C3E48"/>
<path d="M179.877 213.037L188.287 208.733C188.287 208.733 181.079 208.532 179.677 209.033C178.276 209.533 179.877 213.037 179.877 213.037Z" fill="#FFF8D7"/>
<path d="M171.368 217.743L178.576 213.938C178.576 213.938 172.369 213.238 171.268 213.738C170.167 214.239 171.368 217.743 171.368 217.743Z" fill="#FFF8D7"/>
<path d="M165.562 219.244L198.899 213.037L200 216.541L166.262 221.146L165.562 219.244Z" fill="#705469"/>
<path d="M178.776 219.445L200 216.541L198.899 213.037L177.975 217.142L178.776 219.445Z" fill="#966B8D"/>
<path d="M45.1273 231.458H55.1385C55.1385 231.458 48.8315 227.453 46.629 228.054C44.4266 228.655 45.1273 231.458 45.1273 231.458Z" fill="#F2E8BB"/>
<path d="M14.8937 231.458H5.28299C5.28299 231.458 11.3898 227.453 13.4921 228.054C15.5945 228.655 14.8937 231.458 14.8937 231.458Z" fill="#F2E8BB"/>
<path d="M43.5255 96.7077L44.4265 97.1082L53.7369 91.9024C53.7369 91.9024 52.6357 89.6999 47.3298 90.8012C46.6592 90.8714 46.0129 91.0912 45.4385 91.4445C44.8642 91.7977 44.3765 92.2755 44.0114 92.8423C43.6463 93.4092 43.4131 94.0508 43.329 94.7198C43.2449 95.3888 43.3121 96.0681 43.5255 96.7077Z" fill="#FFB882"/>
<path d="M50.6335 92.403C52.936 94.3051 51.6346 97.9091 52.4355 98.0093C53.2364 98.1094 54.738 98.0092 54.8381 96.908C54.9383 95.8068 55.1385 92.1027 52.936 91.3018C50.7336 90.5009 50.6335 92.403 50.6335 92.403Z" fill="#FFB882"/>
<path d="M47.4299 94.1049C49.6324 96.007 48.3309 99.7111 49.2319 99.8112C50.1329 99.9113 51.4344 99.8112 51.6346 98.71C51.8348 97.6087 51.9349 93.7044 49.7325 92.9035C47.53 92.1026 47.4299 94.1049 47.4299 94.1049Z" fill="#FFB882"/>
<path d="M44.3265 95.5064C46.4288 97.5086 44.9272 101.012 45.7281 101.213C46.5289 101.413 48.0306 101.413 48.2308 100.312C48.4311 99.2105 48.8315 95.4063 46.7292 94.5053C44.6268 93.6043 44.3265 95.5064 44.3265 95.5064Z" fill="#FFB882"/>
<path d="M167.764 226.452C167.764 224.851 166.863 223.649 165.862 223.649C164.861 223.649 163.86 224.851 163.86 226.452C163.86 228.054 164.761 229.256 165.862 229.256C166.963 229.256 167.764 228.054 167.764 226.452Z" fill="#B2AA87"/>
<path d="M194.193 226.452C194.193 224.851 193.292 223.649 192.191 223.649C191.09 223.649 190.289 224.851 190.289 226.452C190.289 228.054 191.19 229.256 192.191 229.256C193.192 229.256 194.193 228.054 194.193 226.452Z" fill="#B2AA87"/>
<path d="M131.123 164.784H92.3801L91.8795 169.088H130.623L131.123 164.784Z" fill="#966B8D"/>
<path d="M141.735 196.319C138.732 213.538 126.218 226.553 111.401 226.553C94.2822 226.553 80.3667 209.233 80.3667 188.01C80.3667 166.786 94.2822 149.567 111.401 149.567C114.657 149.555 117.886 150.167 120.912 151.369C121.5 149.833 122.168 148.329 122.914 146.864C119.266 145.344 115.353 144.561 111.401 144.561C91.7794 144.561 75.8616 164.083 75.8616 188.01C75.8616 211.936 91.7794 231.558 111.401 231.558C131.023 231.558 145.039 214.239 146.741 192.114C145.346 193.812 143.649 195.238 141.735 196.319Z" fill="#7C5274"/>
<path d="M115.906 143.36H113.403V167.577H115.906V143.36Z" fill="#E0CCAF"/>
<path d="M115.906 143.36H113.403V154.272L115.906 151.068V143.36Z" fill="#C6A87F"/>
<path d="M94.3823 143.36H91.8795V168.458H94.3823V143.36Z" fill="#E0CCAF"/>
<path d="M94.3823 143.36H91.8795V158.477L94.3823 153.972V143.36Z" fill="#C6A87F"/>
<path d="M127.019 166.285H92.2799L91.8795 168.488H126.618L127.019 166.285Z" fill="#E0CCAF"/>
<path d="M118.409 166.285L116.607 168.488H126.618L127.019 166.285H118.409Z" fill="#C6A87F"/>
<path d="M119.61 143.66C119.611 142.429 119.129 141.247 118.268 140.368C117.407 139.488 116.236 138.981 115.005 138.955H93.6815C92.4336 138.955 91.2368 139.45 90.3544 140.333C89.472 141.215 88.9762 142.412 88.9762 143.66H119.61Z" fill="#C6A87F"/>
<path d="M115.406 143.66H119.61C119.611 142.429 119.129 141.247 118.268 140.368C117.407 139.488 116.236 138.981 115.005 138.955H111.501C112.589 139.181 113.567 139.77 114.276 140.625C114.986 141.479 115.384 142.55 115.406 143.66Z" fill="#E0CCAF"/>
<path d="M109.499 187.309C109.499 186.308 108.999 185.507 108.298 185.507C107.597 185.507 106.996 186.308 106.996 187.309C106.996 188.31 107.597 189.111 108.298 189.111C108.999 189.111 109.499 188.31 109.499 187.309Z" fill="#C6A87F"/>
<path d="M113.103 141.157C112.903 140.657 112.402 140.457 112.202 140.557C112.002 140.657 111.902 141.257 112.102 141.658C112.302 142.058 112.803 142.359 113.003 142.158C113.203 141.958 113.303 141.558 113.103 141.157Z" fill="#4C3E48"/>
<path d="M92.5802 141.257C92.38 140.857 91.8795 140.657 91.6792 140.757C91.479 140.857 91.3789 141.358 91.5791 141.858C91.7793 142.359 92.2799 142.459 92.4801 142.359C92.6803 142.259 92.7805 141.758 92.5802 141.257Z" fill="#4C3E48"/>
<g style="mix-blend-mode:multiply" opacity="0.6">
<path d="M124.416 118.832C125.576 118.319 126.603 117.547 127.419 116.575C128.234 115.603 128.817 114.458 129.121 113.226C128.02 110.623 126.618 108.521 125.016 107.62L123.214 106.719L121.613 106.018C121.613 105.818 121.512 105.718 121.512 105.518C121.112 101.213 122.514 93.6043 122.514 93.6043L114.004 87.3973C114.004 87.3973 111.501 96.5075 111.501 104.016H109.399C108.664 104.068 107.948 104.273 107.297 104.617H107.197C106.396 104.817 105.294 106.218 104.093 108.421C110 116.93 118.609 121.335 124.416 118.832Z" fill="#843131"/>
</g>
<path d="M128.02 106.819C120.211 105.818 111.902 102.915 112.803 91.6021C113.704 80.2895 120.411 73.9825 127.019 73.9825C133.626 73.9825 136.629 80.5898 134.827 92.7033C133.326 102.915 128.02 106.819 128.02 106.819Z" fill="#FFB882"/>
<path d="M130.723 88.2984C131.223 83.393 131.023 79.3885 126.318 78.7878C121.613 78.1872 120.511 82.1916 120.011 87.0971C119.51 92.0025 119.71 96.007 124.416 96.5076C129.121 97.0081 130.222 93.1038 130.723 88.2984Z" fill="#FFF8D7"/>
<path d="M138.431 88.9992C138.932 84.6944 138.932 81.1904 135.928 80.8901C132.925 80.5898 132.124 83.9936 131.724 88.2984C131.323 92.6032 131.223 96.1071 134.227 96.4074C137.23 96.7077 137.931 93.304 138.431 88.9992Z" fill="#FFF8D7"/>
<path d="M117.608 93.9045C114.405 89.1993 123.315 76.1848 118.209 72.5808C113.103 68.9768 110.1 78.7877 111.501 85.5953C112.903 92.4029 117.608 93.9045 117.608 93.9045Z" fill="#AD8A73"/>
<path d="M137.831 88.9992C138.231 85.3951 138.231 82.3917 136.029 82.1915C133.826 81.9913 133.125 84.7944 132.725 88.3985C132.324 92.0025 132.324 95.0058 134.627 95.206C136.93 95.4063 137.43 92.6032 137.831 88.9992Z" fill="#FF9566"/>
<path d="M129.922 88.1983C130.322 83.9936 130.222 80.5899 126.818 80.2895C123.415 79.9892 122.614 83.1928 122.113 87.2973C121.613 91.4019 121.813 94.8057 125.217 95.2061C128.62 95.6066 129.421 92.3029 129.922 88.1983Z" fill="#FF9566"/>
<path d="M132.087 88.0121L130.297 87.8018L130.161 88.9651L131.95 89.1754L132.087 88.0121Z" fill="#FFF8D7"/>
<path d="M120.612 85.3951L109.9 85.9958L110 86.7967L120.411 86.5965L120.612 85.3951Z" fill="#FFF8D7"/>
<path d="M113.704 92.3028C111.501 91.2016 108.097 88.0981 109.699 85.8957C111.301 83.6932 114.204 85.1949 114.304 87.998C114.25 89.4496 114.049 90.8918 113.704 92.3028Z" fill="#FFB882"/>
<path d="M112.903 90.701C111.601 90.1003 109.699 88.2983 110.6 86.9969C111.501 85.6954 113.203 86.5964 113.303 88.1982C113.236 89.0417 113.102 89.8786 112.903 90.701Z" fill="#EA7B59"/>
<path d="M113.103 91.2016C112.102 90.7011 110.6 89.2995 111.301 88.2984C112.002 87.2973 113.303 88.0982 113.303 89.2995C113.323 89.9397 113.255 90.5795 113.103 91.2016Z" fill="#FFB882"/>
<path d="M82.7693 89.8C85.6726 93.1037 81.8683 96.4074 82.7693 96.8078C83.6703 97.2083 85.3722 97.7089 85.9729 96.5075C86.5736 95.3062 88.0753 91.0014 85.8728 89.2995C83.6703 87.5976 82.7693 89.8 82.7693 89.8Z" fill="#FFB882"/>
<path d="M31.9126 140.857L35.2163 142.859L32.8136 156.675L37.4188 143.76L42.124 143.26L46.3287 137.553C40.2219 142.859 37.0183 142.058 31.9126 140.857Z" fill="#3A2C37"/>
<path d="M42.4244 122.136L38.6201 123.137L38.3198 125.84L42.124 124.839L42.4244 122.136Z" fill="#C6A87F"/>
<path d="M26.0061 57.1637C29.4099 56.563 30.9115 53.5597 31.6123 50.9568C23.1028 48.9546 13.7924 50.256 10.3887 52.1581L9.8881 52.4585C17.3965 57.1637 22.1017 57.7643 26.0061 57.1637Z" fill="#B6FFFF"/>
<path d="M30.9114 0C28.3085 1.50167 26.4064 2.40269 20.5999 3.20358C5.58315 5.30593 -1.02422 11.9133 1.57868 15.9178C-3.32678 20.8232 4.88237 36.3405 13.0915 47.1525L29.6099 39.9445C36.0171 27.831 32.1127 2.80312 30.9114 0Z" fill="#934631"/>
<path d="M22.402 16.1179C7.98594 8.00883 2.78014 18.1201 1.07824 13.4149C0.979469 13.8437 0.973022 14.2886 1.05932 14.7201C1.14562 15.1516 1.3227 15.5599 1.5788 15.9177C-3.32667 20.8232 4.88248 36.3404 13.0916 47.1525L29.61 39.9445C33.3142 32.9367 33.5144 21.624 32.8136 12.7141C32.6134 15.7175 25.9059 18.1201 22.402 16.1179Z" fill="#7C3423"/>
<path d="M12.491 51.3572C12.1906 39.8444 8.88695 25.8288 9.98817 21.7242C11.0894 17.6197 27.2074 28.5318 27.2074 28.5318L29.4098 50.5564C29.289 51.8147 28.7144 52.9861 27.7934 53.8519C26.8723 54.7177 25.6676 55.2188 24.4042 55.2616C19.1984 55.4618 12.491 51.3572 12.491 51.3572Z" fill="#FFB882"/>
<g style="mix-blend-mode:multiply" opacity="0.6">
<path d="M40.9227 58.2649C39.2265 55.8131 37.046 53.7347 34.5155 52.1581C33.9143 51.7058 33.2359 51.3666 32.5133 51.157L31.6123 50.9568H30.5111L29.51 50.7566H29.4099L27.8081 34.6386C22.5022 31.2348 16.2952 29.0323 10.4888 29.0323H10.0883C10.7891 35.2393 12.2908 43.949 12.491 51.5575H11.9904L11.2897 51.8578H11.0894L10.3887 52.1581C9.81698 52.467 9.27999 52.8362 8.78687 53.2594C7.01782 54.2204 5.50677 55.5941 4.38196 57.2638C10.4888 63.0703 19.0984 67.0747 27.0072 67.0747C34.916 67.0747 39.5211 63.5709 40.9227 58.2649Z" fill="#843131"/>
</g>
<path d="M9.68779 15.1168C6.68444 19.7219 13.3919 43.0479 14.2929 44.6497C15.1939 46.2515 24.5043 49.4551 31.7123 49.4551C33.5143 49.4551 33.9148 21.0233 29.0093 13.6151C25.5054 8.30917 11.69 12.0133 9.68779 15.1168Z" fill="#FFB882"/>
<path d="M6.2841 15.8176L8.28633 30.3337L12.6912 37.742H16.3954C15.8948 17.4194 11.0895 10.2113 6.2841 15.8176Z" fill="#7C3423"/>
<path d="M12.8914 39.6442C7.88579 36.7409 5.88355 33.7376 7.48534 31.3349C9.08712 28.9322 11.8902 30.1336 12.9915 32.9367C14.0927 35.7399 12.8914 39.6442 12.8914 39.6442Z" fill="#FFB882"/>
<path d="M11.7901 37.6419C8.78679 35.8399 7.68556 34.1381 8.58657 32.7365C9.48757 31.3349 11.2896 32.0357 11.8903 33.6375C12.4909 35.2392 11.7901 37.6419 11.7901 37.6419Z" fill="#EA7B59"/>
<path d="M12.0905 37.8421C9.98816 36.6408 9.08715 35.3393 9.78793 34.3382C10.4887 33.3371 11.6901 33.8377 12.1906 35.039C12.3953 35.9668 12.3608 36.9313 12.0905 37.8421Z" fill="#FFB882"/>
<path d="M129.221 88.1983C129.621 84.4941 129.521 81.3907 126.418 81.0904C123.314 80.79 122.614 83.6933 122.213 87.3974C121.813 91.1015 121.913 94.1049 125.016 94.5053C128.12 94.9058 128.821 91.8023 129.221 88.1983Z" fill="#FFB882"/>
<path d="M137.13 88.899C137.53 85.5953 137.53 82.8923 135.628 82.6921C133.726 82.4919 133.226 85.1949 132.925 88.4986C132.625 91.8023 132.525 94.4052 134.327 94.6054C136.129 94.8056 136.729 92.2027 137.13 88.899Z" fill="#FFB882"/>
<path d="M161.657 165.484C161.657 165.484 163.559 178.199 171.368 207.531L176.073 204.728L161.657 165.484Z" fill="#FFA63B"/>
<path d="M20.8003 25.6285C20.8003 24.4272 21.2007 23.426 21.8014 23.3259C22.4021 23.2258 23.0027 24.0267 23.1028 25.2281C23.203 26.4294 22.7024 27.6308 22.1017 27.7309C21.5011 27.831 20.9004 26.9299 20.8003 25.6285Z" fill="#563C37"/>
<path d="M28.4087 25.3282C28.4087 24.3271 28.9093 23.4261 29.4099 23.4261C29.9104 23.4261 30.411 24.4272 30.411 25.5285C30.411 26.6297 30.0105 27.5307 29.4099 27.4306C28.8092 27.3305 28.4087 26.5296 28.4087 25.3282Z" fill="#563C37"/>
<path d="M22.5021 17.5195C21.3345 17.5989 20.199 17.9364 19.1776 18.5077C18.1562 19.079 17.2743 19.8698 16.5955 20.8232L17.7969 23.4261C18.3172 22.4567 19.0442 21.6134 19.9265 20.956C20.8088 20.2986 21.8248 19.8431 22.9026 19.6218L22.5021 17.5195Z" fill="#934631"/>
<path d="M27.2074 19.9222C29.1095 19.4217 31.5121 21.3238 32.0127 21.9245L32.313 19.1213C31.6424 18.449 30.8172 17.9514 29.9096 17.6722C29.002 17.3929 28.0398 17.3405 27.1072 17.5195L27.2074 19.9222Z" fill="#934631"/>
<path d="M30.2107 36.4406L22.6022 37.1413C22.6022 37.1413 23.4031 43.949 26.6067 43.5485C29.8103 43.1481 30.2107 36.4406 30.2107 36.4406Z" fill="#491D2E"/>
<path d="M25.7057 44.2494C25.7057 43.949 26.2062 44.2493 26.8069 44.1492C27.4075 44.0491 27.9081 43.7488 28.0082 44.0491C28.1083 44.3495 27.5077 44.6498 26.907 44.7499C26.3063 44.85 25.8058 44.5497 25.7057 44.2494Z" fill="#EF8F6F"/>
<path d="M26.5066 24.327L29.9104 33.8376C28.2524 34.9219 26.2774 35.4156 24.3042 35.2392L25.4054 24.5273L26.5066 24.327Z" fill="#EA7B59"/>
<path d="M26.2063 24.0268L28.8092 33.5374C27.349 34.365 25.6787 34.7478 24.0038 34.6386L24.9048 23.9267L26.2063 24.0268Z" fill="#FFB882"/>
<path d="M29.3097 39.7443C27.7291 40.6534 25.9264 41.1041 24.1039 41.0457C23.5829 39.8621 23.213 38.6176 23.0027 37.3416L29.8103 36.7409C29.7294 37.7545 29.5619 38.7593 29.3097 39.7443Z" fill="#FFF7E9"/>
<path d="M126.418 88.4986C126.418 87.6977 126.118 87.097 125.717 86.9969C125.317 86.8968 125.016 87.5975 125.016 88.3984C125.016 89.1993 125.317 89.8 125.617 89.9001C125.917 90.0002 126.318 89.2995 126.418 88.4986Z" fill="#56302D"/>
<path d="M135.328 89.1993C135.328 88.3984 135.128 87.7978 134.727 87.7978C134.327 87.7978 134.026 88.3984 134.026 89.0992C134.026 89.8 134.227 90.6009 134.627 90.6009C135.028 90.6009 135.328 90.0002 135.328 89.1993Z" fill="#56302D"/>
<path d="M122.914 97.809C122.814 99.5109 123.715 102.514 126.018 102.614C128.32 102.714 129.121 99.0103 129.121 99.0103L122.914 97.809Z" fill="#56302D"/>
<path d="M127.519 100.412C127.769 99.9676 127.97 99.4977 128.12 99.0104L123.214 98.1093C123.19 98.5523 123.258 98.9955 123.415 99.4108L127.519 100.412Z" fill="#FFF8D7"/>
<path d="M131.023 94.4052C132.525 96.4074 133.526 98.5098 129.521 98.0092C125.517 97.5086 131.023 94.4052 131.023 94.4052Z" fill="#EA7B59"/>
<path d="M130.523 94.1049C131.924 96.1071 133.025 98.3096 129.021 97.809C125.016 97.3085 130.523 94.1049 130.523 94.1049Z" fill="#FFB882"/>
<path d="M120.812 78.2872L121.012 80.3895C121.97 79.3216 123.228 78.5683 124.622 78.2289C126.015 77.8894 127.479 77.9795 128.821 78.4874L129.521 75.7844C129.521 75.7844 124.115 74.2828 120.812 78.2872Z" fill="#AD8A73"/>
<path d="M140.434 80.4897L139.633 82.592C139.032 80.8901 136.629 79.2884 133.326 80.2895V77.4864C133.326 77.4864 138.632 76.3851 140.434 80.4897Z" fill="#AD8A73"/>
<path d="M154.549 135.951C156.151 135.351 156.051 135.351 156.451 135.451C156.852 135.551 158.454 135.651 158.654 136.252C158.854 136.852 158.153 139.556 157.453 139.355C156.752 139.155 155.35 137.353 153.648 136.953C151.946 136.552 154.549 135.951 154.549 135.951Z" fill="#FFB882"/>
<path d="M157.553 135.751C158.654 135.851 162.058 135.952 162.258 136.352C162.458 136.752 157.753 136.953 157.753 136.953L157.553 135.751Z" fill="#FFB882"/>
<path d="M155.55 135.651C156.351 135.151 159.655 133.849 159.955 134.149C160.256 134.45 156.351 136.452 156.351 136.452L155.55 135.651Z" fill="#FFB882"/>
<path d="M157.753 136.953C158.754 137.453 161.958 138.554 162.158 139.055C162.358 139.556 157.753 138.354 157.753 138.354V136.953Z" fill="#FFB882"/>
<path d="M156.952 137.253C157.653 138.154 160.055 140.657 160.055 141.157C160.055 141.658 156.552 138.755 156.552 138.755L156.952 137.253Z" fill="#FFB882"/>
<path d="M124.716 137.253C126.518 137.353 126.418 137.353 126.718 137.653C127.019 137.954 128.42 138.855 128.32 139.355C128.22 139.856 126.118 142.058 125.617 141.558C125.117 141.057 124.716 138.855 123.415 137.653C122.113 136.452 124.716 137.253 124.716 137.253Z" fill="#FFB882"/>
<path d="M127.519 138.454C128.52 139.155 131.524 140.757 131.524 141.157C131.524 141.558 127.119 139.656 127.119 139.656L127.519 138.454Z" fill="#FFB882"/>
<path d="M125.717 137.453C126.818 137.353 130.422 137.753 130.522 138.154C130.623 138.554 126.118 138.554 126.118 138.554L125.717 137.453Z" fill="#FFB882"/>
<path d="M127.119 139.656C127.819 140.557 130.122 143.059 130.022 143.56C129.922 144.061 126.318 140.857 126.318 140.857L127.119 139.656Z" fill="#FFB882"/>
<path d="M126.218 139.556C126.418 140.657 127.319 143.96 127.019 144.461C126.718 144.962 125.116 140.657 125.116 140.657L126.218 139.556Z" fill="#FFB882"/>
</svg>
