<svg width="268" height="214" viewBox="0 0 268 214" fill="none" xmlns="http://www.w3.org/2000/svg">
<path d="M88.4 134.324C89.6 132.924 89.5 133.024 89.9 132.924C90.3 132.824 91.7001 132.024 92.0001 132.324C92.3001 132.624 92.5 134.624 91.9 134.824C90.5134 135.069 89.1439 135.403 87.8 135.824C86.5 136.224 88.4 134.324 88.4 134.324Z" fill="#FFB882"/>
<path d="M90.9001 132.624C91.9001 132.124 93.3002 131.724 93.6002 131.924C93.9002 132.124 91.0002 133.324 91.0002 133.324L90.9001 132.624Z" fill="#FFB882"/>
<path d="M89.2 133.524C89.7 132.624 91.0999 130.824 91.3999 130.924C91.6999 131.024 90.0999 133.724 90.0999 133.724L89.2 133.524Z" fill="#FFB882"/>
<path d="M91 133.324C92 133.124 93.1 132.724 93.3 133.024C93.5 133.324 91.3 134.124 91.3 134.124L91 133.324Z" fill="#FFB882"/>
<path d="M91 134.024C91.8 134.424 93 133.724 93.1 134.224C93.2 134.724 91 135.024 91 135.024V134.024Z" fill="#FFB882"/>
<path d="M96.5 119.824L131.2 84.0238C131.371 84.2583 131.474 84.5349 131.5 84.8238C129.9 87.5238 123.9 100.224 115.8 107.724C110.201 112.957 103.649 117.064 96.5 119.824Z" fill="#88A8A5"/>
<path d="M19.5 212.224H4C4 212.224 13.2 206.524 15.9 207.724C18.6 208.924 19.5 212.224 19.5 212.224Z" fill="#D3B688"/>
<path d="M241.8 159.524L245.8 211.624H246.9L254.5 153.524L241.8 159.524Z" fill="#FFB882"/>
<path d="M248.6 198.524L254.5 153.524L241.8 159.524L244.9 199.224L248.6 198.524Z" fill="#FF9566"/>
<path d="M227.2 148.124L240.5 211.624H241.2L244.4 140.824L227.2 148.124Z" fill="#FFB882"/>
<path d="M241.8 200.124L244.4 140.824L227.2 148.124L238.2 200.824L241.8 200.124Z" fill="#FF9566"/>
<path d="M237.2 55.7238C224.2 58.2238 216.7 52.6238 215.7 46.5238C215.7 46.5238 208.8 40.8238 214.2 30.7238C214.2 30.7238 203.4 23.0238 213 11.4238C222.6 -0.176234 231.8 6.12376 231.8 6.12376C231.8 6.12376 238.9 -5.17623 253.5 2.92377C268.1 11.0238 261.3 29.2238 261.3 29.2238C261.3 29.2238 266.8 35.5238 263.7 41.4238C261.647 45.092 258.501 48.0284 254.7 49.8238C254.7 49.8238 252.9 55.7238 248.4 57.0238C241.2 59.1238 237.2 55.7238 237.2 55.7238Z" fill="#C6AA97"/>
<path d="M262.6 16.4238C254.1 22.9238 247.6 10.3238 237.5 12.5238C221.4 16.0238 224.3 30.5238 211.7 28.1238C212.39 29.1176 213.234 29.9953 214.2 30.7238C208.8 40.8238 215.7 46.5238 215.7 46.5238C216.7 52.6238 224.2 58.2238 237.2 55.7238C237.2 55.7238 241.2 59.1238 248.4 57.0238C252.9 55.7238 254.7 49.8238 254.7 49.8238C258.501 48.0285 261.647 45.092 263.7 41.4238C266.8 35.5238 261.3 29.2238 261.3 29.2238C262.7 25.1112 263.144 20.7338 262.6 16.4238Z" fill="#B29580"/>
<path d="M232.8 9.02383C232.991 6.59647 233.935 4.28928 235.5 2.42383C234.035 3.40203 232.778 4.65933 231.8 6.12383C230.993 5.60472 230.118 5.20082 229.2 4.92383C230.634 6.06533 231.854 7.45378 232.8 9.02383Z" fill="#B29580"/>
<path d="M237.2 55.7238C237.2 55.7238 241.2 59.1238 248.4 57.0238C251.7 56.1238 253.5 52.7238 254.3 50.9238C249 40.2238 244.9 30.0238 235.7 30.0238C226.5 30.0238 219.5 40.0238 219.3 52.6238C222.9 55.6238 229 57.3238 237.2 55.7238Z" fill="#8E725E"/>
<path d="M229.8 51.3238C221.3 50.6238 210.7 68.6238 211.2 81.6238C211.4 85.2238 221.5 86.6238 221.5 81.6238C221.6 74.5238 233.5 51.6238 229.8 51.3238Z" fill="#FCC054"/>
<path d="M229 55.2238C222.9 54.7238 215.1 77.3238 215 78.3238C214.9 79.3238 213.2 81.1238 211.2 81.3238V81.6238C211.4 85.2238 221.5 86.6238 221.5 81.6238C221.6 74.5238 232.7 55.5238 229 55.2238Z" fill="#FFA33E"/>
<path d="M222.1 79.8238C221.9 76.8238 218.9 74.6237 215.5 74.9237C212.1 75.2237 209.4 77.7237 209.6 80.7237C209.8 83.7237 212.8 85.8237 216.2 85.5237C219.6 85.2237 222.3 82.7238 222.1 79.8238Z" fill="#ED4A53"/>
<path d="M222.1 79.8237C222.021 79.0225 221.753 78.2513 221.318 77.5735C220.884 76.8956 220.295 76.3303 219.6 75.9237C219.3 78.4237 216.9 80.5237 213.8 80.7237C212.328 80.8707 210.848 80.5185 209.6 79.7237V80.7237C209.8 83.6237 212.8 85.8237 216.2 85.5237C219.6 85.2237 222.3 82.7237 222.1 79.8237Z" fill="#CE2C3C"/>
<path d="M219.8 192.324C231.1 191.124 265 186.024 265 186.024C265 186.024 273.2 99.7237 258.8 90.6237C244.4 81.5237 219 99.3237 219 99.3237C219 99.3237 210.9 120.624 219.8 192.324Z" fill="#8E516A"/>
<path d="M264 177.424C222.2 190.324 212.5 141.524 218 102.924C216.2 111.624 213 136.924 219.8 192.324C231.1 191.124 265 186.024 265 186.024C265 186.024 265.3 182.524 265.7 177.024L264 177.424Z" fill="#844964"/>
<path d="M258.8 90.6238C244.5 81.4238 219 99.3238 219 99.3238C219 99.3238 210.9 120.624 219.8 192.324L221.7 192.124C220.865 186.957 220.298 181.75 220 176.524C218.3 145.724 214.8 115.124 234.5 109.424C258.8 102.424 258.3 143.524 260 174.224C260.2 178.524 260.3 182.724 260.2 186.724L265 186.024C265 186.024 273.2 99.7238 258.8 90.6238Z" fill="#7F405D"/>
<path d="M249.6 73.9237L228.5 70.9237C219 88.7237 216.6 107.924 216.6 107.924C216.6 107.924 248.3 104.524 262.2 93.6237C262.2 93.6237 253.3 76.4237 249.6 73.9237Z" fill="#FCC054"/>
<path d="M235.5 88.5238C242.5 88.5238 249.5 92.8238 253.6 98.7238C256.65 97.353 259.535 95.6422 262.2 93.6238C262.2 93.6238 253.6 75.3238 249.9 72.8238L227.9 70.5238C218.4 88.3238 216.6 107.924 216.6 107.924H217.9C218.6 97.6238 225.3 88.5238 235.5 88.5238Z" fill="#FFA33E"/>
<path d="M257.6 84.5238C255.1 79.8238 251.6 74.0238 249.9 72.8238L227.9 70.5238C224.955 76.2219 222.545 82.1808 220.7 88.3238C231.3 83.7238 246.2 83.1238 257.6 84.5238Z" fill="#FF8931"/>
<path d="M228 51.6238C221.2 60.2238 216 80.3238 218.1 83.0238C220.2 85.7238 251.5 80.9238 253.7 79.8238C255.9 78.7238 254.8 53.1238 252.1 50.8238C249.4 48.5238 230.2 48.8238 228 51.6238Z" fill="#FCC054"/>
<path d="M252.2 77.3238C251.1 78.0238 240.7 75.3238 232 76.3238C225.4 77.0238 220 81.8238 219.2 80.6238C218.4 79.4238 219.4 70.8238 222.1 62.7238C218.6 71.5238 216.9 81.4238 218.3 83.3238C219.7 85.2238 251.3 81.5238 253.5 80.4238C255.7 79.3238 255.2 66.9238 254.2 58.6238C253.7 54.6238 254 76.3238 252.2 77.3238Z" fill="#FFA33E"/>
<path d="M234.6 65.1238C238.8 66.4238 245.1 55.9238 247.3 49.6238C243.2 49.2238 235.3 49.1238 231 50.3238C229.2 57.6238 230.5 63.8238 234.6 65.1238Z" fill="#ED4A53"/>
<path d="M235.2 63.4238C238.4 64.4238 243.5 55.9238 246.2 49.5238C241.429 49.1818 236.635 49.3494 231.9 50.0238C230.7 57.0238 231.9 62.4238 235.2 63.4238Z" fill="#FFB882"/>
<path d="M251.7 50.4238C259.3 52.1238 261.5 67.8238 255.2 80.5238C253.4 84.0238 243.4 82.2238 245.9 77.4238C249.4 70.9238 248.5 49.6238 251.7 50.4238Z" fill="#FCC054"/>
<path d="M258.5 60.4237C258.732 65.9696 257.526 71.4812 255 76.4237C253.2 79.9237 246.4 79.1237 247.6 73.8237C248.8 68.5237 249.2 67.6237 249.3 60.9237C248.1 67.5237 247.8 73.2237 245.4 77.7237C243 82.2237 253.7 84.7237 255.5 81.2237C258.719 74.7959 259.771 67.4991 258.5 60.4237Z" fill="#FFA33E"/>
<path d="M257.1 78.0238C257.1 76.3529 256.436 74.7505 255.255 73.569C254.073 72.3875 252.471 71.7238 250.8 71.7238C249.129 71.7238 247.527 72.3875 246.345 73.569C245.164 74.7505 244.5 76.3529 244.5 78.0238C244.5 81.1238 247.3 83.7238 250.8 83.7238C254.3 83.7238 257.1 81.1238 257.1 78.0238Z" fill="#ED4A53"/>
<path d="M255.4 74.1238C255.135 75.5529 254.361 76.8374 253.221 77.7386C252.08 78.6399 250.652 79.0965 249.2 79.0238C248.345 79.0361 247.495 78.8739 246.704 78.5473C245.914 78.2206 245.198 77.7363 244.6 77.1238C244.518 77.4164 244.484 77.7203 244.5 78.0238C244.5 81.1238 247.3 83.7238 250.8 83.7238C254.3 83.7238 257.1 81.1238 257.1 78.0238C257.069 76.5508 256.458 75.1495 255.4 74.1238Z" fill="#CE2C3C"/>
<path d="M212.2 77.4238C214.7 73.8238 238 70.5238 240.1 71.0238C242.2 71.5238 240.9 72.8238 240.2 73.6238C239.5 74.4238 220 83.9238 218.3 84.3238C214.1 85.2238 210.4 79.8238 212.2 77.4238Z" fill="#FFB882"/>
<path d="M218.3 80.6238C215.7 81.2238 213.3 79.4238 212.3 77.3238H212.2C210.4 79.7238 214.1 85.1238 218.3 84.2238C220 83.8238 239.9 74.5238 240.5 73.7238C247.3 66.1238 219.7 80.3238 218.3 80.6238Z" fill="#FF9566"/>
<path d="M237.4 72.5238C239.2 72.8238 240 73.2238 240.5 73.2238C241 73.2238 242.4 73.5238 242.8 73.0238C243.2 72.5238 243.4 69.6238 242.6 69.6238C241.8 69.6238 239.8 70.9238 237.6 71.6238C235.4 72.3238 237.4 72.5238 237.4 72.5238Z" fill="#FF9566"/>
<path d="M241.4 73.1238C242.7 73.3238 246.3 74.1238 246.6 73.8238C246.9 73.5238 242.1 72.0238 242.1 72.0238L241.4 73.1238Z" fill="#FF9566"/>
<path d="M238.5 71.5238C239.9 70.3238 241.1 67.4238 241.5 67.5238C241.9 67.6238 240.4 71.6238 240.4 71.6238L238.5 71.5238Z" fill="#FF9566"/>
<path d="M242.1 72.0238C243.3 71.8238 247.1 71.5238 247.4 71.0238C247.7 70.5238 242.6 70.6238 242.6 70.6238L242.1 72.0238Z" fill="#FF9566"/>
<path d="M241.4 71.5238C242.4 70.8238 245.8 68.9238 246 68.4238C246.2 67.9238 241.5 69.9238 241.5 69.9238L241.4 71.5238Z" fill="#FF9566"/>
<path d="M253.9 74.7238C250.4 71.5238 224.3 70.8238 222.2 71.5238C220.1 72.2238 221.8 73.4238 222.7 74.1238C223.6 74.8238 247 81.9238 249 82.1238C253.7 82.6238 256.4 76.9238 253.9 74.7238Z" fill="#FFB882"/>
<path d="M253.9 74.7238C253.318 74.3257 252.677 74.0219 252 73.8238C251.974 74.5199 251.811 75.2042 251.521 75.8374C251.231 76.4706 250.818 77.0403 250.307 77.514C249.796 77.9877 249.197 78.356 248.544 78.5979C247.891 78.8398 247.196 78.9505 246.5 78.9238C244.8 78.8238 227.2 74.7238 221.5 73.1238C221.853 73.5097 222.257 73.8461 222.7 74.1238C223.7 74.8238 247 81.9238 249 82.1238C253.7 82.6238 256.4 76.9238 253.9 74.7238Z" fill="#FF9566"/>
<path d="M233.5 50.0238L234.6 38.9238L244.8 34.9238V49.4238C244.8 49.4238 237.3 55.1238 233.5 50.0238Z" fill="#FFB882"/>
<path d="M66.4 88.9237C62.5 91.9237 58.8 101.024 58.7 104.624C58.6 105.824 63.4 102.324 65.4 99.4237C67.4 96.5237 66.8 88.9237 66.8 88.9237H66.4Z" fill="#B71D42"/>
<path d="M66.0001 89.1238C59.8001 87.2238 47.4001 90.2238 43.5001 92.7238C42.2001 93.6238 49.5001 96.1238 54.1001 96.0238C58.7001 95.9238 66.4 89.6238 66.4 89.6238L66.0001 89.1238Z" fill="#CC2545"/>
<path d="M59.9001 90.4237C59.8313 90.1109 59.6979 89.8159 59.5085 89.5576C59.3191 89.2993 59.0778 89.0834 58.8001 88.9237C53.3001 89.2237 46.9001 91.0237 44.4001 92.6237C43.5001 93.3237 47.6001 94.9237 51.4001 95.4237C55.2001 95.9237 60.2001 92.3237 59.9001 90.4237Z" fill="#E5455C"/>
<path d="M70.4001 94.9238C58.3001 89.2238 56.3001 73.1238 62.4001 64.9238C68.5001 56.7238 82.9001 56.0238 90.4001 63.9238C97.9001 71.8238 93.5001 84.6238 90.9001 86.1238C88.3001 87.6238 70.4001 94.9238 70.4001 94.9238Z" fill="#E5455C"/>
<path d="M81.3001 74.9238C72.1001 74.9238 64.8001 71.0238 64.8001 66.1238C64.8001 63.3238 67.1002 60.8238 70.7002 59.2238C67.3922 60.181 64.4813 62.18 62.4001 64.9238C56.3001 73.1238 58.3001 89.2238 70.4001 94.9238C70.4001 94.9238 88.4001 87.7238 90.9001 86.1238C93.4001 84.5238 95.5001 78.2238 94.2001 71.6238C91.2001 73.6238 86.5001 74.9238 81.3001 74.9238Z" fill="#CC2545"/>
<path d="M77.1001 106.124C79.0001 110.424 78.4 134.624 80.9 138.324C83.4 142.024 78.0001 147.224 75.7001 144.224C71.9001 139.224 69.2001 117.824 69.6001 112.224C70.0001 106.624 76.0001 103.524 77.1001 106.124Z" fill="#EFE0A0"/>
<path d="M79.9 140.924C76.8 136.924 79.2 108.924 74.4 107.024C72.3 107.624 69.9001 108.524 69.6001 112.224C69.2001 117.824 71.9001 139.224 75.7001 144.224C77.1001 146.124 79.9001 144.724 81.0001 142.524C80.3001 142.524 80.4 141.624 79.9 140.924Z" fill="#E2CA7F"/>
<path d="M82.1 143.724C84 141.524 83.8 139.024 82.1 137.924C80.4 136.824 77.8 137.424 75.9 139.124C74 140.824 73.3 143.724 74.9 145.224C76.5 146.724 80.1 146.024 82.1 143.724Z" fill="#843131"/>
<path d="M66.9001 152.724L52.8002 150.724L50.4001 170.924L54.6002 212.224H76.3002C76.3002 212.224 73.7001 166.024 66.9001 152.724Z" fill="#5E4B6B"/>
<path d="M55.3001 166.924L46.6001 154.624L47.9001 173.524L56.4001 212.224H69.6001C69.6001 212.224 64.6001 178.224 55.3001 166.924Z" fill="#4C395B"/>
<path d="M55.9 168.224L62.6 157.124L60.2 151.424L44.8 143.124C44.8 143.124 30.4 150.424 32.1 165.424C33.8 180.424 51.3 202.924 51.3 202.924L12.9 211.224L13.2 212.224H68.4C68.4 212.224 64.2 184.724 55.9 168.224Z" fill="#5E4B6B"/>
<path d="M53.9 203.824C53.9 203.824 32.4 172.124 39.7 158.624C51.8 161.224 58.3 162.424 70.1 162.124L68.7 155.224L60.2 151.424L44.8 143.124C44.8 143.124 28.2 150.624 29.9 165.624C31.6 180.624 50.4 202.824 50.4 202.824L12.9 211.224V211.724H13.6L53.9 203.824Z" fill="#4C395B"/>
<path d="M51 201.924L56.8 202.524L51.8 203.024L51 201.924Z" fill="#4C395B"/>
<path d="M50.3 200.624L54.1 206.124L50.6 203.224L50.3 200.624Z" fill="#4C395B"/>
<path d="M36.3 148.724C46.1 157.324 65.2 160.224 70.1 160.124C70.1 160.124 66.8 143.724 73.4 128.124L55.0001 119.824C48.2001 135.424 36.3 148.724 36.3 148.724Z" fill="#EFE0A0"/>
<path d="M73.4 128.124L55.0001 119.824C48.2001 135.424 36.3 148.724 36.3 148.724C39.0876 151.014 42.1849 152.9 45.5001 154.324C48.3001 143.024 60.7 136.324 64.9 137.124C69.1 137.924 66.5001 149.724 67.7001 160.024H70.1C70.1 160.024 66.8 143.724 73.4 128.124Z" fill="#E2CA7F"/>
<path d="M70.6 137.224C71.2111 134.1 72.1496 131.05 73.4 128.124L55.0001 119.824C48.2001 135.424 36.3 148.724 36.3 148.724C36.3 148.724 36.4001 148.824 36.5001 148.924C44.7001 139.324 59.1 130.024 70.6 137.224Z" fill="#D3B663"/>
<path d="M58.2001 102.324C54.3001 107.424 56.8001 128.524 57.1001 130.624C57.4001 132.724 75.4001 138.224 76.9001 137.424C78.4001 136.624 77.2001 106.924 76.3001 105.324C75.4001 103.724 59.7001 100.324 58.2001 102.324Z" fill="#EFE0A0"/>
<path d="M76.2999 105.324C74.8999 103.924 65.5 101.624 60.7 101.724L68.7999 121.424L76.2999 105.324Z" fill="#FFF6D2"/>
<path d="M62.8 131.524C62.6 129.824 61.8 102.424 57 104.824C54.8 112.324 56.5 129.224 56.8 131.124C57.1 133.024 75.3999 138.224 76.8999 137.424C78.3999 136.624 77.1999 136.924 77.3999 136.224C72.5999 135.624 63 133.324 62.8 131.524Z" fill="#E2CA7F"/>
<path d="M60.2 102.924C61.8 107.224 59.8 131.524 62.1 135.224C64.4 138.924 59.2 142.824 57.1 139.724C53.6 134.824 52.6 114.424 53.3 108.824C54 103.224 59.3 100.324 60.2 102.924Z" fill="#EFE0A0"/>
<path d="M57.9 139.124C54.6 134.224 54.7 112.824 55.5 107.324C55.8228 105.297 56.8073 103.433 58.3 102.024C56.3 102.524 53.8 105.024 53.3 108.824C52.6 114.424 53 136.124 56.5 141.124C57.9 143.224 61.1 141.424 62.2 138.824C60.8 140.124 58.9 140.524 57.9 139.124Z" fill="#E2CA7F"/>
<path d="M63.6 140.224C65.5 138.024 65.3 135.524 63.6 134.424C61.9 133.324 59.3 133.924 57.4 135.624C55.5 137.324 54.8 140.224 56.4 141.724C58 143.224 61.6 142.524 63.6 140.224Z" fill="#843131"/>
<path d="M79.2 137.724C82.9 136.124 91.6 132.824 91.6 132.824L91.8 134.224C91.8 134.224 82.9 145.624 77.8 144.624C72.7 143.624 78.2 138.124 79.2 137.724Z" fill="#FFB882"/>
<path d="M79.3001 141.824C77.5001 141.424 77.0001 140.624 77.1001 139.624C75.6001 141.424 74.4001 143.924 77.8001 144.624C82.9001 145.624 91.8001 134.224 91.8001 134.224V133.424C86.8001 136.924 83.4001 142.624 79.3001 141.824Z" fill="#FF9566"/>
<path d="M60.9001 134.424C64.6001 132.924 84.9001 127.824 84.9001 127.824V128.824C84.9001 128.824 65.2002 141.424 60.1002 140.424C55.0002 139.424 59.9001 134.924 60.9001 134.424Z" fill="#FFB882"/>
<path d="M60.3001 138.124C59.9205 138.097 59.5521 137.984 59.2229 137.793C58.8936 137.603 58.6122 137.34 58.4 137.024C57.1 138.724 56.5001 140.824 59.5001 141.424C64.7001 142.424 85.0001 128.824 85.0001 128.824V128.224C80.1001 130.824 64.7001 138.924 60.3001 138.124Z" fill="#FF9566"/>
<path d="M63.1001 101.924L68.8001 118.424L75.5001 104.824C71.6396 102.931 67.3997 101.939 63.1001 101.924Z" fill="#FFB882"/>
<path d="M65.3 102.924L70.6 84.0238L76.2001 88.6238L72.8 104.324L65.3 102.924Z" fill="#FFB882"/>
<path d="M96.6002 212.624H206.6C206.6 212.624 217.1 154.924 204.8 149.024C192.5 143.124 115.9 135.724 99.5002 147.724C83.1002 159.724 96.6002 212.624 96.6002 212.624Z" fill="#97AF41"/>
<path d="M204.8 149.024C194.3 144.024 138.1 137.924 111 143.424C123 142.824 134.8 145.424 139 149.524C147.1 157.224 144.1 196.524 141.8 212.624H206.6C206.6 212.624 217.1 154.924 204.8 149.024Z" fill="#859930"/>
<path d="M204.8 149.024C201.8 147.624 195.3 146.124 186.9 144.824C203.1 148.324 209 158.924 206.7 184.924C205 203.724 189.5 206.424 141.8 212.624H206.6C206.6 212.624 217.1 154.924 204.8 149.024Z" fill="#95A537"/>
<path d="M114.3 154.524C106.7 156.324 101.8 144.224 101.8 144.224C101.8 144.224 109.1 145.724 112.9 148.124C116.7 150.524 114.3 154.524 114.3 154.524Z" fill="#C1D14A"/>
<path d="M95.7001 188.024C88.1001 189.824 83.1001 177.724 83.1001 177.724C83.1001 177.724 90.5001 179.224 94.2001 181.624C97.9001 184.024 95.7001 188.024 95.7001 188.024Z" fill="#97AF41"/>
<path d="M98.8002 158.724C91.8002 160.924 89.4001 151.024 89.4001 151.024C89.4001 151.024 95.7002 151.624 98.6002 153.324C101.5 155.024 98.8002 158.724 98.8002 158.724Z" fill="#97AF41"/>
<path d="M144.9 160.724C141.4 154.224 150.6 150.124 150.6 150.124C150.6 150.124 151.2 156.424 150.2 159.524C149.2 162.624 144.9 160.724 144.9 160.724Z" fill="#97AF41"/>
<path d="M160.1 147.224C156.5 140.724 165.8 136.624 165.8 136.624C165.8 136.624 166.4 142.924 165.3 146.024C164.2 149.124 160.1 147.224 160.1 147.224Z" fill="#859930"/>
<path d="M182.1 147.924C178.5 141.424 187.8 137.224 187.8 137.224C187.8 137.224 188.4 143.524 187.3 146.724C186.2 149.924 182.1 147.924 182.1 147.924Z" fill="#859930"/>
<path d="M195.1 161.124C193.8 153.824 203.9 152.824 203.9 152.824C203.9 152.824 202.5 159.024 200.5 161.624C198.5 164.224 195.1 161.124 195.1 161.124Z" fill="#95A537"/>
<path d="M175.4 158.124C169 154.324 174.8 146.024 174.8 146.024C174.8 146.024 178.5 151.124 179.2 154.324C179.9 157.524 175.4 158.124 175.4 158.124Z" fill="#95A537"/>
<path d="M158.8 163.024C153.5 157.824 161.3 151.224 161.3 151.224C161.3 151.224 163.6 157.024 163.5 160.424C163.4 163.824 158.8 163.024 158.8 163.024Z" fill="#95A537"/>
<path d="M148.8 145.124C143.4 140.024 151 133.224 151 133.224C151 133.224 153.5 139.124 153.4 142.424C153.3 145.724 148.8 145.124 148.8 145.124Z" fill="#859930"/>
<path d="M134 151.124C129.7 143.424 140.4 138.824 140.4 138.824C140.4 138.824 141.2 146.224 140.1 149.924C139 153.624 134 151.124 134 151.124Z" fill="#97AF41"/>
<path d="M126.8 164.224C121 157.624 130.5 150.924 130.5 150.924C130.5 150.924 132.9 157.924 132.5 161.724C132.1 165.524 126.8 164.224 126.8 164.224Z" fill="#C1D14A"/>
<path d="M96.3001 173.324C87.5001 172.424 90.0001 161.024 90.0001 161.024C90.0001 161.024 96.5001 164.624 98.8001 167.724C101.1 170.824 96.3001 173.324 96.3001 173.324Z" fill="#C1D14A"/>
<path d="M97.8 207.324C89.8 211.024 86 200.024 86 200.024C86 200.024 93.5 199.724 97 201.224C100.5 202.724 97.8 207.324 97.8 207.324Z" fill="#97AF41"/>
<path d="M134.7 171.224C132.2 164.024 142 161.724 142 161.724C142 161.724 141.6 168.124 140 171.124C138.4 174.124 134.7 171.224 134.7 171.224Z" fill="#C1D14A"/>
<path d="M138 182.524C134.9 176.424 146.1 172.324 146.1 172.324C146.1 172.324 145.9 178.224 144.2 181.224C142.5 184.224 138 182.524 138 182.524Z" fill="#C1D14A"/>
<path d="M134.2 199.024C132.5 192.424 144.3 190.924 144.3 190.924C144.3 190.924 142.8 196.624 140.5 199.224C138.2 201.824 134.2 199.024 134.2 199.024Z" fill="#C1D14A"/>
<path d="M96.0999 119.924L113.4 73.5238L113 73.2238C113 73.2238 99.9999 88.0238 97.7999 96.0238C95.6402 103.797 95.0621 111.924 96.0999 119.924Z" fill="#88A8A5"/>
<path d="M96.8001 120.524L113.4 73.5238C113.4 73.5238 100.7 88.6238 98.4001 96.6238C96.3003 104.408 95.7566 112.529 96.8001 120.524Z" fill="#B6CCCB"/>
<path d="M96.8 120.624L131.5 84.8237C131.5 84.8237 125.2 99.9237 116.1 108.424C110.488 113.663 103.941 117.802 96.8 120.624Z" fill="#B6CCCB"/>
<path d="M96.8001 119.024C96.8001 119.024 85.6001 136.124 85.3001 139.024C85.0001 141.924 88.8001 142.024 88.8001 142.024L97.2001 119.624L96.8001 119.024Z" fill="#633E47"/>
<path d="M98.5999 119.524C98.5999 119.524 85.2999 134.424 82.5999 135.424C79.8999 136.424 78.7 133.024 78.7 133.024L97.8999 119.324L98.5999 119.524Z" fill="#633E47"/>
<path d="M95.6999 119.424C95.4959 119.762 95.4239 120.163 95.4977 120.55C95.5716 120.938 95.786 121.285 96.0999 121.524C96.7999 121.924 97.6999 121.424 98.1999 120.624C98.4338 120.277 98.5227 119.853 98.448 119.442C98.3732 119.031 98.1407 118.666 97.7999 118.424C97.3884 118.292 96.9422 118.323 96.5521 118.508C96.1621 118.694 95.8574 119.021 95.6999 119.424Z" fill="#633E47"/>
<path d="M96.6 119.724C96.5666 119.796 96.5478 119.874 96.5449 119.953C96.5419 120.033 96.5548 120.112 96.5827 120.187C96.6106 120.261 96.653 120.329 96.7074 120.387C96.7619 120.445 96.8274 120.491 96.9 120.524C96.9608 120.578 97.0337 120.616 97.1126 120.635C97.1915 120.654 97.2739 120.654 97.3527 120.634C97.4314 120.615 97.5042 120.576 97.5647 120.522C97.6253 120.468 97.6717 120.4 97.7 120.324C97.7334 120.252 97.7521 120.174 97.7551 120.094C97.758 120.015 97.7452 119.935 97.7173 119.861C97.6894 119.787 97.6469 119.718 97.5925 119.661C97.538 119.603 97.4725 119.556 97.4 119.524C97.3392 119.47 97.2662 119.432 97.1873 119.412C97.1084 119.393 97.0261 119.393 96.9473 119.413C96.8685 119.433 96.7957 119.471 96.7352 119.526C96.6747 119.58 96.6283 119.648 96.6 119.724Z" fill="#B6CCCB"/>
<path d="M244.1 213.024H252.6C252.6 213.024 247.1 207.324 245.6 208.524C244.1 209.724 244.1 213.024 244.1 213.024Z" fill="#E5CB9C"/>
<path d="M242.3 213.024H233.6C233.6 213.024 239.2 207.324 240.7 208.524C242.2 209.724 242.3 213.024 242.3 213.024Z" fill="#E5CB9C"/>
<path d="M15.5 212.224H0C0 212.224 9.19999 206.524 11.9 207.724C14.6 208.924 15.5 212.224 15.5 212.224Z" fill="#E5CB9C"/>
<path d="M59.1002 173.924L64.9001 168.424L58.4001 172.224L59.1002 173.924Z" fill="#4C395B"/>
<g style="mix-blend-mode:multiply" opacity="0.6">
<path d="M69.0001 123.424C71.9001 123.824 76.5001 120.024 78.5001 117.524C78.2001 112.324 77.8 107.724 77.1 106.124C77.0517 105.931 76.9517 105.754 76.8108 105.613C76.6699 105.472 76.4934 105.372 76.3 105.324C75.6902 104.806 74.9729 104.43 74.2001 104.224L73.0001 103.724L76.2001 88.6238L70.6 84.0238L65.5001 102.024H60.7001C60.0198 101.984 59.3386 102.086 58.7001 102.324C58.314 102.33 57.9357 102.433 57.6 102.624H57.5001L56.8 103.024H56.7001C56.6001 103.124 56.5 103.324 56.3 103.424C57.4 105.424 57.9001 122.124 69.0001 123.424Z" fill="#843131"/>
</g>
<path d="M74.9001 103.024C69.3001 96.0237 67.3001 90.3237 68.6001 82.2237C69.9001 74.1237 79.6001 66.8237 86.4001 68.3237C93.2001 69.8237 95.8001 79.7237 91.5001 88.7237C85.8001 100.824 74.9001 103.024 74.9001 103.024Z" fill="#FFB882"/>
<path d="M68.8001 89.2238C69.7001 78.0238 77.9001 71.1238 84.4001 70.7238C86.7001 70.6238 87.9001 70.0238 87.9001 69.3238C87.9001 68.6238 87.3001 68.1238 85.8001 67.7238C82.6001 66.7238 75.2001 68.8238 71.4001 73.9238C66.4001 80.6238 68.8001 89.2238 68.8001 89.2238Z" fill="#8C464D"/>
<path d="M72.6001 72.5238L71.4001 73.9238C66.4001 80.6238 68.8001 89.2238 68.8001 89.2238C68.9915 86.2668 69.792 83.3813 71.1515 80.7484C72.511 78.1155 74.4001 75.792 76.7002 73.9238C75.2695 73.6711 73.8865 73.1989 72.6001 72.5238Z" fill="#72313B"/>
<path d="M68.4 91.2237C65.3 90.0237 63.6 86.2237 64.2 84.2237C64.8 82.2237 67.4 80.5237 68.4 83.0237C69.4 85.5237 69.7 91.8237 68.4 91.2237Z" fill="#FFB882"/>
<path d="M92.8002 85.4238C93.1002 73.0238 88.3001 73.0238 87.4001 69.4238C86.5001 65.8238 90.6001 68.8238 92.4001 72.4238C95.6001 78.4238 92.8002 85.4238 92.8002 85.4238Z" fill="#8C464D"/>
<path d="M92.4001 78.8238C92.7654 81.0036 92.8995 83.2158 92.8002 85.4238C93.782 82.6355 94.1238 79.6621 93.8002 76.7238C93.4646 77.5028 92.9902 78.2144 92.4001 78.8238Z" fill="#72313B"/>
<path d="M67.7 89.4237C65.8 88.7237 64.8 86.3237 65.2 85.1237C65.6 83.9237 67.1 82.8237 67.8 84.4237C68.5 86.0237 68.5 89.7237 67.7 89.4237Z" fill="#EA7B59"/>
<path d="M68.1002 89.9237C67.5411 89.6895 67.0731 89.2802 66.7665 88.7572C66.46 88.2343 66.3314 87.626 66.4001 87.0238C66.6001 86.2238 67.7002 85.5238 68.1002 86.6238C68.5002 87.7238 68.6002 90.1237 68.1002 89.9237Z" fill="#FFB882"/>
<path d="M121.6 150.624C114.3 147.924 116.8 135.124 116.8 135.124C116.8 135.124 122.1 140.424 123.9 144.424C125.7 148.424 121.6 150.624 121.6 150.624Z" fill="#C1D14A"/>
<g style="mix-blend-mode:multiply" opacity="0.6">
<path d="M236 62.1238C244 61.1238 251.4 57.7238 255.9 53.4238C254.941 51.9181 253.435 50.8428 251.7 50.4238H251.3C249.99 50.072 248.651 49.8377 247.3 49.7238H244.9V34.9238L234.7 38.9238L233.6 49.8238L232 50.0238L231.1 50.2238C230.12 50.3502 229.189 50.7293 228.4 51.3238C225.1 51.8238 221.7 54.8238 218.7 58.9238C222.4 61.8238 228.7 63.1238 236 62.1238Z" fill="#843131"/>
</g>
<path d="M229.7 49.6237C225.3 47.9237 222 41.0237 222 32.5237C222 24.0237 224.3 16.7237 233.4 16.2237C242.5 15.7237 245.7 21.1237 245.5 31.8237C245.2 50.0237 229.7 49.6237 229.7 49.6237Z" fill="#FFB882"/>
<path d="M243.4 36.4238C239.8 32.5238 243.2 20.2238 236.8 16.9238C230.4 13.6238 242.2 9.5238 247.1 18.2238C252 26.9238 243.4 36.4238 243.4 36.4238Z" fill="#B29580"/>
<path d="M243.3 32.5237C243.7 29.2237 248.5 28.0237 248.9 30.7237C249.3 33.4237 244.5 37.3237 243.9 37.2237C243.3 37.1237 243 34.2237 243.3 32.5237Z" fill="#FFB882"/>
<path d="M243.9 32.8237C244.2 30.7237 247.1 29.9237 247.3 31.6237C247.5 33.3237 244.7 35.8237 244.3 35.8237C243.9 35.8237 243.8 33.8237 243.9 32.8237Z" fill="#EA7B59"/>
<path d="M244 33.9238C244.2 32.4238 246.2 31.9237 246.3 33.1237C246.4 34.3237 244.5 36.0237 244.2 36.0237C243.942 35.3554 243.872 34.6288 244 33.9238Z" fill="#FFB882"/>
<path d="M76.1999 91.3237L82.3999 94.6237C82.3999 94.6237 79.6999 98.2237 77.1999 96.8237C74.6999 95.4237 76.1999 91.3237 76.1999 91.3237Z" fill="#491D2E"/>
<path d="M76.5001 91.9237L81.8001 94.6237C81.8001 94.6237 81.3001 96.1237 78.2001 94.7237C75.1001 93.3237 76.5001 91.9237 76.5001 91.9237Z" fill="#FFEBEB"/>
<path d="M78.3999 81.6238C79.1999 80.5238 80.3 80.1238 81 80.7238C81.7 81.3238 81.6999 82.8238 80.8999 84.1238C80.0999 85.4238 78.9 85.8238 78.2 85.0238C77.5 84.2238 77.6999 82.8238 78.3999 81.6238Z" fill="#563B36"/>
<path d="M86.7 86.9238C87.3 85.7238 88.3 85.0238 88.9 85.3238C89.5 85.6238 89.6 87.0238 89 88.3238C88.4 89.6238 87.3 90.3238 86.7 89.8238C86.1 89.3238 86.1 88.1238 86.7 86.9238Z" fill="#563B36"/>
<path d="M90.0999 87.7238C90.0999 87.7238 88.9 85.2238 87.2 84.8238C87.4703 84.6431 87.792 84.5552 88.1166 84.5732C88.4413 84.5913 88.7513 84.7143 88.9999 84.9238C89.9999 85.7238 90.0999 87.7238 90.0999 87.7238Z" fill="#563B36"/>
<path d="M78.1001 80.9238C79.6076 80.7182 81.138 81.0741 82.4001 81.9238C82.3315 81.5139 82.1429 81.1336 81.8581 80.831C81.5733 80.5283 81.2051 80.317 80.8001 80.2238C80.327 80.1131 79.8341 80.119 79.3638 80.2409C78.8935 80.3628 78.4598 80.5972 78.1001 80.9238Z" fill="#563B36"/>
<path d="M91.8 85.8237L92.1 85.5237C92.0284 84.5653 91.7276 83.6381 91.2229 82.8202C90.7182 82.0023 90.0245 81.3176 89.2 80.8237L88.5 81.5237C89.3312 81.9554 90.0575 82.5641 90.6277 83.3071C91.1979 84.0501 91.5981 84.9092 91.8 85.8237Z" fill="#8C3B3F"/>
<path d="M77.3001 78.2238C79.7001 77.2238 83.4001 78.0238 84.3001 78.3238V77.3238C81.908 76.7206 79.3859 76.8957 77.1001 77.8238L77.3001 78.2238Z" fill="#8C3B3F"/>
<path d="M75.6 98.1237C75.7 97.9237 76.1 98.2237 76.7 98.5237C77.3 98.8237 77.9 99.0237 77.8 99.3237C77.7 99.6237 77.1 99.4237 76.5 99.1237C75.9 98.8237 75.4 98.3237 75.6 98.1237Z" fill="#EA7B59"/>
<path d="M82.6999 87.9238C83.1999 89.0238 83.3999 90.9238 82.9999 91.5238C82.5999 92.1238 80.9999 91.5238 80.6999 91.0238C80.3999 90.5238 82.4999 87.6238 82.6999 87.9238Z" fill="#EA7B59"/>
<path d="M82.3 87.4238C82.8 88.4238 83 90.4238 82.6 91.0238C82.2 91.6238 80.6 91.0238 80.3 90.5238C80 90.0238 82.1 87.0238 82.3 87.4238Z" fill="#FFB882"/>
<path d="M240.2 26.3238C239.483 25.2418 238.381 24.474 237.117 24.1767C235.854 23.8794 234.524 24.0751 233.4 24.7238L233.6 25.8238C233.6 25.8238 236.1 23.7238 240 26.6238L240.2 26.3238Z" fill="#916C66"/>
<path d="M222.1 26.4238C222.9 24.9238 224.8 22.9238 227.7 24.7238V25.8238C227.7 25.8238 225.3 23.7238 222.3 26.6238L222.1 26.4238Z" fill="#916C66"/>
<path d="M234.4 41.3237L227.8 41.6237C227.8 41.6237 228.9 45.2237 231.6 44.8237C234.3 44.4237 234.4 41.3237 234.4 41.3237Z" fill="#563528"/>
<path d="M229.9 45.5238C229.9 45.2238 230.6 45.2238 231.5 45.2238C232.4 45.2238 232.9 45.1238 232.9 45.4238C232.9 45.7238 232.3 45.9238 231.4 46.0238C230.5 46.1238 229.9 45.8238 229.9 45.5238Z" fill="#FF9566"/>
<path d="M234.1 41.5238L233.8 42.8238L229.1 43.4238L228.1 41.9238L234.1 41.5238Z" fill="#FFF2D7"/>
<path d="M234.4 32.3238C234.386 32.1792 234.401 32.0334 234.444 31.8946C234.487 31.7559 234.557 31.627 234.65 31.5155C234.743 31.4039 234.857 31.3119 234.986 31.2446C235.115 31.1774 235.255 31.1363 235.4 31.1238C235.9 31.1238 236.3 31.7238 236.3 32.3238C236.3 32.9238 235.9 33.5238 235.4 33.5238C235.255 33.5112 235.115 33.4702 234.986 33.4029C234.857 33.3357 234.743 33.2437 234.65 33.1321C234.557 33.0205 234.487 32.8917 234.444 32.7529C234.401 32.6142 234.386 32.4684 234.4 32.3238Z" fill="#543432"/>
<path d="M234.2 33.2237C235.603 33.2098 237.005 33.2766 238.4 33.4237L234.4 34.1237L234.2 33.2237Z" fill="#FF9566"/>
<path d="M224.3 32.7238C224.3 32.1238 224.7 31.5238 225.2 31.5238C225.7 31.5238 226.1 32.0238 226.1 32.7238C226.1 33.4238 225.7 33.9238 225.2 33.9238C224.7 33.9238 224.3 33.4238 224.3 32.7238Z" fill="#543432"/>
<path d="M224 33.6237C225.369 33.6104 226.738 33.6772 228.1 33.8237L224.2 34.5237L224 33.6237Z" fill="#FF9566"/>
<path d="M226 31.3238C225.17 31.798 224.3 32.1994 223.4 32.5238L225.5 30.5238L226 31.3238Z" fill="#FF9566"/>
<path d="M234.4 31.4238C235.52 31.694 236.656 31.8944 237.8 32.0238L234.8 30.6238L234.4 31.4238Z" fill="#FF9566"/>
<path d="M234.8 20.3237C235.2 20.2237 227.3 19.9237 226 20.3237C224.7 20.7237 233.3 20.7237 234.8 20.3237Z" fill="#F7A27C"/>
<path d="M234.7 21.9238C235 21.7238 227.2 21.4238 225.9 21.8238C224.6 22.2238 233.2 22.3238 234.7 21.9238Z" fill="#F7A27C"/>
<path d="M231.6 36.6238V36.9238C231.365 37.3401 231.011 37.6767 230.583 37.8905C230.156 38.1043 229.674 38.1855 229.2 38.1238L228.4 37.9238C228.3 38.5238 228.8 39.0238 229.8 39.0238C230.274 39.1032 230.761 39.0174 231.18 38.7808C231.599 38.5442 231.923 38.171 232.1 37.7238C232.3 37.3238 232.1 36.9238 231.6 36.6238Z" fill="#EA7B59"/>
<path d="M83.5 128.124C85 127.224 84.9 127.324 85.3 127.424C85.7 127.524 87.3999 127.424 87.5999 127.924C87.7999 128.424 87.4 131.224 86.7 131.124C86 131.024 84.3999 129.324 82.5999 129.124C80.7999 128.924 83.5 128.124 83.5 128.124Z" fill="#FFB882"/>
<path d="M86.5 127.624C87.8366 127.662 89.1564 127.932 90.4 128.424C90.6 128.724 86.8 128.824 86.8 128.824L86.5 127.624Z" fill="#FFB882"/>
<path d="M84.4001 127.724C85.2001 127.024 88.4002 125.524 88.7002 125.724C89.0002 125.924 85.4001 128.424 85.4001 128.424L84.4001 127.724Z" fill="#FFB882"/>
<path d="M86.8 128.824C87.8 129.124 89.4 129.524 89.6 130.024C89.8 130.524 86.9 130.224 86.9 130.224L86.8 128.824Z" fill="#FFB882"/>
<path d="M86.0001 129.124C86.8001 129.924 88.0001 131.124 88.0001 131.724C88.0001 132.324 85.8 130.624 85.8 130.624L86.0001 129.124Z" fill="#FFB882"/>
<path d="M93.0999 134.324C93.0999 134.124 92.5999 133.924 91.8999 133.924C91.1999 133.924 90.7 134.124 90.7 134.324C90.7 134.524 91.1999 134.724 91.8999 134.724C92.5999 134.724 93.0999 134.524 93.0999 134.324Z" fill="#FFB882"/>
<path d="M93.3 133.024C93.3 132.824 92.7 132.624 92.1 132.624C91.5 132.624 90.8 132.824 90.8 133.024C90.8 133.224 91.4 133.424 92.1 133.424C92.8 133.424 93.3 133.224 93.3 133.024Z" fill="#FFB882"/>
<path d="M93.6001 131.924C93.6001 131.624 93.2001 131.524 92.6001 131.524C92.0001 131.524 91.6001 131.624 91.6001 131.924C91.6001 132.224 92.0001 132.324 92.6001 132.324C93.2001 132.324 93.6001 132.124 93.6001 131.924Z" fill="#FFB882"/>
<path d="M224 73.1238C222.2 73.4238 221.4 73.7238 220.9 73.8238C220.4 73.9238 219 74.1238 218.6 73.5238C218.2 72.9238 218 70.1238 218.8 70.1238C219.6 70.1238 221.6 71.4238 223.9 72.2238C226.2 73.0238 224 73.1238 224 73.1238Z" fill="#FFB882"/>
<path d="M220 73.7238C218.7 73.9238 215.2 74.7238 214.8 74.4238C214.4 74.1238 219.3 72.6238 219.3 72.6238L220 73.7238Z" fill="#FFB882"/>
<path d="M222.9 72.0238C221.6 70.9238 220.3 68.0238 219.9 68.0238C219.5 68.0238 221.1 72.2238 221.1 72.2238L222.9 72.0238Z" fill="#FFB882"/>
<path d="M219.4 72.5238C218.1 72.3238 214.3 72.0238 214 71.6238C213.7 71.2238 218.9 71.1238 218.9 71.1238L219.4 72.5238Z" fill="#FFB882"/>
<path d="M220 72.1238C219 71.4238 215.6 69.5237 215.4 68.9237C215.2 68.3237 219.9 70.5238 219.9 70.5238L220 72.1238Z" fill="#FFB882"/>
</svg>
