<svg width="149" height="216" viewBox="0 0 149 216" fill="none" xmlns="http://www.w3.org/2000/svg">
<path d="M136.404 161.236L139.904 215.736H141.404V161.236H136.404Z" fill="#632F2F"/>
<path d="M122.904 161.236L126.404 215.736H127.904V161.236H122.904Z" fill="#632F2F"/>
<path d="M98.1038 161.236L96.2037 215.736H94.7037L93.1038 161.236H98.1038Z" fill="#632F2F"/>
<path d="M111.604 161.236L109.704 215.736H108.204L106.604 161.236H111.604Z" fill="#632F2F"/>
<path d="M141.404 160.236H93.2039V163.466H141.404V160.236Z" fill="#632F2F"/>
<path d="M148.404 95.7356H145.904L138.704 161.436H141.204L148.404 95.7356Z" fill="#632F2F"/>
<path d="M124.904 95.7356H122.404L115.204 161.436H117.704L124.904 95.7356Z" fill="#632F2F"/>
<path d="M140.004 168.036H94.8037V169.546H140.004V168.036Z" fill="#632F2F"/>
<path d="M147.404 95.7356H122.904L122.004 104.836H146.504L147.404 95.7356Z" fill="#632F2F"/>
<path d="M146.504 106.836H122.004L121.804 108.636H146.304L146.504 106.836Z" fill="#632F2F"/>
<path d="M34.5037 60.0356C19.9037 55.2356 20.7038 44.0356 23.9038 39.4356C23.9038 39.4356 14.3038 31.4356 33.7038 18.4356C33.7038 18.4356 29.7038 7.03562 41.4038 1.83562C53.1038 -3.36438 56.4038 4.13563 56.4038 4.13563C56.4038 4.13563 63.7038 -0.0643721 66.9038 2.03563C70.1038 4.13563 67.8038 7.73562 67.8038 7.73562C67.8038 7.73562 74.2038 9.53563 73.6038 15.7356C73.0038 21.9356 69.9038 22.8356 69.9038 22.8356C69.9038 22.8356 76.5037 32.8356 70.7038 42.6356C64.9038 52.4356 58.6038 51.7356 58.6038 51.7356C58.6038 51.7356 52.9037 66.1356 34.5037 60.0356Z" fill="#7F4242"/>
<path d="M54.5037 25.0356C43.6037 25.0356 34.8038 18.1356 34.8038 9.6356C34.7815 8.65378 34.9165 7.67472 35.2038 6.7356C31.5038 12.1356 33.7038 18.4356 33.7038 18.4356C14.3038 31.4356 23.9038 39.4356 23.9038 39.4356C20.7038 44.0356 19.9037 55.2356 34.5037 60.0356C52.9037 66.1356 58.6038 51.7356 58.6038 51.7356C58.6038 51.7356 64.9038 52.3356 70.7038 42.6356C76.5037 32.9356 69.9038 22.8356 69.9038 22.8356C69.9038 22.8356 73.1038 21.9356 73.6038 15.7356C73.676 15.0013 73.6423 14.2604 73.5037 13.5356C71.3037 20.1356 63.6037 25.0356 54.5037 25.0356Z" fill="#682E2E"/>
<path d="M49.9037 29.8356C37.3037 40.7356 27.5037 36.8356 23.3037 51.4356C24.9037 54.7356 28.3037 57.9356 34.5037 60.0356C52.9037 66.1356 58.6037 51.7356 58.6037 51.7356C59.9286 51.7863 61.2423 51.4751 62.4037 50.8356C62.6037 40.8356 56.2037 24.4356 49.9037 29.8356Z" fill="#4F2121"/>
<path d="M56.6039 50.4356C61.5039 59.7356 63.9039 78.7356 66.3039 83.8356C68.7039 88.9356 67.4039 97.6356 63.4039 94.8356C59.4039 92.0356 51.8039 74.4356 51.3039 69.1356C50.8039 63.8356 55.1039 47.5356 56.6039 50.4356Z" fill="#EF5476"/>
<path d="M64.1039 89.1356C60.1039 86.2356 61.0039 59.5356 57.1039 54.8356C56.4039 53.9356 50.4039 59.6356 51.3039 69.1356C51.8039 74.4356 59.1039 92.8356 63.1039 95.7356C67.1039 98.6356 67.6039 93.4356 67.4039 88.9356C66.7039 90.1356 65.5039 90.1356 64.1039 89.1356Z" fill="#D83962"/>
<path d="M66.1038 84.3356C63.5038 83.3356 60.8038 85.5356 60.0038 89.0356C59.2038 92.5356 60.7039 96.2356 63.3039 97.1356C65.9039 98.0356 68.7038 95.9356 69.4038 92.4356C70.1038 88.9356 68.7038 85.2356 66.1038 84.3356Z" fill="#7F405D"/>
<path d="M68.9039 87.1355C68.2039 90.7355 65.4039 92.8355 62.8039 91.9355C61.525 91.3754 60.5188 90.3332 60.0039 89.0355C59.3039 92.6355 60.7039 96.2355 63.3039 97.1355C65.9039 98.0355 68.7039 95.9355 69.4039 92.4355C69.809 90.6609 69.6338 88.8031 68.9039 87.1355Z" fill="#66304B"/>
<path d="M139.104 86.6355C139.104 86.6355 148.104 80.3355 139.804 65.0355C134.904 56.0355 128.904 58.8355 128.904 58.8355C128.904 58.8355 127.204 51.4355 121.104 47.8355C115.004 44.2355 104.704 49.0355 102.104 51.4355C99.5037 53.8355 102.504 55.0355 102.504 55.0355C102.504 55.0355 95.5037 58.4355 93.9037 61.9355C92.3037 65.4355 97.3036 66.8355 97.5036 66.8355C97.7036 66.8355 96.9037 66.9355 96.1037 70.2355C95.3037 73.5355 99.7037 77.8355 99.7037 77.8355C98.4648 77.7181 97.2276 78.0765 96.2433 78.838C95.259 79.5994 94.6013 80.7068 94.4037 81.9355C94.1113 83.3721 94.1483 84.8564 94.512 86.2767C94.8757 87.6969 95.5567 89.0163 96.5036 90.1355C95.6036 95.4355 101.104 101.035 111.604 100.436L127.404 99.3355C127.404 99.3355 134.004 104.936 140.104 99.4355C148.604 91.8355 139.104 86.6355 139.104 86.6355Z" fill="#C6AA97"/>
<path d="M139.104 86.6355C139.104 86.6355 148.104 80.3355 139.804 65.0355C134.904 56.0355 128.904 58.8355 128.904 58.8355C128.904 58.8355 127.504 52.7355 122.804 49.0355C131.104 58.4355 119.704 65.5355 103.304 65.5355C102.604 68.1355 98.9039 70.0355 96.3039 69.2355C96.1901 69.5577 96.1228 69.8944 96.1039 70.2355C95.1039 73.9355 99.7039 77.8355 99.7039 77.8355C98.465 77.7181 97.2279 78.0765 96.2435 78.838C95.2592 79.5994 94.6015 80.7069 94.4039 81.9355C94.1115 83.3722 94.1485 84.8564 94.5122 86.2767C94.876 87.6969 95.5569 89.0163 96.5039 90.1355C95.6039 95.4355 101.104 101.036 111.604 100.436L127.404 99.3355C127.404 99.3355 134.004 104.936 140.104 99.4355C148.604 91.8355 139.104 86.6355 139.104 86.6355Z" fill="#B2937F"/>
<path d="M136.004 101.636C134.204 88.8356 120.804 81.8356 113.004 72.4356C107.604 65.9356 102.304 86.7356 106.704 100.136C108.318 100.444 109.964 100.545 111.604 100.436L127.404 99.3356C127.404 99.3356 131.404 102.736 136.004 101.636Z" fill="#A07D6A"/>
<path d="M102.204 119.636C106.004 111.136 108.204 91.0356 110.604 90.8356C113.004 90.6356 114.104 91.1356 114.704 95.8356C115.304 100.536 110.704 123.736 107.204 124.836C103.704 125.936 102.204 119.636 102.204 119.636Z" fill="#FFC84D"/>
<path d="M115.104 95.7356C114.604 91.5356 114.004 94.1356 112.104 94.2356C105.804 103.536 107.304 121.136 104.204 122.136C104.004 122.236 104.204 123.436 104.004 123.436C103.804 123.436 105.904 125.336 107.204 124.836C110.704 123.736 115.704 100.436 115.104 95.7356Z" fill="#FFAE43"/>
<path d="M110.704 122.636C111.104 120.736 109.204 118.736 106.504 118.236C103.804 117.736 101.304 118.936 101.004 120.836C100.704 122.736 102.504 124.736 105.204 125.236C107.904 125.736 110.404 124.636 110.704 122.636Z" fill="#C63E62"/>
<path d="M20.1039 115.136C20.5039 134.936 47.1039 213.336 47.1039 213.336H48.4038L36.4038 107.536C36.4038 107.536 19.9039 105.036 20.1039 115.136Z" fill="#4C3E48"/>
<path d="M21.8039 111.036C20.3039 112.236 19.2039 112.836 19.3039 115.336C19.7039 135.136 47.1039 213.336 47.1039 213.336H47.9039C43.8039 199.536 23.0039 132.436 21.8039 111.036Z" fill="#3A2C37"/>
<path d="M11.4037 96.3356C-7.19628 99.0356 4.40372 213.336 4.40372 213.336H5.60373L18.2037 123.336L28.7037 122.236L36.4037 107.536L11.4037 96.3356Z" fill="#4C3E48"/>
<path d="M13.7039 118.936L17.2039 122.736V130.136L19.1039 123.636H23.0038L29.3039 120.236C23.2039 122.036 18.7039 121.836 13.7039 118.936Z" fill="#3A2C37"/>
<path d="M5.10374 213.336C4.70374 200.636 2.90372 124.736 8.70372 109.936C19.5037 114.136 26.2037 114.336 37.1037 113.736L36.4037 107.536L11.4037 96.3356C-9.19627 98.7356 4.40373 213.336 4.40373 213.336H5.10374Z" fill="#3A2C37"/>
<path d="M9.00391 96.7356C17.1039 107.736 31.504 111.636 37.304 111.636C37.304 111.636 40.904 86.3356 53.804 78.8356L32.6039 63.8356C30.3039 79.5356 19.9039 90.3356 9.00391 96.7356Z" fill="#EF5476"/>
<path d="M32.6039 63.8356C30.3039 79.5356 19.9039 90.3356 9.00391 96.7356C10.9419 99.3424 13.2691 101.636 15.9039 103.536C23.5039 92.9356 33.404 84.9356 40.804 88.7356C41.8647 89.3325 42.8124 90.111 43.6039 91.0356C46.1039 86.0356 49.404 81.4356 53.804 78.8356L32.6039 63.8356Z" fill="#D83962"/>
<path d="M34.7038 50.8356C32.8038 62.0356 36.3038 77.1356 37.0038 80.9356C37.7038 84.7356 56.1038 83.8356 59.3038 82.1356C62.5038 80.4356 57.5038 51.6356 56.5038 50.2356C55.5038 48.8356 35.4038 46.1356 34.7038 50.8356Z" fill="#EF5476"/>
<path d="M53.304 49.0355C48.978 47.8154 44.4341 47.5762 40.0039 48.3355C40.3053 49.9782 41.1685 51.465 42.4455 52.5413C43.7225 53.6177 45.3339 54.2166 47.0039 54.2355C50.1039 54.2355 52.504 51.7355 53.304 49.0355Z" fill="#7F405D"/>
<path d="M44.0038 78.5355C41.0038 74.6355 34.8038 50.1355 34.7038 50.8355C32.8038 62.0355 35.1038 77.7355 35.7038 81.5355C36.3038 85.3355 56.5038 84.0355 59.6038 82.3355C59.8038 82.2355 59.7038 81.7355 59.8038 81.4355C53.3038 82.6355 46.0038 81.1355 44.0038 78.5355Z" fill="#D83962"/>
<path d="M36.9039 50.6356C41.7039 59.8356 36.6039 69.1356 46.1039 84.8356C49.1039 89.6356 46.804 97.6356 42.804 94.7356C38.804 91.8356 32.5039 73.9356 32.2039 68.5356C31.2039 50.0356 35.4039 47.7356 36.9039 50.6356Z" fill="#EF5476"/>
<path d="M43.9037 92.6355C39.9037 89.7355 33.6037 72.1355 33.3037 66.7355C32.9037 59.0356 33.1037 54.0355 34.0037 50.9355C32.4037 53.1355 31.1037 58.8355 31.6037 69.6355C31.9037 75.0355 38.7037 92.5355 42.7037 95.4355C44.9037 97.0355 46.6037 95.1356 47.2037 92.2355C47.0175 92.4842 46.7829 92.6926 46.514 92.8482C46.2451 93.0037 45.9475 93.1032 45.6392 93.1406C45.3308 93.178 45.018 93.1525 44.7197 93.0657C44.4215 92.9789 44.1439 92.8326 43.9037 92.6355Z" fill="#D83962"/>
<path d="M65.4038 96.0356C70.3038 98.3356 75.6038 58.8356 75.6038 58.8356L74.2037 57.8356C74.2037 57.8356 64.7038 78.6356 63.6038 83.9356C62.5038 89.2356 62.5038 94.6356 65.4038 96.0356Z" fill="#FFB882"/>
<path d="M74.4038 58.0355C72.8038 68.8355 68.9038 91.3355 65.1038 89.5355C64.5987 89.2523 64.1592 88.8652 63.8145 88.3998C63.4698 87.9344 63.2276 87.4013 63.1038 86.8355C62.6038 91.0355 63.1038 94.9355 65.4038 96.0355C70.3038 98.3355 75.6038 58.8355 75.6038 58.8355L74.4038 58.0355Z" fill="#FF9566"/>
<path d="M51.6039 89.5356C50.7039 86.9356 47.4039 85.7356 44.3039 86.8356C41.2039 87.9356 39.3038 90.9356 40.2038 93.5356C41.1038 96.1356 44.4039 97.3356 47.6039 96.2356C50.8039 95.1356 52.5039 92.1356 51.6039 89.5356Z" fill="#7F405D"/>
<path d="M47.8038 92.9356C44.7038 94.0356 41.4037 92.8356 40.5037 90.2356C39.9611 91.2856 39.8534 92.5068 40.2038 93.6356C41.1038 96.2356 44.4038 97.4356 47.6038 96.3356C50.8038 95.2356 52.5038 92.3356 51.6038 89.7356C51.2203 90.4987 50.6857 91.1759 50.0325 91.726C49.3792 92.2761 48.621 92.6876 47.8038 92.9356Z" fill="#66304B"/>
<path d="M43.6038 93.3356C45.9038 98.3356 80.8038 89.1356 80.8038 89.1356L81.2037 87.5356C81.2037 87.5356 53.1038 86.6356 47.8038 87.5356C42.5038 88.4356 42.7038 91.3356 43.6038 93.3356Z" fill="#FFB882"/>
<path d="M45.5038 91.5355C45.2449 90.9987 45.1274 90.4046 45.1624 89.8096C45.1974 89.2145 45.3837 88.6383 45.7038 88.1355C42.3038 89.5355 41.8038 92.2355 42.6038 93.9355C44.8038 98.8355 80.8038 89.1355 80.8038 89.1355L81.2038 87.5355H80.9038C72.4038 89.7355 47.3038 95.7355 45.5038 91.5355Z" fill="#FF9566"/>
<path d="M79.2039 148.135L101.804 214.436H103.204L94.6039 148.336L79.2039 148.135Z" fill="#FFB882"/>
<path d="M96.5039 160.836L112.904 214.136H114.304L111.804 161.036L96.5039 160.836Z" fill="#FFB882"/>
<path d="M128.104 160.636H116.404L115.204 198.536C115.204 198.536 87.8038 198.436 78.2038 195.636C74.8038 187.536 78.9038 148.936 82.9038 144.636C86.9038 140.336 107.904 138.136 107.904 138.136C107.904 138.136 106.104 136.336 109.104 135.036C112.104 133.736 135.904 136.336 135.904 136.336C135.904 136.336 144.604 158.836 128.104 160.636Z" fill="#AD254F"/>
<path d="M106.004 138.336C99.9037 139.236 87.2038 141.836 84.6038 144.636C100.904 144.036 128.504 149.436 128.604 144.236C128.704 141.536 117.004 139.336 106.004 138.336Z" fill="#C63E62"/>
<path d="M113.504 114.136C111.104 120.636 106.004 135.336 107.104 135.536C115.104 136.636 131.504 142.136 138.104 141.836C139.004 136.536 137.804 93.5355 127.004 89.6355C123.904 88.5355 113.504 114.136 113.504 114.136Z" fill="#FFC84D"/>
<path d="M127.004 89.6355C123.904 88.5355 113.504 114.136 113.504 114.136C111.104 120.636 106.004 135.336 107.104 135.536H108.004C109.204 127.036 113.004 121.936 118.504 122.436C124.004 122.936 129.904 129.536 129.104 139.236C129.104 139.636 129.004 140.036 129.004 140.536C131.98 141.291 135.034 141.694 138.104 141.736C139.004 136.536 137.804 93.5355 127.004 89.6355Z" fill="#FFA63B"/>
<path d="M110.604 90.8356C109.804 100.136 106.304 115.136 107.604 116.936C108.904 118.736 125.104 118.036 126.104 116.436C127.104 114.836 130.004 92.8356 127.804 90.1356C125.604 87.4356 110.804 88.5356 110.604 90.8356Z" fill="#FFC84D"/>
<path d="M112.804 89.4356C112.704 89.7356 112.704 90.0356 112.604 90.4356C112.104 94.0356 114.104 96.5356 117.104 96.1356C120.104 95.7356 122.904 92.5356 123.304 88.9356C123.34 88.895 123.368 88.8475 123.385 88.7959C123.402 88.7444 123.408 88.6898 123.404 88.6356C119.851 88.3224 116.27 88.5926 112.804 89.4356Z" fill="#C63E62"/>
<path d="M124.604 91.4355C123.404 93.4355 120.604 113.736 119.604 115.136C118.604 116.536 112.904 117.136 107.604 116.936C108.904 118.736 125.304 118.736 126.404 117.236C127.504 115.736 125.704 91.7355 124.604 91.4355Z" fill="#FFA63B"/>
<path d="M102.904 119.236C93.6039 120.736 78.2039 126.936 78.2039 126.936V127.836C78.2039 127.836 94.5039 126.436 100.804 126.336C109.504 126.136 109.304 118.236 102.904 119.236Z" fill="#FFB882"/>
<path d="M103.904 119.136C103.204 120.636 100.004 121.536 96.9039 122.136C92.0039 123.136 82.5039 126.436 78.2039 127.636V127.836C78.2039 127.836 94.5039 126.436 100.804 126.336C109.004 126.136 109.304 119.036 103.904 119.136Z" fill="#FF9566"/>
<path d="M85.7038 125.635C83.9038 125.935 83.1039 126.236 82.6039 126.336C82.1039 126.436 80.7039 126.636 80.3039 126.036C79.9039 125.436 79.7038 122.635 80.5038 122.635C81.3038 122.635 83.3039 123.936 85.6039 124.736C87.9039 125.536 85.7038 125.635 85.7038 125.635Z" fill="#FFB882"/>
<path d="M81.7038 126.236C80.4038 126.436 76.9039 127.236 76.6039 126.936C76.3039 126.636 81.0038 125.036 81.0038 125.036L81.7038 126.236Z" fill="#FFB882"/>
<path d="M84.6037 124.536C83.3037 123.336 82.0037 120.536 81.6037 120.536C81.2037 120.536 82.8038 124.736 82.8038 124.736L84.6037 124.536Z" fill="#FFB882"/>
<path d="M81.1039 125.036C79.8039 124.836 76.0039 124.535 75.7039 124.135C75.4039 123.735 80.6039 123.635 80.6039 123.635L81.1039 125.036Z" fill="#FFB882"/>
<path d="M81.7038 124.636C80.7038 123.936 77.3039 122.036 77.1039 121.436C76.9039 120.836 81.6039 123.036 81.6039 123.036L81.7038 124.636Z" fill="#FFB882"/>
<path d="M120.504 121.536C123.004 111.936 122.404 91.0356 124.804 90.1356C127.204 89.2356 128.304 89.6356 129.504 94.2356C130.704 98.8356 129.504 123.536 126.204 125.536C122.904 127.536 120.504 121.536 120.504 121.536Z" fill="#FFC84D"/>
<path d="M130.104 94.3356C129.204 90.8356 127.704 89.7356 126.404 89.7356C126.958 90.8787 127.361 92.0888 127.604 93.3356C128.804 98.0356 126.904 123.136 123.604 125.136L123.204 125.336C123.723 125.697 124.324 125.922 124.953 125.992C125.582 126.062 126.218 125.974 126.804 125.736C130.704 123.836 131.404 98.9356 130.104 94.3356Z" fill="#FFAE43"/>
<path d="M128.804 123.936C129.204 121.736 127.104 119.536 124.104 118.936C121.104 118.336 118.304 119.736 117.904 121.836C117.504 123.936 119.604 126.236 122.604 126.836C125.604 127.436 128.404 126.036 128.804 123.936Z" fill="#C63E62"/>
<path d="M123.304 126.236C110.304 126.236 95.4038 124.736 95.4038 124.736V123.836C95.4038 123.836 114.604 120.036 120.004 119.436C127.404 118.536 129.104 126.236 123.304 126.236Z" fill="#FFB882"/>
<path d="M124.204 119.936C124.604 121.636 123.504 123.236 120.504 123.436C110.904 124.036 100.604 123.936 95.5039 123.836V124.736C95.5039 124.736 110.404 126.236 123.404 126.236C127.804 126.236 127.804 121.636 124.204 119.936Z" fill="#FF9566"/>
<path d="M99.9038 123.936C98.1038 124.236 97.3039 124.636 96.8039 124.636C96.3039 124.636 94.9038 124.936 94.5038 124.436C94.1038 123.936 93.9038 121.036 94.7038 121.036C95.5038 121.036 97.5038 122.336 99.7038 123.036C101.904 123.736 99.9038 123.936 99.9038 123.936Z" fill="#FFB882"/>
<path d="M95.9039 124.536C94.6039 124.736 91.1039 125.536 90.7039 125.236C90.3039 124.936 95.2039 123.436 95.2039 123.436L95.9039 124.536Z" fill="#FFB882"/>
<path d="M98.8039 122.936C97.4039 121.736 96.2039 118.836 95.8039 118.936C95.4039 119.036 96.9039 123.036 96.9039 123.036L98.8039 122.936Z" fill="#FFB882"/>
<path d="M95.2038 123.436C94.0038 123.236 90.2038 122.936 89.9038 122.436C89.6038 121.936 94.7038 122.036 94.7038 122.036L95.2038 123.436Z" fill="#FFB882"/>
<path d="M95.9038 122.936C94.9038 122.236 91.5038 120.436 91.3038 119.836C91.1038 119.236 95.8038 121.336 95.8038 121.336L95.9038 122.936Z" fill="#FFB882"/>
<path d="M80.1039 122.836H57.5039V126.086H80.1039V122.836Z" fill="#9AB7B3"/>
<path d="M48.3037 111.135C49.3037 119.635 56.9037 126.336 68.8037 126.336C80.7037 126.336 88.4037 119.635 89.4037 111.135H48.3037Z" fill="#9AB7B3"/>
<path d="M54.4038 111.936C55.2038 118.436 60.5038 123.536 68.8038 123.536C77.1038 123.536 82.5038 118.436 83.2038 111.936H54.4038Z" fill="#B3C6C3"/>
<g style="mix-blend-mode:overlay" opacity="0.56">
<g style="mix-blend-mode:overlay">
<path d="M89.0037 113.036H48.6038C48.7038 113.436 48.9037 113.836 49.0037 114.336H88.7037L89.0037 113.036Z" fill="#F4E2CB"/>
</g>
<g style="mix-blend-mode:overlay">
<path d="M88.1038 115.736H49.5037L49.8038 116.336H87.8038L88.1038 115.736Z" fill="#F4E2CB"/>
</g>
</g>
<path d="M51.5038 32.5355L45.1039 26.5355C45.1039 26.5355 42.2039 33.2355 41.2039 48.2355C44.8039 54.9355 51.4039 53.0355 51.6039 48.6355C51.4039 45.7355 51.5038 32.5355 51.5038 32.5355Z" fill="#FFB882"/>
<path d="M122.304 88.9355L119.504 74.9355L111.604 82.9355V88.4355C111.604 88.4355 112.604 93.9355 116.704 94.1355C120.804 94.3355 122.304 88.9355 122.304 88.9355Z" fill="#FFB882"/>
<path d="M2.70386 215.736H12.5038C12.5038 215.736 6.20385 210.036 4.50385 211.236C2.80385 212.436 2.70386 215.736 2.70386 215.736Z" fill="#E5CB9C"/>
<path d="M45.9037 215.736H57.4037C57.4037 215.736 49.0037 210.236 47.3037 211.336C45.6037 212.436 45.9037 215.736 45.9037 215.736Z" fill="#E5CB9C"/>
<path d="M104.404 215.736H96.5039C96.5039 215.736 100.704 210.336 102.204 211.536C103.704 212.736 104.404 215.736 104.404 215.736Z" fill="#E5CB9C"/>
<path d="M116.104 215.736H108.204C108.204 215.736 112.504 210.336 114.004 211.536C115.504 212.736 116.104 215.736 116.104 215.736Z" fill="#E5CB9C"/>
<path d="M105.604 136.836H31.6038V141.086H105.604V136.836Z" fill="#E0CCAF"/>
<path d="M30.7038 215.736L34.9038 128.236H28.9038V215.736H30.7038Z" fill="#E0CCAF"/>
<path d="M29.2038 215.736L33.4038 128.236H27.4038V215.736H29.2038Z" fill="#F4E2CB"/>
<path d="M56.5037 215.736L60.6038 128.236H54.6038V215.736H56.5037Z" fill="#E0CCAF"/>
<path d="M106.504 215.736L102.404 128.236H108.404V215.736H106.504Z" fill="#E0CCAF"/>
<path d="M80.8038 215.736L76.6038 128.236H82.6038V215.736H80.8038Z" fill="#E0CCAF"/>
<path d="M78.9039 215.736L74.7039 128.236H80.8039V215.736H78.9039Z" fill="#F4E2CB"/>
<path d="M79.0037 136.836H29.8037V141.086H79.0037V136.836Z" fill="#F4E2CB"/>
<path d="M106.804 127.036H27.3037V131.286H106.804V127.036Z" fill="#E0CCAF"/>
<path d="M111.404 125.336H25.9038V129.586H111.404V125.336Z" fill="#E0CCAF"/>
<path d="M81.1038 125.336H25.9038V129.586H81.1038V125.336Z" fill="#F4E2CB"/>
<g style="mix-blend-mode:multiply" opacity="0.6">
<path d="M49.8038 66.6356C54.8038 66.6356 58.1037 62.4356 59.0037 56.1356C58.3801 54.1661 57.5768 52.258 56.6038 50.4356C56.6038 50.3356 56.6037 50.2356 56.5037 50.2356C56.4037 50.2356 55.1038 49.5356 53.3038 49.1356L51.6038 48.6356C51.4038 45.7356 51.5037 32.6356 51.5037 32.6356L45.1038 26.6356C45.1038 26.6356 42.2037 33.3356 41.2037 48.2356L40.0037 48.4356C38.422 48.5066 36.8797 48.9521 35.5037 49.7356C35.0037 49.7356 34.3037 50.2356 33.7037 51.4356L33.1038 52.7356C37.3038 60.8356 43.9038 66.6356 49.8038 66.6356Z" fill="#843131"/>
</g>
<path d="M55.2039 48.6355C47.2039 43.1355 42.8039 36.0356 43.8039 29.0356C44.8039 22.0356 58.7039 12.1355 61.7039 13.4355C64.7039 14.7355 67.8039 23.7356 65.4039 32.1356C61.9039 44.2356 55.2039 48.6355 55.2039 48.6355Z" fill="#FFB882"/>
<path d="M44.5037 32.6356C45.0037 23.7356 70.9037 13.6356 59.9037 11.9356C46.8037 9.83556 45.0037 15.3356 42.5037 19.3356C40.0037 23.3356 44.5037 32.6356 44.5037 32.6356Z" fill="#7F4242"/>
<path d="M44.6039 34.0356C39.4039 31.6356 39.3039 25.2356 41.4039 24.1356C43.5039 23.0356 45.3039 25.8356 45.4039 28.1356C45.4022 30.1292 45.1331 32.1135 44.6039 34.0356Z" fill="#FFB882"/>
<path d="M44.0037 32.2356C40.6037 30.7356 40.6037 26.5356 41.9037 25.8356C43.2037 25.1356 44.4037 26.9356 44.5037 28.4356C44.488 29.7176 44.3202 30.9932 44.0037 32.2356Z" fill="#EA7B59"/>
<path d="M43.9038 32.5355C41.7038 31.5355 41.7038 28.8355 42.5038 28.4355C43.3038 28.0355 44.2038 29.1355 44.2038 30.0355C44.2228 30.8789 44.1218 31.7206 43.9038 32.5355Z" fill="#FFB882"/>
<g style="mix-blend-mode:multiply" opacity="0.6">
<path d="M114.504 105.436C125.104 103.336 126.104 92.0356 130.304 92.3356C129.61 91.3302 128.684 90.5069 127.604 89.9355C126.704 89.1355 124.604 88.6356 122.204 88.5356L119.504 74.9355L111.604 82.9355V88.4355C111.699 88.8473 111.833 89.2491 112.004 89.6355C111.104 89.9355 110.504 90.3356 110.504 90.8356C109.604 91.0356 108.604 94.1356 107.704 98.3356C107.304 100.236 111.204 106.136 114.504 105.436Z" fill="#843131"/>
</g>
<path d="M108.304 94.0356C105.304 94.0356 99.0038 86.7356 100.704 75.8356C102.404 64.9356 104.704 63.1355 110.804 64.6355C116.904 66.1355 124.504 68.8356 122.904 78.0356C121.304 87.2356 116.904 94.0356 108.304 94.0356Z" fill="#FFB882"/>
<path d="M119.904 83.6356C113.504 74.1356 115.804 65.6356 108.704 64.2356C101.604 62.8356 115.604 50.2356 123.804 61.0356C132.004 71.8356 119.904 83.6356 119.904 83.6356Z" fill="#B2937F"/>
<path d="M118.904 85.6356C122.404 82.5356 125.104 80.8356 123.804 78.1356C123.537 77.6623 123.139 77.2768 122.657 77.0259C122.176 76.7751 121.631 76.6697 121.091 76.7227C120.55 76.7757 120.037 76.9847 119.613 77.3244C119.189 77.664 118.873 78.1196 118.704 78.6356C118.104 80.8356 118.904 85.6356 118.904 85.6356Z" fill="#FFB882"/>
<path d="M124.904 57.8356C124.904 55.4356 118.704 54.4356 113.404 54.5356C108.104 54.6356 103.804 56.7356 103.904 59.0356C104.004 61.3356 105.804 64.4356 111.104 64.3356C116.404 64.2356 125.004 60.1356 124.904 57.8356Z" fill="#C6AA97"/>
<path d="M120.104 83.1355C121.904 81.6355 123.404 80.6355 122.704 79.1355C122.549 78.8697 122.32 78.6543 122.046 78.515C121.772 78.3757 121.463 78.3184 121.157 78.35C120.851 78.3817 120.56 78.5009 120.32 78.6935C120.08 78.886 119.901 79.1436 119.804 79.4355C119.687 80.6769 119.789 81.9291 120.104 83.1355Z" fill="#EA7B59"/>
<path d="M119.904 83.5356C121.204 82.4356 122.304 81.7356 121.804 80.6356C121.699 80.4508 121.542 80.3006 121.353 80.203C121.164 80.1055 120.951 80.0649 120.739 80.086C120.527 80.1072 120.326 80.1893 120.16 80.3223C119.994 80.4553 119.871 80.6336 119.804 80.8356C119.712 81.7359 119.746 82.6445 119.904 83.5356Z" fill="#FFB882"/>
<path d="M52.2039 27.5356C52.6039 26.2356 53.7039 25.1356 54.7039 25.2356C55.7039 25.3356 56.3039 26.3356 56.0039 27.6356C55.8809 28.2596 55.5627 28.8283 55.0954 29.2597C54.628 29.6911 54.0357 29.9628 53.4039 30.0356C52.4039 30.0356 51.8039 28.8356 52.2039 27.5356Z" fill="#513D39"/>
<path d="M61.0039 29.4355C61.3039 28.1355 62.3039 27.2355 63.1039 27.4355C63.9039 27.6355 64.3039 28.8355 64.0039 30.1355C63.7039 31.4355 62.704 32.3355 61.804 32.1355C60.904 31.9355 60.6039 30.7355 61.0039 29.4355Z" fill="#513D39"/>
<path d="M64.8039 29.6356C63.7184 28.4687 62.2763 27.6949 60.7039 27.4356C61.0463 27.1837 61.4519 27.0317 61.8756 26.9963C62.2993 26.961 62.7244 27.0439 63.1039 27.2356C63.5488 27.4828 63.9326 27.8269 64.2268 28.2423C64.521 28.6576 64.7183 29.1338 64.8039 29.6356Z" fill="#513D39"/>
<path d="M51.4038 26.1356C51.4038 26.1356 54.5038 25.0356 56.7038 25.6356C56.7038 25.6356 56.4038 24.6356 54.7038 24.6356C53.4549 24.7052 52.2775 25.2404 51.4038 26.1356Z" fill="#513D39"/>
<path d="M65.6038 26.1356L65.9038 25.7356C65.5612 24.8419 64.9952 24.051 64.2599 23.4382C63.5247 22.8255 62.6446 22.4114 61.7038 22.2356L61.4038 23.2356C62.2914 23.3264 63.1417 23.6398 63.8759 24.1467C64.6101 24.6537 65.2044 25.3378 65.6038 26.1356Z" fill="#BA4247"/>
<path d="M51.5038 23.8356C53.4038 22.4356 56.9038 22.3356 57.8038 22.4356L58.0038 21.3356C55.6423 21.3534 53.3415 22.0855 51.4038 23.4356L51.5038 23.8356Z" fill="#BA4247"/>
<path d="M56.0037 34.6356C56.3604 34.9987 56.816 35.2492 57.3137 35.3558C57.8114 35.4625 58.3295 35.4207 58.8037 35.2356C59.0516 35.155 59.2742 35.0111 59.4496 34.8182C59.6249 34.6253 59.747 34.3901 59.8037 34.1356C59.9022 34.3088 59.9595 34.5023 59.9713 34.7012C59.9831 34.9001 59.9491 35.0991 59.8718 35.2827C59.7945 35.4663 59.6759 35.6297 59.5254 35.7603C59.3749 35.8908 59.1964 35.985 59.0037 36.0356C58.5422 36.2863 58.0062 36.3636 57.4927 36.2535C56.9792 36.1435 56.522 35.8534 56.2037 35.4356C56.1154 35.3242 56.0519 35.1951 56.0174 35.0572C55.9829 34.9192 55.9782 34.7755 56.0037 34.6356Z" fill="#EA7B59"/>
<path d="M53.5038 37.4355L59.5038 38.9355C59.5038 38.9355 57.9038 43.6356 55.4038 43.0356C52.9038 42.4356 53.5038 37.4355 53.5038 37.4355Z" fill="#4C241E"/>
<path d="M58.3039 40.7356C58.6115 40.2379 58.8471 39.6993 59.0038 39.1356L53.9038 37.8356C53.6577 38.576 53.5558 39.3568 53.6038 40.1356L58.3039 40.7356Z" fill="#FFFEF8"/>
<path d="M113.604 77.6356C113.633 77.8223 113.621 78.0131 113.569 78.1947C113.516 78.3763 113.425 78.5444 113.302 78.6871C113.178 78.8299 113.024 78.944 112.852 79.0215C112.68 79.0989 112.493 79.1379 112.304 79.1356C111.94 79.1121 111.598 78.957 111.34 78.6994C111.082 78.4418 110.927 78.0992 110.904 77.7356C110.89 77.5517 110.913 77.3669 110.971 77.1918C111.029 77.0167 111.121 76.8548 111.242 76.7154C111.363 76.576 111.51 76.4619 111.675 76.3795C111.84 76.2972 112.02 76.2483 112.204 76.2356C112.391 76.2205 112.58 76.2464 112.757 76.3114C112.934 76.3764 113.094 76.4791 113.227 76.6122C113.36 76.7454 113.463 76.9058 113.528 77.0825C113.593 77.2592 113.619 77.4479 113.604 77.6356Z" fill="#672927"/>
<path d="M110.604 76.6356C111.266 76.4162 111.978 76.3939 112.652 76.5714C113.327 76.7489 113.935 77.1186 114.404 77.6356C114.295 77.1838 114.058 76.7733 113.721 76.4538C113.383 76.1343 112.961 75.9195 112.504 75.8356C112.148 75.8262 111.795 75.8927 111.467 76.0306C111.14 76.1686 110.845 76.3748 110.604 76.6356Z" fill="#672927"/>
<path d="M102.804 77.5355C102.824 77.8114 102.926 78.075 103.096 78.2931C103.266 78.5112 103.497 78.6741 103.759 78.7611C104.022 78.8481 104.304 78.8555 104.571 78.7821C104.838 78.7088 105.077 78.5581 105.258 78.3491C105.439 78.1401 105.554 77.8821 105.589 77.6077C105.624 77.3333 105.576 77.0548 105.453 76.8073C105.329 76.5598 105.135 76.3544 104.895 76.217C104.655 76.0797 104.38 76.0165 104.104 76.0355C103.742 76.0843 103.41 76.2635 103.17 76.5397C102.931 76.8159 102.801 77.1701 102.804 77.5355Z" fill="#672927"/>
<path d="M105.704 76.3356C105.028 76.1581 104.314 76.187 103.655 76.4187C102.995 76.6504 102.42 77.0742 102.004 77.6356C102.099 77.1835 102.318 76.7666 102.635 76.4312C102.953 76.0959 103.358 75.8551 103.804 75.7356C104.145 75.6608 104.501 75.6769 104.834 75.7822C105.167 75.8874 105.467 76.0783 105.704 76.3356Z" fill="#672927"/>
<path d="M109.704 82.7355C109.604 83.0355 107.304 83.1355 107.004 82.6355C106.787 82.0897 106.787 81.4814 107.004 80.9355H106.904C106.604 81.7355 106.204 82.8355 106.404 83.1355C106.604 83.4355 109.204 83.5355 109.504 83.2355C109.804 82.9355 109.904 82.4355 109.704 82.7355Z" fill="#EA7B59"/>
<path d="M104.804 85.6355H112.204V85.8355C111.304 87.3355 109.804 88.5355 108.404 88.5355C107.004 88.5355 105.704 87.3355 104.804 85.6355Z" fill="#6F140F"/>
<path d="M105.504 85.8356H111.504V86.0356C110.804 87.2356 109.404 87.3356 108.304 87.3356C107.204 87.3356 106.204 87.1356 105.504 85.8356Z" fill="#FFFAF2"/>
<path d="M109.804 89.0355C109.804 88.9355 109.304 89.2355 108.604 89.2355C107.904 89.2355 107.304 88.9355 107.304 89.0355C107.304 89.1355 107.904 89.7355 108.604 89.7355C108.852 89.7577 109.1 89.7023 109.315 89.5769C109.53 89.4514 109.701 89.2623 109.804 89.0355Z" fill="#FF9566"/>
<path d="M100.604 76.9355C100.995 75.7023 101.816 74.6505 102.917 73.9715C104.018 73.2924 105.326 73.0313 106.604 73.2355L106.804 72.2355C102.704 71.8355 101.104 73.4355 100.604 76.9355Z" fill="#C6AA97"/>
<path d="M116.004 76.5356C115.486 75.3487 114.61 74.3536 113.498 73.69C112.386 73.0264 111.094 72.7277 109.804 72.8356L109.604 72.0356C113.204 71.6356 114.904 73.0356 116.004 76.5356Z" fill="#C6AA97"/>
<path d="M110.304 77.6355H110.204C110.326 77.9967 110.521 78.3291 110.776 78.6124C111.031 78.8957 111.341 79.1239 111.687 79.2831C112.034 79.4423 112.409 79.529 112.79 79.538C113.171 79.547 113.55 79.4781 113.904 79.3355C113.204 79.4248 112.494 79.3122 111.856 79.011C111.218 78.7098 110.679 78.2325 110.304 77.6355Z" fill="#FF9566"/>
<path d="M106.004 77.3356H106.104C106.011 77.7003 105.846 78.0427 105.619 78.3423C105.391 78.6419 105.105 78.8925 104.779 79.0791C104.452 79.2658 104.091 79.3847 103.717 79.4288C103.344 79.4729 102.965 79.4412 102.604 79.3356C103.297 79.3345 103.978 79.1487 104.575 78.7971C105.173 78.4456 105.666 77.9411 106.004 77.3356Z" fill="#FF9566"/>
<path d="M77.8039 87.5356C79.0197 87.3929 80.2231 87.1589 81.4038 86.8356C81.8038 86.9356 83.3038 86.7356 83.7038 87.3356C84.1038 87.9356 84.0038 89.4356 83.2038 89.5356C80.8038 90.0356 79.9039 88.2356 76.3039 88.1356C74.7039 88.0356 77.8039 87.5356 77.8039 87.5356Z" fill="#FFB882"/>
<path d="M82.4038 87.0355C83.6038 86.9355 87.2038 85.4355 87.5038 85.7355C87.8038 86.0355 83.1038 88.1355 83.1038 88.1355L82.4038 87.0355Z" fill="#FFB882"/>
<path d="M79.8037 88.3356C81.2037 89.6356 83.5037 91.6356 84.0037 91.6356C84.5037 91.6356 81.7037 88.4356 81.7037 88.4356L79.8037 88.3356Z" fill="#FFB882"/>
<path d="M82.9038 87.8356C84.2038 88.1356 87.3038 86.1356 87.6038 86.6356C87.9038 87.1356 83.4038 89.1356 83.4038 89.1356L82.9038 87.8356Z" fill="#FFB882"/>
<path d="M82.3037 88.5356C83.4037 89.2356 87.1037 87.6356 87.3037 88.1356C87.5037 88.6356 82.5037 90.0356 82.5037 90.0356L82.3037 88.5356Z" fill="#FFB882"/>
<path d="M74.2037 60.9356C75.4037 59.4356 76.1038 58.8356 76.3038 58.4356C76.5038 58.0356 77.2037 57.5356 77.0037 56.8356C76.8037 56.1356 74.5038 54.6356 74.1038 55.3356C73.7038 56.0356 74.0037 57.9356 73.5037 60.3356C73.0037 62.7356 74.2037 60.9356 74.2037 60.9356Z" fill="#FFB882"/>
<path d="M76.2037 58.7355C77.0037 57.6355 77.8037 56.5355 77.7037 56.1355C77.6037 55.7355 75.6038 57.5355 75.6038 57.5355L76.2037 58.7355Z" fill="#FFB882"/>
<path d="M73.9038 59.4356C73.5038 57.5356 72.5038 55.7356 72.8038 55.4356C73.1038 55.1356 74.9038 57.7356 74.9038 57.7356L73.9038 59.4356Z" fill="#FFB882"/>
<path d="M75.8037 57.7356C76.3037 56.5356 76.9037 55.1356 76.6037 54.6356C76.3037 54.1356 74.8037 56.6356 74.8037 56.6356L75.8037 57.7356Z" fill="#FFB882"/>
<path d="M75.4039 57.0356C75.3039 55.6356 75.4039 54.2356 75.0039 53.7356C74.6039 53.2356 74.0039 56.1356 74.0039 56.1356L75.4039 57.0356Z" fill="#FFB882"/>
<path d="M84.8039 76.9356C78.1039 76.1356 78.1039 55.9356 74.6039 56.2356H73.2039C77.5039 57.0356 79.4039 81.7356 85.7039 82.3356C92.0039 82.9356 91.4039 76.8356 91.4039 76.8356C91.4039 76.8356 90.2039 77.6356 84.8039 76.9356Z" fill="#5888A5"/>
<path d="M89.4039 77.5355C87.8864 77.808 86.3393 77.8753 84.8039 77.7355C83.9919 77.5749 83.2545 77.1536 82.7039 76.5355V76.7355C82.9039 78.9355 84.5039 80.6355 86.4039 80.5355C87.17 80.4496 87.8841 80.1059 88.4292 79.5609C88.9743 79.0158 89.318 78.3016 89.4039 77.5355Z" fill="#7AB1CC"/>
<path d="M74.6038 56.7356C74.7038 56.5356 74.4038 56.1356 73.9038 55.8356C73.4038 55.5356 72.9038 55.3356 72.8038 55.5356C72.7038 55.7356 72.9038 56.0356 73.4038 56.4356C73.9038 56.8356 74.5038 56.9356 74.6038 56.7356Z" fill="#FFB882"/>
<path d="M77.2038 57.5355C77.7038 56.9355 77.9038 56.3355 77.7038 56.1355C77.5038 55.9355 76.9038 56.3355 76.4038 56.9355C75.9038 57.5355 75.8038 58.1355 76.0038 58.3355C76.2038 58.5355 76.8038 58.1355 77.2038 57.5355Z" fill="#FFB882"/>
<path d="M76.5038 56.0356C76.8038 55.3356 76.8038 54.6356 76.6038 54.5356C76.4038 54.4356 75.8038 54.9356 75.5038 55.6356C75.2038 56.3356 75.2038 56.9356 75.5038 57.0356C75.8038 57.1356 76.2038 56.7356 76.5038 56.0356Z" fill="#FFB882"/>
<path d="M75.4038 55.1356C75.4038 54.4356 75.2038 53.8356 74.9038 53.8356C74.6038 53.8356 74.4038 54.4356 74.4038 55.1356C74.4038 55.8356 74.6038 56.5356 74.9038 56.5356C75.2038 56.5356 75.4038 55.9356 75.4038 55.1356Z" fill="#FFB882"/>
</svg>
