<svg width="19" height="20" viewBox="0 0 19 20" fill="none" xmlns="http://www.w3.org/2000/svg">
<path fill-rule="evenodd" clip-rule="evenodd" d="M19 10.2148C19 9.54482 18.9399 8.90058 18.8282 8.2821H9.92908V11.9371H15.0143C14.7952 13.1182 14.1295 14.1189 13.1288 14.7889V17.1598H16.1825C17.9692 15.5148 19 13.0924 19 10.2148Z" fill="#4285F4"/>
<path fill-rule="evenodd" clip-rule="evenodd" d="M9.92896 19.4489C12.4802 19.4489 14.619 18.6028 16.1824 17.1597L13.1287 14.7889C12.2826 15.3558 11.2003 15.6908 9.92896 15.6908C7.46796 15.6908 5.38491 14.0287 4.64189 11.7953H1.48511V14.2434C3.03988 17.3315 6.23531 19.4489 9.92896 19.4489Z" fill="#34A853"/>
<path fill-rule="evenodd" clip-rule="evenodd" d="M4.64202 11.7955C4.45305 11.2286 4.34567 10.623 4.34567 10.0002C4.34567 9.37747 4.45305 8.77189 4.64202 8.20495V5.75684H1.48524C0.845295 7.03243 0.480225 8.47553 0.480225 10.0002C0.480225 11.5249 0.845295 12.968 1.48524 14.2436L4.64202 11.7955Z" fill="#FBBC05"/>
<path fill-rule="evenodd" clip-rule="evenodd" d="M9.92897 4.30934C11.3162 4.30934 12.5618 4.78608 13.541 5.72238L16.2511 3.01227C14.6147 1.48757 12.4759 0.55127 9.92897 0.55127C6.23531 0.55127 3.03988 2.66868 1.48511 5.75674L4.64189 8.20486C5.38492 5.97149 7.46796 4.30934 9.92897 4.30934Z" fill="#EA4335"/>
</svg>
